<?xml version="1.0" encoding="iso-8859-1"?>
<!-- Generator: Adobe Illustrator 24.3.0, SVG Export Plug-In . SVG Version: 6.00 Build 0)  -->
<svg version="1.1" id="_1d110" xmlns="http://www.w3.org/2000/svg" xmlns:xlink="http://www.w3.org/1999/xlink" x="0px" y="0px"
	 viewBox="0 0 300 300" style="enable-background:new 0 0 300 300;" xml:space="preserve">
<path d="M148.9,116.187c-14.648,0-27.831,2.645-39.55,7.934c-11.346,5.026-21.561,12.292-30.03,21.362
	c-8.349,9.033-14.859,19.606-19.165,31.128c-4.479,11.816-6.754,24.353-6.713,36.989H23.413c0-20.18,3.174-38.613,9.522-55.3
	s15.136-30.928,26.365-42.724c11.321-11.862,25.003-21.218,40.163-27.466c15.541-6.507,32.59-9.762,51.147-9.765
	s35.523,3.212,50.9,9.643c15.047,6.202,28.61,15.521,39.795,27.344c11.146,11.8,19.813,26.042,26,42.725s9.28,35.197,9.277,55.542
	h-30.024c0.035-12.669-2.369-25.227-7.08-36.988c-4.583-11.581-11.383-22.155-20.02-31.128
	c-18.475-19.074-44.005-29.676-70.557-29.3L148.9,116.187z M149.633,221.655c-3.655,0.018-7.273-0.731-10.62-2.2
	c-3.231-1.393-6.171-3.38-8.667-5.859c-2.469-2.48-4.419-5.426-5.738-8.667c-1.39-3.367-2.096-6.977-2.075-10.62
	c-0.083-7.324,2.724-14.386,7.813-19.654c2.454-2.53,5.405-4.525,8.667-5.859c3.367-1.389,6.977-2.094,10.62-2.075
	c3.655-0.017,7.273,0.732,10.62,2.2c6.617,2.873,11.897,8.153,14.77,14.77c2.931,6.777,2.931,14.464,0,21.241
	c-1.407,3.253-3.439,6.197-5.981,8.667c-2.556,2.462-5.533,4.446-8.789,5.859c-3.347,1.467-6.965,2.215-10.619,2.197H149.633z"/>
</svg>
