<?xml version="1.0" encoding="iso-8859-1"?>
<!-- Generator: Adobe Illustrator 24.3.0, SVG Export Plug-In . SVG Version: 6.00 Build 0)  -->
<svg version="1.1" id="&#x30EC;&#x30A4;&#x30E4;&#x30FC;_1"
	 xmlns="http://www.w3.org/2000/svg" xmlns:xlink="http://www.w3.org/1999/xlink" x="0px" y="0px" viewBox="0 0 300 300"
	 style="enable-background:new 0 0 300 300;" xml:space="preserve">
<g id="_1d15d">
	<path d="M164.5,219.58c-19.144,0-35.794-2.295-49.951-6.885c-14.157-4.59-26.023-10.547-35.6-17.871
		c-9.566-7.324-16.693-15.576-21.381-24.756c-4.513-8.485-6.924-17.929-7.031-27.539c0.012-8.058,1.813-16.014,5.274-23.291
		c3.722-7.778,9.185-14.595,15.966-19.922c7.128-5.758,16.015-10.348,26.661-13.769c10.646-3.421,23-5.13,37.062-5.127
		c18.942,0,35.544,2.246,49.805,6.738c14.261,4.492,26.175,10.4,35.742,17.725c9.567,7.324,16.696,15.576,21.387,24.756
		c4.537,8.581,6.948,18.126,7.031,27.832c-0.011,8.059-1.812,16.014-5.274,23.291c-3.721,7.779-9.184,14.596-15.966,19.922
		c-7.133,5.763-16.02,10.353-26.661,13.769C190.923,217.869,178.569,219.578,164.5,219.58z M163.328,204.053
		c8.982,0,16.306-1.172,21.973-3.516c5.09-1.948,9.655-5.058,13.33-9.082c3.179-3.63,5.484-7.941,6.738-12.6
		c1.24-4.485,1.879-9.115,1.9-13.769c0-2.147-0.098-4.295-0.293-6.445c-0.184-2.065-0.477-4.119-0.878-6.153
		c-1.546-8.095-3.952-16.001-7.178-23.584c-2.892-6.737-7.187-12.779-12.6-17.724c-5.816-5.133-12.652-8.978-20.06-11.28
		c-8.011-2.636-17.875-3.954-29.59-3.955c-8.986,0-16.31,1.172-21.973,3.516c-5.12,1.962-9.692,5.127-13.33,9.228
		c-3.141,3.656-5.441,7.958-6.738,12.6c-1.248,4.434-1.887,9.017-1.9,13.623c0,2.151,0.098,4.299,0.293,6.445
		c0.18,2.066,0.473,4.12,0.878,6.153c1.56,8.156,4.017,16.114,7.325,23.73c2.908,6.728,7.201,12.768,12.6,17.725
		c5.779,5.074,12.566,8.869,19.915,11.135c8.007,2.635,17.871,3.952,29.59,3.953L163.328,204.053z"/>
</g>
</svg>
