<?xml version="1.0" encoding="iso-8859-1"?>
<!-- Generator: Adobe Illustrator 24.3.0, SVG Export Plug-In . SVG Version: 6.00 Build 0)  -->
<svg version="1.1" id="&#x30EC;&#x30A4;&#x30E4;&#x30FC;_1"
	 xmlns="http://www.w3.org/2000/svg" xmlns:xlink="http://www.w3.org/1999/xlink" x="0px" y="0px" viewBox="0 0 150 300"
	 style="enable-background:new 0 0 150 300;" xml:space="preserve">
<g id="d_dotbelow">
	<path style="fill:#231815;" d="M87,278c0,6.6-5.4,12-12,12s-12-5.4-12-12s5.4-12,12-12S87,271.4,87,278z M127.4,118.2
		c0-29.7,0.6-54.3,2.7-81.6V36c0.2-1.6-1-3.1-2.7-3.3c-0.2,0-0.4,0-0.6,0c-0.6,0-1.2,0.3-1.8,0.3c-7.5,3.3-22.8,8.1-35.7,11.1
		c-1,0.7-1.5,1.8-1.5,3s0.7,2.3,1.8,2.7c15.9,4.2,16.2,5.1,16.2,19.5v55.5c-9.6-8.1-24.3-12.6-37.2-12.6
		c-45.3,0-64.5,41.1-64.5,74.4c0,34.5,16.5,69.3,59.1,69.3c17.1,0,33.9-8.7,42.9-23.4c0,8.7,0.3,18.6,3.3,22.5
		c11.7-3.3,20.7-4.8,35.7-7.5c1.2-2.1,1.2-4.8,0-6.9c-16.5-1.5-17.7-3-17.7-22.2L127.4,118.2L127.4,118.2z M106.4,185.4
		c0,17.1-1.2,29.1-3.6,35.1c-9,17.4-22.5,22.5-35.4,22.5c-31.5,0-38.7-32.7-38.7-59.4c0-33.6,15.3-60.9,42.6-60.9
		c16.8,0,30.3,11.4,32.7,18.6c1.5,5.1,2.4,18.9,2.4,29.4L106.4,185.4z"/>
</g>
</svg>
