<?xml version="1.0" encoding="iso-8859-1"?>
<!-- Generator: Adobe Illustrator 24.3.0, SVG Export Plug-In . SVG Version: 6.00 Build 0)  -->
<svg version="1.1" id="&#x30EC;&#x30A4;&#x30E4;&#x30FC;_1"
	 xmlns="http://www.w3.org/2000/svg" xmlns:xlink="http://www.w3.org/1999/xlink" x="0px" y="0px" viewBox="0 0 250 300"
	 style="enable-background:new 0 0 250 300;" xml:space="preserve">
<g id="m_dotbelow">
	<path style="fill:#231815;" d="M137,278c0,6.6-5.4,12-12,12s-12-5.4-12-12s5.4-12,12-12S137,271.4,137,278z M181.9,252.3
		c-1.5,0.1-2.9-1-3-2.5c0-0.1,0-0.1,0-0.2c0-1.8,0.9-3.5,2.4-4.5c15.6-1.8,17.4-4.2,18-10.8c1.2-15.9,1.2-29.1,1.2-42.3v-13.8
		c0-31.5-1.8-53.7-27.9-53.7c-24.6,0-36.9,20.1-36.9,40.2v41.4c0,36,0.6,38.7,18.3,38.7c1.4,1,2.3,2.5,2.4,4.2
		c0.1,1.7-1.3,3.2-3,3.3c-0.1,0-0.2,0-0.3,0H97c-2.1,0-3.3-1.2-3.3-3c0.1-1.9,1.1-3.5,2.7-4.5c13.8-1.5,15.6-3.9,16.2-11.1
		c1.2-15.9,1.2-24.3,1.2-39v-27c0-32.1-10.2-42.9-27.9-42.9c-23.4,0-37.2,18.9-37.2,39.9v33.6c0,45,0.6,46.5,20.4,46.5
		c1.2,1.1,2,2.6,2.1,4.2c0.1,1.7-1.2,3.2-2.9,3.3h-0.1H7.9c-1.7,0.1-3.2-1.3-3.3-3c0-0.1,0-0.2,0-0.3c0.1-1.7,1-3.2,2.4-4.2
		c14.7-1.5,17.1-3.3,18-10.5c1.2-8.7,1.5-17.1,1.5-31.5v-58.2c0-13.5-1.2-14.7-15-18.6c-1-0.7-1.7-1.8-1.8-3c0-1.3,0.8-2.6,2.1-3
		c10.6-2.5,20.9-5.8,30.9-9.9h0.9c2.7,0,3.6,2.1,3.6,5.7l-0.3,23.1c6.9-10.8,23.4-27.9,43.8-27.9c29.4,0,38.4,17.7,42.6,27.9
		c9-16.5,26.7-27.9,43.8-27.9c36.9,0,45.9,25.2,45.9,57v46.5c0,27,0.3,30.3,20.1,30.6c1.5,1.5,2.4,3,2.4,4.5s-1.3,2.7-2.8,2.7
		c-0.1,0-0.1,0-0.2,0H181.9z"/>
</g>
</svg>
