<?xml version="1.0" encoding="iso-8859-1"?>
<!-- Generator: Adobe Illustrator 24.3.0, SVG Export Plug-In . SVG Version: 6.00 Build 0)  -->
<svg version="1.1" id="&#x30EC;&#x30A4;&#x30E4;&#x30FC;_1"
	 xmlns="http://www.w3.org/2000/svg" xmlns:xlink="http://www.w3.org/1999/xlink" x="0px" y="0px" viewBox="0 0 300 300"
	 style="enable-background:new 0 0 300 300;" xml:space="preserve">
<g id="_23d34">
	<path d="M87.8,71.523h36.036c10.85,10.08,16.277,18.993,16.282,26.74h-55.81L87.8,71.523z M83.146,106.4h40.691
		c10.85,9.303,17.439,18.606,19.768,27.909H78.5L83.146,106.4z M129.654,106.4h77.9l-2.324,27.909h-55.815
		c8.526-5.418,10.659-10.458,6.4-15.12c-4.267-4.648-12.986-8.911-26.159-12.789 M129.656,71.526h80.22l-2.324,26.74h-62.785
		c9.303-6.979,11.242-12.794,5.817-17.444c-5.425-4.65-12.401-7.75-20.93-9.3 M97.1,194.765
		c-17.836,32.55-45.738,58.517-83.706,77.9l1.162,4.648c45.724-15.512,79.053-41.865,99.988-79.058l11.627-6.979l-18.606-15.113
		L97.1,186.624H19.2l11.627,11.627c6.979-2.324,15.505-3.486,25.578-3.486L97.1,194.765z M141.284,186.624v70.917
		c0,5.418-3.892,7.945-11.627,7.56c-7.756-0.4-18.608-1.367-32.557-2.9v4.648c20.146,4.655,32.16,12.019,36.043,22.092
		c17.038-4.648,25.564-13.561,25.578-26.74v-76.739c8.519,18.6,21.696,36.039,39.529,52.318
		c17.822,16.275,38.75,28.676,62.783,37.205c4.655-9.303,13.181-14.728,25.578-16.275v-4.655c-34.874-0.763-64.715-12-89.523-33.712
		c20.146-10.067,36.811-18.982,49.994-26.747l13.951-2.324l-18.6-20.923c-9.303,14.728-26.355,29.066-51.156,43.015
		c-10.087-9.303-20.94-22.866-32.557-40.691v-6.979l9.3-5.81l-27.9-12.789c0.763,14.728,1.151,27.904,1.162,39.529 M231.966,37.8
		H86.632l9.3-8.141l9.3-3.486L84.308,11.064C69.58,38.203,48.652,61.845,21.525,81.988l2.324,3.486
		c17.946-8.607,34.425-19.986,48.832-33.719l-5.81,46.508H14.553L26.18,109.89c6.972-2.327,15.498-3.49,25.578-3.49h13.951
		l-3.486,23.254l-9.3,8.141l15.113,13.951l10.465-9.3H202.9c0,4.655-1.745,7.755-5.236,9.3c-3.486,1.561-12.98,0.399-28.483-3.486
		l-1.162,4.648c17.038,4.655,25.951,11.631,26.74,20.93c3.087-0.763,7.56-2.709,13.37-5.817c5.817-3.087,10.274-11.613,13.37-25.578
		h48.832L249.4,121.517l-11.627,12.789h-15.11l2.324-27.909h56.973l-20.93-20.923L249.4,98.263h-24.413l2.331-25.578l8.134-6.979
		l-18.6-12.789l-8.141,10.465H87.8L73.843,50.593l6.979-4.648h183.7l-20.93-20.93L231.966,37.8z"/>
</g>
</svg>
