<?xml version="1.0" encoding="iso-8859-1"?>
<!-- Generator: Adobe Illustrator 24.3.0, SVG Export Plug-In . SVG Version: 6.00 Build 0)  -->
<svg version="1.1" id="&#x30EC;&#x30A4;&#x30E4;&#x30FC;_1"
	 xmlns="http://www.w3.org/2000/svg" xmlns:xlink="http://www.w3.org/1999/xlink" x="0px" y="0px" viewBox="0 0 300 300"
	 style="enable-background:new 0 0 300 300;" xml:space="preserve">
<g id="_26f20">
	<path d="M51.756,91.866H115.7v19.768H51.756V91.866z M51.756,119.766H115.7v19.768H51.756V119.766z M185.463,91.866h66.269v19.768
		h-66.269V91.866z M185.463,119.766h66.269v19.768h-66.269V119.766z M131.976,170.922h38.367v36.043h-38.367V170.922z M184.3,80.239
		l18.6-8.139l-1.162-9.3v-8.139H290.1l-19.769-23.254L255.218,46.52h-53.48V31.407l10.462-6.972l-27.9-13.951
		c0.763,9.296,1.15,16.27,1.162,20.923V46.52h-67.437V30.245L128.49,22.1l-27.9-11.62c0.763,7.756,1.151,14.73,1.162,20.923V46.52
		H9.9l12.792,10.465c8.043-1.574,16.221-2.353,24.416-2.324h54.642v15.113l-1.162,12.789l18.6-8.134l-1.162-10.465v-9.3h67.438
		V67.45L184.3,80.239z M105.235,170.924H115.7v36.043H57.573l11.62,10.465c8.042-1.577,16.221-2.355,24.416-2.324H115.7
		c-3.108,23.254-21.708,42.243-55.8,56.966l3.486,3.493c42.616-13.188,65.48-33.341,68.593-60.459h38.371v26.74
		c0,8.54-0.406,17.822-1.169,27.9l18.606-5.81c-0.797-8.114-1.185-16.263-1.162-24.416v-24.414h62.783L233.133,196.5l-15.12,10.465
		h-31.388v-36.041H234.3l-17.444-18.6l-12.794,10.466H77.334l11.627,10.465C96.703,171.708,102.128,170.931,105.235,170.924
		 M34.319,73.267c0.763,13.188,1.15,42.642,1.162,88.361c0,45.738-0.387,87.981-1.162,126.728l17.437-8.141V147.67H115.7v5.817
		l17.444-5.817c-0.784-8.519-1.174-18.981-1.169-31.388V94.19l9.3-8.134l-17.433-12.789L115.7,83.725H52.918L34.319,73.267z
		 M251.732,254.637c0,7.742-3.876,11.618-11.627,11.627c-6.972,0-18.212-0.775-33.719-2.324v5.81
		c12.39,2.324,20.916,4.65,25.578,6.979c4.655,2.324,7.357,6.573,8.141,12.789c18.606-6.216,27.906-15.906,27.9-29.071V93.028
		l10.465-5.81L262.2,70.936l-11.63,12.789h-63.945l-18.606-9.3c0.763,9.296,1.15,18.984,1.162,29.064V140.7l-1.162,16.275
		l17.444-4.648v-4.657h66.269V254.637z"/>
</g>
</svg>
