<?xml version="1.0" encoding="iso-8859-1"?>
<!-- Generator: Adobe Illustrator 24.3.0, SVG Export Plug-In . SVG Version: 6.00 Build 0)  -->
<svg version="1.1" id="&#x30EC;&#x30A4;&#x30E4;&#x30FC;_1"
	 xmlns="http://www.w3.org/2000/svg" xmlns:xlink="http://www.w3.org/1999/xlink" x="0px" y="0px" viewBox="0 0 300 300"
	 style="enable-background:new 0 0 300 300;" xml:space="preserve">
<g>
	<path d="M46.6,66c0,15.3-6.9,25.5-15,29.4c-6.9,3.9-16.5,3.6-19.2-3.3c-2.1-6,2.4-11.4,8.4-14.4c9.6-4.5,18-17.1,16.8-30.6l5.4-0.3
		c1.2,3.3,2.1,6.9,2.7,10.2h91.5V38.4H41.8l-2.7-8.7h179.1L232,13.5c0,0,15.9,11.1,25.8,20.1c-0.9,3.3-3.3,4.8-7.5,4.8h-93.9V57
		h98.4l11.4-12l21.9,21c-2.1,2.1-5.7,2.4-11.1,3c-6.9,7.8-19.2,19.2-28.2,25.5l-3.9-2.4c3-6.9,7.2-17.4,10.2-26.1h-98.7v52.8
		c0,1.5-6.6,5.4-16.2,5.4h-3V66H46.6z M275.5,258.6c6.6,2.4,8.1,4.8,8.1,8.4c0,8.4-8.7,11.7-56.1,11.7h-33
		c-23.7,0-27.9-4.2-27.9-18.6v-66.3h-43.2c-4.5,42-15.3,72.9-104.4,92.7l-3.3-4.8c74.4-23.1,84.3-53.1,87.6-87.9h-81l-2.7-9h120.6
		v-57.9l29.7,3.3c-0.6,4.2-3.6,7.2-11.1,8.1v46.5h83.1l13.2-17.1c0,0,15,12,24.3,21.3c-0.9,3.3-3.6,4.8-7.8,4.8h-86.1v4.8v57.9
		c0,4.5,1.2,5.4,12.6,5.4h30c12.9,0,24-0.3,28.5-0.6c3.3-0.3,4.2-0.9,5.4-3.6c2.4-4.8,5.4-18.9,8.7-34.2h3.9L275.5,258.6z M54.4,129
		c66.6,19.8,55.5,60,35.1,48c-5.4-14.4-24-34.2-38.1-45.3L54.4,129z M120.7,116.7H56.5V108h64.2V116.7z M120.7,91.2h-60v-8.7h60
		V91.2z M228.4,82.8v9h-57.3v-9H228.4z M171.1,108.6h62.7v8.7h-62.7V108.6z M249.1,140.4c-1.5,2.7-4.5,3-9.6,1.5
		c-12.3,11.7-35.4,28.2-54,39.3l-3.6-3.9c15-15,32.4-36.9,41.4-51.9L249.1,140.4z"/>
</g>
</svg>
