<?xml version="1.0" encoding="iso-8859-1"?>
<!-- Generator: Adobe Illustrator 24.3.0, SVG Export Plug-In . SVG Version: 6.00 Build 0)  -->
<svg version="1.1" id="&#x30EC;&#x30A4;&#x30E4;&#x30FC;_1"
	 xmlns="http://www.w3.org/2000/svg" xmlns:xlink="http://www.w3.org/1999/xlink" x="0px" y="0px" viewBox="0 0 300 300"
	 style="enable-background:new 0 0 300 300;" xml:space="preserve">
<g>
	<path d="M43.9,202v7.5c0,1.2-5.7,5.7-13.8,5.7h-3V104.5c-4.2,5.1-8.4,9.6-12.3,13.8l-4.5-3C26.5,90.7,42.4,52.6,51.7,14.8L79,22.9
		c-1.2,3.3-4.5,6-10.8,6c-2.7,7.2-5.4,13.8-8.7,20.7h26.7L97,38.2l20.4,19.5c-2.1,2.1-5.4,2.4-11.4,2.7
		c-6.3,8.7-16.5,24.9-24.9,35.4H106l8.7-10.2l18.6,16.5c-1.8,2.4-6,4.5-10.8,5.4v98.7c-0.6,1.5-7.5,5.4-13.5,5.4h-3.6V202H43.9z
		 M37,225.4c6.9,26.7,0.6,46.5-7.2,54.9c-5.4,5.1-14.7,7.2-18.3,1.8c-3-5.1,0-11.1,5.4-15.3c7.8-7.2,15.6-25.5,14.7-41.4H37z
		 M55.6,58.3C49.9,69.7,43.9,81.1,37,90.7l10.5,5.1h26.7c3.9-10.8,9-26.4,12.6-37.5C86.8,58.3,55.6,58.3,55.6,58.3z M43.9,143.2
		h22.8v-38.7H43.9V143.2z M43.9,193h22.8v-41.1H43.9V193z M55.9,224.8c28.2,34.5,8.1,63.9-3.3,48c2.7-14.7,1.5-34.5-1.5-47.1
		L55.9,224.8z M79,221.2c37.2,30.3,19.8,60.9,6.6,46.5c0.3-14.1-5.4-33.3-10.8-45L79,221.2z M81.7,104.5v38.7h23.7v-38.7H81.7z
		 M105.4,193v-41.1H81.7V193H105.4z M103.9,218.2c43.2,20.7,26.1,54.3,11.7,40.5c0.3-12.6-7.2-29.1-15.3-38.7L103.9,218.2z
		 M265.4,247c0,0,15,12.3,24.3,21.3c-0.6,3.3-3.6,4.8-7.8,4.8H160.1l-6.9,9.9l-20.7-13.8c1.8-1.8,4.5-3.9,7.5-5.7V28.9l23.1,10.2
		h84.3l12.9-16.8c0,0,15,12,24,21c-0.6,3.3-3.9,4.8-8.1,4.8h-47.7v56.1h15L254,92.8l23.4,18c-1.8,2.4-6.6,4.8-12.6,6v84
		c-0.3,1.5-9.3,6.3-15.6,6.3h-2.7v-13.8h-18v71.1h23.4L265.4,247z M210.5,264.4v-71.1h-17.1v13.2c0,1.5-7.5,6-14.7,6h-3v-117
		l19.2,8.7h15.6V48.1H158v216.3H210.5z M193.4,113.2v71.1h53.1v-71.1C246.5,113.2,193.4,113.2,193.4,113.2z"/>
</g>
</svg>
