<?xml version="1.0" encoding="iso-8859-1"?>
<!-- Generator: Adobe Illustrator 24.3.0, SVG Export Plug-In . SVG Version: 6.00 Build 0)  -->
<svg version="1.1" id="&#x30EC;&#x30A4;&#x30E4;&#x30FC;_1"
	 xmlns="http://www.w3.org/2000/svg" xmlns:xlink="http://www.w3.org/1999/xlink" x="0px" y="0px" viewBox="0 0 300 300"
	 style="enable-background:new 0 0 300 300;" xml:space="preserve">
<g>
	<path d="M255.2,42.3c-1.2,4.2-4.2,6-12.9,5.7c-14.4,58.5-38.1,112.2-80.7,155.4c35.4,28.2,78.6,48.9,127.8,61.8l-1.2,3.3
		c-10.2,0-18.9,5.7-23.7,15.3c-46.2-15-85.5-36.9-117.6-66.9C113.2,246,70,269.4,13,285l-2.4-4.5c52.5-18.3,93.6-43.8,125.1-75
		C97,165,70.9,111.9,58.3,44.7l5.4-3.6c14.4,63,43.5,113.1,84.6,150.9c38.7-44.4,60.9-98.4,73.2-158.1L255.2,42.3z M114.4,15
		c74.1,37.8,56.7,90,34.2,71.4c-3-22.8-21.6-51.3-37.5-69.3L114.4,15z"/>
</g>
</svg>
