<?xml version="1.0" encoding="iso-8859-1"?>
<!-- Generator: Adobe Illustrator 24.3.0, SVG Export Plug-In . SVG Version: 6.00 Build 0)  -->
<svg version="1.1" id="&#x30EC;&#x30A4;&#x30E4;&#x30FC;_1"
	 xmlns="http://www.w3.org/2000/svg" xmlns:xlink="http://www.w3.org/1999/xlink" x="0px" y="0px" viewBox="0 0 300 300"
	 style="enable-background:new 0 0 300 300;" xml:space="preserve">
<g>
	<path d="M272,40.6c-2.1,2.7-6,4.2-12.9,5.1c-3.3,115.5-10.5,198-27.3,218.1c-9.6,11.4-22.5,16.2-38.7,16.2
		c0.3-6.9-1.2-12.6-5.7-15.6c-5.4-4.2-20.4-7.8-34.5-10.2l0.6-5.4c15.6,1.5,40.5,4.2,48.3,4.2c6.6,0,9-1.2,13.2-4.8
		c9-8.1,14.7-45.3,18.9-99c-46.2,19.8-106.5,45.3-186,74.4c-1.2,3.6-3.9,6.6-6.9,8.1l-13-27.2c33.6-7.5,118.2-33.6,206.4-61.8
		c2.1-29.4,3.6-63.3,4.5-99.9H32.5l-2.7-9H236L248.3,20L272,40.6z M55.6,66.1c117.9,27.3,120.6,78.3,93.9,71.1
		C130.9,115.9,84.4,85,53.2,69.7L55.6,66.1z"/>
</g>
</svg>
