<?xml version="1.0" encoding="iso-8859-1"?>
<!-- Generator: Adobe Illustrator 24.3.0, SVG Export Plug-In . SVG Version: 6.00 Build 0)  -->
<svg version="1.1" id="&#x30EC;&#x30A4;&#x30E4;&#x30FC;_1"
	 xmlns="http://www.w3.org/2000/svg" xmlns:xlink="http://www.w3.org/1999/xlink" x="0px" y="0px" viewBox="0 0 300 300"
	 style="enable-background:new 0 0 300 300;" xml:space="preserve">
<g>
	<path d="M256.1,26.7c0,0,16.5,12.3,26.7,21.9c-0.9,3.3-3.6,4.8-7.8,4.8H158v86.4h71.1l9.6-10.5l21.3,16.8c-1.5,1.8-5.4,3.6-9.9,4.8
		v121.5c-0.3,2.4-9.6,8.1-16.2,8.1h-3V148.8H158v120c0,1.8-6.6,6.6-15.9,6.6h-3.3v-15.9H17.2v-9h121.5V148.8H61.6l-8.4,11.1
		l-24.3-15.3c2.7-2.1,7.2-4.8,11.4-6.6V19.5l30.6,8.1c-0.6,3-3.9,4.8-11.7,5.7v106.5h79.5V34.5l22.8,9.9H158v0.3h83.4L256.1,26.7z"
		/>
</g>
</svg>
