<?xml version="1.0" encoding="iso-8859-1"?>
<!-- Generator: Adobe Illustrator 24.3.0, SVG Export Plug-In . SVG Version: 6.00 Build 0)  -->
<svg version="1.1" id="&#x30EC;&#x30A4;&#x30E4;&#x30FC;_1"
	 xmlns="http://www.w3.org/2000/svg" xmlns:xlink="http://www.w3.org/1999/xlink" x="0px" y="0px" viewBox="0 0 300 300"
	 style="enable-background:new 0 0 300 300;" xml:space="preserve">
<g>
	<path d="M274.8,34.6c-2.1,2.4-6.9,5.1-12.9,6.3v234.3c-0.3,2.1-9.6,7.8-16.2,7.8h-3v-18.6H44.4v12c0,2.7-7.2,7.8-15.6,7.8h-3.6
		V18.4l21,9.9h193.5l11.4-12.6L274.8,34.6z M242.7,255.8V37H44.4v218.7h198.3V255.8z M207.9,137.8c0,0,13.5,9.9,22.2,18
		c-0.9,3.3-3.6,4.8-7.5,4.8h-61.2c7.5,24.3,20.4,45,40.8,55.5c3.6,2.1,5.7,1.8,7.5-1.8c2.4-5.1,6-14.4,8.4-23.7l4.2,0.9l-2.7,30.6
		c6,6.9,7.5,10.2,5.1,14.1c-5.1,8.1-18.9,4.2-29.7-1.8c-28.8-16.2-44.1-42.6-51.9-73.8h-54V214c15.3-4.2,35.4-9.6,55.2-15.3l1.2,4.2
		c-14.1,6.9-40.8,20.7-68.1,33c-1.8,2.7-4.2,4.5-6,5.4L61.2,221c8.4-4.2,9.6-6,9.6-11.4V52.3L93,61.6h92.4l10.2-10.5l22.5,16.8
		c-1.8,2.1-6.6,4.5-11.7,5.4v44.4c-0.3,2.1-9.3,6.3-15.3,6.3h-3v-8.1h-33.6c0.3,12,1.8,24.3,4.8,36h37.2L207.9,137.8z M188.1,106.9
		V70.6h-99v36.3C89.1,106.9,188.1,106.9,188.1,106.9z M141,152c-2.4-11.4-3.9-23.7-4.5-36H89.1v36H141z"/>
</g>
</svg>
