<?xml version="1.0" encoding="iso-8859-1"?>
<!-- Generator: Adobe Illustrator 24.3.0, SVG Export Plug-In . SVG Version: 6.00 Build 0)  -->
<svg version="1.1" id="&#x30EC;&#x30A4;&#x30E4;&#x30FC;_1"
	 xmlns="http://www.w3.org/2000/svg" xmlns:xlink="http://www.w3.org/1999/xlink" x="0px" y="0px" viewBox="0 0 300 300"
	 style="enable-background:new 0 0 300 300;" xml:space="preserve">
<g>
	<path d="M189,201.3c21.6,20.1,60.6,32.4,98.4,38.1l-0.3,3.3c-7.5,1.2-12,6.9-14.4,15.3c-39-10.5-73.2-28.8-92.4-56.7h-59.7
		c-26.1,24-61.5,46.5-106.2,58.8l-2.4-4.2c33.9-13.5,63-33.3,84.6-54.6H18l-2.7-8.7h89.4c6.3-6.9,12-14.4,16.5-21.3l30.6,7.5
		c-1.2,3-5.1,4.5-13.5,4.5c-2.7,3.3-5.4,6-8.7,9.3h119.7l13.5-16.2c0,0,15.6,11.7,25.2,20.1c-0.6,3.3-3.6,4.8-7.8,4.8L189,201.3
		L189,201.3z M73.8,45.9C57.3,67.8,36.6,85.2,16.5,96.3l-3.9-3.9c21.6-17.1,43.8-47.7,57.9-81.6l27.3,12c-1.5,3-5.4,5.4-11.7,4.5
		c-1.8,3.3-3.9,6.6-6,9.9h46.5l11.7-15c0,0,13.5,10.8,21.9,18.9c-0.6,3.3-3.3,4.8-7.5,4.8C152.7,45.9,73.8,45.9,73.8,45.9z
		 M222,179.7v-9.3H82.5v6.3c0,1.8-8.4,6-15.9,6h-3V77.1l20.7,9.6h135l7.8-9c-2.7,1.2-6.3,0.9-9.9-1.5c-2.1-8.4-10.2-17.7-18-22.8
		l3-2.7c31.2,3,34.5,19.2,28.2,25.2L252.6,93c-1.8,2.1-6.3,4.5-11.4,5.4v75c-0.3,1.5-9.9,6.3-16.2,6.3H222z M168.9,236.1
		c74.4,19.8,67.2,61.8,46.8,51.6c-3.3-6.6-9-13.5-15.9-20.7c-28.5,4.2-70.5,9.6-116.7,14.1c-2.1,3.9-4.8,6-7.5,6.9l-9.9-24.3
		c0,0,5.4-0.9,7.5-1.8c24.6-10.5,55.8-38.4,68.1-53.4l25.2,14.7c-1.5,3-5.7,5.1-12,3.6c-15.3,11.4-40.2,26.4-63.9,37.8
		c25.5-0.3,63.6-1.8,102.9-3.6c-8.7-8.4-19.2-16.2-27.9-21.9L168.9,236.1z M84.9,50.7c44.4,6.6,31.5,37.8,15.6,27
		C98.7,69,89.7,58.5,81.9,53.4L84.9,50.7z M82.5,95.7v16.5H222V95.7H82.5z M222,121.2H82.5v15.9H222V121.2z M222,161.7v-15.6H82.5
		v15.6H222z M144.3,78.6c13.2-15.6,27-41.1,35.4-67.5l27.9,11.4c-1.5,3-5.1,5.7-11.4,4.8c-1.8,3-3.9,6.3-5.7,9.6h57l13.2-16.5
		c0,0,15.3,11.7,24.3,20.4c-0.9,3.3-3.6,4.8-7.5,4.8h-92.7c-10.8,14.7-23.4,27.6-36.3,36.3L144.3,78.6z"/>
</g>
</svg>
