<?xml version="1.0" encoding="iso-8859-1"?>
<!-- Generator: Adobe Illustrator 24.3.0, SVG Export Plug-In . SVG Version: 6.00 Build 0)  -->
<svg version="1.1" id="&#x30EC;&#x30A4;&#x30E4;&#x30FC;_1"
	 xmlns="http://www.w3.org/2000/svg" xmlns:xlink="http://www.w3.org/1999/xlink" x="0px" y="0px" viewBox="0 0 300 300"
	 style="enable-background:new 0 0 300 300;" xml:space="preserve">
<g>
	<path d="M221.6,243.8c-28.5,8.4-67.8,19.8-120.6,33.3c-1.5,3.6-4.5,6-7.2,6.9L83,257.6c12-1.2,32.7-3.6,57.3-6.9v-90H87.1l-2.4-9
		h55.5v-41.4h-32.7l-1.8-6.3c-7.5,8.4-15.3,15.6-23.7,22.2l-3.6-3c24.9-27.9,48.3-74.7,57.9-107.1l32.7,5.4c-0.9,3-3.9,5.1-11.7,5.7
		l-1.5,3c84,32.7,60,71.7,41.7,58.5C191,73.3,174.8,52,153.8,34.3c-10.5,21.3-26.7,45.9-45.3,66.9h63.3l12.6-15.9
		c0,0,14.4,11.4,23.4,20.1c-0.9,3.3-3.6,4.8-7.8,4.8h-40.8v41.4h24l12.9-16.2c0,0,14.4,11.4,23.4,20.4c-0.9,3.3-3.6,4.8-7.8,4.8
		h-52.5v87.6c19.2-3,40.2-6,61.8-9.3L221.6,243.8z M99.1,173.8c43.2,40.2,23.7,78,8.1,60.9c0.9-18.9-6-43.2-12.3-59.4L99.1,173.8z
		 M169.4,233.3c5.7-15.6,12.3-39.9,16.8-61.8l28.2,8.1c-1.2,3.3-4.5,6-10.5,6.3c-8.1,17.4-19.2,36.9-29.7,49.8L169.4,233.3z"/>
</g>
</svg>
