<?xml version="1.0" encoding="iso-8859-1"?>
<!-- Generator: Adobe Illustrator 24.3.0, SVG Export Plug-In . SVG Version: 6.00 Build 0)  -->
<svg version="1.1" id="&#x30EC;&#x30A4;&#x30E4;&#x30FC;_1"
	 xmlns="http://www.w3.org/2000/svg" xmlns:xlink="http://www.w3.org/1999/xlink" x="0px" y="0px" viewBox="0 0 300 300"
	 style="enable-background:new 0 0 300 300;" xml:space="preserve">
<g id="antique_tu">
	<path d="M83.874,238.017c51.738-17.448,103.476-65.208,132.252-112.662c2.448-4.284,13.164-24.8,15.612-26.328
		c3.978-2.754,7.044-5.2,7.044-7.65c0-13.47-27.858-28.782-33.372-28.782c-1.53,0-3.06,0.618-5.2,1.536
		c0.918,2.448,3.978,11.628,3.978,16.224c0,9.492-0.918,20.814-16.836,46.836c-35.82,58.476-88.476,96.744-105.006,108.072
		L83.874,238.017z M117.24,64.743c8.88,14.694,13.47,26.94,15,34.284c3.066,15.612,4.6,18.984,11.634,18.984
		c6.432,0,11.94-7.656,11.94-17.76c0-18.672-17.448-34.9-36.12-38.268L117.24,64.743z M61.218,95.355
		c10.1,12.858,17.448,27.246,20.514,35.514c4.59,12.858,6.12,17.448,13.776,17.448c4.9,0,11.634-4.284,11.634-13.776
		c0-13.47-12.246-37.962-44.088-42.246L61.218,95.355z"/>
</g>
</svg>
