<?xml version="1.0" encoding="iso-8859-1"?>
<!-- Generator: Adobe Illustrator 24.3.0, SVG Export Plug-In . SVG Version: 6.00 Build 0)  -->
<svg version="1.1" id="antique_ku" xmlns="http://www.w3.org/2000/svg" xmlns:xlink="http://www.w3.org/1999/xlink" x="0px" y="0px"
	 viewBox="0 0 300 300" style="enable-background:new 0 0 300 300;" xml:space="preserve">
<path d="M44.688,268.476c99.8-26.328,159.8-111.438,185.52-156.744c7.35-13.164,8.268-14.694,12.246-17.142
	c11.328-7.044,14.082-8.88,14.082-14.394c0-4.284-2.754-5.814-18.06-16.224c-11.328-7.65-12.552-8.568-16.836-8.568
	c-3.066,0-5.208,0.918-20.208,6.732c-16.53,6.432-35.82,11.634-48.372,11.022c11.634-15.306,13.164-16.836,13.164-21.432
	c0-6.732-13.164-20.2-30-20.2c-7.038,0-10.1,1.224-13.776,3.06c3.06,4.284,6.738,10.1,6.738,15.918
	c0,9.492-23.574,58.17-84.192,112.968l1.53,2.754c49.6-18.978,82.968-62.454,96.744-80.208c8.568,2.754,12.552,3.978,18.978,3.978
	c7.962,0,48.066-10.1,49.6-10.1c1.333-0.188,2.567,0.74,2.755,2.073c0.032,0.228,0.032,0.459-0.001,0.687
	c0,1.53-44.694,108.984-171.132,183.072L44.688,268.476z"/>
</svg>
