<?xml version="1.0" encoding="iso-8859-1"?>
<!-- Generator: Adobe Illustrator 24.3.0, SVG Export Plug-In . SVG Version: 6.00 Build 0)  -->
<svg version="1.1" id="&#x30EC;&#x30A4;&#x30E4;&#x30FC;_1"
	 xmlns="http://www.w3.org/2000/svg" xmlns:xlink="http://www.w3.org/1999/xlink" x="0px" y="0px" viewBox="0 0 300 300"
	 style="enable-background:new 0 0 300 300;" xml:space="preserve">
<g id="antique_a">
	<path d="M59.994,267.252c82.962-33.984,101.946-89.394,115.416-128.58c3.672-10.716,4.284-12.246,10.716-24.492
		c31.836-17.448,55.716-24.186,65.514-26.94c7.96-2.14,13.16-3.366,13.16-10.716c0-11.022-31.536-43.776-39.8-43.776
		c-2.448,0-12.246,6.426-14.388,7.344c-10.1,4.29-105.93,18.984-133.482,18.984c-13.164,0-16.224-0.612-41.94-6.432
		C37.338,77.136,66.732,91.83,71.628,91.83c4.284,0,22.962-7.956,27.246-9.18c49.29-14.694,107.454-19.9,114.8-19.9
		c1.224,0,3.978,0.306,3.978,2.754c0,3.984-14.082,22.35-37.35,37.962c-15-7.344-24.186-8.262-29.388-8.262
		c-6.12,0-9.186,2.448-11.94,4.284c5.2,7.962,8.88,15.612,8.88,26.94c0,6.126-1.53,26.94-15.306,54.8
		c-18.674,37.958-53.27,67.352-74.084,83.272L59.994,267.252z"/>
</g>
</svg>
