<?xml version="1.0" encoding="iso-8859-1"?>
<!-- Generator: Adobe Illustrator 24.3.0, SVG Export Plug-In . SVG Version: 6.00 Build 0)  -->
<svg version="1.1" id="&#x30EC;&#x30A4;&#x30E4;&#x30FC;_1"
	 xmlns="http://www.w3.org/2000/svg" xmlns:xlink="http://www.w3.org/1999/xlink" x="0px" y="0px" viewBox="0 0 300 300"
	 style="enable-background:new 0 0 300 300;" xml:space="preserve">
<g id="antique_n">
	<path d="M253.018,83.106C195.46,144.336,93.208,209.85,77.29,209.85c-10.716,0-24.186-10.1-29.082-13.776
		c-1.836,3.672-3.978,8.268-3.978,14.694c0,18.978,31.224,38.268,44.082,38.268c4.59,0,7.35-1.53,9.492-3.672
		c1.836-1.836,10.1-11.022,11.94-13.164c4.59-4.6,30.612-23.574,36.126-28.164c77.142-63.066,99.492-100.722,109.9-119.4
		L253.018,83.106z M48.208,54.942C62.9,62.6,71.17,70.248,80.968,85.248c10.4,16.23,14.694,22.656,24.486,22.656
		c8.574,0,15.312-6.426,15.312-15.918c0-22.962-29.7-41.022-60.924-41.022c-3.691,0.045-7.374,0.352-11.022,0.918L48.208,54.942z"/>
</g>
</svg>
