<?xml version="1.0" encoding="iso-8859-1"?>
<!-- Generator: Adobe Illustrator 24.3.0, SVG Export Plug-In . SVG Version: 6.00 Build 0)  -->
<svg version="1.1" id="&#x30EC;&#x30A4;&#x30E4;&#x30FC;_1"
	 xmlns="http://www.w3.org/2000/svg" xmlns:xlink="http://www.w3.org/1999/xlink" x="0px" y="0px" viewBox="0 0 300 300"
	 style="enable-background:new 0 0 300 300;" xml:space="preserve">
<g id="antique_ti">
	<path d="M72.546,272.706c78.984-29.694,96.738-93.066,101.334-138.072c17.142-1.53,30.918-2.142,41.022-2.142
		c9.726-0.122,19.448,0.492,29.082,1.836c3.366,0.612,20.514,5.208,24.492,5.208c8.88,0,11.634-6.126,11.634-10.1
		c0-13.47-35.82-25.716-43.47-25.716c-3.684-0.06-7.338,0.671-10.716,2.142c-7.044,3.366-7.656,3.672-10.716,4.59
		c-5.508,1.23-33.678,3.066-39.8,3.678c0.306-17.454,0.306-19.9-0.306-23.574c-1.224-7.962-8.268-10.716-19.29-15.306
		c5.208-1.53,31.842-11.022,37.962-11.94c16.842-3.06,28.782-5.208,28.782-14.082c0-7.044-11.634-11.634-24.186-16.536
		c-13.47-5.2-15.924-5.814-20.514-5.2c-2.448,7.044-6.12,14.694-18.06,21.738C130.71,66.672,72.852,83.2,64.584,85.656l0.612,3.06
		c25.41-0.306,44.088-2.142,70.11-7.962c6.426,4.29,12.552,8.268,13.776,36.432C79.284,126.066,65.2,127.9,51.114,127.9
		c-13.776,0-22.038-3.978-28.47-7.35c-1.867,1.6-2.885,3.977-2.754,6.432c0,12.552,26.634,29.388,33.372,29.388
		c3.366,0,19.59-6.12,23.568-7.044c15-3.366,54.5-10.1,71.946-11.934c-6.126,76.226-54.186,113.882-78.066,132.56L72.546,272.706z"
		/>
</g>
</svg>
