<?xml version="1.0" encoding="iso-8859-1"?>
<!-- Generator: Adobe Illustrator 24.3.0, SVG Export Plug-In . SVG Version: 6.00 Build 0)  -->
<svg version="1.1" id="&#x30EC;&#x30A4;&#x30E4;&#x30FC;_1"
	 xmlns="http://www.w3.org/2000/svg" xmlns:xlink="http://www.w3.org/1999/xlink" x="0px" y="0px" viewBox="0 0 180 300"
	 style="enable-background:new 0 0 180 300;" xml:space="preserve">
<g id="bunsu35bunno14">
	<path d="M33.237,27.5l-1.1-2.271l24.17-11.791h2.417V97.3c0,5.566,0.233,9.033,0.7,10.4c0.494,1.401,1.539,2.539,2.893,3.15
		c1.467,0.733,4.445,1.148,8.936,1.245v2.71H33.9V112.1c4.688-0.098,7.716-0.501,9.083-1.208c1.254-0.594,2.263-1.604,2.856-2.858
		c0.537-1.195,0.806-4.771,0.806-10.729V43.687c0-7.226-0.244-11.865-0.733-13.916c-0.211-1.327-0.87-2.542-1.867-3.443
		c-0.923-0.739-2.078-1.129-3.26-1.1C38.976,25.229,36.46,25.986,33.237,27.5z M133.945,88.584H91.9v-9.375l46.07-65.771h8.056
		v64.746h13.33v10.4H146.03v26.221h-12.085L133.945,88.584L133.945,88.584z M133.945,78.184V28.892L99.082,78.184H133.945z
		 M58.579,226.991c9.081-7.715,13.621-15.185,13.621-22.412c-0.068-4.574-1.784-8.969-4.834-12.378
		c-4.248-5.175-10.351-7.762-18.31-7.763c-6.446,0-11.829,1.819-16.15,5.457s-7.897,8.801-10.73,15.49l2.417,1.172
		c5.079-8.105,11.402-12.157,18.971-12.157c4.389-0.118,8.636,1.562,11.756,4.651c3.149,3.101,4.724,7.166,4.724,12.195
		c0.038,3.707-0.87,7.362-2.637,10.62c-2.013,3.478-4.938,6.34-8.459,8.277c-3.542,2.175-7.494,3.595-11.609,4.174v2.2h2.344
		c3.86,0.011,7.675,0.821,11.206,2.38c3.158,1.273,6.079,3.068,8.642,5.31c1.771,1.794,3.188,3.906,4.175,6.226
		c1.678,3.524,2.554,7.376,2.564,11.279c0.062,5.122-1.929,10.056-5.53,13.7c-3.312,3.691-8.041,5.796-13,5.786
		c-1.958,0.014-3.907-0.257-5.786-0.805c-2.107-0.724-4.142-1.644-6.079-2.746c-1.814-1.024-3.699-1.917-5.64-2.674
		c-1.209-0.381-2.468-0.579-3.735-0.586c-1.538-0.028-3.024,0.55-4.138,1.611c-1.086,0.939-1.713,2.301-1.721,3.736
		c0,1.904,1.208,3.686,3.625,5.346s6.97,2.49,13.66,2.491c13.524,0,23.851-4.102,30.981-12.305c5.419-6.166,8.343-14.132,8.2-22.339
		c0.126-5.588-1.514-11.073-4.687-15.674C69.295,232.806,64.682,229.385,58.579,226.991z M146.935,196.775l5.053-12.733
		l-35.547,1.858l-17,39.543c9.184-0.139,16.491,0.749,21.922,2.665c6.445,2.146,12.178,6.018,16.575,11.195
		c3.972,4.613,6.312,10.407,6.658,16.484c0.421,5.916-1.623,11.743-5.647,16.1c-3.686,4.342-9.002,6.97-14.691,7.26
		c-4.015,0.126-7.97-1-11.317-3.221c-1.586-1.067-3.267-1.985-5.021-2.743c-1.082-0.355-2.223-0.495-3.359-0.411
		c-1.568,0.029-3.062,0.673-4.159,1.794c-1.009,0.963-1.554,2.315-1.493,3.709c0.128,2.439,1.598,4.6,4.41,6.481
		c2.812,1.881,7.193,2.666,13.142,2.354c5.983-0.334,11.812-2.018,17.051-4.927c3.867-2.123,7.365-4.859,10.357-8.1
		c3.153-3.445,5.664-7.427,7.414-11.757c1.904-4.637,2.733-9.646,2.423-14.649c-0.388-8.805-4.343-17.072-10.954-22.9
		c-7.963-7.309-18.454-11.576-31.475-12.8l5.812-13.653L146.935,196.775z M15,146v8h150v-8H15z"/>
</g>
</svg>
