<?xml version="1.0" encoding="iso-8859-1"?>
<!-- Generator: Adobe Illustrator 24.3.0, SVG Export Plug-In . SVG Version: 6.00 Build 0)  -->
<svg version="1.1" id="&#x30EC;&#x30A4;&#x30E4;&#x30FC;_1"
	 xmlns="http://www.w3.org/2000/svg" xmlns:xlink="http://www.w3.org/1999/xlink" x="0px" y="0px" viewBox="0 0 300 300"
	 style="enable-background:new 0 0 300 300;" xml:space="preserve">
<g id="funa">
	<path d="M31.6,221.039c4.946,10.38,7.502,21.736,7.478,33.234c0,19.525-9.139,23.264-14.124,23.264
		c-5.781,0.184-10.616-4.354-10.8-10.135c-0.007-0.221-0.007-0.443,0-0.665c0-4.57,11.217-20.772,12.463-24.095
		c2.908-7.478,2.908-12.878,2.493-21.187L31.6,221.039z M48.22,189.881c0,10.386,0,20.772-11.632,20.772
		c-4.57,0-6.232-3.739-6.232-9.14c0-15.371,0.831-83.5,0.831-97.21c-9.555,13.293-13.709,17.863-18.694,22.848L10,125.49
		C29.11,93.5,49.881,34.51,49.881,19.139c0.006-2.36-0.133-4.719-0.415-7.062l24.51,11.632c1.247,0.831,4.155,1.662,4.155,4.57
		c0,3.323-3.324,5.4-9.555,8.309c-2.493,6.646-4.155,9.97-7.478,17.448h21.187l8.308-8.724c0.831-0.416,3.739-3.324,4.986-3.324
		s4.569,2.493,4.985,2.908l10.8,9.555c1.662,1.246,2.908,2.908,2.908,4.57c0,4.154-8.724,7.062-13.709,8.724
		C93.5,75.638,87.27,83.116,78.131,92.255h10.8l5.816-7.478c1.662-2.077,3.323-3.738,4.985-3.738c2.077,0,4.57,2.077,5.816,2.908
		l7.062,6.231c2.908,2.908,3.739,3.323,3.739,5.816c0,2.077-2.908,5.4-6.231,8.309c0,22.848,0.415,58.991,0.415,81.839
		c0,11.632-6.231,14.956-11.216,14.956c-6.647,0-6.647-4.985-6.647-8.309v-2.908L48.22,189.881z M78.546,134.629h14.125V99.318
		H78.546L78.546,134.629z M78.546,182.819h14.125v-40.712H78.546L78.546,182.819z M62.346,142.107H48.22v40.712h14.124
		L62.346,142.107z M62.346,99.733H48.22v35.312h14.124L62.346,99.733z M50.712,91.84h20.772c3.729-10.138,6.647-20.556,8.724-31.157
		H57.359c-5.4,10.385-11.217,20.771-14.54,25.756L50.712,91.84z M280.861,51.128v12.047c0,30.326,0.415,112.166,0.415,143.739
		c0,9.97,0,24.1-33.65,31.988c-1.246-8.309-2.492-17.863-15.371-27c0,8.724,0.831,51.513,0.831,61.068
		c0,4.57-0.415,8.309-4.985,11.632c-2.493,1.662-6.647,3.324-9.555,3.324c-4.57,0-7.062-2.077-7.062-8.309
		c0-24.095,2.908-141.246,2.908-167.834c0-30.326,0-66.468-5.816-90.563l21.187,15.371h29.495l5.4-8.309
		c2.077-2.908,3.323-4.985,6.231-4.985c1.662,0,3.739,0.831,6.647,3.323l7.478,6.647c2.908,2.493,4.985,4.154,4.985,7.478
		C290,44.9,287.507,46.142,280.861,51.128z M263.412,44.065h-31.157v163.264c7.893,1.662,13.709,2.908,22.849,2.908
		c8.308,0,8.308-1.661,8.308-9.139L263.412,44.065z M46.558,221.039c1.662,6.646,2.908,9.554,2.908,17.448
		c0,3.323-1.662,18.694-1.662,22.433c0,5.816,4.154,8.308,8.309,8.308c5.816,0,11.632-4.985,11.632-13.709
		c0-14.54-14.956-31.988-18.7-35.727L46.558,221.039z M93.086,216.884l-1.662,2.077c2.908,6.232,6.232,12.879,7.478,23.68
		c0.416,10.386,1.246,16.2,9.555,16.2c7.478,0,9.139-7.893,9.139-11.217C116.766,233.917,100.148,221.869,93.086,216.884z
		 M70.653,218.131l-2.493,1.661c3.177,8.653,4.862,17.783,4.985,27c0,7.063,0.416,17.033,9.14,17.033
		c7.478,0,10.386-7.478,10.386-12.463C92.255,241.4,83.116,229.347,70.653,218.131z M208.991,61.1c0,2.908-0.831,3.739-8.309,8.724
		c0,12.463,1.662,72.285,1.662,85.994c0,9.97-9.97,11.632-12.878,11.632c-7.893,0-7.893-3.739-7.478-12.047h-38.635l0.416,39.465
		h26.587l8.309-10.8c2.077-2.077,3.323-3.739,4.985-3.739s3.739,1.662,5.4,2.908l11.633,10.8c1.246,1.246,2.908,2.908,2.908,4.569
		c0,2.908-3.324,3.324-4.986,3.324h-54.836c0,3.739,0,24.926,0.415,36.973h25.341l7.478-9.97c1.246-2.077,2.493-3.739,4.154-3.739
		c2.493,0,4.155,1.662,6.232,3.739l12.878,10.386c1.662,1.246,3.324,2.492,3.324,4.569c0,2.908-3.324,2.908-4.986,2.908h-54.421
		c0,20.356,0,20.356-0.415,23.264c-1.247,9.14-13.71,9.555-14.125,9.555c-7.478,0-7.478-6.231-7.478-9.97
		c0-1.246,0.416-9.14,0.416-10.8c2.492-70.208,2.492-76.855,2.492-140.416c0-43.2,0-57.744-2.908-73.531l23.68,10.8
		c1.246-2.908,6.647-23.679,6.231-42.374l25.757,9.555c2.077,0.831,4.985,2.078,4.985,4.986s-2.493,4.569-10.8,6.646
		c-2.908,2.908-17.033,17.864-19.941,21.187h28.249l6.232-8.308c1.246-1.247,2.077-2.493,2.908-2.493
		c1.246,0,2.492,1.662,4.154,2.493l11.631,8.31C207.163,56.935,208.507,58.877,208.991,61.1z M181.991,107.213h-38.638v40.712
		h38.635L181.991,107.213z M181.991,63.177h-39.05l0.415,36.973h38.635L181.991,63.177z"/>
</g>
</svg>
