<?xml version="1.0" encoding="iso-8859-1"?>
<!-- Generator: Adobe Illustrator 24.3.0, SVG Export Plug-In . SVG Version: 6.00 Build 0)  -->
<svg version="1.1" id="G02E6" xmlns="http://www.w3.org/2000/svg" xmlns:xlink="http://www.w3.org/1999/xlink" x="0px" y="0px"
	 viewBox="0 0 300 300" style="enable-background:new 0 0 300 300;" xml:space="preserve">
<path d="M166.55,56.249h-37.8c0,87.6-5.1,129.6-63.3,161.7c-0.653,0.337-1.367,0.541-2.1,0.6c-2.191-0.179-3.883-2.001-3.9-4.2
	c0.066-1.08,0.618-2.073,1.5-2.7c44.4-30.9,48.3-75.9,48.3-145.5v-9.9h-57l-0.3,135.6v31.8c0,26.1,13.2,28.2,96,28.2
	c34.5,0,69.6-1.5,101.4-4.2c4.8-0.3,11.1-2.1,16.8-3.3c0.6,0,1.2-0.3,2.1-0.3c10.8,0,15.9,8.4,15.9,13.5
	c0.125,2.722-1.6,5.186-4.2,6c-14.7,6-109.8,7.5-126,7.5c-22.8,0-45.6-0.6-67.5-1.5c-31.8-1.5-54.3-10.8-54.3-42.3v-0.6l0.3-48.9
	l0.3-121.5h-16.9v-8.7h213.7c6-9.3,15.3-18.6,17.1-18.6c3.3,0,26.7,15.9,26.7,22.5c0,2.4-1.8,4.8-6,4.8h-81.9l-0.3,110.4
	c0,14.7,3.6,17.1,20.4,17.1c32.7,0,33.3,0,39.9-50.4c0.3-1.8,1.8-2.4,3.6-2.4c2.4,0,4.8,1.2,4.8,3v0.3c-2.7,34.2-2.7,34.5-2.7,35.1
	c0,4.5,0.9,6.3,5.1,7.5c3.9,1.5,6.9,3.9,6.9,7.5c0,8.1-6.3,16.8-53.1,16.8c-24.9,0-43.5-0.6-43.5-32.7L166.55,56.249z"/>
</svg>
