<?xml version="1.0" encoding="iso-8859-1"?>
<!-- Generator: Adobe Illustrator 24.3.0, SVG Export Plug-In . SVG Version: 6.00 Build 0)  -->
<svg version="1.1" id="&#x30EC;&#x30A4;&#x30E4;&#x30FC;_1"
	 xmlns="http://www.w3.org/2000/svg" xmlns:xlink="http://www.w3.org/1999/xlink" x="0px" y="0px" viewBox="0 0 300 300"
	 style="enable-background:new 0 0 300 300;" xml:space="preserve">
<g id="G3CC3">
	<path d="M220.951,89.481H70.049c0.3,3.6,0.6,5.4,0.6,7.5c0,4.8-5.1,7.8-12.9,7.8c-4.5,0-7.2-1.5-7.2-5.7v-0.6
		c0-2.1,0.9-7.2,1.2-13.5c0-3.3,0.3-9.9,0.3-15.9v-13.2c0-9.6,0-15.6-1.8-26.1c25.5,0,29.7,3.3,29.7,6.6c0,3-3.6,6.6-9.3,8.1
		c-0.3,0.6-0.6,2.4-0.6,8.7c-0.3,3-0.3,6.9-0.3,11.1c0,5.7,0,11.7,0.3,16.5h66.9v-22.5c0-23.7,0-29.7-2.4-42.9
		c14.4,0,30.3,1.5,30.3,7.8c0,3-3,5.7-9.6,6.9v50.7h66.3c0-2.7,0.3-5.7,0.3-8.7l-0.3-18.6c0-7.8,0-13.8-1.8-23.7
		c7.936,0.2,15.852,0.901,23.7,2.1c4.5,0.9,6.3,2.7,6.3,5.1c0,3-3.3,6.6-9.6,8.1c0,0.9-0.3,1.8-0.3,7.2c0,4.5-0.3,9.3-0.3,14.4
		c0,4.8,0.3,9.6,0.3,13.8c0,6,1.2,10.8,1.2,13.5c0,4.8-4.8,7.5-12.6,7.5c-4.5,0-7.5-1.2-7.5-5.7v-6.3L220.951,89.481z
		 M113.575,119.981c23.344,12.026,40.484,22.172,55.884,44.919c0.448,0.662,0.5,2.245,0.463,3.722
		c-0.045,1.8-1.27,3.986-0.725,5.383c1.55,3.973,7.161,3.748,14.693,1.8c5.621-1.453,9.267-6.367,9.267-13.735
		c0.035-4.27-1.196-8.455-3.537-12.026c-13.44-19.453-67.91-37.138-72.154-37.138c-2.476,0-5.306,2.476-5.306,4.952
		C112.22,118.767,112.759,119.575,113.575,119.981L113.575,119.981z M200.216,255.665c-17.167-25.348-87.628-57.915-93.958-58.6
		c-2.109-0.23-4.877,2.316-5.106,4.426c-0.093,0.738,0.242,1.464,0.863,1.872c29.8,17.117,60.57,45.011,77.546,72.117
		c2.744,4.213,7.33,11.115,12.6,11.689c6.68,0.726,11-6.275,11.841-14.011c0.698-6.333-0.728-12.892-3.786-17.494V255.665z"/>
</g>
</svg>
