<?xml version="1.0" encoding="iso-8859-1"?>
<!-- Generator: Adobe Illustrator 24.3.0, SVG Export Plug-In . SVG Version: 6.00 Build 0)  -->
<svg version="1.1" id="&#x30EC;&#x30A4;&#x30E4;&#x30FC;_1"
	 xmlns="http://www.w3.org/2000/svg" xmlns:xlink="http://www.w3.org/1999/xlink" x="0px" y="0px" viewBox="0 0 300 300"
	 style="enable-background:new 0 0 300 300;" xml:space="preserve">
<g id="G3E47">
	<path d="M167.725,82.115c27.3,23.7,73.2,45,117,47.7c1.8,0,2.4,1.5,2.4,3.3s-0.9,3.9-1.8,4.2c-3,1.2-10.2,2.4-18.6,10.8
		c-0.9,0.9-1.8,1.8-3,1.8c-6,0-67.8-21.9-103.8-66v12c0,8.7,0.6,17.1,0.6,24.6c0,4.2,0.3,9.3,0.3,10.5c0,3.9-6,6.6-12,6.6
		c-4.8,0-8.1-1.8-8.1-5.1v-0.9c1.2-9.9,1.8-32.1,1.8-45.3c-43.2,50.7-121.8,73.2-126.6,73.2c-2.1,0-3.6-2.1-3.6-4.2
		c0-1.2,0.3-2.1,1.5-2.4c37.8-13.5,84.3-41.4,110.7-70.8h-32.1c-13.2,0-54.3,0.3-66.6,1.8c-2.7-2.1-5.4-9.6-5.7-13.2
		c13.5,1.8,55.2,2.7,80.4,2.7h42c0.3-9.3,0.3-21.9,0.3-30c-30.3,2.1-64.2,3.6-94.5,3.9c-2.1,0-4.5-3.3-4.5-5.7
		c-0.116-1.209,0.77-2.284,1.98-2.4c0.14-0.013,0.28-0.013,0.42,0c41.1-2.1,144.3-9.6,171.3-24c3.9,1.5,22.2,13.2,22.2,19.8
		c0,1.8-1.5,3-4.5,3c-2.7,0-6.3-0.9-11.1-3c-13.2,2.4-36.6,4.8-64.2,7.2v31.2h75c2.1-3,13.8-18.6,19.2-18.6c3,0,27.6,15.9,27.6,22.5
		c0,2.7-1.8,4.8-5.4,4.8L167.725,82.115z M260.376,178.885c-3,0-15.6,17.1-18,20.4h-80.4V157.2h66.3c3.6,0,5.1-1.8,5.1-3.9
		c0-5.7-16.5-17.1-22.5-20.1c-0.24-0.23-0.57-0.34-0.9-0.3c-0.556,0.011-1.089,0.225-1.5,0.6c-4.8,4.8-9.9,12-12.9,15.6h-62.7
		c-9.9,0-51.6-1.2-59.7-2.4c0.317,4.583,1.988,8.968,4.8,12.6c6.9-0.9,40.8-2.1,50.1-2.1h15.3v42.088h-36.3
		c-22.2,0-78.9-1.5-90.3-2.7c0,4.2,3,11.7,5.7,14.1c15.6-1.5,71.7-2.4,77.1-2.4h43.8l-0.3,39.3c0,10.8-8.1,14.7-15.9,14.7
		c-13.848-0.155-27.674-1.157-41.4-3h-0.3c-1.5,0-2.1,2.1-2.1,4.2c0,1.8,0.6,3.6,1.5,3.6c6.9,1.2,13.8,2.4,22.8,3.9
		c8.1,1.5,12.6,4.2,15,10.8c0.6,1.8,3,3,5.4,3c9.3,0,34.2-9.9,34.2-31.8v-0.6c0-1.622-0.134-5.977-0.3-10.968v-33.135h120.3
		c3.6,0,5.4-2.1,5.4-4.5C287.676,197.184,263.376,178.885,260.376,178.885z"/>
</g>
</svg>
