<?xml version="1.0" encoding="iso-8859-1"?>
<!-- Generator: Adobe Illustrator 24.3.0, SVG Export Plug-In . SVG Version: 6.00 Build 0)  -->
<svg version="1.1" id="&#x30EC;&#x30A4;&#x30E4;&#x30FC;_1"
	 xmlns="http://www.w3.org/2000/svg" xmlns:xlink="http://www.w3.org/1999/xlink" x="0px" y="0px" viewBox="0 0 300 300"
	 style="enable-background:new 0 0 300 300;" xml:space="preserve">
<g id="G42C5">
	<path d="M186.2,133.558c12.564-4.062,19.486-7.18,24.776-8.918c2.914-0.844,5.932-1.279,8.966-1.294
		c10.992-0.273,22.749,3.453,22.888,9.074c0.193,7.763-12.744,10.226-21.377,11.512c-3.651,0.626-7.974,1-12.617,1.92
		c-70.596,13.012-138.787,46.473-138.043,76.453c0.711,28.641,55.881,22.411,73.534,21.973c20.318-0.5,42.92-2.941,53.766-9.1
		c4.6-2.525,14.6-2.773,15.261-2.79c11.992-0.3,20.751,3.5,20.917,10.195c0.412,16.6-70.193,18.616-79.187,18.839
		c-44.3,1.1-97.123-5.584-97.908-37.17c-0.611-24.626,34.01-53.112,68.3-68.159c-13.5-6.9-17.1-17.521-17.425-30.637
		c-0.093-3.747,0.625-12.231-0.446-18.257c-0.882-4.964-3.652-9.7-7.03-11.5c-0.905-0.345-1.559-1.145-1.718-2.1
		c-0.053-2.142,5.935-3.325,11.905-2.753c13.45,1.289,18.934,6.2,18.342,13.405c-0.888,10.812-1.358,13.554-1.375,21.784
		c-0.023,11.513,2.49,19.758,9.258,23.876c0,0,1.006,0.243,2.346,0.477C146.265,147.808,180.251,135.58,186.2,133.558z
		 M200.287,66.921c-5.244,1.223-23.013,4.013-29.673,5.732c-20.462,5.2-28.774,14.168-34.4,16.5
		c-1.979,0.821-4.055,1.383-6.177,1.672c-3.381,0.326-5.416-0.554-5.553-1.975c-0.172-1.778,1.589-3.741,5.73-6.293
		c9.386-6.42,9-6.972,20.36-15.382c2.132-1.578,2.806-2.7,2.737-3.411s-1.518-0.571-3.484-0.74
		c-45.851-0.242-75.594-14.085-76.314-21.55c-0.171-1.777,1.692-2.674,4.107-2.907c1.134-0.144,2.283-0.134,3.415,0.029
		c2.968,0.431,6.105,2.64,9.141,3.782c19.764,7.781,46.571,7.707,70.239,5.424c8.212-0.792,11.456-2.54,20.116-3.734l0.966-0.093
		c6.28-0.606,32.223,0.479,33.251,11.143c0.378,3.914-3.039,8.907-14.462,11.803H200.287z"/>
</g>
</svg>
