<?xml version="1.0" encoding="iso-8859-1"?>
<!-- Generator: Adobe Illustrator 24.3.0, SVG Export Plug-In . SVG Version: 6.00 Build 0)  -->
<svg version="1.1" id="&#x30EC;&#x30A4;&#x30E4;&#x30FC;_1"
	 xmlns="http://www.w3.org/2000/svg" xmlns:xlink="http://www.w3.org/1999/xlink" x="0px" y="0px" viewBox="0 0 300 300"
	 style="enable-background:new 0 0 300 300;" xml:space="preserve">
<g id="G45FC">
	<path d="M67.2,189.1h13.823l3.434-12.758l23.528,0.262l3.659,12.487c0,0,14.764,0.093,14.764,0
		c0-0.532-23.332-75.848-23.714-75.857l-14.933-0.1C87.761,113.134,66.147,189.1,67.2,189.1z M103.066,162.325H88.013l7.159-26.179
		L103.066,162.325z M133.436,10.672c-5.982,0.849-13.243,2.706-23.8,6.094c-24.3,7.905-39.692,17.07-56.286,33.664
		C40,63.785,34.686,71.2,26.379,88.06c-5.3,10.807-8.24,17.806-9.015,21.353L17,111.168l6.458-0.159l6.533-0.159l4.079-9.015
		c6.15-13.514,9.911-19.711,18.077-30C66.762,53.5,87.332,38.5,107.631,31.4c16.238-5.553,33.347-8.121,50.5-7.578
		c17.172,0.737,32.17,4.61,49.025,12.823C232.7,49.1,252.1,68.5,265.2,94.574c9.333,18.665,12.88,32.17,13.561,51.256
		c1.381,36.4-12.721,71.069-39.319,96.725c-24.06,23.164-54.429,35.567-87.187,35.614c-20.084,0.056-37.042-3.864-55.381-12.768
		c-13.494-6.438-25.707-15.273-36.043-26.076c-9.239-9.413-17.022-20.152-23.09-31.862l-3.285-6.253h-6.537
		c-3.863,0-6.533,0.215-6.533,0.532c0,2.119,8.008,18.181,12.562,25.2c17.024,25.733,42.035,45.156,71.182,55.278
		c14.419,5.03,22.4,6.626,38.535,7.522c19.347,1.111,38.525-1.372,54.27-7.1c23-8.316,38.74-18.283,54.27-34.289
		c22.315-22.949,35.138-49.874,38.75-81.036c1.166-10.266,0.793-29.949-0.747-40.019c-4.221-27.848-17.13-53.651-36.883-73.729
		C229.96,29.005,198.47,13.762,164.71,10.672C155.536,9.776,139.8,9.776,133.436,10.672z M149.236,114.089
		c-4.979,1.645-9.026,5.325-11.136,10.126c-1.132,2.531-1.693,5.281-1.642,8.054c-0.42,8.9,2.436,14.932,11.292,24.013
		c6.141,6.309,7.681,8.53,7.681,11.2c0,4.451-4.61,6.094-13.252,4.666c-1.956-0.31-3.874-0.826-5.721-1.54l-2.277-1.017l0.317,15
		l7.261,2.286c8.8,2.7,14.363,3.491,19.076,2.8c8.96-1.437,13.682-7.793,13.682-18.554c0-8.9-2.231-13.252-11.983-23.266
		c-3.23-3.341-6.412-7.1-7-8.316c-2.538-4.984-1.867-9.071,1.755-10.266c3.387-1.11,7,0.112,13.411,4.564
		c1.158,0.869,2.381,1.649,3.658,2.333c0.159,0,0.075-16.276,0.131-18.218c0-0.289-0.821-0.532-1.96-1.045
		C167.743,114.705,153.3,112.726,149.236,114.089L149.236,114.089z M42.684,140.416c0.056,23.332,0.382,25.143-0.625,27.374
		c-1.214,2.8-1.942,4.265-5.647,4.666c-2.072,0.215-4.788-0.877-7.97-1.867c-2.333-0.746-4.414-2-4.666-1.763
		c-0.934,0.933-4.34,8.446-5.32,9.958c-0.075,0.112,2.072,2.034,7.55,5.6c6.468,3.024,9.893,5.339,14.709,5.077
		c2.957-0.056,5.822-1.035,8.194-2.8c2.968-2.007,4.377-4.126,6.533-8.213c1.278-2.492,1.6-5.264,2.025-19.254
		c0.261-8.007,0.579-21.045,0.793-29l0.318-14.41H42.684V140.416z"/>
</g>
</svg>
