<?xml version="1.0" encoding="iso-8859-1"?>
<!-- Generator: Adobe Illustrator 24.3.0, SVG Export Plug-In . SVG Version: 6.00 Build 0)  -->
<svg version="1.1" id="&#x30EC;&#x30A4;&#x30E4;&#x30FC;_1"
	 xmlns="http://www.w3.org/2000/svg" xmlns:xlink="http://www.w3.org/1999/xlink" x="0px" y="0px" viewBox="0 0 300 300"
	 style="enable-background:new 0 0 300 300;" xml:space="preserve">
<g id="G642F">
	<path d="M269.952,191.55c0,2.4-1.5,4.5-5.4,4.5H161.05v33h55.9c0.9-1.2,12.9-18.6,15.9-18.6s26.4,17.4,26.4,22.8
		c0,2.4-1.5,4.8-5.4,4.8h-92.5c0,12.6,0.3,26.1,0.6,33.3c0,2.4,0.3,5.1,0.3,7.8c0,5.7-6.9,7.2-12.6,7.2c-5.1,0-8.7-1.5-8.7-6.3v-0.6
		c0-0.6,0.3-1.5,1.5-41.4h-37.8c-22.5,0-35.6,0.9-48.8,2.4c-2.7-2.7-6-10.5-6-14.1v-0.3c8.7,0.9,35,3,62,3h30.9
		c0.3-4.5,0.3-9,0.3-12.9v-20.1h-34.8c-19.2,0-53.1,0.3-66.6,1.8c-2.7-2.4-6-9.9-6-13.5c5.7,0.6,27.3,1.8,49.2,2.4l17.7,0.6h40.5
		v-91.2h-34.5l-17.7,0.3c-16.8,0.3-34.5,0.9-43.2,1.8c-2.7-2.4-5.7-9.9-5.7-13.5c8.7,0.9,42.5,3,69.5,3h115.1
		c1.2-1.8,7.8-11.1,13.2-16.2c0.389-0.409,0.937-0.628,1.5-0.6c3.3,0,25.8,15,25.8,20.7c0,2.4-1.5,4.5-5.4,4.5h-100.6v91.2h70.5
		c10.2-16.2,12.3-17.1,13.2-17.1C246.251,170.25,269.952,185.25,269.952,191.55z M61.952,52.65h14.3c-0.3,3-0.3,6-0.6,9.3
		c-0.217,3.419-0.618,6.824-1.2,10.2v0.6c0,4.2,3,5.4,7.5,5.4c10.5,0,12.6-4.5,12.6-7.5s-0.3-5.1-0.3-7.8v-10.2l52.5-0.053
		c2.667,0.092,4.904-1.995,4.996-4.663c0.005-0.146,0.003-0.292-0.005-0.437c0-5.1-19.465-18.8-22.459-18.8
		c-1.5,0-12.727,12.8-13.975,15.2H94.247V27.749c7.2-1.5,10.8-4.5,10.8-6.9c0-3.3-5.4-7.2-31.2-7.2c1.8,12,2.4,15.9,2.4,24v6.3h-6.8
		c-16.813,0.044-33.612-0.958-50.3-3v0.6c0,3.9,3,10.8,5.7,13.5c14.402-1.5,29-2.4,37.1-2.4L61.952,52.65z M268.352,122.05
		c-3.3,0-14.7,13.1-15.9,14.6h-20.4V122.8c7.2-1.5,10.8-4.5,10.8-6.9c0-3.3-5.4-7.2-31.2-7.2c1.8,12,2.4,15.9,2.4,24v3.947h-5.4
		v0.016c-16.464-0.479-30.827-1.62-41.348-2.764v0.6c0,3.9,3,10.8,5.7,13.5c12.489-1.3,30.386-2.15,40.2-2.353h0.845v2.054
		c-0.3,3-0.3,6-0.6,9.3c-0.218,3.419-0.618,6.824-1.2,10.2v0.6c0,4.2,3,5.4,7.5,5.4c10.5,0,12.6-4.5,12.6-7.5s-0.3-5.1-0.3-7.8
		v-12.25h54.7c3.9,0,5.4-2.7,5.4-5.1C292.152,134.55,271.052,122.05,268.352,122.05z M191.87,52.65h10.083
		c-0.072,6.217-0.472,12.425-1.2,18.6v0.6c0,4.2,3,5.4,7.5,5.4s12.3-1.2,12.3-7.2c0-2.7-0.3-4.5-0.3-9c0-3-0.3-5.7-0.3-8.4h58.8
		c4.2,0,6-2.7,6-5.1c0-5.1-21.4-18.8-25-18.8c-1.8,0-15.3,12.8-16.8,15.2l-23-0.3c0.01-5.436,0.3-14.417,0.3-15.6
		c6.9-1.5,10.2-4.2,10.2-6.9c0-5.1-12-7.2-30.6-7.2c1.523,7.4,2.228,14.946,2.1,22.5v7.106c-19.1-0.339-35.809-1.623-47.651-2.911
		v0.6c0,3.9,3,10.8,5.7,13.5c9.472-0.987,22.058-1.714,31.868-2.096V52.65z M62.1,147.7c-0.3,3-0.3,6-0.6,9.3
		c-0.217,3.419-0.618,6.824-1.2,10.2v0.6c0,4.2,3,5.4,7.5,5.4c10.5,0,12.6-4.5,12.6-7.5s-0.3-5.1-0.3-7.8v-12.1h50.647
		c2.667,0.092,4.904-1.995,4.996-4.663c0.005-0.146,0.003-0.292-0.005-0.437c0-5.1-19.465-18.8-22.46-18.8
		c-1.5,0-12.727,12.8-13.975,15.2l-19.2-0.647V122.8c7.2-1.5,10.8-4.5,10.8-6.9c0-3.3-5.4-7.2-31.2-7.2c1.8,12,2.4,15.9,2.4,24
		v3.338c-23.721-0.7-48.341-1.877-54.251-2.391v0.6c0,3.3,3,11.1,5.7,13.8c9.178-0.992,29.432-1.779,48.551-2.192L62.1,147.7z"/>
</g>
</svg>
