<?xml version="1.0" encoding="iso-8859-1"?>
<!-- Generator: Adobe Illustrator 24.3.0, SVG Export Plug-In . SVG Version: 6.00 Build 0)  -->
<svg version="1.1" id="&#x30EC;&#x30A4;&#x30E4;&#x30FC;_1"
	 xmlns="http://www.w3.org/2000/svg" xmlns:xlink="http://www.w3.org/1999/xlink" x="0px" y="0px" viewBox="0 0 300 300"
	 style="enable-background:new 0 0 300 300;" xml:space="preserve">
<g id="G64AE">
	<path d="M72.4,82.442v31.2c0,13.8,4.5,19.5,15,20.4c17.1,1.8,42.9,3,69,3c22.5,0,45-0.9,61.5-2.4c20.4-2.1,24.9-12.3,34.8-55.8
		c0.237-1.116,1.262-1.885,2.4-1.8c2.4,0,5.4,1.8,5.1,3.3c-6.3,36.9-6.3,38.4-6.3,40.8c0,3,0.9,4.2,3.3,5.4c5.7,2.1,7.8,3.3,7.8,8.7
		c0,8.4-3.6,18-111.3,18c-22.8,0-45.6-0.6-66.6-2.1c-13.8-0.9-33.9-4.5-33.9-32.1v-1.2c0,0,0.6-15,0.6-21.6c0-13.5-0.3-27-0.9-32.7
		c6.6,1.8,16.5,6.9,22.8,10.8h130.2c0-3.9,0.3-9.6,0.3-17.1v-21H118c-10.5,0-60,0.3-69.9,1.8c-2.1-2.1-5.1-9-5.1-12.6
		c9.9,1.2,68.4,2.4,79.8,2.4h80.7c5.1-6,8.7-9.6,10.5-9.6c0.518-0.047,1.039,0.057,1.5,0.3c5.4,1.8,18.3,10.2,18.3,15.9
		c0,2.4-2.1,5.1-9.3,6.6v11.7c0,6.9,0.3,17.7,0.6,26.4c0.3,2.1,0.3,9,0.6,11.1v0.6c0,6-9.6,6.6-12.6,6.6c-4.2,0-7.5-1.2-7.5-4.8
		c0-3.9,0-6.6,0.3-10.2L72.4,82.442z M159.9,200.8c19.2,34.2,69,58.2,125.7,59.4c1.8,0,2.7,2.4,2.7,4.5c0,1.5-0.6,3-1.8,3.3
		c-5.7,0.9-17.4,7.2-20.7,12c-0.6,0.9-1.2,1.5-3.9,1.5c-44.7-5.1-92.4-38.1-108.3-76.2c-22.2,72.9-136.5,81-138,81
		c-2.4,0-3.9-2.7-3.9-4.5c-0.083-1.043,0.526-2.017,1.5-2.4c68.1-12.6,110.4-40.2,121.8-78.6H98.1c-14.4,0-60.9,0.6-74.7,2.1
		c-3-3-5.7-9.9-6-14.1c16.5,2.1,70.5,3.3,93,3.3h26.4c0.956-5.449,1.458-10.968,1.5-16.5c0.141-5.143-0.363-10.283-1.5-15.3
		c4.2,0,31.2,0.3,31.2,8.1c0,2.4-3.3,5.1-9.9,6.3c-0.102,4.82-0.502,9.629-1.2,14.4c0,0.9-0.3,2.1-0.3,3h79.2
		c4.5-6.3,15.6-19.5,18-19.5c0.423-0.045,0.848,0.061,1.2,0.3c6.3,3,25.5,18,25.5,23.4c0,2.4-1.5,4.5-5.1,4.5L159.9,200.8z"/>
</g>
</svg>
