<?xml version="1.0" encoding="iso-8859-1"?>
<!-- Generator: Adobe Illustrator 24.3.0, SVG Export Plug-In . SVG Version: 6.00 Build 0)  -->
<svg version="1.1" id="&#x30EC;&#x30A4;&#x30E4;&#x30FC;_1"
	 xmlns="http://www.w3.org/2000/svg" xmlns:xlink="http://www.w3.org/1999/xlink" x="0px" y="0px" viewBox="0 0 300 300"
	 style="enable-background:new 0 0 300 300;" xml:space="preserve">
<g id="G651B">
	<path d="M75.3,282.3c-2.4,0-4.8-3-4.8-5.1c-0.106-0.816,0.406-1.584,1.2-1.8c62.1-18.9,120.6-67.2,131.1-94.5
		c7.2,3.3,26.7,14.7,26.7,21.3c0,2.1-2.1,3.9-6.3,3.9c-2.333-0.182-4.643-0.583-6.9-1.2C159.3,265.5,76.8,282.3,75.3,282.3z
		 M87.3,193.2c-2.4,0-4.5-2.7-4.5-4.8c-0.092-0.727,0.264-1.437,0.9-1.8c46.8-21.6,99.9-67.8,107.1-91.2C192.3,96,216,108,216,116.1
		c0,2.4-2.1,3.9-5.7,3.9c-2.349-0.032-4.678-0.437-6.9-1.2C155.7,170.1,89.7,193.2,87.3,193.2L87.3,193.2z M95.1,109.5
		c-2.637-0.155-4.785-2.177-5.1-4.8c-0.023-0.794,0.458-1.516,1.2-1.8c42.6-21.6,86.7-66,91.5-85.2c7.2,2.4,25.8,12.9,25.8,19.2
		c0,2.4-2.1,4.2-6.6,4.2c-1.931-0.05-3.847-0.353-5.7-0.9C156.6,84.9,99,109.5,95.1,109.5L95.1,109.5z"/>
</g>
</svg>
