<?xml version="1.0" encoding="iso-8859-1"?>
<!-- Generator: Adobe Illustrator 24.3.0, SVG Export Plug-In . SVG Version: 6.00 Build 0)  -->
<svg version="1.1" id="&#x30EC;&#x30A4;&#x30E4;&#x30FC;_1"
	 xmlns="http://www.w3.org/2000/svg" xmlns:xlink="http://www.w3.org/1999/xlink" x="0px" y="0px" viewBox="0 0 300 300"
	 style="enable-background:new 0 0 300 300;" xml:space="preserve">
<g id="G6527">
	<path d="M123.368,234.707v15.808c0,4.123,0.343,14.089,0.343,17.182c0,7.56-4.81,10.309-14.089,10.309
		c-6.529,0-8.934-3.093-8.934-7.56v-0.688c0.343-5.842,1.03-21.649,1.718-51.2c0-10.309,0.687-69.415,0.687-79.38
		c0-3.093-0.687-77.319-0.687-81.1c-0.343-12.028,0-24.055-2.406-36.083c6.874,1.719,19.931,8.592,27.492,13.4h40.893
		c3.436-5.5,8.934-11,10.309-11C180.412,24.4,200,35.74,200,42.956c0,2.75-2.75,5.155-9.622,7.217V186.6
		c0,6.872,0.343,31.958,0.687,42.611c0,3.436,0.688,15.464,0.688,20.274v1.032c0,4.467-2.75,7.216-11,8.591
		c-1.031,0-2.062,0.343-3.093,0.343c-5.5,0-8.248-2.749-8.248-7.56c0-4.467,0-12.371,0.345-17.182L123.368,234.707z M170.1,45.019
		h-46.732l-0.344,80.411H170.1V45.019z M170.1,135.052h-47.076v90.377h46.736c0.343-9.966,0.343-26.8,0.343-33.333L170.1,135.052z"
		/>
</g>
</svg>
