<?xml version="1.0" encoding="iso-8859-1"?>
<!-- Generator: Adobe Illustrator 24.3.0, SVG Export Plug-In . SVG Version: 6.00 Build 0)  -->
<svg version="1.1" id="&#x30EC;&#x30A4;&#x30E4;&#x30FC;_1"
	 xmlns="http://www.w3.org/2000/svg" xmlns:xlink="http://www.w3.org/1999/xlink" x="0px" y="0px" viewBox="0 0 300 300"
	 style="enable-background:new 0 0 300 300;" xml:space="preserve">
<g id="G6528">
	<path d="M164.4,112.2c9.211-11.105,17.347-23.058,24.3-35.7c1.8-3.3,3-8.1,4.8-13.5c7.2,3.6,21,13.5,21,18.6c0,2.4-1.8,4.2-5.1,4.2
		c-1.843-0.174-3.657-0.577-5.4-1.2c-9.9,12-28.5,29.7-39.9,38.1c-0.6,25.5-2.7,46.8-6.3,64.5c15.3,7.2,46.2,30,49.8,42.9
		c0.593,2.048,0.896,4.168,0.9,6.3c0,6.6-2.7,13.8-9.3,13.8c-3.9,0-7.2-3.6-10.2-10.5c-6-14.7-18.6-32.4-33-44.7
		c-11.1,43.5-32.4,65.4-64.5,89.1c-0.3,0.3-0.6,0.3-1.2,0.3c-1.8,0-4.8-1.8-4.8-4.2c0.03-0.855,0.479-1.64,1.2-2.1
		c44.1-37.8,59.4-78.6,59.4-165.9c0-6.3,0-13.2-0.3-20.4c0-36,0-61.5-3.6-76.2c28.2,0.9,32.1,4.5,32.1,7.5c0,2.4-3,5.4-9.3,7.5
		c-0.3,16.2-0.6,80.4-0.6,80.4L164.4,112.2z M92.7,155.4c-0.108-4.936,1.6-9.74,4.8-13.5c10.2-11.1,15.6-32.4,16.2-66.3
		c0-1.8,2.1-2.4,4.2-2.4c1.8,0,3.9,0.6,3.9,1.8c0.9,11.4,1.2,22.2,1.2,32.1c0,58.2-18,60.6-21.6,60.6
		C92.7,167.7,92.7,157.2,92.7,155.4z"/>
</g>
</svg>
