<?xml version="1.0" encoding="iso-8859-1"?>
<!-- Generator: Adobe Illustrator 24.3.0, SVG Export Plug-In . SVG Version: 6.00 Build 0)  -->
<svg version="1.1" id="&#x30EC;&#x30A4;&#x30E4;&#x30FC;_1"
	 xmlns="http://www.w3.org/2000/svg" xmlns:xlink="http://www.w3.org/1999/xlink" x="0px" y="0px" viewBox="0 0 300 300"
	 style="enable-background:new 0 0 300 300;" xml:space="preserve">
<g id="G652A">
	<path d="M167.4,277.051c0-2.7,0.6-7.2,0.9-13.8c0.3-12,1.2-48.9,1.2-58.2v-88.8h-46.2c0,69.9-12.9,124.8-62.7,163.8
		c-0.3,0.3-0.6,0.3-1.2,0.3c-1.8,0-4.5-3-4.5-4.8c0-0.6,0-0.9,0.3-1.2c40.8-40.5,49.5-90.6,49.5-156.6c0-26.1-2.1-64.2-4.2-83.1
		c7.345,2.119,14.399,5.143,21,9c19.5-3.9,67.8-15.3,81.6-27.3c6.9,3.9,21.3,15.6,21.3,21.9c0,2.7-1.8,3.9-4.8,3.9
		c-2.7,0-6.3-0.9-10.8-3.6c-28.417,6.078-57.167,10.486-86.1,13.2c0.3,17.1,0.3,36.3,0.6,50.4v5.7h78.9c2.4-3.6,14.1-19.5,17.4-19.5
		c4.5,0,25.5,18.6,25.5,23.7c0,2.4-1.8,4.2-5.7,4.2h-50.7v90.6c0,9.3,0.9,43.5,1.2,56.1c0,5.4,0.6,10.2,0.6,12.9
		c0,4.2-3.9,7.8-13.5,7.8c-5.1,0-9.6-1.5-9.6-6.3V277.051z"/>
</g>
</svg>
