<?xml version="1.0" encoding="iso-8859-1"?>
<!-- Generator: Adobe Illustrator 24.3.0, SVG Export Plug-In . SVG Version: 6.00 Build 0)  -->
<svg version="1.1" id="&#x30EC;&#x30A4;&#x30E4;&#x30FC;_1"
	 xmlns="http://www.w3.org/2000/svg" xmlns:xlink="http://www.w3.org/1999/xlink" x="0px" y="0px" viewBox="0 0 300 300"
	 style="enable-background:new 0 0 300 300;" xml:space="preserve">
<g id="G6520">
	<path d="M160.2,103.95c0,15.9,6.9,120.9,83.7,162.9c0.581,0.412,0.919,1.087,0.9,1.8c0,2.4-1.8,5.1-2.7,5.1c-4.2,0-12.6,0-19.8,5.4
		c-0.776,0.82-1.872,1.259-3,1.2c-5.7,0-48.9-42-60.6-135.9c-6,70.8-36,112.8-98.4,142.5c-0.239,0.231-0.57,0.341-0.9,0.3
		c-2.1,0-4.2-3.3-4.2-5.4c0.009-0.47,0.23-0.911,0.6-1.2c69.6-36.6,86.4-98.4,87-164.1c0-9-0.3-21.6-1.2-25.8c3,0,15.3,0.9,21,1.5
		c3,0.3,4.8,2.1,4.8,3.9c0,2.1-2.4,4.2-7.2,5.1L160.2,103.95z M127.5,72.75c-12.9,34.8-37.5,74.7-44.4,74.7
		c-1.816-0.016-3.284-1.484-3.3-3.3c0.059-0.733,0.263-1.447,0.6-2.1c22.2-33,39.3-88.8,39.3-123c0.05-2.104-0.05-4.21-0.3-6.3
		c6.3,0.6,32.4,4.2,32.4,11.4c0,2.7-3.6,5.4-11.4,6.6c-2.7,11.1-6,22.2-9.9,33.3h74.4c6.9-6.9,9-9,10.5-9c2.4,0,22.8,13.5,22.8,21
		c0,3.3-3.3,6-9.3,6c-2.129-0.045-4.244-0.347-6.3-0.9c-12.3,19.5-33.9,44.7-36,44.7c-1.2,0-4.5-2.4-4.5-4.2
		c0.163-0.162,0.269-0.372,0.3-0.6c9-14.4,18.3-34.5,22.5-48.3H127.5z"/>
</g>
</svg>
