<?xml version="1.0" encoding="iso-8859-1"?>
<!-- Generator: Adobe Illustrator 24.3.0, SVG Export Plug-In . SVG Version: 6.00 Build 0)  -->
<svg version="1.1" id="&#x30EC;&#x30A4;&#x30E4;&#x30FC;_1"
	 xmlns="http://www.w3.org/2000/svg" xmlns:xlink="http://www.w3.org/1999/xlink" x="0px" y="0px" viewBox="0 0 300 300"
	 style="enable-background:new 0 0 300 300;" xml:space="preserve">
<g id="G652D">
	<path d="M14.7,184.8c0-9.9,6.9-13.2,10.2-14.7c15.3-6.3,30.9-25.5,35.7-49.8c0.3-1.2,1.2-1.5,2.4-1.5c2.4,0,5.1,1.2,5.1,2.4v1.8
		c0,35.4-24,73.2-43.5,73.2C18.6,196.2,14.7,191.7,14.7,184.8z M123.9,109.5c0,2.7-3.6,5.4-10.8,7.8c-0.6,9.3-0.6,56.7-0.6,56.7
		c0,16.8,9.3,18.6,39.9,18.6c11.444,0.056,22.876-0.747,34.2-2.4c13.8-2.1,20.4-5.1,25.5-46.8c0-1.2,1.5-1.8,3.3-1.8
		c2.1,0,5.1,1.2,5.1,2.7v0.3c-0.6,5.4-2.7,29.7-2.7,30.6c0,5.1,1.8,7.5,5.4,8.4c7.8,1.5,8.1,6,8.1,9.3c0,5.7-4.8,9-11.4,10.8
		c-21.3,5.7-57.6,6-63.3,6c-39.9,0-62.7-2.1-62.7-30.9v-0.9c0,0,0.6-52.2,0.6-57.3c-0.233-6.529-0.834-13.039-1.8-19.5
		C94.8,101.1,123.9,102.3,123.9,109.5z M169.5,139.2c-7.8-15.6-21-31.2-38.7-42.9c-0.6-0.3-0.6-0.9-0.6-1.5c0-1.8,2.1-4.5,4.2-4.5
		c4.8,0,45.3,21.3,51.9,36.6c1.141,2.761,1.752,5.713,1.8,8.7c0,3.6-1.5,12.9-8.4,12.9C176.4,148.5,172.5,145.5,169.5,139.2z
		 M265.2,175.5c-10.8-22.2-25.8-41.4-45.3-54.6c-0.6-0.3-0.6-0.9-0.6-1.5c0-2.1,2.1-4.8,4.2-4.8c5.4,0,61.8,32.1,61.8,55.5
		c0,1.8-1.2,15-9.3,15C272.4,185.1,268.5,182.1,265.2,175.5z"/>
</g>
</svg>
