<?xml version="1.0" encoding="iso-8859-1"?>
<!-- Generator: Adobe Illustrator 24.3.0, SVG Export Plug-In . SVG Version: 6.00 Build 0)  -->
<svg version="1.1" id="&#x30EC;&#x30A4;&#x30E4;&#x30FC;_1"
	 xmlns="http://www.w3.org/2000/svg" xmlns:xlink="http://www.w3.org/1999/xlink" x="0px" y="0px" viewBox="0 0 300 300"
	 style="enable-background:new 0 0 300 300;" xml:space="preserve">
<g id="G6537">
	<path d="M139.05,97.5c-5.16,10.784-10.867,21.298-17.1,31.5c5.7,2.1,38.4,15.9,38.4,34.2c0,7.8-4.8,13.2-9,13.2
		c-3.6,0-7.2-2.7-9.6-8.4c-5.406-12.585-13.614-23.77-24-32.7c-20.4,31.5-42.6,51.6-45.3,51.6c-2.1,0-4.5-3-4.5-5.1
		c0.01-0.556,0.224-1.09,0.6-1.5c31.8-33,59.1-90.9,69.9-139.2h-11.4c-11.1,0-32.7,0.3-48,2.1c-2.7-2.4-5.1-9.9-5.4-13.5
		c14.7,1.8,39.9,2.7,61.5,2.7h54.6c10.2-14.1,13.5-18.6,17.1-18.6c6,0,25.2,18.3,25.2,22.8c0,2.1-1.2,4.5-5.1,4.5h-66.9
		c-4.249,16.247-9.869,32.104-16.8,47.4h45.6c7.2-9.9,9.3-10.5,10.2-10.5c1.2,0,21,11.4,21,18.6c0,2.7-3,4.8-10.8,6.3
		c-15.6,72.6-48.9,140.7-132.6,183c-0.3,0.3-0.6,0.3-1.2,0.3c-2.1,0-4.2-3-4.2-5.1c0-0.6,0-1.2,0.6-1.5
		c78.3-46.2,108-121.5,117-182.1L139.05,97.5z"/>
</g>
</svg>
