<?xml version="1.0" encoding="iso-8859-1"?>
<!-- Generator: Adobe Illustrator 24.3.0, SVG Export Plug-In . SVG Version: 6.00 Build 0)  -->
<svg version="1.1" id="&#x30EC;&#x30A4;&#x30E4;&#x30FC;_1"
	 xmlns="http://www.w3.org/2000/svg" xmlns:xlink="http://www.w3.org/1999/xlink" x="0px" y="0px" viewBox="0 0 300 300"
	 style="enable-background:new 0 0 300 300;" xml:space="preserve">
<g id="G653C">
	<path d="M137.55,233.7v2.1c0,2.7,0.3,20.1,0.3,22.5v7.8c-0.3,3-1.5,8.4-12.3,8.4c-5.1,0-7.8-1.8-7.8-6.6v-1.2
		c0-1.2,0.6-5.1,0.9-10.5c0.3-10.8,0.9-19.2,0.9-27.3l0.9-84.9c-13.2,24.3-28.8,42.9-32.1,42.9c-2.4,0-4.5-1.8-4.5-3.9
		c0-0.6,0.3-0.9,0.6-1.5c21.3-29.7,43.2-76.2,50.1-130.2c-11.1,0.3-28.5,0.6-36.9,1.8c-2.7-2.4-4.8-8.7-5.1-12.3
		c10.5,1.5,40.2,2.7,54.9,2.7h28.5c6.6-9,13.2-18,15.6-18c0.9,0,24.6,15.9,24.6,21.6c0,2.7-2.7,4.2-5.7,4.2h-55.5
		c-4.75,23.115-11.992,45.647-21.6,67.2c2.271,0.717,4.478,1.62,6.6,2.7h33c2.7-3.3,8.1-9.6,9.9-9.6c1.5,0,19.5,11.7,19.5,17.1
		c0,3.6-4.2,6-9.3,7.5c-0.3,4.8-0.3,72.9-0.3,72.9c0,5.1,0.9,20.7,0.9,23.7c0.3,3.3,0.6,9.3,0.6,10.2c0,3.3-1.8,8.1-12,8.1
		c-6,0-7.5-2.7-7.5-6c0-2.1,0.6-8.1,0.6-11.4L137.55,233.7z M175.65,128.7h-38.1v97.5h37.8c0.3-4.2,0.3-9.3,0.3-12.9V128.7z"/>
</g>
</svg>
