<?xml version="1.0" encoding="iso-8859-1"?>
<!-- Generator: Adobe Illustrator 24.3.0, SVG Export Plug-In . SVG Version: 6.00 Build 0)  -->
<svg version="1.1" id="&#x30EC;&#x30A4;&#x30E4;&#x30FC;_1"
	 xmlns="http://www.w3.org/2000/svg" xmlns:xlink="http://www.w3.org/1999/xlink" x="0px" y="0px" viewBox="0 0 300 300"
	 style="enable-background:new 0 0 300 300;" xml:space="preserve">
<g id="G6530">
	<path d="M145.351,133.2c-6,60.3-24,119.7-80.4,152.7c-0.3,0-0.6,0.3-0.9,0.3c-1.8,0-5.1-2.7-5.1-4.8
		c-0.012-0.631,0.338-1.213,0.9-1.5c61.8-45,67.8-133.2,69.9-203.1c-14.529-0.177-29.056,0.524-43.5,2.1c-2.7-3-4.5-8.7-4.8-12.6
		c12,1.5,29.7,2.4,53.7,2.4V45.6c0.165-10.629-0.437-21.257-1.8-31.8c26.7,0.9,30.9,4.2,30.9,8.1c0,3-3.3,6-10.5,7.8
		c-0.3,3.6-0.3,30-0.3,39h46.5c4.2-6.6,13.2-19.2,15.6-19.2c0.423-0.045,0.848,0.061,1.2,0.3c5.1,2.7,24.3,17.1,24.3,22.8
		c0,2.1-1.5,4.2-4.8,4.2h-87.6c-0.6,15.6-1.2,31.5-2.4,47.7h47.1c2.1-2.4,5.4-6.9,8.1-9.6c0.9-0.9,1.5-1.2,1.8-1.2
		c4.8,0,20.4,13.2,20.4,18c0,3.3-3.3,6.6-9.9,7.8c-0.3,29.1-1.8,77.1-11.4,106.2c-11.1,32.4-37.5,34.5-41.1,34.5c-3,0-4.2-1.2-4.8-3
		c-1.8-4.2-3.6-6.6-7.5-8.4c-6.6-3-16.2-5.1-22.5-7.2c-1.2-0.3-1.5-1.5-1.5-3c0-2.1,1.2-4.5,3.3-4.5h0.6c2.1,0.6,22.2,5.1,33.9,5.1
		c18.3,0,33.3-23.1,33.3-126L145.351,133.2z"/>
</g>
</svg>
