<?xml version="1.0" encoding="iso-8859-1"?>
<!-- Generator: Adobe Illustrator 24.3.0, SVG Export Plug-In . SVG Version: 6.00 Build 0)  -->
<svg version="1.1" id="&#x30EC;&#x30A4;&#x30E4;&#x30FC;_1"
	 xmlns="http://www.w3.org/2000/svg" xmlns:xlink="http://www.w3.org/1999/xlink" x="0px" y="0px" viewBox="0 0 300 300"
	 style="enable-background:new 0 0 300 300;" xml:space="preserve">
<g id="G6538">
	<path d="M163.95,163.65h-32.4c-2.7,54.6-13.8,89.1-38.1,119.1c-0.412,0.581-1.087,0.919-1.8,0.9c-1.8,0-4.2-1.8-4.2-3.6
		c0-0.6,0.3-0.9,0.6-1.5c18.9-31.8,26.4-67.8,26.4-144c0-77.7-2.4-106.8-3.9-116.4c6.6,0,28.5,1.5,28.5,7.8c0,2.4-2.7,4.8-8.1,6.6
		c0,12.9,0.6,39.9,0.9,61.5h28.5v-48.3c0-14.7-0.6-21.9-2.1-31.5c25.8,0.9,27.9,5.1,27.9,7.5s-3,5.1-9.3,6.6v65.7h6
		c2.1-4.5,8.4-16.5,11.4-16.5c3.6,0,18.3,16.5,18.3,20.4c0,2.7-3,4.2-7.2,4.2h-73.5l0.3,21.6v9.6c0,7.5,0,14.4-0.3,21.3h29.4
		c5.4-6.9,9.3-9.6,10.8-9.6c3.6,0,19.5,12,19.5,16.2c0,2.4-2.4,4.8-9.3,7.2c-0.9,6-0.9,13.2-0.9,18.9c0,2.7,0.3,53.7,0.3,56.1
		c0,4.2,0.6,25.8,0.9,28.8c0,1.8,0.3,4.8,0.3,6.6c0,5.7-7.8,6.9-12,6.9c-6,0-7.5-2.1-7.5-5.7c0-1.8,0.6-10.5,0.6-14.4L163.95,163.65
		z"/>
</g>
</svg>
