<?xml version="1.0" encoding="iso-8859-1"?>
<!-- Generator: Adobe Illustrator 24.3.0, SVG Export Plug-In . SVG Version: 6.00 Build 0)  -->
<svg version="1.1" id="&#x30EC;&#x30A4;&#x30E4;&#x30FC;_1"
	 xmlns="http://www.w3.org/2000/svg" xmlns:xlink="http://www.w3.org/1999/xlink" x="0px" y="0px" viewBox="0 0 300 300"
	 style="enable-background:new 0 0 300 300;" xml:space="preserve">
<g id="G6543">
	<path d="M186.15,136.05c2.1-3,9-9.3,10.8-9.3c3.9,0,22.2,13.8,22.2,18.9c0,3.3-3.9,5.1-12.3,6.3
		c-9.733,25.414-24.533,48.584-43.5,68.1c23.7,18.6,53.7,32.7,90,38.1c1.2,0,1.8,1.8,1.8,3.3c0,2.1-0.9,4.5-2.7,4.8
		c-6,1.2-16.2,4.8-20.7,10.2c-0.9,0.9-1.5,1.5-2.4,1.5c0,0-40.2-9.9-77.4-47.1c-45,40.2-101.7,52.8-102.3,52.8
		c-2.1,0-4.8-3.3-4.8-5.7c-0.002-0.72,0.497-1.344,1.2-1.5c35.7-11.4,69.3-30.3,95.4-56.7c-18.394-21.485-31.996-46.644-39.9-73.8
		c-8.7,0.3-16.5,0.9-20.7,1.5c-2.4-2.1-6-9.6-6.6-13.8c12.3,2.1,45.9,2.4,57.6,2.4L186.15,136.05L186.15,136.05z M171.45,33.75
		h-46.5v21c0,39-20.1,61.2-59.7,78.3c-0.352,0.239-0.777,0.345-1.2,0.3c-1.8,0-3.6-2.1-3.6-4.2c-0.039-0.873,0.428-1.69,1.2-2.1
		c34.8-18.3,44.7-42,44.7-73.2c0-16.8-0.6-23.7-3-37.5c6.9,1.8,16.8,5.1,24.3,9.3h41.7c8.1-8.1,9.3-8.4,10.5-8.4
		c3.9,0,17.7,9,17.7,14.4c0,3-3.3,5.4-8.1,6.6c-0.3,12.3-0.6,28.5-0.6,47.4c0,10.5,9.6,10.8,17.7,10.8c21.6,0,21.9-2.1,26.7-40.2
		c0-1.5,1.5-2.4,3.3-2.4c2.1,0,4.2,1.2,4.2,3v0.3c-0.3,4.2-1.8,21.9-2.1,26.7v0.9c0,2.4,0.9,4.5,2.1,5.4s2.4,1.2,3.6,2.1
		c3.6,2.1,3.6,5.1,3.6,5.7c0,14.1-30.9,14.4-42,14.4c-13.2,0-34.8-0.9-34.8-24L171.45,33.75z M135.45,145.35c0,0-12.3,0-25.5,0.3
		c7.8,22.8,21.9,45,41.4,63.6c15.6-18.3,27.9-39.6,34.8-63.9H135.45z"/>
</g>
</svg>
