<?xml version="1.0" encoding="iso-8859-1"?>
<!-- Generator: Adobe Illustrator 24.3.0, SVG Export Plug-In . SVG Version: 6.00 Build 0)  -->
<svg version="1.1" id="&#x30EC;&#x30A4;&#x30E4;&#x30FC;_1"
	 xmlns="http://www.w3.org/2000/svg" xmlns:xlink="http://www.w3.org/1999/xlink" x="0px" y="0px" viewBox="0 0 300 300"
	 style="enable-background:new 0 0 300 300;" xml:space="preserve">
<g id="G654B">
	<path d="M140.4,163.5h-27l0.3,12.6v9c0,6.6-10.5,6.6-11.1,6.6c-4.5,0-7.5-1.5-7.5-5.1v-0.3c0-2.1,0.9-8.1,1.2-12.3
		c0.6-5.4,0.6-22.5,0.6-26.4c0-2.4,0.3-34.5,0.3-38.4c0-5.4,0-35.4-1.8-43.5c7.286,2.424,14.24,5.75,20.7,9.9h24.3v-21
		c0.005-9.429-0.596-18.848-1.8-28.2c24,0,30,3.6,30,7.5c0,2.7-3.6,5.7-10.8,7.2c0,1.5-0.3,15-0.3,34.5h27c3.6-4.8,6.3-8.7,8.7-8.7
		c0.637,0.062,1.253,0.267,1.8,0.6c0,0,17.4,9.6,17.4,15.6c0,2.4-2.7,4.8-9.3,6.6c-0.3,1.8-0.3,3-0.3,12.6c0,2.7,0.3,46.8,0.3,50.4
		c0,4.2,0,9,0.3,14.4c0,1.2,0.6,5.4,0.6,6.6v0.6c0,5.4-7.8,6-11.1,6c-4.2,0-7.2-1.2-7.2-4.5v-12.3h-27.9v68.7
		c11.4-3,22.5-6.3,32.4-9.6c-4.297-9.543-10.067-18.35-17.1-26.1c-0.3-0.6-0.6-0.9-0.6-1.5c0-1.5,2.4-3,4.5-3
		c4.5,0,40.2,34.5,40.2,53.7c0,7.2-4.8,13.2-9.6,13.2c-3.6,0-6.9-3.6-8.7-9.9c-1.535-6.536-3.541-12.953-6-19.2
		c-27.3,12.9-69,26.1-89.7,33.6c0,0.9,0.3,2.1,0.3,2.7c0,4.8-2.1,7.5-4.5,7.5c-7.5,0-15.3-23.7-16.2-26.7
		c5.432-0.27,10.842-0.871,16.2-1.8c10.8-2.1,25.8-5.1,41.4-8.7V163.5z M140.4,84h-26.7c0,15.3-0.3,63-0.3,63v8.1h27V84z M186,148.8
		V84h-28.5c0,21,0,46.8,0.3,71.1H186V148.8z"/>
</g>
</svg>
