<?xml version="1.0" encoding="iso-8859-1"?>
<!-- Generator: Adobe Illustrator 24.3.0, SVG Export Plug-In . SVG Version: 6.00 Build 0)  -->
<svg version="1.1" id="&#x30EC;&#x30A4;&#x30E4;&#x30FC;_1"
	 xmlns="http://www.w3.org/2000/svg" xmlns:xlink="http://www.w3.org/1999/xlink" x="0px" y="0px" viewBox="0 0 300 300"
	 style="enable-background:new 0 0 300 300;" xml:space="preserve">
<g id="G6541">
	<path d="M169.36,245.118H122.9v13.131c0,3.7,0.337,9.428,0.337,12.122c0,10.1-13.131,10.1-14.142,10.1
		c-6.4,0-8.417-2.694-8.417-6.4v-1.347c0.633-5.703,0.971-11.434,1.01-17.172c0.337-7.071,1.01-36.027,1.01-54.882V62.962
		c0-15.488-0.337-32.659-2.693-43.434c9.221,3.208,18.125,7.266,26.595,12.122h39.394c4.714-5.388,10.1-11.112,12.8-11.112
		c5.05,0,21.212,13.468,21.212,18.519c0,3.03-2.358,6.061-10.437,7.744V194.95c0,5.386,0.673,36.027,1.009,47.811
		c0.336,4.378,1.011,13.8,1.011,15.825v0.337c0,8.754-13.468,9.091-14.815,9.091c-5.387,0-8.081-2.693-8.081-7.407
		c0-5.051,0.673-10.775,0.673-14.479L169.36,245.118z M169.697,105.387h-46.465l-0.337,57.24h46.8L169.697,105.387z
		 M169.697,171.717H122.9v64.31h46.46c0.337-13.8,0.337-37.036,0.337-41.414V171.717z M169.697,40.404h-46.465V96.3H169.7
		L169.697,40.404z"/>
</g>
</svg>
