<?xml version="1.0" encoding="iso-8859-1"?>
<!-- Generator: Adobe Illustrator 24.3.0, SVG Export Plug-In . SVG Version: 6.00 Build 0)  -->
<svg version="1.1" id="&#x30EC;&#x30A4;&#x30E4;&#x30FC;_1"
	 xmlns="http://www.w3.org/2000/svg" xmlns:xlink="http://www.w3.org/1999/xlink" x="0px" y="0px" viewBox="0 0 300 300"
	 style="enable-background:new 0 0 300 300;" xml:space="preserve">
<g id="G655C">
	<path d="M157.351,224.7c0.3,15,0.6,30.6,0.6,38.4c0,7.8,0.3,14.4,0.3,15.6c0,1.8-0.9,7.8-11.4,7.8c-5.1,0-8.4-1.5-8.4-5.7v-1.5
		c0.3-1.2,1.2-18,1.8-54.6h-15c-9.9,0-33.3,0.3-42.9,1.5c-2.7-2.4-4.8-8.4-5.1-12c10.5,1.5,39.3,2.4,53.7,2.4h9.6v-9
		c0-7.8,0-18.6,0.3-31.2h-31.5c0,2.4,0.6,7.5,0.6,9c0,7.2-8.4,8.7-12.3,8.7c-4.5,0-6.6-2.4-6.6-5.7v-1.2
		c0.569-4.478,0.869-8.986,0.9-13.5c0.3-4.5,0.6-12.6,0.9-32.4l0.3-24.9v-4.8c0.033-11.443-0.769-22.874-2.4-34.2
		c7.41,2.335,14.55,5.453,21.3,9.3h28.5V58.8h-18.9c-9.9,0-29.4,0-39,1.5c-2.7-2.4-4.5-8.4-4.8-12c10.5,1.5,37.2,2.7,51.6,2.7h11.1
		v-3.6c0.002-11.333-0.699-22.654-2.1-33.9h1.8c8.4,0,26.4,0.9,26.4,7.5c0,2.7-2.7,5.7-9,7.5c0,0.9,0,9.3-0.3,22.5h27.6
		c9.9-15,12.6-16.2,13.8-16.2c4.8,0,22.8,15.3,22.8,20.4c0,2.1-2.4,3.6-5.4,3.6h-58.8v27.9h28.8c2.548-2.753,5.252-5.358,8.1-7.8
		c0.6-0.3,0.9-0.6,1.2-0.6s0.6,0.3,0.9,0.3c5.7,3,17.4,10.5,17.4,15.6c0,2.1-2.1,4.5-9.3,6.3v34.8c0,4.5,0.6,26.7,0.9,34.5
		c0,3,0.6,10.2,0.6,11.7c0,5.7-7.2,7.5-11.4,7.5c-4.5,0-7.2-2.1-7.2-6c0-2.1,0.3-4.5,0.3-6.6h-30.3v40.2h27.3
		c1.8-2.4,11.4-17.1,14.4-17.1c3.3,0,23.7,16.5,23.7,21.3c0,2.4-2.7,3.9-5.7,3.9L157.351,224.7z M140.55,94.5h-30.9l-0.3,32.1h31.5
		L140.55,94.5z M140.85,134.1h-31.5v34.5h31.5V134.1z M188.25,94.5h-30.9v32.1h30.9V94.5z M188.25,134.1h-30.9v34.5h30.6
		c0.3-6.9,0.3-24,0.3-28.5L188.25,134.1z"/>
</g>
</svg>
