<?xml version="1.0" encoding="iso-8859-1"?>
<!-- Generator: Adobe Illustrator 24.3.0, SVG Export Plug-In . SVG Version: 6.00 Build 0)  -->
<svg version="1.1" id="&#x30EC;&#x30A4;&#x30E4;&#x30FC;_1"
	 xmlns="http://www.w3.org/2000/svg" xmlns:xlink="http://www.w3.org/1999/xlink" x="0px" y="0px" viewBox="0 0 300 300"
	 style="enable-background:new 0 0 300 300;" xml:space="preserve">
<g id="G655F">
	<path d="M157.8,218.1l0.6,45c0,3.6,0.6,15,0.6,16.2c0,3.3-3,6.9-12,6.9c-4.2,0-7.5-0.9-7.5-6v-0.6c0-1.8,0.6-9.9,0.9-15.6
		c0.6-11.4,0.6-30,0.9-45.9h-15.9c-9.6,0-33.3,0.6-42.9,1.8c-2.7-2.4-3.9-8.7-4.5-12.3c10.8,1.5,41.7,2.4,55.2,2.4h8.1v-35.4h-28.5
		v3.3c0,2.1,0.3,5.4,0.3,6.9c0,5.1-6.6,6-10.5,6c-4.2,0-6.9-1.2-6.9-3.9V186c0.6-3.3,1.5-16.2,1.5-30.3c0-0.9,0.3-8.7,0.3-12
		c0.141-9.942-0.562-19.877-2.1-29.7c7.081,2.331,13.836,5.557,20.1,9.6h25.8V92.1h-8.7c0.249,1.688,0.349,3.395,0.3,5.1
		c0,3.3-2.4,6.9-10.5,6.9c-4.2,0-7.2-1.2-7.2-4.8v-0.9c0.3-2.4,1.5-18.3,1.5-24.3V56.7c-10.5,0-25.5,0.6-33,1.5
		c-2.7-2.7-4.2-7.5-4.8-11.4c7.5,0.9,24,1.8,37.8,2.1V36.6c0-8.1-0.6-13.2-1.8-22.8c21.6,0,26.7,2.7,26.7,6c0,2.1-3,5.1-9,6.9
		c-0.3,1.5-0.3,12-0.3,22.5h35.1V36.6c0.07-7.638-0.532-15.268-1.8-22.8c6.6,0,26.4,0.3,26.4,6.3c0,2.1-2.7,4.8-9,6.6
		c-0.3,1.5-0.3,12.3-0.3,22.5h8.7c3.3-4.8,6.9-10.2,10.8-14.1c0.6-0.3,1.2-0.9,1.8-0.9c1.8,0,18,12.9,18,19.2c0,2.1-1.5,3.3-4.2,3.3
		H183v29.4c0,2.7,0.6,6,0.6,9c0,5.1-5.7,6.6-10.8,6.6c-3.9,0-6.6-1.2-6.6-4.5v-0.9c0-0.9,0.3-2.1,0.3-4.2h-8.7v31.5h26.7
		c0.6-0.9,6.6-9.3,9-9.3c1.8,0,17.4,10.5,17.4,15.6c0,3-3,5.1-8.7,6.6c-0.271,2.992-0.372,5.997-0.3,9v5.7c0,4.2,0.3,8.7,0.6,16.5
		c0,2.4,0,9.3,0.3,11.4v0.6c0,6-7.8,6.6-10.2,6.6c-4.2,0-6.6-1.2-6.6-4.5c-0.05-2.404,0.05-4.809,0.3-7.2h-28.8v18
		c0,2.7,0,9.3,0.3,17.4H186c6.3-9.9,12-15.6,13.5-15.6c3,0,21.9,15,21.9,19.8c0,2.4-2.1,3.9-4.8,3.9L157.8,218.1z M141.3,131.4
		h-28.5v35.4h28.5V131.4z M167.1,84.6c0.3-4.2,0.3-7.2,0.3-10.8V56.7h-35.1V72c0,4.8,0.3,8.4,0.3,12.9h34.5V84.6z M186.3,166.8
		c0.3-4.5,0.3-9.6,0.3-14.1c0-4.2-0.3-15-0.3-21.3h-28.5l-0.3,35.4L186.3,166.8z"/>
</g>
</svg>
