<?xml version="1.0" encoding="iso-8859-1"?>
<!-- Generator: Adobe Illustrator 24.3.0, SVG Export Plug-In . SVG Version: 6.00 Build 0)  -->
<svg version="1.1" id="&#x30EC;&#x30A4;&#x30E4;&#x30FC;_1"
	 xmlns="http://www.w3.org/2000/svg" xmlns:xlink="http://www.w3.org/1999/xlink" x="0px" y="0px" viewBox="0 0 300 300"
	 style="enable-background:new 0 0 300 300;" xml:space="preserve">
<g id="G655E">
	<path d="M194.55,201.75h-65.1c-6.6,40.8-21,63.6-40.5,85.8c-0.3,0.6-0.9,0.6-1.5,0.6c-1.8,0-4.2-2.1-4.2-3.9c0-0.6,0-0.9,0.3-1.2
		c21-29.4,33.3-67.8,33.3-132.3v-9c-0.3-12.3-0.3-35.1-0.3-43.5v-5.1c-10.8,14.1-28.8,33.6-32.4,33.6
		c-2.155-0.123-3.918-1.76-4.2-3.9c0.075-0.451,0.284-0.869,0.6-1.2c24-24.3,40.8-56.7,53.1-91.5c2.1-5.7,2.7-10.2,3.6-18.3
		c4.2,0.6,27.6,4.5,27.6,11.4c0,2.4-3.6,4.8-10.2,4.8h-1.5c-1.5,3.6-3,7.2-4.5,10.5h26.7c2.1-3,5.1-6.9,8.1-9
		c0.3-0.3,0.6-0.6,0.9-0.6s19.5,11.1,19.5,18c0,2.4-2.7,4.8-11.1,5.1c-6,10.2-15,24.3-25.5,35.1h24.9
		c2.358-3.484,4.964-6.793,7.8-9.9c0.389-0.409,0.936-0.628,1.5-0.6c0.52-0.079,1.051,0.027,1.5,0.3c1.2,0.6,17.1,9.9,17.1,16.5
		c0,2.7-2.7,5.1-9.6,7.2v112.8c0,8.7,0.6,33.9,0.9,42v0.9c0,19.8-20.7,30.3-30.9,30.3c-1.5,0-2.7-0.3-3.3-2.4
		c-1.8-6.3-2.4-8.7-31.5-15c-1.2-0.3-1.8-1.8-1.8-3.6c0-2.1,0.9-4.5,2.7-4.5h0.3c10.8,1.8,26.1,3.9,32.4,3.9
		c9.3,0,15.3-5.1,15.3-14.1L194.55,201.75z M145.05,46.05c-5.985,12.407-12.905,24.342-20.7,35.7c3.58,1.437,6.999,3.247,10.2,5.4
		h23.7c7.224-13.091,13.152-26.856,17.7-41.1H145.05z M154.95,146.85h-21.9c0.123,15.642-0.779,31.276-2.7,46.8h24.6L154.95,146.85z
		 M154.95,94.95h-21.9v43.8h21.9V94.95z M194.55,94.95h-24.6v43.8h24.6V94.95z M194.55,146.85h-24.6v46.8h24.6V146.85z"/>
</g>
</svg>
