<?xml version="1.0" encoding="iso-8859-1"?>
<!-- Generator: Adobe Illustrator 24.3.0, SVG Export Plug-In . SVG Version: 6.00 Build 0)  -->
<svg version="1.1" id="&#x30EC;&#x30A4;&#x30E4;&#x30FC;_1"
	 xmlns="http://www.w3.org/2000/svg" xmlns:xlink="http://www.w3.org/1999/xlink" x="0px" y="0px" viewBox="0 0 300 300"
	 style="enable-background:new 0 0 300 300;" xml:space="preserve">
<g id="G6550">
	<path d="M118.049,230.7v10.8c0,3.6,0.3,9.3,0.3,11.7c0,2.1-0.3,9.3-12,9.3c-5.1,0-7.2-2.4-7.2-6v-1.2c0.6-4.2,2.1-40.8,2.1-65.4
		V80.4c0-13.5-0.6-31.8-2.7-42.9c7.944,2.722,15.506,6.452,22.5,11.1h51.3c0.6-0.6,7.5-10.5,9.6-10.5c0.6,0,0.9,0.3,1.5,0.6
		c7.2,3,18,12,18,15.9c0,2.7-2.4,5.1-9.6,6.9c-0.3,2.7-0.3,16.5-0.3,33.6c0,34.8,0.3,83.1,0.3,83.1c0,6,0.3,42,0.6,51.3
		c0.3,4.2,0.9,12.3,0.9,14.1c0,8.4-11.7,8.4-12.3,8.4c-4.8,0-6.6-2.4-6.6-6.9c0-4.2,0.3-10.8,0.6-14.4L118.049,230.7z M138.449,56.4
		h-20.4l-0.3,77.1h20.7V56.4z M138.449,141.3h-20.7v81.6h20.7V141.3z M175.649,56.4h-21.9v77.1h21.6L175.649,56.4z M175.049,222.9
		c0.3-11.7,0.3-34.2,0.3-39.9v-41.7h-21.6v81.6H175.049z"/>
</g>
</svg>
