<?xml version="1.0" encoding="iso-8859-1"?>
<!-- Generator: Adobe Illustrator 24.3.0, SVG Export Plug-In . SVG Version: 6.00 Build 0)  -->
<svg version="1.1" id="&#x30EC;&#x30A4;&#x30E4;&#x30FC;_1"
	 xmlns="http://www.w3.org/2000/svg" xmlns:xlink="http://www.w3.org/1999/xlink" x="0px" y="0px" viewBox="0 0 300 300"
	 style="enable-background:new 0 0 300 300;" xml:space="preserve">
<g id="G6568">
	<path d="M110.4,254.551l-0.3,9.9c0,2.7,0.3,9.9,0.3,11.7c0,3.6-1.2,8.4-11.4,8.4c-6.3,0-7.2-3.3-7.2-6.9c0-4.2,1.2-13.2,1.2-15.3
		c0.3-3.9,1.8-57.6,2.1-79.2l0.9-60.9c0-4.5,0.3-17.7,0.3-18.9c0-9.9-0.3-23.4-2.1-33c5.7,1.5,14.7,6.3,20.7,10.2h12.3v-40.5
		c-12.6,0.3-30,0.6-39,1.8c-2.7-2.7-4.8-8.4-5.1-12.3c12,1.8,45.9,2.7,62.1,2.7h32.4c4.2-6,12.9-16.8,15.3-16.8
		c0.42-0.013,0.835,0.091,1.2,0.3c5.4,3,22.8,15.9,22.8,20.7c0,2.1-2.1,3.6-5.1,3.6h-43.5v40.5h15.3c0.3-0.6,5.4-8.1,8.1-8.1
		c0.6,0,0.9,0.3,1.2,0.3c5.1,2.1,17.1,9.9,17.1,14.7c0,2.4-2.1,5.1-9.3,7.8c0,6.9,0.6,90.9,0.6,90.9c0,6.9,0.9,55.8,1.5,66.3
		c0,3.3,0.9,12.6,0.9,13.8c0,0.9,0,8.4-11.4,8.4c-5.1,0-7.2-2.7-7.2-7.2c0-3.6,0-9,0.3-12.9H110.4z M111,207.451l-0.6,38.4h75
		c0-8.4,0-25.5-0.3-38.4H111z M185.1,165.451c-1.8,0-3.9,0.3-5.7,0.3c-20.1,0-24.9-6.9-24.9-23.7v-53.4h-12.9
		c-0.9,50.1-7.5,81-30.3,99.9l-0.3,10.8h74.1V165.451z M112.8,88.651l-1.5,90.3c13.5-20.7,15.6-50.4,15.9-90.3H112.8z M154.5,40.051
		h-12.9v40.5h12.9V40.051z M184.5,88.651h-16.2v49.8c0,12.6,3.9,13.2,16.5,13.2L184.5,88.651z"/>
</g>
</svg>
