<?xml version="1.0" encoding="iso-8859-1"?>
<!-- Generator: Adobe Illustrator 24.3.0, SVG Export Plug-In . SVG Version: 6.00 Build 0)  -->
<svg version="1.1" id="&#x30EC;&#x30A4;&#x30E4;&#x30FC;_1"
	 xmlns="http://www.w3.org/2000/svg" xmlns:xlink="http://www.w3.org/1999/xlink" x="0px" y="0px" viewBox="0 0 300 300"
	 style="enable-background:new 0 0 300 300;" xml:space="preserve">
<g id="G6577">
	<path d="M187.2,200.251h-60.9v5.7c-0.3,2.4-1.2,7.8-11.7,7.8c-4.2,0-6.3-1.5-6.3-5.4v-1.5c0-1.5,0.6-5.4,0.9-12
		c0.3-10.5,1.2-39,1.2-47.7v-31.2c0-6,0-11.4-0.3-16.5c-12.3,15-24.9,26.1-26.7,26.1c-2.1,0-4.2-1.8-4.2-3.3c0-0.6,0-0.9,0.3-1.2
		c23.7-24.6,41.1-57,52.8-90c2.1-5.7,2.7-9.3,3-17.4c23.4,3,28.2,8.1,28.2,11.1c0,2.4-3.6,4.5-10.5,4.8c-1.8,3.9-3.9,8.1-5.7,12
		h23.1c2.755-3.072,5.879-5.793,9.3-8.1c1.2,0,18,10.8,18,16.8c0,2.1-2.1,4.2-9.9,4.5c-8.4,12-17.1,24.3-27.3,34.5H186
		c4.5-6.3,7.8-8.1,8.1-8.1s0.6,0.3,0.9,0.3c15.9,7.5,16.8,13.2,16.8,14.4c0,2.7-3,5.1-9,6v51.9c0,5.1,0.6,21,0.9,31.8
		c0.3,5.4,0.6,12.3,0.6,15.6c0,6.3-7.8,7.2-10.5,7.2c-4.5,0-6.6-2.4-6.6-5.1V200.251z M82.2,275.251
		c-0.151-4.52,1.994-8.809,5.7-11.4c9-6,18.3-20.1,20.4-39.9c0-0.9,1.2-1.5,2.4-1.5c5.1,0,5.1,2.1,5.1,11.4
		c0,30.6-12.6,52.5-24.6,52.5c-8.4,0-9-8.4-9-11.099V275.251z M143.4,49.051c-6.712,12.827-14.332,25.158-22.8,36.9
		c2.4,1.2,4.8,2.1,7.2,3.3h24.6c6.6-11.1,14.1-28.8,18-40.2L143.4,49.051z M148.5,97.051H126v39.6h22.5V97.051z M148.5,144.451H126
		v9.3c0,3,0.3,29.1,0.3,38.7h22.2V144.451z M132.9,223.351c0-0.9,1.8-1.8,3.6-1.8c1.039-0.049,2.04,0.396,2.7,1.2
		c5.4,10.2,11.7,27.6,11.7,38.7c0,12.3-8.4,18-12.9,18c-3.9,0-6.3-4.5-6.3-9v-1.8c1.504-9.024,2.307-18.152,2.4-27.3
		c0.029-5.921-0.373-11.837-1.2-17.7V223.351z M170.4,261.151c-0.885-13.89-4.558-27.46-10.8-39.9c0-0.3-0.3-0.6-0.3-0.9
		c0-1.5,2.1-3,3.9-3c1.5,0,24,21.3,24,39.3c0,8.4-5.1,14.7-9.6,14.7C173.7,271.351,171,267.451,170.4,261.151z M187.8,97.051h-24.3
		v39.6h24.3L187.8,97.051z M187.2,188.851c0-6.9,0.6-15,0.6-23.7v-20.7h-24.3v48h23.7L187.2,188.851z M220.8,246.151
		c0,7.2-4.2,11.1-8.1,11.1c-2.7,0-5.7-2.4-7.5-7.5c-5.1-14.1-8.7-21.6-18.3-32.1c-0.316-0.331-0.525-0.749-0.6-1.2
		c0-1.2,2.1-2.4,3.9-2.4C190.2,214.051,220.8,229.35,220.8,246.151L220.8,246.151z"/>
</g>
</svg>
