<?xml version="1.0" encoding="iso-8859-1"?>
<!-- Generator: Adobe Illustrator 24.3.0, SVG Export Plug-In . SVG Version: 6.00 Build 0)  -->
<svg version="1.1" id="&#x30EC;&#x30A4;&#x30E4;&#x30FC;_1"
	 xmlns="http://www.w3.org/2000/svg" xmlns:xlink="http://www.w3.org/1999/xlink" x="0px" y="0px" viewBox="0 0 300 300"
	 style="enable-background:new 0 0 300 300;" xml:space="preserve">
<g id="G6574">
	<path d="M100.2,114.9c35.4,16.5,38.4,27.9,38.4,33.9c0,4.5-1.8,9.9-6.3,9.9c-2.7,0-5.7-2.1-8.4-6.9c-7.8-14.1-21-26.4-32.7-34.2
		v10.5c0,6.6,0.6,15.6,0.6,16.8c0,6.9-5.7,7.5-9.6,7.5c-5.7,0-7.2-1.8-7.2-6c0-0.9,0.3-2.1,0.3-3.3c0.3-2.4,0.3-5.1,0.6-8.1
		c0.3-5.4,0.6-9.6,0.9-13.2c-5.1,8.1-10.5,16.2-18,23.7c-20.7,20.7-41.4,33.3-44.1,33.3c-1.8,0-4.2-2.4-4.2-4.2
		c0.045-0.697,0.37-1.346,0.9-1.8c24.9-17.4,50.4-46.5,65.4-78.3V55.8H54.6c-8.7,0-28.8,0.6-35.4,1.5
		c-2.899-3.232-4.594-7.364-4.8-11.7c8.7,1.2,37.5,2.4,47.1,2.4h15.3c-0.011-10.535-0.712-21.057-2.1-31.5c11.7,0,26.1,1.2,26.1,7.2
		c0,2.7-3,5.4-9.3,7.2c0,1.5-0.3,8.1-0.3,17.1h26.1c3-3.6,7.2-9.9,12.3-14.4c0.547-0.333,1.162-0.538,1.8-0.6
		c3.9,0,21.9,14.4,21.9,19.2c0,2.4-2.4,3.6-5.4,3.6H91.2c-0.3,21.6-0.3,49.5-0.3,49.5v5.7c1.549,0.47,3.055,1.072,4.5,1.8
		c0.059-0.733,0.263-1.447,0.6-2.1c1.8-2.7,16.5-29.1,17.7-52.5c19.8,5.7,21.6,9.6,21.6,11.4c0,2.4-3,4.5-9.3,4.5h-0.9
		c-1.8,4.5-4.2,9.3-6.6,14.1c6.9,3.6,24,14.1,24,25.8c0,4.5-2.7,9.3-7.2,9.3c-2.4,0-4.8-1.8-6.3-6c-2.7-7.2-7.5-16.8-13.5-23.7
		c-4.5,7.8-9.6,15.3-14.7,20.7L100.2,114.9z M106.2,174c8.7-8.7,9.6-8.7,10.2-8.7c2.1,0,18,12.3,18,16.5c0,2.7-3.6,5.1-11.1,6.9
		c-6.591,15.416-15.272,29.852-25.8,42.9c16.5,14.1,43.5,26.7,93.6,26.7c32.184-0.274,64.331-2.277,96.3-6c0.9,0,2.1,2.1,2.1,3.9
		c0.091,0.727-0.264,1.437-0.9,1.8c-7.304,3.659-13.359,9.401-17.4,16.5c-0.6,1.2-1.8,1.2-3,1.2c-15,0.9-40.5,1.8-61.5,1.8
		c-45.6,0-87-6.3-116.4-37.8c-29.4,31.2-72,43.8-74.7,43.8c-1.8,0-4.2-2.4-4.2-4.2c-0.106-0.816,0.406-1.584,1.2-1.8
		c28.5-10.8,51.9-27.6,69-48.3c-7.487-10.338-13.541-21.64-18-33.6c-19.8,29.7-42.3,46.2-43.8,46.2c-1.87-0.156-3.307-1.723-3.3-3.6
		c-0.082-0.66,0.138-1.322,0.6-1.8c28.8-27,47.4-69,49.8-86.7c6.3,1.2,24,6.9,24,12c0,2.4-3.6,4.2-9.9,4.2h-0.9
		c-1.2,2.7-2.4,5.4-3.9,8.1H106.2z M17.4,129.9c-1.485,0.006-2.694-1.193-2.7-2.678c0-0.007,0-0.015,0-0.022
		c0.063-0.637,0.268-1.253,0.6-1.8c22.2-34.2,25.8-60.9,25.8-66.9c11.7,3.6,22.5,7.5,22.5,11.7c0,2.4-2.7,4.2-8.7,4.2h-1.5
		c-1.5,3.6-3,7.5-4.5,11.4c2.4,1.2,16.8,9.3,16.8,20.7c0,4.5-1.8,9.6-6.9,9.6c-2.7,0-4.8-1.8-6-5.7c-1.5-5.4-3.6-12.6-6.9-18.6
		C38.1,108.3,24.3,129.9,17.4,129.9z M72.6,180.9c-1.5,2.7-3,5.1-4.5,7.8c4.543,11.98,11.03,23.13,19.2,33
		c8.94-12.377,15.735-26.169,20.1-40.8H72.6z"/>
</g>
</svg>
