<?xml version="1.0" encoding="iso-8859-1"?>
<!-- Generator: Adobe Illustrator 24.3.0, SVG Export Plug-In . SVG Version: 6.00 Build 0)  -->
<svg version="1.1" id="&#x30EC;&#x30A4;&#x30E4;&#x30FC;_1"
	 xmlns="http://www.w3.org/2000/svg" xmlns:xlink="http://www.w3.org/1999/xlink" x="0px" y="0px" viewBox="0 0 300 300"
	 style="enable-background:new 0 0 300 300;" xml:space="preserve">
<g id="G6570">
	<path d="M79.8,169.5c-5.203,9.275-11.015,18.195-17.4,26.7c22.2-1.5,48-4.2,66-6.9c-5.1-4.5-10.8-8.1-17.4-12
		c-0.674-0.503-1.108-1.264-1.2-2.1c0.127-1.933,1.667-3.473,3.6-3.6c4.2,0,35.7,12.9,42,23.7c1.391,2.472,2.115,5.263,2.1,8.1
		c0,8.7-5.1,9.9-7.2,9.9c-2.7,0-5.4-2.1-7.8-6.3c-2.337-4.305-5.155-8.331-8.4-12c-24.9,6.9-72,15-105,18.9c-0.3,6-2.4,9-4.8,9
		c-6.9,0-11.4-24.3-11.7-25.8c6,0.9,14.4,0.9,18.3,0.9c6-0.3,13.5-0.6,21.9-1.2c2.973-8.896,5.181-18.029,6.6-27.3
		c-10.8,0-34.2,0.9-43.8,2.1c-3-2.7-4.8-8.7-5.1-12.6c7.2,0.9,24,1.8,39,2.4V123c0-13.8,0-28.2-2.4-41.7c6.6,1.5,16.2,6,22.2,9.6
		h59.1c0.6-0.9,12-12.3,14.1-12.3c1.5,0,21.3,10.8,21.3,17.1c0,2.1-1.8,3.6-5.7,3.6H66.9v16.2h49.2c1.5-1.8,8.7-6.6,11.4-8.7
		c0.703-0.512,1.533-0.823,2.4-0.9c2.4,0,19.8,9.6,19.8,14.1c0,1.8-1.5,3.3-5.1,3.3H66.9v15.3h50.4c2.1-2.7,10.2-10.5,12.3-10.5
		c1.5,0,20.1,9.6,20.1,14.7c0,1.8-1.5,3.6-5.1,3.6H66.9v15.3h71.4c3.47-3.923,7.177-7.63,11.1-11.1c0.547-0.333,1.163-0.538,1.8-0.6
		c2.4,0,21.3,9.9,21.3,15.9c0,2.4-2.4,3.6-5.4,3.6H79.8z M170.4,215.1c-2.4,0-4.5-3-4.5-5.1c-0.079-0.972,0.555-1.859,1.5-2.1
		c50.7-9.6,93.6-36.3,102.3-52.5c7.2,4.2,19.8,15.6,19.8,20.7c0,2.4-1.8,3.9-4.8,3.9c-2.624-0.139-5.185-0.857-7.5-2.1
		C229.2,208.5,171.9,215.1,170.4,215.1z M172.5,131.7c-2.1,0-4.2-3-4.2-5.1c-0.105-0.815,0.407-1.584,1.2-1.8
		c33-9.3,70.5-29.4,79.8-47.7C252,78.3,270,89.4,270,95.4c0,1.5-1.2,2.7-4.2,2.7c-2.667-0.045-5.306-0.553-7.8-1.5
		C225.6,120.6,174.9,131.7,172.5,131.7L172.5,131.7z M177.9,170.4c-2.1,0-4.2-3-4.2-5.1c-0.003-0.72,0.497-1.345,1.2-1.5
		c50.4-13.5,78.3-37.8,84.3-49.2c5.1,3.3,18.9,12.9,18.9,18.6c0,2.1-1.5,3.6-4.2,3.6c-2.489-0.162-4.928-0.772-7.2-1.8
		C224.4,164.1,179.7,170.4,177.9,170.4L177.9,170.4z"/>
</g>
</svg>
