<?xml version="1.0" encoding="iso-8859-1"?>
<!-- Generator: Adobe Illustrator 24.3.0, SVG Export Plug-In . SVG Version: 6.00 Build 0)  -->
<svg version="1.1" id="&#x30EC;&#x30A4;&#x30E4;&#x30FC;_1"
	 xmlns="http://www.w3.org/2000/svg" xmlns:xlink="http://www.w3.org/1999/xlink" x="0px" y="0px" viewBox="0 0 300 300"
	 style="enable-background:new 0 0 300 300;" xml:space="preserve">
<g id="G6572">
	<path d="M99.6,189.9c0-1.5,1.5-2.1,3.3-2.1c1.5,0,3,0.6,3.3,1.5c2.1,7.8,3,17.4,3,26.7c0,21.9-5.4,39.3-15.6,39.3
		c-6.6,0-8.7-7.8-8.7-11.4c0-3.9,2.1-7.2,4.8-10.8c6-7.8,10.2-20.4,10.2-36.9c0-1.8-0.3-3.9-0.3-6L99.6,189.9z M120.3,160.8v9.9
		c0,0.9,0,7.5-10.8,7.5c-5.7,0-7.2-2.7-7.2-6v-0.9c1.5-24,2.1-57.9,2.1-72v-36c0-13.2,0-27.9-2.4-40.8c6,1.8,14.7,6.3,20.7,10.2
		h55.2c2.7-3.6,12-14.1,14.7-14.1c2.4,0,22.5,12.3,22.5,18.6c0,1.8-1.5,3.6-5.7,3.6h-45.9v31.8h12c3.6-5.4,10.8-13.2,13.2-13.2
		c0.637,0.062,1.253,0.267,1.8,0.6c7.8,4.2,17.7,13.8,17.7,16.5c0,2.1-1.5,3.9-5.7,3.9h-39V111h12.3c0,0,9.3-12.9,12.6-12.9
		c0.74,0.018,1.463,0.224,2.1,0.6c4.8,3,18.3,11.7,18.3,16.5c0,2.1-1.8,3.9-6,3.9h-39.3V153h22.2c6.6-7.8,8.4-9.6,9.3-9.6
		c0.6,0,0.9,0,1.2,0.3c6.9,3.6,17.1,12,17.1,16.2c0,3-3,6-9.6,7.5c0,24.6-0.3,62.1-6,83.1c-7.5,27-31.8,30.9-36.6,30.9
		c-2.7,0-3.6-1.2-4.2-3c-2.1-7.5-12.3-10.8-25.5-14.7c-1.2-0.3-1.8-1.8-1.8-3.3c0-2.1,0.9-4.2,3-4.2h0.9c8.1,2.1,21,5.4,29.1,5.4
		c18.9,0,25.2-18.3,25.2-91.2v-9.3L120.3,160.8z M120.3,233.1c-0.029-0.712,0.073-1.424,0.3-2.1c1.178-5.928,1.781-11.956,1.8-18
		c0.001-8.256-1.315-16.459-3.9-24.3v-0.6c0-1.2,1.8-2.1,3.6-2.1c6.3,0,14.4,29.4,14.4,37.5c0,3.9-2.4,15.9-10.5,15.9
		C123,239.4,120.3,237.3,120.3,233.1L120.3,233.1z M148.2,40.8h-27.9L120,72.6h28.2V40.8z M148.2,80.4H120V111h28.2V80.4z
		 M148.2,119.1H120c0,13.8,0.3,27,0.3,33.6h27.9V119.1z M146.1,219.9c-0.3-15-3.6-25.2-9-36.6c0-0.3-0.3-0.6-0.3-0.9
		c0-1.5,1.8-2.7,3.6-2.7c4.5,0,19.8,24,19.8,35.4c0,10.8-6,13.2-8.7,13.2C147.9,228.3,146.1,224.4,146.1,219.9L146.1,219.9z
		 M168.6,208.5c-2.011-11.492-6.629-22.371-13.5-31.8c-0.3-0.3-0.3-0.6-0.3-1.2c0-1.2,1.8-2.7,3.6-2.7c2.1,0,22.2,17.4,22.2,31.2
		c0,6.3-3.3,10.8-6.9,10.8C171,214.8,169.2,212.1,168.6,208.5L168.6,208.5z"/>
</g>
</svg>
