<?xml version="1.0" encoding="iso-8859-1"?>
<!-- Generator: Adobe Illustrator 24.3.0, SVG Export Plug-In . SVG Version: 6.00 Build 0)  -->
<svg version="1.1" id="&#x30EC;&#x30A4;&#x30E4;&#x30FC;_1"
	 xmlns="http://www.w3.org/2000/svg" xmlns:xlink="http://www.w3.org/1999/xlink" x="0px" y="0px" viewBox="0 0 300 300"
	 style="enable-background:new 0 0 300 300;" xml:space="preserve">
<g id="G65A2">
	<path d="M149.818,135.885c-17.4,12.429-32.659,16.938-51.379,12.924c-20.234-4.34-60.48-20.617-66.543-38.049
		c-2.858-8.217,9.3-6.137,31.662,0c24.706,6.786,46.589,4.086,57.8,2.179c47.856-8.14,126.919-76.456,144.483-62.4
		c7.249,5.8,1.762,20.045-41.438,40.508C205.245,100.129,171.728,120.234,149.818,135.885z M159.805,241.109
		c-9.985-18.16-21.578-33.417-41.645-48.767c-0.328-0.226-0.538-0.588-0.57-0.986c-0.435-2.116,2.23-5.236,4.7-5.744
		c1.763-0.363,53.968,17.562,59.773,45.771c1.669,8.11-2.087,18.438-8.786,19.817C168.692,252.143,163.943,248.711,159.805,241.109z
		"/>
</g>
</svg>
