<?xml version="1.0" encoding="iso-8859-1"?>
<!-- Generator: Adobe Illustrator 24.3.0, SVG Export Plug-In . SVG Version: 6.00 Build 0)  -->
<svg version="1.1" id="&#x30EC;&#x30A4;&#x30E4;&#x30FC;_1"
	 xmlns="http://www.w3.org/2000/svg" xmlns:xlink="http://www.w3.org/1999/xlink" x="0px" y="0px" viewBox="0 0 300 300"
	 style="enable-background:new 0 0 300 300;" xml:space="preserve">
<g id="G65A3">
	<path d="M233.016,40.471c0,0-80.767,27.15-110.311,34.487C88.4,83.476,67.256,89.623,61.539,98.074
		c-6.665,9.852-3.825,15.594,6.575,18.137c9.151,2.236,40.037-20.4,75.054-24.2c15.158,54.189,18.19,122.04-1.515,162.568
		c-2.71,5.573-6.7,11.874-4.325,14.566c1.285,1.456,12.472-2.061,18.225-7.939c24.06-24.581,24.08-61.611,20.963-104.4
		c-2.225-30.542-9.338-47.33-17.048-70.486c43.84-16.326,75.032-18.562,85.637-26.52C254.579,51.084,244.894,40.41,233.016,40.471z"
		/>
</g>
</svg>
