<?xml version="1.0" encoding="iso-8859-1"?>
<!-- Generator: Adobe Illustrator 24.3.0, SVG Export Plug-In . SVG Version: 6.00 Build 0)  -->
<svg version="1.1" id="&#x30EC;&#x30A4;&#x30E4;&#x30FC;_1"
	 xmlns="http://www.w3.org/2000/svg" xmlns:xlink="http://www.w3.org/1999/xlink" x="0px" y="0px" viewBox="0 0 300 300"
	 style="enable-background:new 0 0 300 300;" xml:space="preserve">
<g id="G6819">
	<path d="M250.415,245.911c-15.271-6.427-22.295-12.773-37.734-29.417c-2.291-2.469-22.6-27.5-36.127-51.41
		c-13.854-24.484-25.866-47.623-32.661-71.131c-5.478-18.745-10.417-56.288-13.1-59.6c-3.284-4.042-8.8-4.368-12.581-3.1
		c-2.424,0.814-21.644,17.985-32.422,27.766C73.326,70.329,60.124,87.62,50.7,92.733c-9.074,4.923-16.144-4.343-18.176,0.135
		c-1.991,4.384,7.1,9.942,14.052,15.654c8.791,7.227,14.273,4.9,16.63,1.367c1.155-1.732,9.662-12.562,12.86-16.433
		c7.692-8.867,14.325-18.935,29.847-31.922c7.85-6.567,15.345-4.481,16.637-1.285c4.879,12.077,2.439,12.745,7.664,33.7
		c7.594,29.749,19.542,58.564,35.244,86.781c25.875,46.5,53.972,83,74.118,87.4C265.712,273.842,281.94,259.178,250.415,245.911z"/>
</g>
</svg>
