<?xml version="1.0" encoding="iso-8859-1"?>
<!-- Generator: Adobe Illustrator 24.3.0, SVG Export Plug-In . SVG Version: 6.00 Build 0)  -->
<svg version="1.1" id="&#x30EC;&#x30A4;&#x30E4;&#x30FC;_1"
	 xmlns="http://www.w3.org/2000/svg" xmlns:xlink="http://www.w3.org/1999/xlink" x="0px" y="0px" viewBox="0 0 300 300"
	 style="enable-background:new 0 0 300 300;" xml:space="preserve">
<g id="G681A">
	<path d="M192.639,216.045l0.131-3.3c0.01-9.007-0.625-19.24-0.232-29.133c0,0,4.056-138.207,4.614-142.6
		c0.761-6-2.769-18.893-27.8-14.639c-13.133,4.192-22.482,12.205-41.164,28.286c-8.736,8.315-12.928,10.077-16.5,10.694
		c-7.327,1.263-22.169-10.534-23.245-1.563c0,9.984,16.993,24.529,31.227,21.473c6.824-1.465,4.072-6.555,18.41-21.918
		c13.884-14.878,28.1-23.668,34.546-20.51c3.214,1.575,5.54,3.848,5.482,8.581c-0.057,10.206-1.181,114.157-1.181,114.157
		l-1.883,47.364c-9.275-1.575-18.643-2.546-28.044-2.909c-34.7-1.38-74.161,3.357-75.126,27.638
		c-0.858,21.583,37.84,36.031,55.19,36.721c29.148,1.159,59.849-10.53,64.965-43.053c21.945,7.477,22.492,16.952,25.962,17.09
		c2.776,0.111,9.763-0.813,10.133-10.105C228.328,233.222,226.346,224.891,192.639,216.045z M124.733,262.6
		c-23.306-1.533-44.072-15.128-41.322-26.578c2.732-11.377,20.075-16.415,46.794-15.353c11.1,0.442,33.043-0.526,41.578,9.335
		C179.577,239.01,157.84,264.778,124.733,262.6z"/>
</g>
</svg>
