<?xml version="1.0" encoding="iso-8859-1"?>
<!-- Generator: Adobe Illustrator 24.3.0, SVG Export Plug-In . SVG Version: 6.00 Build 0)  -->
<svg version="1.1" id="&#x30EC;&#x30A4;&#x30E4;&#x30FC;_1"
	 xmlns="http://www.w3.org/2000/svg" xmlns:xlink="http://www.w3.org/1999/xlink" x="0px" y="0px" viewBox="0 0 300 300"
	 style="enable-background:new 0 0 300 300;" xml:space="preserve">
<g id="G682B">
	<path d="M120.854,167.018c-1.659-1.34-7.018-7.846-7.018-9.031c0.14-1.962,1.837-3.443,3.8-3.317
		c1.088-0.017,2.154,0.315,3.04,0.947c14.947,8.524,21.725,9.159,25.161,9.154c2.132,0,4.773-2.895,4.772-4.317
		c0.5-19.187-0.244-20.636-0.249-42.667c0-4.974,0-7.711,0-12.449c-10.056,2.2-23.163,4.376-36.3,3.062
		c-14.986-1.5-27.94-9.865-29.295-14.656c-0.799-2.806,0.829-5.729,3.635-6.527c0.251-0.071,0.506-0.124,0.765-0.158
		c7.27-0.827,11.438,6.941,29.817,6.425c11.189-0.314,14.956-0.17,31.375-2.859c0-10.9,0.792-31.561-0.768-37.769
		c-2.294-9.128-14.989-11.968-17.991-18.71c-0.674-1.515,3.293-4.5,9.879-4.5c8.107,0,25.6,3.933,25.108,11.734
		c-0.872,13.731-3.56,18.726-2.8,46.824c31.368-7.654,25.368-14.18,41.6-19.59c7.389-2.464,18.756,11.176,8.526,17.81
		c-8.637,5.6-28.44,12.068-50.376,16.493v17.477c0,20.134,2.29,42.7,2.292,54.693c0,6.165-2.022,26.532-11.9,26.534
		c-1.519,0-4.37-0.818-8.614-8.052C139.891,184.333,134.061,177.677,120.854,167.018z M126.061,202.453
		c-2.819-5.053-16.425,15.826-19.989,21.073c-7.148,10.519-13.738,18.017-20.63,16.179c-14.21-3.789-19.414-11.667-20.929-33.865
		c-0.393-5.745,1.3-12.74-2.945-11.224c-7.25,2.587-10.678,20.481-6.442,36.752C57.5,240.5,67.632,256,81.568,258.387
		c15.319,2.623,21.98-3.377,26.043-13.755C113.9,228.571,127.278,204.632,126.061,202.453z M219.869,233.025
		c4.394-6.33,24.8-18.474,21.584-28.446c-5.821-18.053-18.512-20.166-45.324-23.9c-8.9-1.239-10.543-4.7-8.686-6.966
		c3.357-4.1,20.434-6.379,41.26-0.844c15.265,4.057,21.329,10.373,29.808,21.969c8.208,11.226,5.784,22.215,0.226,29.162
		c-10.575,13.219-28.435,18.795-36.809,15.573c-2.233-0.782-3.409-3.227-2.627-5.459
		C219.437,233.725,219.628,233.359,219.869,233.025L219.869,233.025z"/>
</g>
</svg>
