<?xml version="1.0" encoding="iso-8859-1"?>
<!-- Generator: Adobe Illustrator 24.3.0, SVG Export Plug-In . SVG Version: 6.00 Build 0)  -->
<svg version="1.1" id="&#x30EC;&#x30A4;&#x30E4;&#x30FC;_1"
	 xmlns="http://www.w3.org/2000/svg" xmlns:xlink="http://www.w3.org/1999/xlink" x="0px" y="0px" viewBox="0 0 300 300"
	 style="enable-background:new 0 0 300 300;" xml:space="preserve">
<g id="G70C8">
	<path d="M269.551,270.977c-3.012,7.077-13.162,3.05-20.155,0.582c-12.122-4.278-58.333,11.62-57.336,11.191
		c-1.036,0.525-2.203,0.736-3.357,0.606c-1.154-0.112-2-1.138-1.888-2.293c0.016-0.161,0.05-0.32,0.102-0.473
		c0.553-2.052,2.066-3.708,4.059-4.443c10.368-5.546,17.757-10.044,28.705-13.752c6.73-2.279,17.532-4.721,24.467-5.137
		c-7.483-14.191-27.691-23.482-45.8-23.482c-24.9,0-47.6,15.3-62.9,31.8c-6.274,5.047-13.853,21.91-21.227,13.194
		c-4.748-14.974-2.334-17.946-16.689-25.394c-31.642-16.416-52.992,32.452-66.505,23.5c-8.684-5.752,17.684-32.336,44.163-80.049
		c22.677-40.863,52.594-115.113,52.647-118.14c-6.35,0.987-22.645,2.147-28.095,2.147c-18.9,0-34.928-10.642-34.928-21.442
		c0-3,0.6-5.1,2.7-5.1c1.338,0.064,2.612,0.595,3.6,1.5c16.8,13.2,30.38,11.9,33.68,11.9c3.941,0,24.5-1.308,26.72-1.7l0.6-5.7
		c5.834-31.57-2.555-30.054-4.9-38c-0.595-2.014,2-5.7,11-5.7c14.1,0,22.3,9.253,19.549,16.231c-3.307,8.4-6.45,12.169-10.05,29.569
		c34.133-5.558,49.606-10.7,55.606-14.9c3.6-2.7,8.195-3.995,17.795-3.995c9,0,14.7,1.8,14.7,7.8c0,7.2-3.3,8.1-34.5,14.4
		c-15,3-38.6,7.2-56,10.8c0,0-48.1,106.911-81.952,168.553c16.713-9.619,35.116-7.011,44.922-0.44
		c9.918,6.644,11.51,10.187,15.015,15.6c13.79-15.435,42.1-36.369,79.248-38.727C245.365,218.758,277.07,253.31,269.551,270.977z"/>
</g>
</svg>
