<?xml version="1.0" encoding="iso-8859-1"?>
<!-- Generator: Adobe Illustrator 24.3.0, SVG Export Plug-In . SVG Version: 6.00 Build 0)  -->
<svg version="1.1" id="&#x30EC;&#x30A4;&#x30E4;&#x30FC;_1"
	 xmlns="http://www.w3.org/2000/svg" xmlns:xlink="http://www.w3.org/1999/xlink" x="0px" y="0px" viewBox="0 0 300 300"
	 style="enable-background:new 0 0 300 300;" xml:space="preserve">
<g id="G7103">
	<path d="M257.132,173.7c4.8-1.2,9.3-3.3,9.3-6.6c0-3.9-14.1-15.3-18.6-15.3c-2.7,0-7.5,6-9.3,8.4h-38.4
		c-6.642-4.058-13.809-7.187-21.3-9.3c1.275,7.845,2.076,15.759,2.4,23.7v33.6c0,3-0.9,19.5-1.8,24.3v1.2c0,4.2,2.7,5.7,7.2,5.7
		c9.6,0,11.1-4.8,11.1-7.8c0-1.8-0.3-5.4-0.3-8.1v-3.6h43.5c0,3.6-0.3,8.7-0.3,9.9c0,3.6,1.5,5.4,6.9,5.4c1.5,0,11.1,0,11.1-6.9V228
		c0-1.5-0.3-6.6-0.6-10.5c-0.3-4.2-0.9-13.8-0.9-21.3L257.132,173.7L257.132,173.7z M241.232,200.1c0,3.3,0,8.1-0.3,12h-43.5V168
		h43.8V200.1z M198.032,138c0,3.6,1.8,5.4,7.2,5.4c0.9,0,11.1,0,11.1-6.6v-0.6c0-1.5-0.3-6-0.6-9.9c-0.3-4.2-0.9-15.3-0.9-21.6V84.6
		c4.8-1.2,9.3-3.3,9.3-6.6c0-4.5-13.8-15.6-18.9-15.6c-2.1,0-5.1,3.3-9.6,9h-58.8c-7.2-4.2-15.9-8.1-22.2-9.6
		c1.291,7.439,2.093,14.956,2.4,22.5v26.1c0,4.5-0.6,10.5-0.9,16.5c-0.301,5.4-0.601,9-0.9,10.8v1.2c0,3.9,2.4,5.4,6.9,5.4
		c11.1,0,11.7-5.7,11.7-7.5v-9.6h64.5C198.331,131.1,198.031,136.5,198.032,138L198.032,138z M133.532,119.4v-8.1
		c0,0,0.3-20.7,0.3-32.1h64.8v29.7c0,3,0,6.9-0.3,10.5L133.532,119.4z M164.132,167.4c0-6-17.1-15.3-18.6-15.3
		c-2.4,0-7.2,5.7-9.6,8.7h-35.7c-7.2-4.2-15.6-8.1-21.9-9.6c2.1,11.1,2.4,20.1,2.4,36.3v21.6c0,5.7-1.2,22.8-1.8,26.7v1.2
		c0,4.2,2.7,5.7,7.2,5.7c9.6,0,11.1-4.8,11.1-7.8c0-1.8-0.3-5.4-0.3-8.1v-6.6h41.7c0,3.9-0.3,10.2-0.3,11.7c0,3.6,1.5,5.4,6.9,5.4
		c7.2,0,10.8-3,10.8-6.6v-0.6c0-1.5-0.6-6.6-0.6-10.5c-0.3-4.2-0.9-14.4-0.9-22.2c0,0,0-21,0.3-23.4c4.799-1.2,9.299-3.3,9.299-6.6
		H164.132z M138.632,212.4h-42v-3.6c0,0,0.3-27.9,0.3-40.2h41.7V212.4z M287.1,41.1c-0.009,2.829-2.309,5.116-5.138,5.107
		c-0.087,0-0.174-0.003-0.262-0.007H80.4c-4.8,0-12.3,0-21,0.3l-0.6,186.9c0,27.9,7.8,30,87.9,30c33.9,0,73.2-1.2,97.5-3.9
		c6.6-0.9,12.3-3.6,18.3-4.5h0.9c5.1,0,16.8,4.8,16.8,13.2c0,6.6-2.7,12.9-136.2,12.9c-75.6,0-104.1,0-104.1-46.2l0.3-187.8
		c-9,0.3-17.1,0.6-21.9,1.2c-2.7-2.4-5.1-10.2-5.4-14.1c15.9,1.8,55.2,3,76.5,3H243c3.9-6,15.9-18.3,17.1-18.3
		c0.638,0.062,1.253,0.267,1.8,0.6C268.5,23.1,287.1,36,287.1,41.1z"/>
</g>
</svg>
