<?xml version="1.0" encoding="iso-8859-1"?>
<!-- Generator: Adobe Illustrator 24.3.0, SVG Export Plug-In . SVG Version: 6.00 Build 0)  -->
<svg version="1.1" id="&#x30EC;&#x30A4;&#x30E4;&#x30FC;_1"
	 xmlns="http://www.w3.org/2000/svg" xmlns:xlink="http://www.w3.org/1999/xlink" x="0px" y="0px" viewBox="0 0 300 300"
	 style="enable-background:new 0 0 300 300;" xml:space="preserve">
<g id="G7966">
	<path d="M165.6,91.949v30.3c14.7,6.6,40.8,26.4,44.4,36.9c0.959,2.698,1.466,5.537,1.5,8.4c0,7.5-3.3,13.2-8.4,13.2
		c-3.6,0-7.2-3-9.6-9.3c-5.4-13.5-16.5-29.4-28.2-41.4v60.6c0,15.3,0.3,56.4,0.6,71.1c0,7.8,0.3,14.4,0.3,15.6
		c0,1.5-0.6,8.1-12.9,8.1c-5.1,0-8.1-2.4-8.1-6.9v-0.9c0.3-3.6,1.5-45.6,2.1-90.6c0.3-15,1.5-40.5,2.4-58.5
		c-24,60-60.6,90.3-63,90.3c-1.8,0-4.2-1.8-4.2-3.6c0-0.6,0.3-0.9,0.6-1.5c27.9-32.1,52.8-79.8,62.4-121.8h-9.3
		c-13.5,0-34.5,1.5-41.1,2.4c-2.4-2.4-5.4-9.6-5.4-13.2c6.6,0.9,37.5,2.4,51.6,2.4h6.9l-0.3-29.7
		c-0.006-13.128-0.707-26.246-2.1-39.3c13.2,0,30.3,1.5,30.3,7.8c0,2.7-3.3,5.4-10.2,7.2c0,2.7-0.3,26.1-0.3,54h13.5
		c3.6-6.3,14.4-17.7,15-17.7s23.4,16.2,23.4,21.9c0,2.4-1.5,4.2-4.8,4.2L165.6,91.949z"/>
</g>
</svg>
