<?xml version="1.0" encoding="iso-8859-1"?>
<!-- Generator: Adobe Illustrator 24.3.0, SVG Export Plug-In . SVG Version: 6.00 Build 0)  -->
<svg version="1.1" id="&#x30EC;&#x30A4;&#x30E4;&#x30FC;_1"
	 xmlns="http://www.w3.org/2000/svg" xmlns:xlink="http://www.w3.org/1999/xlink" x="0px" y="0px" viewBox="0 0 300 300"
	 style="enable-background:new 0 0 300 300;" xml:space="preserve">
<g id="G796D">
	<path d="M59.7,120.45c-4.5,32.7-22.2,45.9-32.1,45.9c-9,0-9.3-9.3-9.3-10.5c0-3.9,1.8-8.4,7.2-12c15.3-9.9,25.5-25.5,27.3-48.3
		c0-1.2,1.8-1.5,3.6-1.5c2.1,0,4.5,0.6,4.5,2.4v4.2c0,3.6,0,7.5-0.3,11.1h78v-11.7c0-9-0.3-14.4-2.4-28.5c20.4,0,32.1,2.7,32.1,7.2
		c0,2.7-3.3,5.7-10.2,7.5v25.5h88.2c9-9,9.6-9.6,10.8-9.6c3.3,0,24.6,14.7,24.6,21.6c0,3.3-3.3,6-10.5,6
		c-2.01-0.08-4.014-0.281-6-0.6c-6.9,7.5-28.8,27.9-31.5,27.9c-1.5,0-4.8-1.8-4.8-3.6c-0.041-0.33,0.069-0.661,0.3-0.9
		c6.421-10.25,12.038-20.982,16.8-32.1L59.7,120.45z M26.4,228.45c-2.1,0-3.9-3.3-3.9-5.4c-0.012-0.631,0.338-1.213,0.9-1.5
		c39.3-12.9,79.8-35.4,79.8-84c0-3.3,0-6.9-0.3-9.6c27.6,3.6,30,3.9,30,8.4c0,2.4-2.7,5.4-9,6.6c-5.1,55.5-47.7,74.7-97.2,85.5
		L26.4,228.45z M178.5,177.15c0,9.9,3.9,14.4,29.4,14.4c12.3,0,26.7-1.2,32.1-3.3c8.4-3.6,9.3-5.7,14.4-35.4
		c0.3-1.5,1.8-2.1,3.3-2.1c2.1,0,4.5,1.2,4.5,2.7v0.3c-0.6,8.1-1.5,18.9-1.8,23.4v1.8c0,2.4,0.6,3.9,3,5.1c3.3,1.5,6.6,3.9,6.6,8.4
		c0,8.1-9.9,15.9-61.2,15.9c-25.2,0-48.3-1.2-48.3-27.6v-0.9c0,0,0.3-28.2,0.3-30c-0.031-7.037-0.633-14.06-1.8-21
		c18,0.6,29.4,2.4,29.4,7.5c0,2.4-2.7,5.1-9,6.6L178.5,177.15z"/>
</g>
</svg>
