<?xml version="1.0" encoding="iso-8859-1"?>
<!-- Generator: Adobe Illustrator 24.3.0, SVG Export Plug-In . SVG Version: 6.00 Build 0)  -->
<svg version="1.1" id="&#x30EC;&#x30A4;&#x30E4;&#x30FC;_1"
	 xmlns="http://www.w3.org/2000/svg" xmlns:xlink="http://www.w3.org/1999/xlink" x="0px" y="0px" viewBox="0 0 300 300"
	 style="enable-background:new 0 0 300 300;" xml:space="preserve">
<g id="G7962">
	<path d="M184.5,192.9c30.6,16.8,35.1,27.6,35.1,34.8c0,6.9-3.9,12-8.1,12c-3,0-7.2-2.1-11.4-7.5
		c-6.639-8.861-14.291-16.916-22.8-24c-31.8,60.6-90.9,79.2-90.9,79.2c-1.5,0-4.5-3-4.5-5.4c-0.024-0.794,0.458-1.517,1.2-1.8
		c43.8-21.3,67.2-50.7,81-82.2c-11.904-8.055-24.814-14.51-38.4-19.2c-1.8,7.5-3.6,14.4-5.4,21.3c-0.9,3-0.9,5.4-2.1,9.3
		c-1.8,5.4-8.1,5.7-11.4,5.7c-10.2,0-10.2-5.4-10.2-6s0-0.6,4.8-14.7c8.7-26.1,18.6-66.6,24.9-106.8h-3.6c-10.5,0-33.3,2.4-36.9,2.7
		c-2.7-3-5.4-8.4-5.4-12.9v-0.6c12.6,1.2,29.1,2.4,43.5,2.4h3.6c5.4-36,5.7-59.7,5.7-66.6c16.8,1.2,30.9,3.9,30.9,9.6
		c0,2.7-3.6,5.4-11.4,6.9c-1.8,17.1-3.9,33.6-6.6,49.8l39-0.3c3.3-4.5,8.7-9.6,9.9-9.6c0.3,0,0.6,0.3,0.9,0.3
		c12,5.4,19.8,13.5,19.8,17.1c0,3.3-3.3,6.3-10.2,8.1c-3.9,33-7.5,66.3-20.4,97.2L184.5,192.9z M144.6,87.3
		c-4.8,30.6-11.1,59.1-17.1,84c14.161,3.565,28.007,8.28,41.4,14.1c4.2-10.5,10.8-28.8,18-98.4L144.6,87.3z"/>
</g>
</svg>
