<?xml version="1.0" encoding="iso-8859-1"?>
<!-- Generator: Adobe Illustrator 24.3.0, SVG Export Plug-In . SVG Version: 6.00 Build 0)  -->
<svg version="1.1" id="&#x30EC;&#x30A4;&#x30E4;&#x30FC;_1"
	 xmlns="http://www.w3.org/2000/svg" xmlns:xlink="http://www.w3.org/1999/xlink" x="0px" y="0px" viewBox="0 0 300 300"
	 style="enable-background:new 0 0 300 300;" xml:space="preserve">
<g id="G796C">
	<path d="M167.1,278.551c0,3.3-4.8,6.6-12.6,6.6c-3.9,0-8.4-0.9-8.4-5.4v-0.9c0.9-9.3,2.7-60.9,3-82.8c0.3-21,1.5-43.8,2.4-60.6
		c-17.7,55.2-62.1,95.1-63.3,95.1c-1.5,0-4.5-1.8-4.5-3.6c0-0.6,0-0.9,0.3-1.2c24.6-29.1,52.8-78,63.3-119.1H132
		c-8.7,0-29.1,0.9-35.7,1.8c-2.4-2.4-4.8-8.4-4.8-12c8.1,1.2,36.9,2.7,46.8,2.7h11.4v-49.5c-21.3,5.4-45.9,9.6-50.7,9.6
		c-2.1,0-3-2.7-3-4.8c0-1.2,0.3-2.1,0.9-2.1c38.1-8.1,80.1-24.6,89.1-37.5c0,0,18.6,13.8,18.6,21c0,2.1-1.5,3.3-4.8,3.3
		c-2.4,0-5.4-0.6-9.6-2.4c-7.8,3-15.9,5.7-23.7,8.1v54.3h13.8c10.2-13.5,12.9-16.5,14.4-16.5c3.6,0,21.6,15.3,21.6,20.1
		c0,2.1-1.5,3.9-4.8,3.9h-45l-0.3,27.9c5.4,2.4,42,18.9,42,38.4c0,5.7-3.3,12.3-8.1,12.3c-3,0-6-2.7-7.8-7.8
		c-5.1-14.4-15.3-26.1-26.1-36v54.6c0,18.9,0.3,54,0.3,63.3c0,10.2,0.6,18.9,0.6,18.9L167.1,278.551z"/>
</g>
</svg>
