<?xml version="1.0" encoding="iso-8859-1"?>
<!-- Generator: Adobe Illustrator 24.3.0, SVG Export Plug-In . SVG Version: 6.00 Build 0)  -->
<svg version="1.1" id="&#x30EC;&#x30A4;&#x30E4;&#x30FC;_1"
	 xmlns="http://www.w3.org/2000/svg" xmlns:xlink="http://www.w3.org/1999/xlink" x="0px" y="0px" viewBox="0 0 300 300"
	 style="enable-background:new 0 0 300 300;" xml:space="preserve">
<g id="G796A">
	<path d="M163.5,148.05c-0.833,13.688-3.045,27.256-6.6,40.5c11.1,6,58.2,34.8,58.2,59.7c0,11.4-6,15.6-9.9,15.6
		c-4.2,0-7.8-4.2-10.2-11.4c-5.7-17.1-23.1-41.4-40.2-56.4c-20.1,62.4-75.3,90.3-75.3,90.3c-1.8,0-3.9-3.6-3.9-5.7
		c-0.041-0.33,0.069-0.661,0.3-0.9c42.3-32.7,64.5-68.7,68.4-131.7H135c-14.1,0-33,0.6-46.8,2.1c-3-3.9-5.4-9.6-5.7-13.8
		c15,1.8,38.1,2.7,60.3,2.7h2.1v-5.4c0.3-9.6,0.3-41.1,0.3-58.8h-21.9c-14.1,30.9-33.3,55.8-37.2,55.8c-2.1,0-3.9-1.5-3.9-3
		c-0.045-0.423,0.061-0.848,0.3-1.2c21.3-32.4,36.6-83.7,36.6-108v-4.8c9,0.6,30.9,3.9,30.9,11.4c0,3-3.3,5.7-11.4,6
		c-3.222,11.817-7.129,23.437-11.7,34.8H174c12.9-17.7,14.7-18,15.6-18c0.42-0.013,0.836,0.091,1.2,0.3c0,0,23.7,15.6,23.7,22.2
		c0,2.7-2.1,4.5-5.4,4.5h-44.4c0,18.9-0.6,48-0.6,57c0.05,2.404-0.05,4.809-0.3,7.2H183c3.3-6,13.2-19.5,15.9-19.5
		c2.4,0,25.5,17.4,25.5,23.4c0,2.7-1.8,5.1-5.4,5.1L163.5,148.05z"/>
</g>
</svg>
