<?xml version="1.0" encoding="iso-8859-1"?>
<!-- Generator: Adobe Illustrator 24.3.0, SVG Export Plug-In . SVG Version: 6.00 Build 0)  -->
<svg version="1.1" id="&#x30EC;&#x30A4;&#x30E4;&#x30FC;_1"
	 xmlns="http://www.w3.org/2000/svg" xmlns:xlink="http://www.w3.org/1999/xlink" x="0px" y="0px" viewBox="0 0 300 300"
	 style="enable-background:new 0 0 300 300;" xml:space="preserve">
<g id="G7964">
	<path d="M121.8,230.1c0,6.3,0.3,12,0.3,15.6c0,6,0.3,9.6,0.3,12.3c0,8.4-9.6,8.7-10.8,8.7c-4.2,0-6.6-2.1-6.6-6.9v-0.6
		c0-1.8,0.6-9.3,0.9-16.5c0.3-8.1,0.6-28.5,0.6-36.3v-99.3c0.083-11.335-0.619-22.662-2.1-33.9c15,0,26.1,2.4,26.1,7.5
		c0,2.4-2.7,4.8-8.4,6c-0.3,6.3-0.3,121.8-0.3,121.8v13.2h16.8V68.1c0-5.1-0.6-23.4-2.4-34.8c5.4,0,27.6,0.6,27.6,7.2
		c0,2.7-3.3,5.4-9.6,6.6v174.6h17.1v-1.8c0.3-8.1,0.3-24,0.3-32.1v-81.6c0-21.9-1.5-31.2-1.8-33.3c3.9,0,25.8,0.9,25.8,7.5
		c0,2.1-2.7,4.8-8.4,6.6c-0.3,6.3-0.3,103.8-0.3,103.8c0,7.5,0.6,21.6,0.6,29.7c0,6,0.3,11.4,0.3,14.1c0,8.1-9.3,8.1-10.2,8.1
		c-4.2,0-6.9-1.5-6.9-6.3v-0.6c0-0.9,0.3-3,0.3-5.7L121.8,230.1z"/>
</g>
</svg>
