<?xml version="1.0" encoding="iso-8859-1"?>
<!-- Generator: Adobe Illustrator 24.3.0, SVG Export Plug-In . SVG Version: 6.00 Build 0)  -->
<svg version="1.1" id="&#x30EC;&#x30A4;&#x30E4;&#x30FC;_1"
	 xmlns="http://www.w3.org/2000/svg" xmlns:xlink="http://www.w3.org/1999/xlink" x="0px" y="0px" viewBox="0 0 300 300"
	 style="enable-background:new 0 0 300 300;" xml:space="preserve">
<g id="G796E">
	<path d="M111.9,260.251c0,4.8-1.5,8.1-4.2,8.1c-1.5,0-3.9-1.5-6.3-4.5c-3-3.9-10.2-16.5-12.6-23.1
		c5.878-0.636,11.697-1.74,17.4-3.3c11.7-2.7,27.6-8.1,44.7-14.1c4.5-21.9,10.8-64.8,12.6-100.8c0-1.5,0.3-3,0.3-4.5
		c0.045-3.24-0.359-6.471-1.2-9.6c6.9,0.3,18.6,2.4,23.1,4.2c5.1,1.8,7.2,4.5,7.2,6.6c0,3.6-4.5,6.6-9.9,6.9
		c-3.9,21.6-13.8,67.2-22.2,93.6c16.5-6,33-12.9,46.8-18.9h0.6c1.5,0,3,2.7,3,5.1c0.086,0.809-0.255,1.604-0.9,2.1
		c-29.7,16.8-70.8,37.5-98.7,48.3C111.838,257.637,111.938,258.944,111.9,260.251z M134.4,97.351c-9.9,0-27,0.3-36.6,1.8
		c-2.7-2.7-4.8-8.7-5.1-12.3c9.3,1.2,31.5,2.4,46.2,2.4v-32.4c0.033-8.445-0.669-16.877-2.1-25.2c11.1,0,18.6,1.8,22.5,2.4
		c4.8,0.9,7.8,2.7,7.8,5.4c0,3.3-3.3,6-10.5,7.5c-0.3,3.9-0.3,31.8-0.3,42.3h9.9c3.3-5.4,7.8-12,12.6-16.2
		c0.653-0.337,1.367-0.541,2.1-0.6c0.6,0,0.9,0.3,1.2,0.3c6.78,4.345,12.936,9.594,18.3,15.6c1.8,2.1,2.7,3.9,2.7,5.4
		c0,2.4-2.4,3.6-5.4,3.6H134.4z M126.6,211.351c-5.7,0-7.2-6.6-7.2-13.8v-9.6c0-21.3-3.3-48-11.1-68.4
		c-0.231-0.239-0.341-0.57-0.3-0.9c0-1.8,1.8-2.7,3.6-2.7c1.44-0.107,2.822,0.584,3.6,1.8c12,21.6,23.4,57.3,23.4,74.7v2.4
		c-0.6,7.8-4.8,15.9-11.4,16.5L126.6,211.351z"/>
</g>
</svg>
