<?xml version="1.0" encoding="iso-8859-1"?>
<!-- Generator: Adobe Illustrator 24.3.0, SVG Export Plug-In . SVG Version: 6.00 Build 0)  -->
<svg version="1.1" id="&#x30EC;&#x30A4;&#x30E4;&#x30FC;_1"
	 xmlns="http://www.w3.org/2000/svg" xmlns:xlink="http://www.w3.org/1999/xlink" x="0px" y="0px" viewBox="0 0 300 300"
	 style="enable-background:new 0 0 300 300;" xml:space="preserve">
<g id="G7960">
	<path d="M126,201.3c0.3,7.5,0.3,13.5,0.3,16.8c0,3.6,0.6,9.3,0.6,11.7c0,1.8-0.3,9.3-12.3,9.3c-5.7,0-8.4-2.7-8.4-6.3v-1.2
		c1.5-9.3,2.1-59.7,2.1-64.8V99c0-13.5-0.6-27.3-2.7-38.1c7.5,2.4,17.4,7.5,23.7,11.1h34.2c7.5-9.3,9.9-10.5,10.5-10.5
		s0.9,0,1.2,0.3c7.5,3,19.2,12.6,19.2,16.5c0,2.4-2.4,4.8-9.6,6.6c-0.3,6-0.3,77.4-0.3,77.4c0,6,0.3,38.1,0.6,47.4
		c0.3,4.2,0.9,12.3,0.9,14.1c0,3-2.1,8.4-12.6,8.4c-5.4,0-7.5-2.4-7.5-6.9c0-4.8,0.3-12.3,0.6-15.6c0-1.2,0-4.2,0.3-8.4L126,201.3z
		 M166.8,167.1v-87h-40.5l-0.3,88.5v24.3h40.8V167.1z"/>
</g>
</svg>
