<?xml version="1.0" encoding="iso-8859-1"?>
<!-- Generator: Adobe Illustrator 24.3.0, SVG Export Plug-In . SVG Version: 6.00 Build 0)  -->
<svg version="1.1" id="&#x30EC;&#x30A4;&#x30E4;&#x30FC;_1"
	 xmlns="http://www.w3.org/2000/svg" xmlns:xlink="http://www.w3.org/1999/xlink" x="0px" y="0px" viewBox="0 0 300 300"
	 style="enable-background:new 0 0 300 300;" xml:space="preserve">
<g id="G7970">
	<path d="M162.3,119.7v22.2c13.8,5.4,40.8,21.9,44.7,32.4c0.81,2.21,1.216,4.547,1.2,6.9c0,3.9-1.5,12-7.5,12c-3,0-6.3-2.1-8.4-6.6
		c-5.1-11.1-18.3-27-30-37.2v43.5c0,15.3,0.3,54.9,0.6,69.6c0,7.8,0.6,14.4,0.6,15.6c0,2.7-1.8,7.5-12,7.5c-5.1,0-8.4-1.2-8.4-5.7
		v-1.2c0.3-2.1,1.5-38.1,2.1-78c0.3-13.2,1.2-33.9,2.1-49.5c-5.7,14.7-12.6,29.7-18.6,39C115.2,211.8,90.9,237,88.5,237
		c-1.5,0-4.8-2.1-4.8-4.2c0.075-0.451,0.284-0.869,0.6-1.2c22.8-28.2,47.4-69.6,58.2-111.9H135c-11.7,0-28.8,0.6-40.5,2.1
		c-2.4-2.4-5.1-9-5.1-12.6c8.1,1.2,43.5,2.4,53.7,2.4h2.4l0.3-57.6c0.097-13.23-0.604-26.454-2.1-39.6c3,0,29.4,0,29.4,7.2
		c0,2.7-3.6,6-10.2,7.8c-0.3,3-0.3,42.6-0.3,82.2h16.2c5.1-8.1,11.1-15.9,13.2-15.9s20.1,14.4,20.1,20.1c0,2.4-1.8,4.2-5.1,4.2
		L162.3,119.7z M112.8,87.6c-0.9-14.1-5.4-33.6-13.2-47.4c-0.231-0.239-0.341-0.57-0.3-0.9c0-1.5,2.1-2.4,3.9-2.4
		c5.4,0,27.9,30.3,27.9,46.5c0,9-5.1,15.6-9.9,15.6C117,99,113.4,96.3,112.8,87.6z M216.3,46.5c0,3-3.3,5.7-10.5,5.7
		c-24.6,46.8-28.8,48.3-30.9,48.3c-1.8,0-3.3-1.2-3.3-2.7c-0.047-0.518,0.057-1.039,0.3-1.5c5.1-10.5,18-43.5,18-63.3
		C196.8,34.5,216.3,40.2,216.3,46.5z"/>
</g>
</svg>
