<?xml version="1.0" encoding="iso-8859-1"?>
<!-- Generator: Adobe Illustrator 24.3.0, SVG Export Plug-In . SVG Version: 6.00 Build 0)  -->
<svg version="1.1" id="&#x30EC;&#x30A4;&#x30E4;&#x30FC;_1"
	 xmlns="http://www.w3.org/2000/svg" xmlns:xlink="http://www.w3.org/1999/xlink" x="0px" y="0px" viewBox="0 0 300 300"
	 style="enable-background:new 0 0 300 300;" xml:space="preserve">
<g id="G7971">
	<path d="M140.1,186.3c0,3.3-4.8,6.3-10.5,6.9c-9.3,35.7-25.2,75-33,75c-1.736,0.086-3.214-1.252-3.3-2.988
		c-0.005-0.104-0.005-0.208,0-0.312c-0.047-0.615,0.055-1.233,0.3-1.8c14.1-30.3,19.2-69.3,19.2-81.6
		c0.049-2.104-0.051-4.21-0.3-6.3C118.8,175.5,140.1,181.2,140.1,186.3z M163.2,221.7v-73.5c8.7-1.8,16.5-3.6,22.8-5.4
		c0.914,4.048,1.516,8.16,1.8,12.3c0.9,6.3,3.3,9.3,6.9,9.3c0.812,0.049,1.625-0.053,2.4-0.3c1.981-0.404,3.714-1.595,4.8-3.3
		c0.722-0.813,1.328-1.721,1.8-2.7c0.986-2.272,1.497-4.723,1.5-7.2c-0.3-14.4-24.6-40.5-28.5-40.5c-1.8,0-3.9,1.8-3.9,3.3
		c-0.041,0.33,0.069,0.661,0.3,0.9c4.865,6.539,8.616,13.837,11.1,21.6c-12.6,1.5-30.6,3-48,4.2
		c18.997-20.93,36.348-43.297,51.9-66.9h2.7c6,0,9.3-2.1,9.3-4.8c0-7.2-20.1-14.1-26.4-15.9C171,66,161.4,94.5,126.6,141
		c-4.5,0.3-9,0.3-13.2,0.3c-3.6,0-12,0-18-0.6c0.6,3,5.7,27.3,12,27.3c2.4,0,4.5-3.3,4.5-10.5c9-1.2,21.6-3.3,34.2-5.7v68.7
		c0,14.7-0.9,30.3-1.5,42.9l-0.9,17.4v1.2c0,4.5,3,6,7.8,6s12.6-1.8,12.6-7.8c0-3.6,0-9-0.3-12C163.2,246.9,163.2,231,163.2,221.7
		L163.2,221.7z M98.1,70.2c13.8,9.6,23.4,21,29.4,33.6c2.1,4.5,5.1,6.6,7.8,6.6c1.342-0.046,2.622-0.579,3.6-1.5
		c3.001-2.518,4.663-6.286,4.5-10.2c0-7.5-6-13.5-14.1-19.5c9-9.9,21-25.8,34.5-48h0.9c6.9,0,10.5-2.7,10.5-5.4
		c0-7.8-25.5-13.2-27.9-13.8c-1.2,18.3-11.4,41.7-24.3,63.3c-9.6-6-21.3-10.5-22.2-10.5c-1.8,0-3.3,2.4-3.3,3.9
		C97.5,69.3,97.5,69.9,98.1,70.2z M177,171.6c-1.8,0-4.2,1.2-4.2,2.7c0,0.3,0.3,0.3,0.3,0.6c9.9,16.5,14.1,32.7,15,51.6
		c0.6,8.4,3.9,11.7,7.5,11.7c2.1,0,11.1-2.4,11.1-15C206.7,206.7,181.5,171.6,177,171.6z"/>
</g>
</svg>
