<?xml version="1.0" encoding="iso-8859-1"?>
<!-- Generator: Adobe Illustrator 24.3.0, SVG Export Plug-In . SVG Version: 6.00 Build 0)  -->
<svg version="1.1" id="&#x30EC;&#x30A4;&#x30E4;&#x30FC;_1"
	 xmlns="http://www.w3.org/2000/svg" xmlns:xlink="http://www.w3.org/1999/xlink" x="0px" y="0px" viewBox="0 0 300 300"
	 style="enable-background:new 0 0 300 300;" xml:space="preserve">
<g id="G797A">
	<path d="M182.25,136.95l-32.4,10.8c9.3,0.6,18.6,2.1,18.6,6c0,1.8-2.1,3.9-6.9,5.4c0,0.6-0.3,2.1-0.3,10.2v36.6
		c0,6.9,0.6,13.2,0.6,18.9c0,5.4-8.1,6-10.2,6c-3,0-5.4-1.2-5.4-4.2v-0.3l1.2-18c0.3-7.5,0.3-16.2,0.3-23.7c0-4.2,0-15-0.3-18.9
		c-0.069-5.718-0.47-11.428-1.2-17.1l-15,4.5c-2.4,69.6-17.4,105.3-40.8,134.1c-0.3,0.6-0.9,0.6-1.5,0.6c-2.4,0-5.1-2.4-5.1-4.5
		c-0.045-0.423,0.061-0.848,0.3-1.2c20.1-30.9,29.4-65.1,30.9-124.5c-3.9,1.2-7.8,2.4-11.7,3.3c0,1.2,0.3,2.1,0.3,3
		c0,5.4-1.8,8.4-4.2,8.4c-3.3,0-7.8-7.5-13.8-26.4h3.3c8.1,0,18-1.8,26.4-3.6v-20.4c-0.3-15.9,0-43.8-0.6-56.4
		c-0.248-8.145-1.05-16.264-2.4-24.3c7.471,2.169,14.631,5.295,21.3,9.3h4.8c4.5-18.6,4.5-29.4,4.5-31.8
		c0.05-2.204-0.05-4.409-0.3-6.6c5.1,0.3,30.6,3.6,30.6,10.2c0,2.7-4.2,5.1-11.1,5.4c-5.4,10.5-9.3,16.8-13.8,22.8h31.5
		c1.8-2.7,6.9-8.7,9-8.7s17.4,9.9,17.4,15c0,2.7-2.7,5.1-7.8,6.6c-0.3,2.7-0.3,27.9-0.3,58.8c5.1-1.8,10.2-3.3,15-5.1h0.6
		c1.5,0,2.4,2.1,2.4,4.2c0,2.4-1.5,3.3-18,9.9v71.1c0,8.4,0.6,36.6,1.2,45.9v2.1c0,27-27.9,31.8-31.2,31.8c-2.1,0-3.6-1.5-4.2-4.2
		c-1.8-6.9-8.7-8.7-24.6-11.7c-1.5-0.3-2.1-2.1-2.1-3.9s0.6-3.6,2.4-3.6h0.3c9.75,1.284,19.567,1.985,29.4,2.1
		c6.3,0,12.9-3.9,12.9-13.2V136.95z M182.25,58.35h-50.7c0,18.6,0.3,51.6,0.3,66v14.7c16.8-3.6,34.2-7.8,50.4-12.3V58.35z
		 M151.35,110.55c-0.6-14.4-2.7-26.7-9-39.6c0-0.3-0.3-0.6-0.3-0.9c0-1.5,2.4-3,4.2-3c4.5,0,21,24.9,21,38.7
		c0,7.2-5.7,13.8-9.6,13.8C154.65,119.55,151.65,116.25,151.35,110.55z"/>
</g>
</svg>
