<?xml version="1.0" encoding="iso-8859-1"?>
<!-- Generator: Adobe Illustrator 24.3.0, SVG Export Plug-In . SVG Version: 6.00 Build 0)  -->
<svg version="1.1" id="&#x30EC;&#x30A4;&#x30E4;&#x30FC;_1"
	 xmlns="http://www.w3.org/2000/svg" xmlns:xlink="http://www.w3.org/1999/xlink" x="0px" y="0px" viewBox="0 0 300 300"
	 style="enable-background:new 0 0 300 300;" xml:space="preserve">
<g id="G7977">
	<path d="M106.049,40.049c-11.1,0.3-22.5,0.6-28.8,1.5c-2.7-2.4-4.8-9.3-5.1-13.2c12.3,1.8,48.3,2.7,64.8,2.7h51.6
		c10.2-14.1,14.4-16.8,15-16.8c4.8,0,24.3,16.5,24.3,21.6c0,2.4-2.1,3.9-5.4,3.9h-29.1v162.3c0,16.8,0.6,48,0.6,56.7
		c0,9,0.6,18.6,0.6,19.2c0,5.4-3.9,7.8-13.2,7.8c-4.2,0-8.4-0.9-8.4-6.3v-0.6c0-3,0.6-10.5,0.9-17.1c0.3-8.7,0.6-30.3,0.9-46.5
		c-23.7,9.3-50.4,17.1-80.4,24.3c-0.3,8.1-2.1,12-4.8,12c-4.8,0-11.7-15.6-15.9-31.2c1.8,0,3.9,0.3,5.7,0.3c9.9,0,24.6-1.8,26.7-2.1
		L106.049,40.049z M174.749,39.749h-50.4v48h50.4V39.749z M174.749,96.149h-50.4v49.5h50.4V96.149z M174.749,153.749h-50.4v62.4
		c16.953-2.336,33.775-5.54,50.4-9.6V153.749z"/>
</g>
</svg>
