<?xml version="1.0" encoding="iso-8859-1"?>
<!-- Generator: Adobe Illustrator 24.3.0, SVG Export Plug-In . SVG Version: 6.00 Build 0)  -->
<svg version="1.1" id="&#x30EC;&#x30A4;&#x30E4;&#x30FC;_1"
	 xmlns="http://www.w3.org/2000/svg" xmlns:xlink="http://www.w3.org/1999/xlink" x="0px" y="0px" viewBox="0 0 300 300"
	 style="enable-background:new 0 0 300 300;" xml:space="preserve">
<g id="goujitomo">
	<path d="M286.358,136.3c-2.187-2.023-23.329-12.95-36.451-12.95c-2.552,0-6.2,1.618-12.759,4.451
		c-3.382,1.41-6.936,2.362-10.57,2.833c-23.329,1.619-50.668,4.856-79.465,8.9c2.916-25.495,4.01-31.565,5.832-36.421
		c1.082-2.569,1.699-5.309,1.823-8.094c-0.021-3.091-1.344-6.03-3.645-8.094c-5.183-4.912-11.084-9.005-17.5-12.14
		c21.871-3.642,49.939-8.5,65.613-10.926c7.655-1.215,17.5-2.025,23.329-3.238c9.116-2.021,12.035-6.477,12.035-10.928
		c0-9.712-9.842-12.95-29.89-12.95c-7.291,0-11.665,2.024-14.581,4.048c-4.01,2.428-5.832,4.046-10.206,5.261
		c-13.488,3.236-65.248,13.353-81.651,13.353c-25.517,0-39-11.33-43.378-16.186c-0.482-0.634-1.016-1.227-1.594-1.774
		c0.267-0.795,0.545-1.565,0.834-2.308c1.091-2.342,1.696-4.88,1.777-7.462c0.031-3.54-1.879-6.812-4.975-8.528
		C38.857,16.041,32.382,10,21.368,10C10.707,10,10,14.975,10,16.041c0,1.776,1.669,2.48,5.685,4.264
		c8.114,3.6,9.673,12.792,10.383,25.228c0.71,16.345,1.066,39.087,1.066,63.249c0,10.838-0.019,20.788-0.058,29.947l-0.161,22.921
		c-0.452,44.1-1.651,64.766-4.045,76.471c-3.2,9.239-3.2,13.858-3.2,16.346c0,12.792,6.04,35.533,16.7,35.533
		c7.463,0,12.793-8.529,12.793-28.782v-2.488c-0.755-22.132-1.509-52.811-1.885-83.97c3.694,1.508,7.633,2.324,11.622,2.409
		c7.29,0,13.488-2.833,20.049-5.261c11.3-4.451,27.338-8.094,45.2-11.332c-0.364,11.737-0.729,22.663-0.729,32.376
		c0,46.943,1.458,82.15,84.568,82.15c16.539-0.08,33.027-1.843,49.209-5.261c6.562-1.618,15.674-4.451,15.674-14.163
		s-14.216-14.165-28.067-14.165h-1.823c-3.645,0-6.562,2.429-9.842,3.643c-13.091,4.11-26.741,6.157-40.461,6.07
		c-49.575,0-49.939-17.4-49.939-51.8c0.002-14.067,0.854-28.122,2.551-42.086c26.073-3.842,52.382-5.871,78.736-6.071
		c5.1,0,9.842,0,14.216,0.405c14.581,0.81,18.591,2.023,24.787,2.428c4.01,0.405,6.926,0.405,9.842,0.81
		c1.458,0,3.645,0.4,5.467,0.4c4.739,0,11.665-1.214,11.665-10.522C290.147,141.552,288.805,138.426,286.358,136.3z
		 M127.794,107.158c-1.094,12.141-1.823,24.282-2.552,35.208c-10.935,1.619-59.78,9.308-64.154,9.308
		c-4.751-0.005-9.477-0.703-14.026-2.074c-0.021-4.411-0.032-8.789-0.032-13.108v-25.934c0.394-24.871,1.229-40.743,2.623-51.834
		c6.721,11.054,20.811,22.13,37.679,22.13h4.739c6.926-0.405,14.216-2.428,21.507-3.238l2.187-0.4
		c10.206,7.689,12.394,14.569,12.394,22.258C128.219,102.041,128.097,104.609,127.794,107.158z"/>
</g>
</svg>
