<?xml version="1.0" encoding="iso-8859-1"?>
<!-- Generator: Adobe Illustrator 24.3.0, SVG Export Plug-In . SVG Version: 6.00 Build 0)  -->
<svg version="1.1" id="&#x30EC;&#x30A4;&#x30E4;&#x30FC;_1"
	 xmlns="http://www.w3.org/2000/svg" xmlns:xlink="http://www.w3.org/1999/xlink" x="0px" y="0px" viewBox="0 0 300 300"
	 style="enable-background:new 0 0 300 300;" xml:space="preserve">
<g>
	<path d="M125.5,98.4c-15.6-15-22.2-26.4-22.2-36c0-5.4,2.1-16.2,14.7-16.2c2.4,0,5.1,0.3,7.2,1.8c2.7,1.8,3.9,3.9,6,6
		c2.1,1.5,6,6.3,6,8.1c0,1.2-0.9,2.1-3.3,2.1c-1.5,0-3.9-0.3-6.9-1.2c-0.3,0-0.3,0-0.6,0c-1.5,0-2.7,2.1-2.7,3.9
		c0,2.1,2.4,12.3,18.6,30.9c10.2-3.6,18.6-7.2,23.1-9.3c0.9-0.6,2.7-1.8,2.7-3c0-0.6-0.3-2.4-7.5-7.2c-2.4-1.8-3.3-3.3-3.3-4.2
		c0-1.2,0.9-1.8,3-1.8c0.9,0,2.1,0.3,3.3,0.6c5.4,1.5,11.1,2.1,18,2.7c4.8,0.3,12-0.3,15.6,1.2c5.4,2.1,5.7,6.3,5.7,7.8
		c0,3.3-1.8,7.5-9.9,10.2c-4.5,1.5-12.9,3.6-17.4,5.1c-7.8,2.4-15.6,5.1-23.7,8.1c11.4,12,24.3,24.6,35.1,36.3
		c17.1,18.3,32.1,36.6,32.1,49.2c0,2.1-0.6,11.7-1.2,13.2c-2.1,4.5-6,6.9-10.5,6.9c-2.4,0-4.8-0.6-6.9-1.8c-2.4-1.5-5.4-3.9-7.8-5.4
		c-17.1-10.8-49.8-13.2-65.4-13.2c-48,0-60,19.8-60,30.9c0,23.1,37.5,34.5,65.7,34.5c0.9,0,16.5-0.6,21-2.1c1.2-0.3,2.7-0.9,4.5-1.8
		c3.6-1.2,6.6-2.1,12.6-2.1c11.1,0,20.1,3.6,20.1,11.4c0,13.2-37.5,14.1-46.8,14.1c-51.9,0-90-23.4-90-51
		c0-24.3,25.2-45.9,91.8-45.9c16.5,0,32.7,1.2,45.3,3c0.6,0,1.2,0,1.8,0c2.4,0,2.7-1.2,2.7-2.1c0-0.3,0-0.6,0-0.9
		c0-9-20.7-33.6-56.4-68.7c-44.1,15.6-55.8,18.3-65.1,18.3c-24,0-38.7-18.3-38.7-27c0-2.4,0.9-4.2,2.7-4.2c0.9,0,2.1,0.3,3.3,1.2
		c10.8,9,26.7,12.3,39.6,12.3c9,0,20.7-1.8,48-10.8L125.5,98.4z"/>
	<path d="M221.3,54c0-18,14.1-32.1,31.8-32.1c18,0,32.1,14.1,32.1,32.1c0,17.7-14.1,32.1-32.1,32.1C235.4,86.1,221.3,71.7,221.3,54z
		 M273.8,54.3c0-11.7-9.3-21-21-21c-11.4,0-20.7,9.3-20.7,21c0,11.4,9.3,21,20.7,21C264.5,75.3,273.8,65.7,273.8,54.3z"/>
</g>
</svg>
