<?xml version="1.0" encoding="iso-8859-1"?>
<!-- Generator: Adobe Illustrator 24.3.0, SVG Export Plug-In . SVG Version: 6.00 Build 0)  -->
<svg version="1.1" id="&#x30EC;&#x30A4;&#x30E4;&#x30FC;_1"
	 xmlns="http://www.w3.org/2000/svg" xmlns:xlink="http://www.w3.org/1999/xlink" x="0px" y="0px" viewBox="0 0 300 300"
	 style="enable-background:new 0 0 300 300;" xml:space="preserve">
<g id="hieroglyph2">
	<path d="M266.486,296.188c-1.509-1.387-4.512-4.934-6.993-6.94c-1.528-1.236-2.972-2.4-4.16-3.554
		c-12.317-11.922-24.406-21.249-37.2-31.124c-8.926-6.886-18.155-14.007-27.578-22.156c-0.775-0.67-1.668-1.471-2.661-2.372
		c-0.814-0.695-1.583-1.397-2.308-2.107l-0.322-0.3c-4.7-4.309-11.11-10.176-14.668-12.454c-5.847-2.67-18.023-6.59-30.9-10.737
		c-17.516-5.638-35.628-11.47-43.52-15.934c-15.208-8.6-27.164-20.035-34.577-33.058c-8.14-14.3-10.735-30.588-7.28-45.146
		c-1.861-2.585-2.776-6.726-3.825-11.468c-1.129-5.11-2.408-10.9-4.716-15.3l0,0c-1.995-3.805-4.811-8.823-7.793-14.137
		c-6.941-12.355-11.575-20.743-12.77-24.586c-0.821-2.637,0.651-5.439,3.288-6.26c1.468-0.457,3.064-0.213,4.328,0.66
		c6.538,4.515,13.912,9.5,21.719,14.768c16.244,10.973,33.042,22.318,46,31.937c2.217,1.646,2.68,4.778,1.034,6.995
		c-0.087,0.118-0.18,0.231-0.277,0.341c-0.408,0.459-0.759,0.9-1.1,1.324c-2.965,3.679-5.733,6.406-16.76,10.635l-2.057,0.8
		c-8.969,3.482-14.1,5.329-17.261,6.259c-3,12.2-0.8,26.011,6.159,38.238c6.519,11.455,17.173,21.587,30.809,29.3
		c7,3.96,25.416,9.888,41.661,15.119l2.482,0.8c-5.211-5.507-8.483-11.6-12.1-18.33c-1.438-2.675-2.925-5.442-4.646-8.4
		c-8.02-13.784-15.743-34.289-14.92-49.025c0.194-3.466,0.287-6.576,0.378-9.582c0.125-10.529,1.203-21.025,3.221-31.36
		c-0.051-0.167-0.093-0.336-0.126-0.507C113.936,62.745,103.155,26.35,95.736,11.3c-1.222-2.476-0.205-5.474,2.272-6.696
		c1.88-0.927,4.138-0.584,5.657,0.86c5.432,5.161,15.978,13.322,27.142,21.964c13.921,10.773,29.7,22.985,39.576,32.493
		c1.989,1.915,2.049,5.081,0.134,7.07c-0.73,0.758-1.681,1.267-2.717,1.453c-11.245,2.022-21.149,5.879-29.106,8.979
		c-4.537,1.766-8.414,3.276-11.84,4.216c-1.835,9.579-2.809,19.303-2.912,29.055c-0.092,3.07-0.188,6.245-0.389,9.839
		c-0.7,12.6,6.546,31.349,13.579,43.438c1.806,3.1,3.334,5.947,4.811,8.695c4.913,9.143,8.463,15.748,16.829,21.539l0.105,0.075
		l15.182,11.1c-1.059-7.665,0.189-14.444,0.941-18.533c0.206-1.118,0.384-2.084,0.456-2.729c0.2-1.761,0.4-3.626,0.6-5.515
		c0.676-6.324,1.323-12.381,2.111-16.606c-1.932-3.276-2.834-9.985-3.951-25.749c-0.173-2.442-0.322-4.553-0.445-5.6l-0.173-1.547
		c-2.292-20.678-3.776-26.114-4.393-27.54l-0.011-0.012c-1.805-2.089-1.575-5.247,0.514-7.052c1.781-1.539,4.395-1.627,6.276-0.212
		c0.568,0.415,1.059,0.925,1.453,1.507c20.175,23.284,38.242,40.452,55.029,56.048c2.023,1.879,2.14,5.043,0.261,7.066
		c-0.475,0.511-1.052,0.918-1.694,1.193c-4.8,2.057-13.865,2.54-27.147,3.04c-5.336,0.2-12.209,0.46-15.944,0.973
		c-0.7,3.891-1.374,10.233-1.942,15.557c-0.205,1.909-0.406,3.793-0.606,5.572c-0.112,0.992-0.319,2.117-0.559,3.419
		c-1.447,7.865-3.817,20.751,7.6,32c0.735,0.673,1.431,1.31,2.079,1.9l0.1,0.094c0.937,0.85,1.77,1.6,2.473,2.2
		c9.212,7.966,18.329,15,27.145,21.8c12.453,9.609,25.33,19.544,38.051,31.856c0.868,0.84,2.144,1.872,3.494,2.964
		c3.868,3.129,8.11,6.734,9.985,10.991C277.7,296.842,271.253,300.568,266.486,296.188z M182.09,116c0.454,3.4,0.934,7.366,1.447,12
		l0.167,1.49l0,0c0.149,1.278,0.3,3.387,0.487,6.057c0.293,4.135,0.976,13.785,1.9,18.749c5.783-0.675,11.596-1.059,17.418-1.148
		c4.635-0.175,10.2-0.385,14.869-0.78C206.983,141.65,194.972,129.969,182.09,116z M62.333,104.3L62.333,104.3z M43.315,58.464
		c1.142,2.049,2.293,4.1,3.385,6.048c3.018,5.377,5.868,10.457,7.928,14.387l0,0c2.926,5.583,4.421,12.349,5.623,17.786
		c0.419,1.9,0.943,4.266,1.426,5.9c2.929-0.9,8.315-2.875,16.088-5.894l2.1-0.811c5.886-2.257,8.625-3.791,10.3-5.175
		C78.081,81.946,63.3,71.963,48.953,62.272C47.046,60.984,45.167,59.715,43.315,58.464z M112.3,25.69
		c5.258,15.044,9.753,30.344,13.468,45.841c2.669-0.844,5.84-2.08,9.3-3.427c6.982-2.844,14.117-5.295,21.372-7.342
		c-9.191-7.967-21.029-17.13-31.75-25.428C120.388,32.008,116.181,28.752,112.3,25.69z"/>
</g>
</svg>
