<?xml version="1.0" encoding="iso-8859-1"?>
<!-- Generator: Adobe Illustrator 24.3.0, SVG Export Plug-In . SVG Version: 6.00 Build 0)  -->
<svg version="1.1" id="&#x30EC;&#x30A4;&#x30E4;&#x30FC;_1"
	 xmlns="http://www.w3.org/2000/svg" xmlns:xlink="http://www.w3.org/1999/xlink" x="0px" y="0px" viewBox="0 0 300 300"
	 style="enable-background:new 0 0 300 300;" xml:space="preserve">
<g id="hieroglyph1">
	<path d="M36.012,176.957c-7.727-22.619,2.374-75.861,26.125-102.54c30.54-34.306,69.814-35.953,84.63-36.191
		c30.713-0.494,63.808,12.831,85.962,34.63c14.155,13.928,34.576,45.716,34.729,74.473c0.245,46.216-21.049,84.1-58.506,101.633
		c-30.8,14.422-77.38,16.679-109.544,2.736C71.319,239.521,45.453,204.6,36.012,176.957z M159.871,289.93
		c42.38-4.28,64.469-9.182,101.583-48.256c31.393-33.05,29.219-86.147,28.449-98.268c-2.127-33.487-11.774-62.2-33.116-88.969
		c-18.982-23.807-70.459-43.119-102.84-43.354c-27.785-0.2-45.8-4.488-77.092,15.08c-43.4,27.143-66.606,98.519-66.6,121.166
		c0.006,26.139,3.787,51.883,19.424,72.537c6.851,9.05,23.706,32.274,32.826,38.9C91.344,279.709,122.283,293.725,159.871,289.93z
		 M176.571,172.936c6.563-6.666,17.049-26.942,4.906-46.746c-6.911-10.876-19.538-16.713-32.3-14.933
		c-21.341,3.393-31.25,20.524-30.009,38.374c1.747,25.127,18.062,27.811,21.2,28.893c13.18,4.546,30.274,0.436,36.204-5.588
		L176.571,172.936z"/>
</g>
</svg>
