<?xml version="1.0" encoding="iso-8859-1"?>
<!-- Generator: Adobe Illustrator 24.3.0, SVG Export Plug-In . SVG Version: 6.00 Build 0)  -->
<svg version="1.1" id="&#x30EC;&#x30A4;&#x30E4;&#x30FC;_1"
	 xmlns="http://www.w3.org/2000/svg" xmlns:xlink="http://www.w3.org/1999/xlink" x="0px" y="0px" viewBox="0 0 300 300"
	 style="enable-background:new 0 0 300 300;" xml:space="preserve">
<g id="JIS">
	<path d="M64.87,235.138c47.016,47.016,123.244,47.016,170.26,0.001s47.016-123.244,0.001-170.26s-123.244-47.016-170.26-0.001
		c-26.777,26.777-39.395,64.593-34.063,102.084c2.132,15.057,16.067,25.535,31.125,23.403c13.587-1.924,23.683-13.558,23.675-27.28
		V87.013h25.2v76.072c0.003,27.57-22.344,49.922-49.913,49.925c-24.775,0.003-45.803-18.165-49.397-42.678
		C0.279,93.836,53.197,22.729,129.693,11.51s147.603,41.699,158.822,118.195S246.816,277.308,170.32,288.527
		c-43.781,6.421-88.021-8.236-119.308-39.527 M164,87.013V213h-28V87.013 M232.18,149.952c14.717,13.694,15.546,36.727,1.852,51.444
		c-6.882,7.396-16.529,11.6-26.632,11.604H185v-22.4h18.2c8.505-0.001,15.399-6.897,15.397-15.403
		c-0.001-4.277-1.78-8.361-4.911-11.273l-17.518-16.29c-14.15-13.169-14.945-35.315-1.776-49.466
		c6.618-7.111,15.894-11.152,25.608-11.155h16.8v22.4h-12.6c-7.732,0.001-13.999,6.27-13.998,14.002
		c0.001,3.888,1.618,7.601,4.465,10.249"/>
</g>
</svg>
