<?xml version="1.0" encoding="iso-8859-1"?>
<!-- Generator: Adobe Illustrator 24.3.0, SVG Export Plug-In . SVG Version: 6.00 Build 0)  -->
<svg version="1.1" id="&#x30EC;&#x30A4;&#x30E4;&#x30FC;_1"
	 xmlns="http://www.w3.org/2000/svg" xmlns:xlink="http://www.w3.org/1999/xlink" x="0px" y="0px" viewBox="0 0 300 600"
	 style="enable-background:new 0 0 300 600;" xml:space="preserve">
<g id="kakinoshi">
	<path d="M216.905,21.435C201.2,9.917,181.69,7.077,161.656,13.02c-23.177,7.075-45.591,26.2-64.821,52.49
		C55.771,121.659,56.77,187.616,79.727,212.742c12.345,13.512,46.332,7.609,63.457-15.748
		c19.675-26.835,19.109-65.222,11.969-86.247c-3.6-10.6-16.742-7.31-20.933-1.594c-3.643,4.97-0.829,13.687,1,21.5
		c5.192,22.182,2.342,32.053-7.5,45.471c-6.558,8.944-20.987,20.487-32.479,10.493c-18.672-16.236-13.526-64.023,12-101.435
		c28.988-42.472,67.959-70.365,88.95-50.926c16.718,15.487,15.449,37.021,13.96,57.943c-0.519,7.292-5.181,38.723-8.183,56.534
		C201.387,152.18,170.631,251.36,155.7,322.1c-7.674,36.347-7.025,52.369-6.159,98.859c0.12,6.453,5.138,44.423,4.046,56.844
		c-1.016,11.563-6.147,20.5-11.618,21.6c-17.919,3.6-33.728,6.756-23.408,16.336c7.077,6.569,15.155,9.892,19.426,15.25
		c4.9,6.151,13.082,20.075,19.637,34c7.779,15.866,7.779,15.866,10.152,18.842c4.271,5.358,11.318,7.822,14.89,4.975
		s5.583-17.677,4.664-25.46c-3.529-29.906-13.268-48.218-14.079-50.927c-5.5-25.483,1.595-53.3-2.05-91.2
		c-4.11-42.731-5.5-70.7,13.405-132.337c11.322-36.918,18.824-83.149,38.74-154.121c3.287-11.714,8.512-26.812,10.814-42.08
		C238.928,59.881,235.625,35.161,216.905,21.435z"/>
</g>
</svg>
