<?xml version="1.0" encoding="iso-8859-1"?>
<!-- Generator: Adobe Illustrator 24.3.0, SVG Export Plug-In . SVG Version: 6.00 Build 0)  -->
<svg version="1.1" id="&#x30EC;&#x30A4;&#x30E4;&#x30FC;_1"
	 xmlns="http://www.w3.org/2000/svg" xmlns:xlink="http://www.w3.org/1999/xlink" x="0px" y="0px" viewBox="0 0 150 300"
	 style="enable-background:new 0 0 150 300;" xml:space="preserve">
<g id="kbunnoichi">
	<path d="M55.261,25.229l24.17-11.791h2.417V97.3c0,5.566,0.232,9.033,0.695,10.4c0.494,1.401,1.54,2.539,2.894,3.15
		c1.467,0.733,4.445,1.148,8.936,1.245v2.71H57.019V112.1c4.688-0.098,7.715-0.501,9.082-1.208c1.254-0.594,2.263-1.604,2.857-2.858
		c0.533-1.195,0.802-4.771,0.805-10.729V43.687c0-7.226-0.244-11.865-0.732-13.916c-0.211-1.327-0.87-2.542-1.868-3.443
		c-0.923-0.739-2.077-1.129-3.259-1.1c-1.808,0-4.323,0.757-7.544,2.271L55.261,25.229z M80.6,180.654l-20.8,72l8.35-7.1
		c9.133-7.715,15.067-13.428,17.8-17.139c0.689-0.787,1.145-1.751,1.318-2.783c-0.004-0.452-0.159-0.89-0.439-1.245
		c-0.461-0.489-1.063-0.821-1.722-0.952c-1.48-0.303-2.991-0.425-4.5-0.366H78.04l0.805-2.784h32.007l-0.732,2.784
		c-3.228,0.114-6.423,0.693-9.486,1.721c-2.771,1.011-5.375,2.43-7.726,4.211c-4.933,3.662-8.18,6.201-9.741,7.617l-6.3,5.567
		c1.073,3.515,2.392,8.422,3.955,14.721c2.636,10.45,4.418,16.65,5.346,18.6s1.88,2.927,2.857,2.93
		c1.082-0.1,2.107-0.535,2.93-1.245c3.154-2.514,5.896-5.504,8.129-8.863l2.564,1.831c-5.323,6.691-9.401,11.098-12.232,13.221
		s-5.419,3.185-7.763,3.186c-1.899,0.077-3.702-0.838-4.761-2.417c-1.954-2.881-5.201-14.234-9.741-34.058L58.118,258.8l-7.544,26
		H39.148l24.316-83.57l2.051-7.1c0.226-1.06,0.348-2.139,0.366-3.223c0.018-1.132-0.48-2.21-1.355-2.929
		c-1.121-0.851-2.513-1.268-3.918-1.172c-1.8,0.087-3.589,0.332-5.347,0.732v-2.563L80.6,180.654z M30,146v8h90v-8H30z"/>
</g>
</svg>
