<?xml version="1.0" encoding="iso-8859-1"?>
<!-- Generator: Adobe Illustrator 24.3.0, SVG Export Plug-In . SVG Version: 6.00 Build 0)  -->
<svg version="1.1" id="&#x30EC;&#x30A4;&#x30E4;&#x30FC;_1"
	 xmlns="http://www.w3.org/2000/svg" xmlns:xlink="http://www.w3.org/1999/xlink" x="0px" y="0px" viewBox="0 0 300 600"
	 style="enable-background:new 0 0 300 600;" xml:space="preserve">
<g id="kunojiten1">
	<path d="M196.469,489.748c12.478,29.258,21.513,62.819,21.513,81.32c0,11.617-2.581,18.932-10.326,18.932
		c-6.024,0-9.466-6.024-11.187-12.908c-2.582-10.326-5.163-43.887-18.5-77.878c-15.92-42.6-35.282-83.472-73.575-142.419
		c-11.62-18.071-22.376-34.421-22.376-52.495c0-19.362,9.466-42.6,20.222-65.831c21.944-48.19,59.377-114.451,80.46-156.187
		c8.175-16.35,9.036-24.956,9.036-28.828c0-5.593-2.151-17.641-16.781-38.294L181.84,10c6.454,4.3,10.756,8.175,16.78,15.49
		c8.175,10.326,15.06,22.8,15.06,33.991c0,7.314-9.466,20.653-16.781,33.13c-21.083,37-61.958,105.846-84.332,153.175
		c-10.327,21.514-17.641,39.155-17.641,58.086c0,12.478,8.175,26.247,21.513,45.178
		C155.593,406.276,178.828,448.012,196.469,489.748z"/>
</g>
</svg>
