<?xml version="1.0" encoding="iso-8859-1"?>
<!-- Generator: Adobe Illustrator 24.3.0, SVG Export Plug-In . SVG Version: 6.00 Build 0)  -->
<svg version="1.1" id="&#x30EC;&#x30A4;&#x30E4;&#x30FC;_1"
	 xmlns="http://www.w3.org/2000/svg" xmlns:xlink="http://www.w3.org/1999/xlink" x="0px" y="0px" viewBox="0 0 300 600"
	 style="enable-background:new 0 0 300 600;" xml:space="preserve">
<g id="kunojiten2">
	<path d="M253.112,192.569c0,5.6-3.445,8.181-7.32,8.181c-5.6,0-8.612-8.612-15.932-16.793c-7.75-8.181-18.515-17.224-33.585-27.127
		l5.167-6.028c16.792,6.459,30.141,14.64,38.322,21.529C248.806,179.22,253.543,185.679,253.112,192.569z M81.739,349.3
		c-13.349-18.946-21.53-32.724-21.53-45.211c0-19.377,7.32-36.6,17.654-58.13c22.391-46.934,63.3-116.258,84.4-153.288
		c7.32-12.918,16.793-25.836,16.793-33.156c0-11.195-7.32-23.682-15.07-34.016c-6.029-7.32-10.334-11.2-16.793-15.5l-6.89,5.167
		c14.64,20.668,16.793,32.725,16.793,38.322c0,3.876-0.861,12.487-9.042,28.85c-21.529,41.766-58.99,108.077-81.381,156.3
		c-10.765,22.391-19.807,45.643-19.807,65.45c0,18.084,10.334,34.447,22.391,52.531c38.322,59.421,57.7,100.327,73.63,142.524
		c13.348,34.017,15.932,67.172,18.515,77.936c1.722,7.32,5.167,12.918,11.2,12.918c8.181,0,10.334-7.32,10.334-18.946
		c0-18.084-9.042-51.67-21.529-81.381C144.174,447.906,120.922,406.14,81.739,349.3z M208.762,202.47
		c-11.35-10.106-24.301-18.254-38.323-24.113l-4.305,6.029c12.089,8.354,23.082,18.19,32.724,29.279
		c7.32,8.182,10.765,15.932,15.932,16.363c4.306-0.431,6.889-2.584,6.889-7.751c0-6.457-4.306-12.054-12.917-19.805V202.47z"/>
</g>
</svg>
