<?xml version="1.0" encoding="iso-8859-1"?>
<!-- Generator: Adobe Illustrator 24.3.0, SVG Export Plug-In . SVG Version: 6.00 Build 0)  -->
<svg version="1.1" id="&#x30EC;&#x30A4;&#x30E4;&#x30FC;_1"
	 xmlns="http://www.w3.org/2000/svg" xmlns:xlink="http://www.w3.org/1999/xlink" x="0px" y="0px" viewBox="0 0 300 300"
	 style="enable-background:new 0 0 300 300;" xml:space="preserve">
<g id="maruzen">
	<path d="M109.309,176.893c-9.12,0-50.044,0.467-59.866,1.637C47.105,175.724,45,171.047,45,168.007
		c8.419,0.935,38.586,1.636,58,2.1c-0.775-1.45-1.251-3.04-1.4-4.677c-1.514-9.263-5.844-17.835-12.4-24.551
		c-0.133-0.121-0.216-0.288-0.233-0.467c0-1.169,2.338-2.807,3.741-2.807c0.935,0,23.619,12.863,23.619,25.023
		c0.075,2.765-0.932,5.449-2.806,7.483h27.359V135.5h-32.506c-9.12,0-47.238,0.468-57.06,1.637
		c-2.459-2.988-3.929-6.665-4.209-10.524c10.523,1.17,52.383,2.339,67.349,2.339h26.426v-21.747h-18.708
		c-2.807,0-41.626,0.234-49.344,1.4c-1.87-2.338-4.209-7.015-4.209-10.056c8.185,0.936,51.448,2.1,55.423,2.1h16.838v-21.74h-34.143
		c-9.12,0-35.078,0.468-44.9,1.637c-2.338-2.807-4.209-7.483-4.209-10.524c10.524,1.169,40.457,2.339,55.423,2.339h7.016
		c-1.429-1.245-2.482-2.865-3.04-4.677c-2.806-7.717-8.185-14.265-17.305-20.813c-0.333-0.187-0.518-0.558-0.468-0.936
		c0-1.169,1.871-2.572,3.274-2.572c3.04,0,29.7,9.354,29.7,21.514c0.13,2.919-1.18,5.716-3.507,7.484h33.908
		c7.717-11.459,10.991-19.41,13.1-29.933c2.1,0.233,24.087,3.507,24.087,8.419c0,2.1-2.805,3.975-8.418,3.975h-1.169
		c-5.649,6.443-11.915,12.317-18.709,17.539h39.521c2.573-3.508,10.758-12.862,12.629-12.862c2.1,0,20.578,10.991,20.578,15.434
		c0,2.1-1.636,3.976-4.677,3.976h-84.42v21.748h45.133c8.887-12.394,11.225-12.394,11.927-12.394
		c3.508,0,19.643,12.628,19.643,15.668c0,1.871-1.4,3.274-4.443,3.274h-72.26v21.748h64.777c3.573-4.644,7.481-9.021,11.692-13.095
		c0.372-0.359,0.887-0.531,1.4-0.468c2.105,0,20.346,12.16,20.346,16.369c0,1.872-1.637,3.742-4.677,3.742h-93.544v34.61h19.175
		c4.21-7.249,8.42-16.369,10.29-23.853c0.7-2.338,0.935-5.846,1.4-8.418c4.443,0.234,23.618,2.806,23.618,8.184
		c0,1.871-2.572,3.508-8.184,3.508h-0.7c-5.385,7.308-11.327,14.188-17.773,20.579h37.884c3.675-4.992,7.741-9.684,12.16-14.031
		c0.363-0.217,0.758-0.375,1.17-0.467c3.04,0,20.813,12.627,20.813,17.3c0,1.871-1.637,3.976-4.677,3.976L109.309,176.893z
		 M99.488,244.009v7.951c-0.468,5.145-7.718,5.612-10.056,5.612c-3.975,0-6.548-1.169-6.548-4.209v-0.7
		c0-0.935,0.468-5.145,0.7-8.886c0.234-5.145,0.935-14.5,0.935-18.241V213.14c-0.022-8.306-0.724-16.597-2.1-24.789
		c6.861,1.795,13.463,4.466,19.641,7.949h92.84c0.7-0.7,6.314-7.717,8.652-7.717c2.105,0,16.6,8.184,16.6,12.628
		c0,2.1-2.339,4.209-7.717,5.846c-0.34,2.008-0.497,4.043-0.468,6.08c0,2.105,0.234,16.37,0.234,18.007
		c0.234,3.741,0.468,11.926,0.7,14.265c0.234,1.871,0.468,4.677,0.468,5.378c0,3.976-5.847,5.379-10.056,5.379
		c-4.677,0-6.548-1.637-6.548-3.976c0-0.7,0.235-5.144,0.235-8.184L99.488,244.009z M197.238,203.085H99.254v33.674h97.751
		c0.233-3.741,0.233-7.951,0.233-10.056V203.085z M150,296.5C69.22,296.5,3.5,230.78,3.5,150S69.22,3.5,150,3.5
		S296.5,69.22,296.5,150S230.78,296.5,150,296.5z M150,11.5C73.631,11.5,11.5,73.631,11.5,150S73.631,288.5,150,288.5
		S288.5,226.369,288.5,150S226.369,11.5,150,11.5z"/>
</g>
</svg>
