<?xml version="1.0" encoding="iso-8859-1"?>
<!-- Generator: Adobe Illustrator 24.3.0, SVG Export Plug-In . SVG Version: 6.00 Build 0)  -->
<svg version="1.1" id="&#x30EC;&#x30A4;&#x30E4;&#x30FC;_1"
	 xmlns="http://www.w3.org/2000/svg" xmlns:xlink="http://www.w3.org/1999/xlink" x="0px" y="0px" viewBox="0 0 300 300"
	 style="enable-background:new 0 0 300 300;" xml:space="preserve">
<g id="maruaku">
	<path d="M102.318,172.737c-9.713,0-39.515,0.441-48.565,1.546c-1.987-1.546-3.533-7.065-3.753-9.713
		c8.388,0.882,40.4,1.986,58.278,1.986h12.141v-27.814H90.176L90.4,143.6v4.857c0,3.09-4.635,4.856-8.388,4.856
		c-3.533,0-6.4-0.883-6.4-3.974v-0.22c0-1.1,0.662-4.415,0.883-7.506c0.442-4.636,0.662-11.92,0.662-15.673v-17.66
		c-0.089-6.731-0.681-13.447-1.771-20.09c5.958,1.965,11.722,4.476,17.219,7.5h27.814V71.854h-14.79
		c-9.713,0-39.514,0.442-48.565,1.545c-1.987-1.545-3.532-7.064-3.753-9.713c8.389,0.883,40.618,1.766,58.5,1.766h100
		c0,0,10.155-13.465,13.466-13.465c2.208,0,20.309,11.7,20.309,16.335c0,1.987-1.325,3.532-3.973,3.532h-64.24V95.7h29.139
		c1.753-2.34,3.751-4.485,5.96-6.4c0.265-0.328,0.682-0.495,1.1-0.441c1.325,0,14.349,6.4,14.349,11.7
		c0,1.766-1.545,3.753-6.843,5.077v10.155c0,5.3,0.221,14.79,0.441,21.191c0,1.767,0.221,6.844,0.442,8.389v0.442
		c0,1.1-0.442,4.856-8.609,4.856c-3.312,0-5.961-0.883-5.961-3.753c0-1.1,0.221-3.09,0.221-5.519v-2.648h-30.239v27.814h39.514
		c10.6-13.245,11.7-13.907,12.8-13.907c3.09,0,20.309,12.362,20.309,16.556c0,1.987-1.325,3.532-3.973,3.532L102.318,172.737z
		 M50.883,236.976c0-6.843,6.4-10.155,6.843-10.375c12.627-7.221,21.668-19.383,24.945-33.555c0.221-0.662,0.883-1.1,1.987-1.1
		c1.545,0,3.532,0.883,3.532,1.765c0,32.23-20.53,50.553-30.023,50.553c-3.835,0.187-7.097-2.77-7.284-6.605
		C50.872,237.431,50.872,237.203,50.883,236.976z M120.419,101.214H90.4c-0.221,5.519-0.221,13.245-0.221,19.867v12.142h30.243
		L120.419,101.214z M149.338,248.014c-27.373,0-43.047-1.766-43.047-21.192v-0.662c0,0,0.442-19.2,0.442-22.958
		c0-3.091-0.883-13.245-1.324-16.336c1.1,0,22.516,0.442,22.516,6.181c0,1.987-2.428,4.194-7.506,5.519
		c0,1.545-0.662,18.764-0.662,26.049c0,7.947,1.325,10.375,29.8,10.375c12.141,0,24.944-0.662,30.242-1.766
		c7.947-1.546,11.038-8.609,15.011-34c0.324-1.039,1.351-1.692,2.429-1.545c1.766,0,3.531,0.883,3.531,1.987v0.221
		c-0.882,8.388-1.765,17.218-1.986,25.165c0,2.207,0.442,3.532,2.207,4.194c3.312,1.325,7.064,3.312,7.064,7.065
		c0,4.194-3.532,6.622-8.388,7.947c-7.062,1.548-28.033,3.755-50.329,3.755L149.338,248.014z M162.8,210.706
		c-7.284-11.7-17.438-21.633-28.477-27.594c-0.441-0.22-0.661-0.441-0.661-0.882c0.252-1.468,1.401-2.618,2.869-2.871
		c5.3,0,35.1,13.025,38.632,22.738c0.612,1.545,0.912,3.196,0.883,4.857c0,1.766-0.221,8.83-6.4,8.83
		C167.44,215.784,165.011,214.239,162.8,210.706z M163.684,71.854h-29.8V95.7h29.8V71.854z M163.684,101.214h-29.8v32.009
		l29.8-0.221V101.214z M163.684,138.742h-29.8v27.814h29.8V138.742z M207.834,133.002v-31.788h-30.461V133L207.834,133.002z
		 M234.986,232.119c-7.064-15.011-17.881-29.139-30.684-37.969c-0.412-0.21-0.669-0.637-0.662-1.1
		c0.208-1.574,1.505-2.778,3.09-2.869c3.091,0,42.826,20.309,42.826,37.085c0,3.312-0.884,10.818-7.065,10.818
		c-2.645-0.004-5.515-1.77-7.502-5.965L234.986,232.119z M150,296.5C69.22,296.5,3.5,230.78,3.5,150S69.22,3.5,150,3.5
		S296.5,69.22,296.5,150S230.78,296.5,150,296.5z M150,11.5C73.631,11.5,11.5,73.631,11.5,150S73.631,288.5,150,288.5
		S288.5,226.369,288.5,150S226.369,11.5,150,11.5z"/>
</g>
</svg>
