<?xml version="1.0" encoding="iso-8859-1"?>
<!-- Generator: Adobe Illustrator 24.3.0, SVG Export Plug-In . SVG Version: 6.00 Build 0)  -->
<svg version="1.1" id="&#x30EC;&#x30A4;&#x30E4;&#x30FC;_1"
	 xmlns="http://www.w3.org/2000/svg" xmlns:xlink="http://www.w3.org/1999/xlink" x="0px" y="0px" viewBox="0 0 300 600"
	 style="enable-background:new 0 0 300 600;" xml:space="preserve">
<g id="matsunoha">
	<path d="M206.18,26.929c-15.71-11.518-41.384-14.9-61.25-8.415c-11.776,3.841-30.256,13.465-50.091,34.625
		c0,0-22.409,26.061-26.776,52.987c-3.031,18.695,2.526,48.758,29.984,50.424c13.313,0.808,30.582-6.729,46.688-18.16
		c11.76-8.384,22.077-18.627,30.546-30.326c8.164-11.7,12.766-21.894,9.245-25.18c-3.789-3.537-13.732,6.287-18.456,10.837
		c-11.426,11-18.558,19.919-26.932,25.863c-8.537,6.058-16.68,9.94-25.6,12.049c-11.768,2.869-31.331,4.051-26.531-27.022
		c8.275-33.888,55.073-83.622,98.455-64.861c27.723,11.988,27.697,37.65,25.843,58.55c-8.337,93.979-31.831,136.421-53.052,218.273
		c-24.4,94.1-42.569,153.221-20.969,233.937c4.568,17.07,22.509,32.969,34.611,30.19c12.978-2.981,7.975-22.4,5.723-29.908
		c-31.492-105-7.81-226.194,12.875-287.251c16.012-47.262,37.637-143.095,39.939-158.364C235.2,72.376,224.9,40.654,206.18,26.929z"
		/>
</g>
</svg>
