<?xml version="1.0" encoding="iso-8859-1"?>
<!-- Generator: Adobe Illustrator 24.3.0, SVG Export Plug-In . SVG Version: 6.00 Build 0)  -->
<svg version="1.1" id="&#x30EC;&#x30A4;&#x30E4;&#x30FC;_1"
	 xmlns="http://www.w3.org/2000/svg" xmlns:xlink="http://www.w3.org/1999/xlink" x="0px" y="0px" viewBox="0 0 300 300"
	 style="enable-background:new 0 0 300 300;" xml:space="preserve">
<path d="M286.203,246.301c-2.101,16.201-5.7,24.301-12.9,30.301c-6.9,6-16.8,9.301-27,9.301H53.701
	c-23.4,0-39.601-16.201-39.601-39.9V53.699c0-23.4,16.2-39.6,39.9-39.6h192.302c23.4,0,39.9,16.5,39.9,39.9V246.301z M56.4,22.199
	c-21.6,0-34.2,12.3-34.2,33.9v187.802c0,21.601,12.6,33.9,34.2,33.9h187.502c21.601,0,34.2-12.3,34.2-33.9V56.099
	c0-21.6-12.6-33.9-34.2-33.9H56.4z"/>
</svg>
