<?xml version="1.0" encoding="iso-8859-1"?>
<!-- Generator: Adobe Illustrator 24.3.0, SVG Export Plug-In . SVG Version: 6.00 Build 0)  -->
<svg version="1.0" id="&#x30EC;&#x30A4;&#x30E4;&#x30FC;_1"
	 xmlns="http://www.w3.org/2000/svg" xmlns:xlink="http://www.w3.org/1999/xlink" x="0px" y="0px" viewBox="0 0 64 64"
	 style="enable-background:new 0 0 64 64;" xml:space="preserve">
<path d="M31.998,1.089c-16.896,0-30.654,13.759-30.654,30.654c0,16.958,13.759,30.718,30.654,30.718
	c16.958,0,30.653-13.76,30.653-30.718S48.956,1.089,31.998,1.089z M31.998,60.349c-15.743,0-28.542-12.799-28.542-28.606
	C3.456,16,16.255,3.201,31.998,3.201C47.74,3.201,60.54,16,60.54,31.743C60.54,47.55,47.74,60.349,31.998,60.349z"/>
<path d="M29.539,30.94h4.559c-0.24-1.799-0.36-3.18-0.36-5.639v-4.08h13.439c2.34,0,3.36,0.06,5.46,0.3v-4.2
	c-2.1,0.24-3.06,0.3-5.46,0.3H33.738v-5.979c0-1.98,0.061-3.54,0.24-4.74c0.061-0.12,0.061-0.3,0.12-0.54h-4.559
	c0.3,1.92,0.359,3.06,0.359,5.28v5.979H17.479c-2.28,0-3.54-0.06-5.399-0.3v4.2c1.8-0.24,3.18-0.3,5.399-0.3h12.419v4.08
	C29.898,27.641,29.839,28.9,29.539,30.94z"/>
<path d="M51.033,32.141c-2.22,0.181-3.18,0.24-5.58,0.24H19.174c-2.459,0-3.479-0.06-5.519-0.24c0.24,2.041,0.3,3.541,0.3,5.761
	v8.639c0,2.04-0.06,3.78-0.18,4.5c-0.06,0.6-0.06,0.6-0.12,0.96h3.84v-1.1h29.759V52h3.78c-0.24-1.561-0.3-2.4-0.3-5.4v-8.759
	C50.733,35.381,50.793,33.821,51.033,32.141z M17.494,35.621h8.22c-1.151,6.729-3.776,6.541-8.22,8.359V35.621z M47.193,47.6H17.494
	v-3.02c0.9,0.66,1.38,1.141,2.101,2.4c2.968-1.568,3.405-1.506,5.28-2.818c2.399-1.68,3.312-2.375,4.319-8.541h5.459v7.299
	c0,2.7,0.9,3.301,4.86,3.301c5.34,0,5.819-0.541,6.239-7.62c-1.439-0.239-1.559-0.3-3.239-1.26c-0.061,2.34-0.12,3.54-0.24,4.439
	c-0.18,1.14-0.36,1.261-2.28,1.261c-1.92,0-1.92,0-1.92-0.84v-6.58h9.12V47.6z"/>
</svg>
