<?xml version="1.0" encoding="iso-8859-1"?>
<!-- Generator: Adobe Illustrator 24.3.0, SVG Export Plug-In . SVG Version: 6.00 Build 0)  -->
<svg version="1.0" id="&#x30EC;&#x30A4;&#x30E4;&#x30FC;_1"
	 xmlns="http://www.w3.org/2000/svg" xmlns:xlink="http://www.w3.org/1999/xlink" x="0px" y="0px" viewBox="0 0 64 64"
	 style="enable-background:new 0 0 64 64;" xml:space="preserve">
<path d="M31.998,1.089c-16.896,0-30.654,13.759-30.654,30.654c0,16.958,13.759,30.718,30.654,30.718
	c16.958,0,30.653-13.76,30.653-30.718S48.956,1.089,31.998,1.089z M31.998,60.349c-15.743,0-28.542-12.799-28.542-28.606
	C3.456,16,16.255,3.201,31.998,3.201C47.74,3.201,60.54,16,60.54,31.743C60.54,47.55,47.74,60.349,31.998,60.349z"/>
<path d="M29.539,30.94h4.559c-0.24-1.799-0.36-3.18-0.36-5.639v-4.08h13.439c2.34,0,3.36,0.06,5.46,0.3v-4.2
	c-2.1,0.24-3.06,0.3-5.46,0.3H33.738v-5.979c0-1.98,0.061-3.54,0.24-4.74c0.061-0.12,0.061-0.3,0.12-0.54h-4.559
	c0.3,1.92,0.359,3.06,0.359,5.28v5.979H17.479c-2.28,0-3.54-0.06-5.399-0.3v4.2c1.8-0.24,3.18-0.3,5.399-0.3h12.419v4.08
	C29.898,27.641,29.839,28.9,29.539,30.94z"/>
<path d="M23.909,40.461c-2.4,0-3.479-0.059-4.92-0.3v4.02c1.68-0.239,2.64-0.3,4.92-0.3h16.739c2.1,0,3.3,0.06,4.859,0.3v-4.02
	c-1.56,0.24-2.52,0.3-4.859,0.3H23.909z"/>
<path d="M42.688,36.962c2.58,0,3.479,0.06,5.58,0.3v-4.08c-1.92,0.3-2.82,0.36-5.58,0.36h-21.06c-2.64,0-3.779-0.061-5.34-0.36v4.08
	c1.74-0.24,2.82-0.3,5.34-0.3H42.688z"/>
<path d="M51.508,47.58c-1.8,0.24-3.06,0.301-5.46,0.301H18.629c-2.579,0-3.6-0.061-5.64-0.301v4.141c1.8-0.301,3.181-0.36,5.7-0.36
	h27.419c2.58,0,3.72,0.059,5.399,0.36V47.58z"/>
</svg>
