<?xml version="1.0" encoding="iso-8859-1"?>
<!-- Generator: Adobe Illustrator 24.3.0, SVG Export Plug-In . SVG Version: 6.00 Build 0)  -->
<svg version="1.0" id="&#x30EC;&#x30A4;&#x30E4;&#x30FC;_1"
	 xmlns="http://www.w3.org/2000/svg" xmlns:xlink="http://www.w3.org/1999/xlink" x="0px" y="0px" viewBox="0 0 64 26"
	 style="enable-background:new 0 0 64 26;" xml:space="preserve">
<path d="M10.866,19.841c-0.576,0.576-1.08,0.864-1.439,0.864c-1.08,0-2.665-1.944-2.665-3.312c0-0.72,0.433-1.008,3.024-1.873
	c2.017-0.648,3.961-1.44,6.121-2.52c-2.089-0.936-2.089-0.936-6.265-2.448C6.906,9.545,6.69,9.4,6.69,8.537
	c0-1.224,1.296-2.952,2.304-2.952c0.576,0,1.368,0.504,2.664,1.872c1.225,1.224,2.448,2.232,4.753,4.032
	c-0.433-3.744-0.721-5.4-1.008-6.409C15.115,4,14.97,3.136,14.97,2.56c0-0.864,1.008-1.44,2.593-1.44
	c1.439,0,2.304,0.504,2.304,1.44c0,0.216-0.216,1.368-0.432,2.376c-0.433,2.377-0.576,3.097-0.864,6.553
	c1.368-1.224,3.601-3.528,5.04-5.04c0.792-0.937,1.296-1.297,1.801-1.297c1.008,0,2.448,1.728,2.448,2.952
	c0,0.72-0.36,1.008-1.44,1.512c-2.593,1.008-5.112,2.232-7.273,3.384c0.504,0.288,0.504,0.288,2.088,1.08
	c1.152,0.576,3.672,1.44,5.688,2.016c0.792,0.144,1.224,0.648,1.224,1.224c0,1.368-1.296,3.168-2.376,3.168
	c-0.576,0-1.224-0.432-2.304-1.512c-1.225-1.296-3.312-3.024-4.896-4.176c0.216,2.376,0.647,5.616,0.936,6.625
	c0.217,0.864,0.36,1.584,0.36,2.016c0,0.864-0.937,1.44-2.376,1.44c-1.513,0-2.448-0.576-2.448-1.368
	c0-0.576,0.144-1.368,0.432-2.232c0.433-1.44,0.648-3.024,0.936-6.48C14.178,16.6,13.89,16.816,10.866,19.841z"/>
<path d="M40.066,19.84c-0.576,0.576-1.08,0.864-1.439,0.864c-1.08,0-2.665-1.944-2.665-3.312c0-0.721,0.433-1.009,3.024-1.873
	c2.017-0.648,3.961-1.439,6.121-2.52c-2.089-0.937-2.089-0.937-6.265-2.449c-2.736-1.008-2.952-1.151-2.952-2.016
	c0-1.225,1.296-2.952,2.304-2.952c0.576,0,1.368,0.504,2.664,1.872c1.225,1.225,2.448,2.232,4.753,4.032
	c-0.433-3.744-0.721-5.4-1.008-6.409c-0.288-1.08-0.433-1.943-0.433-2.52c0-0.864,1.008-1.439,2.593-1.439
	c1.439,0,2.304,0.504,2.304,1.439c0,0.216-0.216,1.368-0.432,2.376c-0.433,2.376-0.576,3.097-0.864,6.553
	c1.368-1.224,3.601-3.528,5.04-5.04c0.792-0.935,1.296-1.295,1.801-1.295c1.008,0,2.448,1.729,2.448,2.953
	c0,0.72-0.36,1.008-1.44,1.512c-2.593,1.008-5.112,2.232-7.273,3.385c0.504,0.287,0.504,0.287,2.088,1.08
	c1.152,0.576,3.672,1.439,5.688,2.016c0.792,0.145,1.224,0.648,1.224,1.225c0,1.367-1.296,3.168-2.376,3.168
	c-0.576,0-1.224-0.432-2.304-1.512c-1.225-1.297-3.312-3.025-4.896-4.177c0.216,2.376,0.647,5.616,0.936,6.624
	c0.217,0.864,0.36,1.584,0.36,2.017c0,0.864-0.937,1.44-2.376,1.44c-1.513,0-2.448-0.576-2.448-1.369
	c0-0.575,0.144-1.367,0.432-2.232c0.433-1.44,0.648-3.024,0.936-6.48C43.378,16.6,43.09,16.817,40.066,19.84z"/>
</svg>
