<?xml version="1.0" encoding="iso-8859-1"?>
<!-- Generator: Adobe Illustrator 24.3.0, SVG Export Plug-In . SVG Version: 6.00 Build 0)  -->
<svg version="1.1" id="&#x30EC;&#x30A4;&#x30E4;&#x30FC;_1"
	 xmlns="http://www.w3.org/2000/svg" xmlns:xlink="http://www.w3.org/1999/xlink" x="0px" y="0px" viewBox="0 0 300 300"
	 style="enable-background:new 0 0 300 300;" xml:space="preserve">
<g id="mune">
	<path d="M127.135,227.221c-6.82,2-39.714,10.429-46.934,12.034v-79.026h42.521c2.006,0,4.814-0.4,4.814-3.209
		c0-1.605-1.605-3.209-2.808-4.413L113.5,142.98c-2.407-1.6-3.611-2.808-5.616-2.808c-1.6,0-2.407,0.8-4.413,3.61l-7.622,9.628H80.2
		V116.1h33.3c2.407,0,4.412-0.4,4.412-3.209c0-0.8-0.4-2.006-2.808-4.413l-10.43-9.226c-2-2.006-3.61-2.808-5.214-2.808
		s-2.407,0.8-4.814,3.61l-8.023,9.227H53.725c-3.209,0-10.831-0.4-15.244-0.4C50.917,94.04,66.963,72.779,79,47.908
		c6.82,5.215,11.633,10.43,16.848,21.261c5.613,10.831,7.619,15.645,15.642,15.645c6.819,0,11.633-4.413,11.633-11.633
		c0-16.849-25.272-24.872-41.719-29.284c6.82-2.808,9.628-4.012,9.628-7.622c0-2.808-1.6-3.61-3.611-4.814L64.556,19.828
		c-0.8,8.424-1.6,14.441-8.825,30.888c-18.052,40.115-36.906,70.2-44.528,81.433l2.006,1.6c7.55-6.318,14.654-13.151,21.261-20.449
		l1.605,4.012c4.772-0.798,9.602-1.199,14.441-1.2h11.633v37.298H55.33c-8.826,0-26.476-0.4-44.528-2.006l5.616,11.633
		c12.837-2.407,26.877-2.808,34.1-2.808h11.23v83.84c-23.267,5.215-24.069,5.215-51.748,5.215l16.848,26.074
		c1.2,2.006,2.407,4.012,4.814,4.012c3.61,0,4.412-2.808,5.616-8.424c8.825-4.012,15.243-6.82,38.51-16.849
		c10.43-4.412,34.9-14.842,51.347-24.068L127.135,227.221z M91.435,229.221c4.011-4.813,22.063-29.283,26.475-34.9
		c6.017-2.006,7.622-2.407,7.622-5.616c0-2.407-2.006-4.012-4.011-4.814L97.45,171.862c0.333,3.064,0.467,6.146,0.4,9.227
		c0,4.011-0.4,21.662-8.825,46.533L91.435,229.221z M40.088,230.821c7.221,0,11.232-6.418,11.232-12.034
		c0-9.628-12.837-28.081-29.284-37.708l-1.6,1.6c4.814,9.227,5.215,11.634,8.023,31.29c1.598,12.048,2.401,16.862,11.627,16.862
		L40.088,230.821z M286.793,270.133L269.541,256.9c-2.808-2-4.011-2.808-5.214-2.808c-1.605,0-2.407,0.8-5.215,4.012l-10.43,12.837
		h-13.238V148.6h42.522c1.6,0,4.412,0,4.412-3.209c0-1.6-0.4-2.808-2.808-4.413l-13.238-11.232c-3.209-2.808-3.61-3.209-5.215-3.209
		c-2,0-3.209,1.605-5.215,4.011l-7.621,10.831h-87.049V77.192c28.984-5.02,57.449-12.674,85.043-22.865
		c4.814,0,15.244,0.4,15.244-4.413c0-2.808-1.605-4.011-6.419-7.622l-19.255-14.441c-3.61,3.209-6.418,6.418-14.441,12.034
		c-22.865,16.046-49.341,26.877-59.37,30.889l-24.47-14.442c2.006,12.035,2.809,26.075,2.809,47.336v166.475h-18.052
		c-14.441,0-31.289-0.4-45.731-1.6l6.017,11.633c11.535-1.907,23.209-2.846,34.9-2.808h168.08c1.605,0,4.413,0,4.413-3.209
		c0-0.807-1.6-2.812-3.209-4.016L286.793,270.133z M215.393,270.933h-54.161V148.6h54.155L215.393,270.933z"/>
</g>
</svg>
