<?xml version="1.0" encoding="iso-8859-1"?>
<!-- Generator: Adobe Illustrator 24.3.0, SVG Export Plug-In . SVG Version: 6.00 Build 0)  -->
<svg version="1.1" id="&#x30EC;&#x30A4;&#x30E4;&#x30FC;_1"
	 xmlns="http://www.w3.org/2000/svg" xmlns:xlink="http://www.w3.org/1999/xlink" x="0px" y="0px" viewBox="0 0 150 300"
	 style="enable-background:new 0 0 150 300;" xml:space="preserve">
<g id="nibunnosan">
	<path d="M46.619,35.264c2.831-6.689,6.407-11.853,10.73-15.491s9.706-5.457,16.15-5.457c7.958,0,14.061,2.588,18.31,7.764
		c3.05,3.409,4.767,7.804,4.834,12.378c0,7.227-4.541,14.698-13.623,22.412c6.104,2.393,10.718,5.811,13.843,10.254
		c3.173,4.602,4.813,10.088,4.687,15.676c0.143,8.207-2.781,16.173-8.2,22.339c-7.13,8.2-17.457,12.3-30.981,12.3
		c-6.691,0-11.244-0.83-13.659-2.49c-2.415-1.66-3.623-3.442-3.626-5.347c0.008-1.435,0.636-2.796,1.721-3.735
		c1.114-1.06,2.6-1.639,4.138-1.611c1.267,0.008,2.526,0.205,3.735,0.586c1.941,0.757,3.825,1.65,5.64,2.673
		c1.936,1.103,3.972,2.023,6.079,2.747c1.879,0.548,3.828,0.819,5.786,0.805c4.959,0.01,9.688-2.094,13-5.786
		c3.601-3.644,5.592-8.578,5.529-13.7c-0.01-3.903-0.885-7.755-2.563-11.279c-0.988-2.319-2.404-4.432-4.175-6.226
		c-2.563-2.242-5.484-4.037-8.642-5.31c-3.531-1.558-7.346-2.369-11.206-2.38H61.78v-2.2c4.115-0.579,8.067-2,11.608-4.174
		c3.521-1.937,6.446-4.799,8.46-8.277c1.767-3.258,2.675-6.913,2.637-10.62c0-5.028-1.575-9.093-4.724-12.195
		c-3.12-3.089-7.367-4.769-11.756-4.651c-7.569,0-13.892,4.053-18.969,12.159L46.619,35.264z M107.776,266.564l-6.958,19.117H42.224
		v-2.71c17.236-15.722,29.369-28.564,36.4-38.526s10.546-19.068,10.547-27.319c0-6.299-1.929-11.474-5.786-15.527
		c-3.534-3.912-8.572-6.124-13.843-6.08c-4.733-0.048-9.351,1.457-13.147,4.285c-3.881,2.857-6.747,7.044-8.6,12.561h-2.71
		c1.219-9.033,4.356-15.966,9.411-20.8s11.366-7.251,18.933-7.251c8.057,0,14.783,2.588,20.178,7.764s8.093,11.28,8.094,18.311
		c-0.045,5.227-1.246,10.379-3.516,15.088c-3.617,7.911-9.478,16.286-17.585,25.123c-12.158,13.282-19.751,21.29-22.778,24.023
		h25.927c3.71,0.096,7.421-0.1,11.1-0.586c2.066-0.366,4.028-1.179,5.749-2.38c1.844-1.349,3.37-3.087,4.468-5.091L107.776,266.564z
		 M30,146v8h90v-8H30z"/>
</g>
</svg>
