<?xml version="1.0" encoding="iso-8859-1"?>
<!-- Generator: Adobe Illustrator 24.3.0, SVG Export Plug-In . SVG Version: 6.00 Build 0)  -->
<svg version="1.1" id="&#x30EC;&#x30A4;&#x30E4;&#x30FC;_1"
	 xmlns="http://www.w3.org/2000/svg" xmlns:xlink="http://www.w3.org/1999/xlink" x="0px" y="0px" viewBox="0 0 150 300"
	 style="enable-background:new 0 0 150 300;" xml:space="preserve">
<g id="nibunnoni">
	<path d="M107.776,96.567l-6.958,19.117H42.224v-2.71c17.236-15.722,29.369-28.564,36.4-38.526S89.17,55.38,89.171,47.129
		c0-6.299-1.929-11.475-5.786-15.527c-3.534-3.912-8.572-6.124-13.843-6.08c-4.731-0.047-9.348,1.458-13.142,4.285
		c-3.881,2.857-6.747,7.044-8.6,12.561h-2.71c1.219-9.033,4.356-15.967,9.411-20.8s11.366-7.25,18.933-7.251
		c8.057,0,14.783,2.588,20.178,7.764s8.091,11.279,8.088,18.31c-0.045,5.227-1.246,10.379-3.516,15.088
		C94.568,63.389,88.707,71.763,80.6,80.6c-12.158,13.282-19.751,21.29-22.778,24.023h25.927c3.71,0.096,7.421-0.1,11.1-0.586
		c2.066-0.366,4.028-1.179,5.749-2.38c1.844-1.349,3.37-3.087,4.468-5.091L107.776,96.567z M107.776,266.567l-6.958,19.117H42.224
		v-2.71c17.236-15.722,29.369-28.564,36.4-38.526s10.546-19.068,10.547-27.319c0-6.299-1.929-11.474-5.786-15.527
		c-3.534-3.912-8.572-6.124-13.843-6.08c-4.733-0.048-9.351,1.457-13.147,4.285c-3.881,2.857-6.747,7.044-8.6,12.561h-2.71
		c1.219-9.033,4.356-15.966,9.411-20.8s11.366-7.251,18.933-7.251c8.057,0,14.783,2.588,20.178,7.764
		c5.395,5.176,8.093,11.28,8.094,18.311c-0.045,5.227-1.246,10.379-3.516,15.088c-3.617,7.909-9.478,16.283-17.585,25.12
		c-12.158,13.282-19.751,21.29-22.778,24.023h25.927c3.71,0.096,7.421-0.1,11.1-0.586c2.066-0.366,4.028-1.179,5.749-2.38
		c1.844-1.349,3.37-3.087,4.468-5.091L107.776,266.567z M30,146v8h90v-8H30z"/>
</g>
</svg>
