<?xml version="1.0" encoding="iso-8859-1"?>
<!-- Generator: Adobe Illustrator 24.3.0, SVG Export Plug-In . SVG Version: 6.00 Build 0)  -->
<svg version="1.1" id="&#x30EC;&#x30A4;&#x30E4;&#x30FC;_1"
	 xmlns="http://www.w3.org/2000/svg" xmlns:xlink="http://www.w3.org/1999/xlink" x="0px" y="0px" viewBox="0 0 200 300"
	 style="enable-background:new 0 0 200 300;" xml:space="preserve">
<g id="nitosanbunnoichi">
	<path d="M125.477,25.229l24.17-11.791h2.417V97.3c0,5.566,0.233,9.033,0.7,10.4c0.493,1.401,1.538,2.54,2.892,3.15
		c1.467,0.733,4.445,1.148,8.936,1.245v2.71h-37.357V112.1c4.688-0.097,7.715-0.5,9.082-1.209c1.254-0.593,2.263-1.602,2.857-2.856
		c0.537-1.196,0.806-4.773,0.805-10.73V43.687c0-7.226-0.244-11.865-0.732-13.916c-0.211-1.327-0.87-2.542-1.867-3.443
		c-0.923-0.739-2.078-1.129-3.26-1.1c-1.807,0-4.322,0.757-7.544,2.271L125.477,25.229z M115.516,204.385
		c2.831-6.689,6.408-11.853,10.731-15.491s9.706-5.457,16.149-5.456c7.958,0,14.062,2.588,18.311,7.763
		c3.049,3.409,4.766,7.804,4.834,12.378c0,7.227-4.541,14.698-13.623,22.412c6.103,2.393,10.717,5.811,13.843,10.254
		c3.173,4.601,4.813,10.086,4.687,15.674c0.143,8.207-2.781,16.173-8.2,22.339c-7.13,8.2-17.457,12.302-30.982,12.305
		c-6.69,0-11.243-0.83-13.659-2.491s-3.625-3.443-3.626-5.346c0.008-1.435,0.636-2.797,1.722-3.736
		c1.114-1.061,2.6-1.64,4.138-1.611c1.267,0.008,2.526,0.205,3.735,0.586c1.941,0.757,3.825,1.65,5.64,2.673
		c1.936,1.103,3.972,2.023,6.079,2.747c1.879,0.548,3.828,0.819,5.786,0.805c4.959,0.01,9.688-2.095,13-5.786
		c3.6-3.644,5.591-8.578,5.529-13.7c-0.01-3.903-0.885-7.755-2.563-11.279c-0.988-2.319-2.404-4.432-4.175-6.226
		c-2.563-2.242-5.485-4.037-8.643-5.31c-3.531-1.559-7.346-2.369-11.206-2.38h-2.343v-2.2c4.115-0.578,8.067-1.999,11.608-4.174
		c3.521-1.937,6.446-4.799,8.46-8.277c1.767-3.258,2.675-6.913,2.637-10.62c0-5.028-1.575-9.093-4.724-12.195
		c-3.123-3.087-7.371-4.765-11.761-4.643c-7.569,0-13.892,4.053-18.97,12.159L115.516,204.385z M78.339,178.294l-6.958,19.117
		H12.787V194.7c17.236-15.722,29.369-28.564,36.4-38.526s10.546-19.068,10.547-27.319c0-6.299-1.929-11.475-5.786-15.528
		c-3.534-3.911-8.572-6.123-13.843-6.079c-4.733-0.049-9.352,1.456-13.147,4.285c-3.881,2.856-6.749,7.043-8.606,12.561h-2.71
		c1.22-9.033,4.357-15.966,9.411-20.8s11.365-7.251,18.934-7.251c8.057,0,14.783,2.588,20.178,7.764
		c5.176,4.677,8.118,11.335,8.093,18.311c-0.045,5.227-1.245,10.379-3.515,15.087c-3.614,7.911-9.473,16.286-17.578,25.123
		c-12.158,13.282-19.751,21.29-22.779,24.023h25.928c3.71,0.096,7.421-0.1,11.1-0.586c2.066-0.367,4.028-1.18,5.749-2.381
		c1.845-1.348,3.37-3.086,4.468-5.09H78.339z M97.213,150v8h90v-8H97.213z"/>
</g>
</svg>
