<?xml version="1.0" encoding="iso-8859-1"?>
<!-- Generator: Adobe Illustrator 24.3.0, SVG Export Plug-In . SVG Version: 6.00 Build 0)  -->
<svg version="1.1" id="&#x30EC;&#x30A4;&#x30E4;&#x30FC;_1"
	 xmlns="http://www.w3.org/2000/svg" xmlns:xlink="http://www.w3.org/1999/xlink" x="0px" y="0px" viewBox="0 0 300 300"
	 style="enable-background:new 0 0 300 300;" xml:space="preserve">
<g id="njyokon">
	<path d="M56.238,64.121L46.5,97.446c9.133-13.623,16.128-22.583,20.983-26.88c4.855-4.297,9.531-6.445,14.027-6.445
		c2.263-0.072,4.453,0.804,6.042,2.417c1.618,1.689,2.478,3.964,2.381,6.3c-0.181,3.984-0.895,7.925-2.124,11.719l-8.939,30.834
		c-0.707,2.122-1.222,4.304-1.538,6.518c-0.021,0.626,0.187,1.238,0.586,1.721c0.287,0.41,0.745,0.668,1.245,0.7
		c0.791-0.085,1.534-0.419,2.124-0.952c3.227-2.744,6.085-5.895,8.5-9.375l2.271,1.392c-4.541,6.494-8.838,11.133-12.891,13.916
		c-2.832,1.904-5.371,2.856-7.617,2.856c-1.607,0.078-3.174-0.52-4.321-1.648c-1.113-1.199-1.695-2.797-1.612-4.431
		c0-2.344,0.83-6.372,2.491-12.085l8.5-29.443c0.915-2.772,1.457-5.654,1.611-8.57c0.033-0.892-0.312-1.757-0.952-2.38
		c-0.627-0.607-1.471-0.937-2.344-0.916c-1.764,0.134-3.459,0.741-4.907,1.758c-3.614,2.2-7.374,5.826-11.279,10.877
		c-4.608,6.137-8.749,12.613-12.386,19.371c-2.372,4.33-4.286,8.896-5.713,13.623l-3.662,12.085H25.989l13.33-45.849
		c1.563-5.517,2.344-8.837,2.344-9.961c-0.003-1.08-0.47-2.107-1.282-2.82c-0.859-0.808-2.002-1.244-3.181-1.212
		c-1.03,0.04-2.057,0.138-3.076,0.293l-2.783,0.44L30.9,68.662L56.238,64.121z M42.205,206.621L22.682,225.3l-6.694-8.088l41-39.883
		l28.725,61.361l79.208-226.746h119.091v8.925H173.567L79.856,288.056L42.205,206.621z"/>
</g>
</svg>
