<?xml version="1.0" encoding="iso-8859-1"?>
<!-- Generator: Adobe Illustrator 24.3.0, SVG Export Plug-In . SVG Version: 6.00 Build 0)  -->
<svg version="1.1" id="&#x30EC;&#x30A4;&#x30E4;&#x30FC;_1"
	 xmlns="http://www.w3.org/2000/svg" xmlns:xlink="http://www.w3.org/1999/xlink" x="0px" y="0px" viewBox="0 0 150 300"
	 style="enable-background:new 0 0 150 300;" xml:space="preserve">
<g id="paibunno1">
	<path d="M54.386,30.18l19.775-9.648h1.978v68.614c0,4.554,0.19,7.39,0.569,8.509c0.403,1.147,1.259,2.078,2.367,2.577
		c1.2,0.6,3.637,0.94,7.311,1.019v2.217H55.824v-2.217c3.835-0.08,6.312-0.41,7.431-0.989c1.026-0.486,1.851-1.311,2.337-2.337
		c0.439-0.978,0.658-3.904,0.659-8.779V45.281c0-5.912-0.2-9.707-0.6-11.386c-0.173-1.086-0.712-2.079-1.528-2.816
		c-0.755-0.605-1.7-0.924-2.667-0.9c-2.162,0.193-4.262,0.825-6.172,1.857L54.386,30.18z M113.086,221.034l-3,10.327h-17.5
		l-8.569,29.077c-1.564,5.372-2.345,9.351-2.344,11.938c-0.059,1.752,0.588,3.454,1.794,4.725c1.24,1.263,2.957,1.941,4.725,1.867
		c4.149,0,7.47-3.223,9.961-9.668H101c-3.272,12.012-9.156,18.018-17.651,18.018c-3.175,0.145-6.275-0.99-8.606-3.15
		c-2.174-2.098-3.261-5.076-3.26-8.935c0.2-4.293,0.913-8.547,2.124-12.671l1.831-6.958c0.147-0.683,0.367-1.513,0.66-2.49
		l6.884-21.753H68.115l-7.763,26.733c-3.568,12.257-6.388,20.193-8.459,23.806s-4.794,5.42-8.167,5.42
		c-1.693,0.005-3.341-0.549-4.688-1.575c-1.37-0.958-2.168-2.54-2.124-4.211c0-2.344,1.782-5.591,5.347-9.741
		c8.837-10.352,15.404-23.829,19.7-40.43h-5.347c-8.4,0-13.82,2.588-16.26,7.764h-2.783c4.443-12.06,12.256-18.09,23.438-18.091
		L113.086,221.034z M30,149.925v8h90v-8H30z"/>
</g>
</svg>
