<?xml version="1.0" encoding="iso-8859-1"?>
<!-- Generator: Adobe Illustrator 24.3.0, SVG Export Plug-In . SVG Version: 6.00 Build 0)  -->
<svg version="1.1" id="&#x30EC;&#x30A4;&#x30E4;&#x30FC;_1"
	 xmlns="http://www.w3.org/2000/svg" xmlns:xlink="http://www.w3.org/1999/xlink" x="0px" y="0px" viewBox="0 0 300 300"
	 style="enable-background:new 0 0 300 300;" xml:space="preserve">
<g id="root5">
	<path d="M264.012,101.868l-9.141,19.922h-47.812l-10.43,21.328c20.702,3.047,37.108,10.742,49.219,23.086
		c10.389,10.625,15.585,23.125,15.586,37.5c0.074,8.019-1.67,15.951-5.1,23.2c-3.159,6.773-7.506,12.926-12.834,18.167
		c-5.053,4.928-10.87,9.004-17.227,12.07c-8.613,4.21-18.069,6.414-27.656,6.446c-9.533,0-16.467-1.621-20.8-4.864
		c-4.333-3.243-6.5-6.817-6.501-10.723c0.021-2.232,1.005-4.347,2.7-5.8c1.848-1.7,4.29-2.605,6.8-2.52
		c1.821-0.038,3.633,0.281,5.332,0.938c2.74,1.356,5.349,2.963,7.793,4.8c5.859,4.063,11.797,6.095,17.812,6.094
		c9.141,0,17.168-3.457,24.082-10.371c6.792-6.625,10.544-15.763,10.365-25.25c0-9.609-3.086-18.573-9.258-26.894
		s-14.686-14.747-25.542-19.278c-8.517-3.515-20.119-5.546-34.805-6.093l30.469-61.758H264.012z M42.205,206.616L22.682,225.3
		l-6.694-8.088l41-39.883l28.725,61.361l79.208-226.746h119.091v8.925H173.567L79.856,288.056L42.205,206.616z"/>
</g>
</svg>
