<?xml version="1.0" encoding="iso-8859-1"?>
<!-- Generator: Adobe Illustrator 24.3.0, SVG Export Plug-In . SVG Version: 6.00 Build 0)  -->
<svg version="1.1" id="&#x30EC;&#x30A4;&#x30E4;&#x30FC;_1"
	 xmlns="http://www.w3.org/2000/svg" xmlns:xlink="http://www.w3.org/1999/xlink" x="0px" y="0px" viewBox="0 0 300 300"
	 style="enable-background:new 0 0 300 300;" xml:space="preserve">
<g id="root2">
	<path d="M264.012,233.945l-11.133,30.586h-93.75V260.2c27.577-25.155,46.991-45.702,58.242-61.64
		c11.251-15.938,16.876-30.508,16.875-43.711c0-10.078-3.086-18.359-9.258-24.844c-5.654-6.257-13.715-9.797-22.148-9.727
		c-7.573-0.078-14.963,2.33-21.035,6.856c-6.211,4.57-10.801,11.27-13.77,20.1H163.7c1.952-14.453,6.972-25.547,15.059-33.282
		c8.087-7.735,18.185-11.601,30.293-11.6c12.89,0,23.652,4.141,32.285,12.422c8.633,8.281,12.95,18.048,12.949,29.3
		c-0.072,8.363-1.993,16.606-5.625,24.14c-5.782,12.656-15.157,26.054-28.125,40.195c-19.453,21.251-31.601,34.063-36.445,38.438
		h41.484c8.438,0,14.356-0.313,17.754-0.938c3.307-0.586,6.447-1.885,9.2-3.808c2.951-2.158,5.392-4.939,7.149-8.145
		L264.012,233.945z M42.205,206.616L22.682,225.3l-6.694-8.088l41-39.883l28.725,61.361l79.208-226.746h119.091v8.925H173.567
		L79.856,288.056L42.205,206.616z"/>
</g>
</svg>
