<?xml version="1.0" encoding="iso-8859-1"?>
<!-- Generator: Adobe Illustrator 24.3.0, SVG Export Plug-In . SVG Version: 6.00 Build 0)  -->
<svg version="1.1" id="&#x30EC;&#x30A4;&#x30E4;&#x30FC;_1"
	 xmlns="http://www.w3.org/2000/svg" xmlns:xlink="http://www.w3.org/1999/xlink" x="0px" y="0px" viewBox="0 0 300 300"
	 style="enable-background:new 0 0 300 300;" xml:space="preserve">
<g id="sanrootni">
	<path d="M37.328,78.56c1.843-4.751,4.785-8.997,8.584-12.393c3.635-2.973,8.226-4.525,12.92-4.367
		c6.366,0,11.249,2.07,14.648,6.211c2.44,2.726,3.813,6.242,3.868,9.9c0,5.781-3.633,11.758-10.9,17.93
		c4.425,1.57,8.281,4.425,11.074,8.2c2.538,3.681,3.851,8.069,3.75,12.539c0.113,6.566-2.227,12.938-6.562,17.871
		c-5.703,6.566-13.965,9.849-24.784,9.849c-5.351,0-8.993-0.663-10.926-1.989s-2.9-2.752-2.9-4.278
		c0.006-1.148,0.508-2.237,1.377-2.988c0.891-0.849,2.08-1.312,3.31-1.289c1.014,0.006,2.021,0.164,2.988,0.469
		c1.553,0.605,3.061,1.319,4.512,2.138c1.549,0.883,3.177,1.62,4.863,2.2c1.504,0.437,3.063,0.654,4.629,0.644
		c3.968,0.008,7.75-1.676,10.4-4.629c2.879-2.915,4.471-6.862,4.421-10.959c-0.008-3.122-0.709-6.204-2.051-9.023
		c-0.79-1.856-1.923-3.546-3.34-4.981c-2.05-1.794-4.388-3.23-6.914-4.248c-2.825-1.246-5.878-1.892-8.965-1.9h-1.873v-1.758
		c3.292-0.464,6.453-1.601,9.287-3.34c2.817-1.55,5.157-3.839,6.768-6.621c1.414-2.608,2.14-5.533,2.109-8.5
		c0.152-3.636-1.217-7.171-3.779-9.756c-2.496-2.471-5.894-3.816-9.405-3.721c-6.055,0-11.113,3.242-15.175,9.727L37.328,78.56z
		 M264.012,233.945l-11.133,30.586h-93.75V260.2c27.577-25.155,46.991-45.702,58.242-61.64
		c11.251-15.938,16.876-30.508,16.875-43.711c0-10.078-3.086-18.359-9.258-24.844c-5.654-6.257-13.715-9.797-22.148-9.727
		c-7.573-0.078-14.963,2.33-21.035,6.856c-6.211,4.57-10.801,11.27-13.77,20.1H163.7c1.952-14.453,6.972-25.547,15.059-33.282
		c8.087-7.735,18.185-11.601,30.293-11.6c12.89,0,23.652,4.141,32.285,12.422c8.633,8.281,12.95,18.048,12.949,29.3
		c-0.072,8.363-1.993,16.606-5.625,24.14c-5.782,12.656-15.157,26.054-28.125,40.195c-19.453,21.251-31.601,34.063-36.445,38.438
		h41.484c8.438,0,14.356-0.313,17.754-0.938c3.307-0.586,6.447-1.885,9.2-3.808c2.951-2.158,5.392-4.939,7.149-8.145
		L264.012,233.945z M42.205,206.616L22.682,225.3l-6.694-8.088l41-39.883l28.725,61.361l79.208-226.746h119.091v8.925H173.567
		L79.856,288.056L42.205,206.616z"/>
</g>
</svg>
