<?xml version="1.0" encoding="utf-8"?>
<!-- Generator: Adobe Illustrator 24.3.0, SVG Export Plug-In . SVG Version: 6.00 Build 0)  -->
<svg version="1.1" id="レイヤー_1" xmlns="http://www.w3.org/2000/svg" xmlns:xlink="http://www.w3.org/1999/xlink" x="0px"
	 y="0px" viewBox="0 0 300 300" style="enable-background:new 0 0 300 300;" xml:space="preserve">
<g>
	<path d="M112.2,258.3c0-0.3,0-0.8,0-1.2c-0.7-0.6-1.3-1.1-2-1.7c0-5.3,0-10.7,0-15.7c-1.2-1.1-2.1-1.9-3.1-2.8
		c0-14.3,0-28.8,0-43.2c-0.7-0.6-1.3-1.1-1.9-1.6c0-2.6,0-5.4,0-8c0.7-0.5,1.3-1,2-1.6c0-0.5,0-1,0-1.6c0.6,0,1.1,0,1.4,0
		c1.1-1,2-1.9,3.1-2.9c5.7,0,11.5,0.1,17.4,0c1.2,0,2.8,0.8,3.8-0.9c0.4-0.7,1.2-1.2,2-2c4.2,0,8.6,0,12.8,0c1.8-2.5,4-4.4,6.3-6.3
		c0-1.1,0-2.4,0-3.4c-1.2-1.2-2.3-2.1-3.6-3.3c-2.4,0-5.1,0-7.7,0c-0.9-1-1.7-1.9-2.7-2.9c-10.5,0-21.2,0-31.8,0
		c-0.5-0.8,0.5-2.2-1.1-2.3c0-3.1,0-6.2,0-9.1c-0.7-0.6-1.3-1.1-1.9-1.6c0-2,0-4.1,0-5.9c1.2-1.1,2.2-2.2,3.3-3.3
		c2.4,0,5.1,0.1,7.8,0c1.2-0.1,2.8,0.8,3.8-0.9c0.5-0.7,1.3-1.2,2.1-2c6.8,0,13.9,0,20.7,0c2.1-2.2,4-4.3,6.1-6.5c0-2.3,0-4.9,0-7.5
		c0-0.3-0.1-0.6-0.3-0.8c-0.3-0.3-0.6-0.6-1.1-1c-1.6,0-3.6,0.5-4.5-1.9c-6.1,0-12.1,0-18.2,0c-0.2-0.5-0.5-0.9-0.7-0.9
		c-0.3,0.1-0.6,0.5-1,0.9c-1-0.4-2.6,0.9-3.7-0.9c-0.5,0-1-0.1-1.6-0.1c0-1.9,0-3.7,0-5.3c1.7-1.6,3.1-3.1,4.8-4.7
		c0-0.6,0-1.5,0-2.4c1,0.1,1.3-0.4,1.2-1.2c-0.1-0.2,0.1-0.5,0.3-0.7c0.6-0.7,1.2-1.4,1.9-2.1c0.7-0.1,2.2,0.1,2.3-0.2
		c0.4-1.2,1.4-0.6,1.9-1c2-2,3.9-3.9,6-6c0-1.5,0-1.5-1-1.9c0-0.5,0-1,0-1.2c-0.5-0.5-0.7-0.8-1-1.1c-0.4-0.5-0.8-0.9-1.3-1.3
		c-0.5-0.5-1.1-0.8-1.5-1.3c-0.5-0.5-0.8-1.1-1.3-1.7c-0.6-0.6-1.1-1.2-1.7-1.8c-0.4-0.5-0.9-1.1-1.5-1.2c-1.3-0.3-2.8,0.4-3.8-1
		c-0.5-0.7-1.3-1.2-2.2-2c-0.5,0-1.3,0-1.9,0c-0.5-0.5-0.9-0.9-1.3-1.3c0-0.7,0-1.5,0-2.3c0.6,0,1.2-0.1,1.7-0.1
		c-0.1-0.1-0.1-0.3-0.1-0.4c0.4-0.2,0.8-0.5,1.2-0.5c1,0,2,0,3,0c0.3,0,0.9-0.1,0.9-0.3c0.2-0.9,0.8-0.7,1.3-0.7c0.8,0,1.5,0,2.3,0
		c0.8,0,1.6,0.1,1.4-1.2c1.7,0,3.1-0.1,4.6,0c0.8,0.1,1.3-0.1,1.3-1c1,0,1.9,0,2.7,0c0.6-0.7,1.1-1.3,1.7-2c2,0,4.1,0,6.3,0
		c0-1.5,0-2.9,0-4.3c0-0.1,0-0.2,0-0.2c-1.8-1.9-3.5-3.5-5.2-5.3c-0.4,0-0.9-0.1-1.4-0.1c-0.2-0.5-0.5-0.9-0.8-0.9
		c-5.4,0-10.9,0-16.3,0c-0.3,0-0.7,0.2-0.7,0.3c0,0.9-0.6,0.7-1.1,0.7c-4.8,0-9.6,0-14.4,0c-0.5,0-0.9-0.4-1.4-0.6
		c0-0.2,0.1-0.3,0.1-0.4c-0.6,0-1.1,0-1.3,0c-0.5-0.5-0.9-0.9-1.4-1.4c0-0.7,0-1.6,0-2.3c-3.8-3.7-7.5-7.3-11.4-11.1
		c-0.5-0.3-2,0.9-2.5-0.9c-0.5,0-1,0-1.3,0c-0.5-0.6-1.2-0.9-1.3-1.4c-0.2-0.8-0.5-0.8-1.1-0.8c-1.4,0-2.9,0-4.4,0
		c-0.1,0-0.3,0.1-0.4,0.1c-0.1,0.4-0.1,0.7-0.2,1.1c-2.2,0-4.4,0-6.6,0c-0.5,1.8-2.1,0.4-2.9,1.2c-0.3,0.3-0.7,0.6-1.1,0.6
		c-2,0-3.9,0-5.7,0c-0.6,0.7-1,1.2-1.6,1.9c-0.7,0-1.6,0-2.1,0c-0.6,0.6-0.9,0.9-1.4,1.4c0,0.3,0,0.8,0,1.4c-1.6,0-0.8,1.2-1,1.7
		c-0.8,0.5-1.3,1-1.9,1.5c0,2.2,0,4.5,0,6.8c0.8,0.4,2-0.5,2,1.1c1,0,1.8,0,2.6,0c0.4,1.1,1.5,1.9,2.6,1.9c0.5,0,1.3,0,1.3,0.1
		c0.3,1.3,1.5,0.7,2.1,1.1c0.4,0.4,0.7,0.7,1.2,1.2c0,0.3,0,0.8,0,1c0.4,0.5,0.9,0.8,0.9,1.1c0,1.6,0,3.3,0,4.7
		c-1.9,1.8-3.6,3.4-5.5,5.2c-0.2,0-0.7,0-1.3,0c0,1.5-1.2,0.7-1.6,0.9c-0.6,0.7-1.1,1.3-1.6,1.9c-0.6,0-1.4,0-2,0
		c-0.4-0.4-0.6-0.7-0.9-0.9c-0.1,0-0.6,0.1-0.6,0.2c0,1.1-0.9,0.7-1.4,0.7c-7.9,0.1-15.8,0.1-23.7,0c-1.2,0-1.5,0.9-2.2,1.4
		c-0.8,0.6-1.3,1.7-2.6,1.5c-0.5-0.1-1.1,0-1.6,0c-0.3,0-0.5,0.1-0.7,0.3c-0.3,0.3-0.6,0.6-1,1.1c0,2-0.1,4.3,0,6.6
		c0,0.5,0.4,0.9,0.6,1.4c0.1,0,0.3-0.1,0.4-0.1c0,0.5,0,1.1,0,1.3c0.8,0.8,1.5,1.5,2.3,2.3c0.3,0,0.8,0.1,1.4,0.1
		c0,0.7,0.1,1.2,0.1,1.8c0.8,0.4,2-0.4,2,1.1c0.9,0,1.8,0,2.3,0c1.2,1.2,2.2,2.2,3.3,3.3c0,1,0,2.1,0,3.1c-0.6,0.6-1.2,1.1-1.8,1.6
		c0,0.5,0,1.1,0,1.5c0.7,0.6,1.2,1,1.9,1.6c0,0.4,0,0.9,0,1.5c1.5,0,0.6,1.2,1.1,1.7c0.6,0.5,1.2,0.9,1.9,1.5c0,0.4,0,0.9,0,1.5
		c1.7,0.1,0.7,1.5,1.2,2.1c0.5,0.5,1,0.9,1.7,1.5c0,0.4,0,0.9,0,1.4c1.8,0.5,0.5,2.1,1.2,2.9c0.3,0.3,0.5,0.6,0.7,1
		c0.2,0.5,0.4,0.9,0.6,1.4c0.2,0,0.3-0.1,0.4-0.1c0,0.5,0,1,0,1.6c1.5,0,0.8,1.1,1.2,1.7c0.2,0.3,0.7,0.7,0.9,1.4c0,2.5,0,5.1,0,7.4
		c-0.6,0.6-0.9,1-1.4,1.5c-2.1,0-4.4,0-6.7,0c-1.4,0-2.4,0.7-2.9,1.9c0,0-0.1,0-0.2,0c-2.6,0-5.3-0.1-8,0c-0.5,0-0.9,0.4-1.4,0.6
		c0,0.2,0.1,0.3,0.1,0.4c-0.8,0-1.7,0-2.5,0c0,0.2,0.1,0.3,0.1,0.4c-0.5,0.2-1,0.6-1.4,0.5c-1.6-0.5-2.3,1.3-3.7,1.1
		c-0.1,0-0.2,0.3-0.3,0.4c-0.6,0.6-1.1,1.3-1.9,2.1c0,0.2,0,0.8,0,1.2c-1.8,0.8-0.6,2.2-0.9,3c0.5,0.5,0.8,0.9,1.3,1.4
		c0.9,0,2.1,0,3,0c0.9,1.1,1.8,1.9,2.7,2.9c2.4,0,5,0.1,7.6,0c0.5,0,0.9-0.4,1.4-0.6c0-0.1-0.1-0.3-0.1-0.4c1.2,0,2.4,0,3.6,0
		c0-1.6,1.3-0.6,1.8-1.2c0.3-0.3,0.7-0.6,1.1-0.6c2-0.1,3.9,0,5.9-0.1c0.5,0,0.9-0.4,1.4-0.6c0-0.2-0.1-0.3-0.1-0.4
		c1.2,0,2.3,0.1,3.5,0c0.5,0,0.9-0.3,1.4-0.5c0-0.2-0.1-0.3-0.1-0.4c0.5,0,1.1-0.1,1.7-0.1c-0.2-1.1,0.5-0.9,1.1-0.9
		c8.3,0,16.6,0,24.9,0c0.5,0,0.9,0,1.2,0.6c0.3,0.7,1.2,1.1,2,1.7c0,2.3,0,4.7,0,7c0.7,0.6,1.3,1.1,1.9,1.6c0,3.7,0,7.4,0,10.9
		c-0.7,0.7-1.3,1.3-1.9,1.8c-0.7,0.5-1.1,1.6-2.1,1.4c-1.9-0.3-2.3,1.2-3.3,2.2c-1.4,0.1-1.4,0.1-1.8,1c-2.2,0-4.4,0-6.6,0
		c-0.4,0-0.8,0.1-1.1,0.3c-0.4,0.2-0.7,0.5-1.1,0.6c-0.6,0.1-1.2,0-1.8,0c0,0.1,0.1,0.3,0.1,0.4c-0.4,0.2-0.8,0.4-1.2,0.5
		c-0.6,0.1-1.1,0-1.7,0c-0.7,0-1.3,0-1.3,1c-0.9,0-1.7,0-2.5,0c-0.2,0.3-0.4,0.6-0.6,0.9c-0.2-0.3-0.4-0.6-0.6-1
		c-8.3,0-16.7,0-24.8,0c-0.4-0.4-0.8-1-0.9-0.9c-0.4,0.2-0.7,0.5-1.1,0.9c-0.7,0-1.6-0.1-2.3,0.2c-0.6,0.3-0.9,1.1-1.4,1.8
		c-0.9,0-1.8,0-2.4,0c-0.9,0.8-1.6,1.5-2.4,2.3c-0.1,3.5-0.1,3.5,0.9,3.9c0,0.5,0.1,1.1,0.1,1.5c1.1,0.7,2.7-0.7,3.3,1.1
		c0.5,0,1.1,0.1,1.3,0.1c0.7,0.8,1.2,1.4,1.7,2.1c1.9-0.3,3.2,0.9,4.7,1.8c0.9,0.1,1.8,0.1,2.8,0.1c0.2,0,0.7,0.1,0.7,0.2
		c0.2,0.9,0.8,0.7,1.4,0.7c4.2,0,8.3,0,12.5,0c0.5,0,0.9-0.4,1.4-0.6c0-0.2-0.1-0.3-0.1-0.4c1.6,0,3.1,0.1,4.7,0
		c0.5,0,0.9-0.3,1.4-0.5c0-0.1-0.1-0.3-0.1-0.4c0.5,0,1,0,1.5,0c0.5-1.8,2-0.5,2.7-0.9c0.7-0.8,1.1-1.5,1.7-2.2c0.4,0,0.9,0,1.4,0
		c0-0.2-0.1-0.3-0.1-0.4c0.5-0.2,0.9-0.5,1.4-0.6c0.4-0.1,0.9,0,1.4,0c1.2,0,2.3-0.7,2.7-1.9c4.3,0,8.7,0,13,0
		c0.8,1.8,2.2,2.2,3.8,1.9c0.3,0.4,0.5,0.7,0.7,1c0.6,0.7,1.5,1.2,1.5,2.4c0,11.4,0,22.9,0,34.4c0,0.4,0,0.9,0,1.4
		c0,0.2-0.2,0.5-0.3,0.6c-0.2,0.3-0.6,0.5-1.1,1c-2.2,0-4.7-0.1-7.2,0c-0.4,0-0.9,0.3-1.2,0.6c-0.4,0.4-0.7,0.9-1.2,1.2
		c-0.7,0.4-1.5,0.5-2.3,0.8c0,0-0.1-0.4-0.2-0.7c-0.5,0-1,0-1.4,0c-0.6-0.7-1.1-1.2-1.7-1.9c-0.5,0-1.2,0-1.8,0
		c-0.2,0-0.6,0-0.7-0.2c-0.8-1.1-1.5-2.1-3-1.9c-0.4-0.4-0.8-0.8-1.3-0.8c-3.1,0-6.3,0-8.9,0c-1.4-1.3-2.5-2.2-3.7-3.3
		c0-1.2,0-2.7,0-4.2c-1.7-0.2-0.7-1.5-1.2-2.1c-0.5-0.4-1-0.9-1.7-1.5c0-1.6,0-3.4,0-5.1c-0.7-0.6-1.2-1.1-1.9-1.6
		c-0.1-0.6,0.5-1.7-1-1.7c0-0.9,0-1.8,0-2.7c-4,0-7.9,0-11.8,0c-0.1,0.3-0.2,0.8-0.3,0.8c-1.2,0-0.8,0.9-0.8,1.4c0,3.4,0,6.8,0,10.2
		c0,0.7,0,1.3-1,1.3c0,0.6,0,1.1,0,1.6c-1.2,0.4-1.9,1.4-1.9,2.7c-0.1,0.6,0.2,1.5-1,1.4c0,1.2,0,2.4,0,3.4
		c-0.6,0.6-1.2,1.1-1.9,1.7c0,2.7,0,5.5,0,8.2c-0.7,0.6-1.2,1-1.9,1.6c0,1.7,0,3.5,0,5.3c-0.1,0-0.2-0.1-0.3-0.1
		c-0.2,0.4-0.6,0.8-0.6,1.1c0.2,1.5-0.7,3.2,0.9,4.8c0,1.4,0,3.3,0,4.9c1.8,1.8,3.5,3.5,5.3,5.3c0.4,0.1,1.5-0.5,1.5,0.9
		c2.7,0,5.3,0,7.7,0c0.9-0.9,1.8-1.8,2.7-2.8c0.6,0,1.4,0,2,0c0.5-0.5,0.8-0.9,1.3-1.4c0.1-1.4,0.1-1.4,1-1.7c0-0.5,0-1.1,0-1.4
		c0.7-0.6,1.2-1,1.9-1.6c0-1.7,0-3.6,0-5.3c0.7-0.6,1.3-1.1,1.9-1.6c0-1.4,0-1.4,1-1.8c0-0.8,0-1.7,0-2.7c1.4,0.5,3-0.7,4.1,1.1
		c0.4,0,0.9,0,1.6,0c-0.2,1.1,0.6,0.9,1.2,0.9c1.2,0,2.4,0,3.6,0c0,0.1-0.1,0.3-0.1,0.4c0.4,0.2,0.7,0.5,1.1,0.6
		c0.6,0.1,1.1,0,1.7,0c1.2,0,2.2,0.7,2.7,1.9c0.5,0,1,0,1.6,0c0,1.6,1.3,0.8,2,1.1c-0.1,1.5,1.2,0.5,1.7,1c2.3,2.4,4.6,4.8,7.2,7.4
		c0,0.7,0,1.8,0,3c0.1,0,0.2-0.1,0.3-0.1c0.2,0.5,0.5,0.9,0.6,1.3c0.1,0.6,0,1.2,0,1.8c0.2-0.1,0.3-0.1,0.5-0.1
		c0.2,0.4,0.5,0.8,0.5,1.2c0.1,1,0,2,0.1,3c0.1,0.5,0.4,0.9,0.6,1.4c0.2,0,0.3-0.1,0.4-0.1c0,0.5,0,1,0,1.2c1.2,1.2,2.2,2.2,3,3
		c1,0.8,2.5-0.6,2.9,1.3c0.5,0,1,0,1.4,0c0.6,0.7,1.1,1.3,1.6,1.9c3.9,0,7.8,0,11.8,0c0.3,0,0.7,0,0.7-0.1c0.1-1.3,1.2-0.6,1.7-0.8
		c0.6-0.7,1.1-1.3,1.5-1.8c1-0.4,2.4,0.7,2.9-1c1.4,0,1-1,1-1.7c0.1-0.6,0.1-0.9,0.7-1.4s1.7-1,1.3-2.3c0-0.3,0.5-0.6,0.9-1.1
		C112.7,261.2,114,259.5,112.2,258.3z M99,106.6c-0.6,0.5-1.1,1-1.8,1.6c-0.1,0.3-0.1,0.8-0.1,1.3c-0.1,0-0.2-0.1-0.3-0.1
		c-0.2,0.5-0.6,1.1-0.6,1.7c0,3.7,0,7.4,0,10.9c-1.1,1.2-2.1,2.1-3.1,3.1c0.1,0.1,0.1,0.2,0.2,0.3c-0.6,0-1.2,0-1.8,0
		c-0.5,0-1.1-0.1-1.3,0.7c0,0.2-0.5,0.2-0.8,0.3c-0.8,0.1-1.8-0.5-2.2,0.8c0,0.1-0.8,0.1-1.2,0.1c-0.8,0-1.7-0.2-1.5,1.2
		c-1.9,0-3.7,0-5.6,0c-0.1,1.5-1.1,0.9-1.9,1c-0.7,0-1.5-0.3-1.4,0.9c-2.1,0-4.1,0-6.2,0c-0.6-0.5,0.5-1.9-1.1-1.9
		c0-0.3-0.1-0.4,0-0.7c0.3-1.3,0-2.6-1.1-3.2c-1.4-0.8-0.6-1.8-0.8-2.6c0.6-0.5,1.1-1,1.8-1.6c0-1.3,0-2.9,0-4.4
		c-0.7-0.5-1.2-1-1.9-1.6c0-0.3,0-0.9,0-1.5c-0.4,0-0.8-0.1-1.1-0.1c0.1,0,0.1-0.1,0.2-0.2c-1.5-1.5-3-3-4.6-4.7c-0.3,0-0.8,0-1,0
		c-3.2-3.1-6.2-6.1-9.4-9.2c0-0.4,0-1.3,0-2.1c0.9-0.4,0.9-0.4,1-1.6c1.2-1.2,2.3-2.2,3.6-3.4c0.8,0,1.9,0,3.1,0
		c0-0.1-0.1-0.3-0.1-0.4c0.5-0.2,0.9-0.6,1.4-0.6c3.2,0,6.5,0,9.8,0c0.1,0,0.2,0,0.2,0c1.2,1.3,2.4,2.4,3.7,3.8
		c0.2,0,0.8,0.1,1.3,0.1c0,0.1-0.1,0.2-0.1,0.3c0.5,0.2,0.9,0.6,1.4,0.6c3.3,0,6.5,0,9.5,0c0.5-0.5,0.9-0.9,1.4-1.4c0-0.6,0-1.4,0-2
		c0.5-0.5,0.9-0.9,1.4-1.4c1.2,0,2.6,0,4.1,0c0-0.2-0.1-0.3-0.1-0.4c0.5-0.2,0.9-0.4,1.4-0.6c0.3-0.1,0.5-0.3,0.8-0.5
		c0.2-0.1,0.4-0.3,0.6-0.4c1.3-0.3,2.3,0.2,3.2,1.1c0.3,0.3,0.5,0.7,0.7,1c0.1,0,0.2-0.1,0.3-0.1C99,96.1,99,101.4,99,106.6z"/>
	<path d="M286,95.7c-0.2,0-0.3,0.1-0.4,0.1c0-0.6,0-1.1,0-1.3c-0.7-0.8-1.3-1.4-1.9-2c-0.5-0.5-1-1-1.5-1.4
		c-0.5-0.5-1.1-0.9-1.6-1.4c-0.2-0.2-0.4-0.4-0.7-0.5c-0.4-0.1-0.8-0.1-1.2-0.1c0-0.7-0.1-1.2-0.1-1.9c-1.4,0-2.6-0.1-3.9,0
		c-0.5,0.1-0.9,0.4-1.4,0.6c0,0.1,0.1,0.3,0.1,0.4c-0.5,0-1.1,0-1.6,0c-0.1,0.3-0.2,0.7-0.3,0.9c-0.8,0.2-1.9-0.4-1.9,0.9
		c-0.8,0.3-1.9-0.4-1.9,1.1c-1.9,0-3.8-0.1-5.7,0c-0.5,0.1-0.9,0.4-1.4,0.6c0,0.1,0.1,0.3,0.1,0.4c-1.7-0.4-3.1,0.1-3.9,1.8
		c-1.6,0.1-1.6,0.1-1.9,1c-0.5,0-1.1,0-1.6,0c0,0.1,0.1,0.2,0.1,0.3c-0.4,0.2-0.7,0.4-1.1,0.6c-0.5,0.2-0.9,0.4-1.4,0.6
		c0,0.1,0.1,0.2,0.1,0.3c-0.8,0.2-2.1-0.5-2,1.2c-0.6,0-1.1,0-1.6,0c-0.3,0.8-0.3,0.8-2,1.2c-0.3,0.3-0.6,0.5-1,0.7
		c-0.5,0.2-0.9,0.4-1.4,0.6c0,0.1,0.1,0.2,0.1,0.3c-0.7,0.2-1.8-0.4-1.8,1c-0.6,0-1.2,0.1-1.7,0.1c0,0.1,0.1,0.2,0.1,0.3
		c-0.4,0.2-0.7,0.4-1.1,0.6c-0.5,0.2-0.9,0.4-1.4,0.6c0,0.1,0.1,0.2,0.1,0.3c-0.7,0.3-2-0.5-2.1,1c-0.7,0.2-1.9-0.4-1.9,1
		c-0.6,0.1-1.1,0.1-1.7,0.1c0,1.6-1.3,0.5-1.8,1c-0.5,0.6-1,1.2-1.5,1.8c-0.4,0.1-0.9,0.1-1.4,0.1c-0.1,0.3-0.3,0.8-0.4,0.8
		c-0.9-0.1-1.5,0.3-2.1,1c-0.5,0.7-1.2,1.3-2,2.2c-0.5,0-1.5,0-2.2,0c-0.6,0.7-1,1.2-1.6,1.9c-0.3,0-0.8,0-1.5,0
		c0.2,1.5-0.8,0.9-1.5,1c-0.8,0-1.6-0.3-1.6,0.7c-1,0.8-2.5-0.6-3,1.2c-0.5,0-1,0-1.5,0c0,0.2,0.1,0.3,0.1,0.4
		c-0.5,0.2-0.9,0.4-1.4,0.6c-0.3,0.1-0.7,0.2-1,0.4c-0.3,0.1-0.5,0.5-0.8,0.5c-0.6,0-1.3-0.1-1.9,0c-0.5,0.1-0.9,0.4-1.4,0.6
		c0,0.1,0.1,0.2,0.1,0.3c-4.6,0-9.3,0-13.7,0c-0.5-0.5-0.9-0.8-1.4-1.3c0-4.3,0-8.7,0-12.7c-0.7-1.2-1.9-1.4-1.9-2.8
		c0-0.3-0.4-0.7-0.7-1c-0.1,0-0.1,0.1-0.2,0.1c0-0.5,0-1.1,0-1.3c-0.5-0.5-0.9-0.9-1.4-1.4c-0.6,0-1.5,0-2.3,0
		c0-0.1,0.1-0.2,0.1-0.3c-0.5-0.3-1-0.6-1.5-1c0-3.2,0-6.6,0-9.6c3.4-3.4,6.5-6.6,9.8-9.9c0.1-0.3,0.1-0.8,0.1-1.3
		c0.1,0,0.1,0.1,0.2,0.1c0.3-0.4,0.6-0.8,1-1.2c0.4-0.1,0.9-0.1,1.2-0.1c3.8-3.8,7.4-7.5,11.1-11.2c0-0.3,0.1-0.9,0.1-1.5
		c0.6,0,1.2,0,1.4,0c0.8-0.7,1.4-1.3,1.9-1.9c0.6-0.8,1.3-1.1,1.9-1c0.7-0.6,1.2-1,1.7-1.3c0.5-0.4,1.1-0.6,1.7-0.8
		c0.3-0.3,0.6-0.5,1-0.7c0.5-0.2,0.9-0.4,1.4-0.6c0.8-0.8,2.3,0.5,2.8-1.3c0.5,0,1,0,1.3,0c0.6-0.9,1.1-1.5,1.6-2.2
		c0.8,0,1.6,0,2.3,0c2.1-2.1,4.1-4.1,6.3-6.2c0.1-0.5-0.5-1.6,0.9-1.6c0-1.1,0-2,0-3c-1.6,0-0.6-1.3-0.8-1.6c-0.8-0.7-1.4-1.2-2-1.7
		c-0.3-0.2-0.6-0.4-0.8-0.7c-0.4-0.5-0.7-1-1.1-1.5c-0.4-0.5-0.9-1-1.4-1.5c-0.5-0.4-1.3-0.7-1.6-1.2c-0.8-1.2-1.7-1.9-3.2-1.7
		c-0.8,0.1-1.7,0.1-2.5,0c-0.5-0.1-0.9-0.4-1.4-0.6c0-0.2,0.1-0.3,0.1-0.4c-0.5,0-1,0-1.3,0c-0.4-0.4-0.7-0.6-0.9-0.9
		c-0.3-0.3-0.5-0.6-0.8-1c-0.8,0-1.7,0-2.5,0c-0.6-0.7-1-1.2-1.6-1.9c-0.4,0-0.9,0-1.6,0c0.4-1.1-0.4-0.9-1-0.9
		c-5.8,0-11.7,0-17.5,0c-0.5,0-0.9,0.4-1.4,0.6c0,0.2,0.1,0.3,0.1,0.4c-0.5,0-1,0-1.4,0c-0.6,0.6-1,1.2-1.6,1.9c-0.8,0-1.6,0-2.2,0
		c-0.6,0.8-1.1,1.4-1.7,1.9c-0.5,0.5-1.2,0.9-1.7,1.4c-0.4,0.5-1,1-1,1.5c-0.1,1.6,0,3.2,0,4.6c3.7,3.6,7.2,7.1,10.8,10.7
		c0,0.2,0,0.6,0,1.1c-1.6,0.1-0.6,1.5-1.1,2.1c-0.5,0.5-1,0.9-1.7,1.5c0,0.7,0,1.5,0,2c-0.6,0.7-0.9,1.1-1.3,1.5
		c-0.5,0.5-1.1,0.8-1.6,1.2c-0.4,0.3-0.7,0.6-1,1c-0.5,0.5-0.8,1.1-1.3,1.6s-1.2,0.7-1.7,1.2c-0.7,0.7-1.5,1.4-1.2,2.7
		c0.1,0.3,0,0.8-0.1,0.8c-1.4,0.3-0.7,1.4-0.9,2c-0.7,0.6-1.3,1.1-1.9,1.6c0,1.7,0,1.8-1,3.2c-0.4,0.5-1.1,0.8-1.6,1.3
		s-0.9,1-1.3,1.5c-0.4,0.4-0.8,0.9-1.3,1.3s-1.1,0.8-1.6,1.2c-0.4,0.3-0.7,0.7-1,1.1c-0.4,0.5-0.7,1.3-1.2,1.4
		c-1.2,0.2-0.9,1-0.9,1.7c0,0.5,0,0.9,0,1.4c-0.1,0-0.2-0.1-0.3-0.1c-0.2,0.4-0.5,0.6-0.6,1c-0.2,0.5,0.2,1.1-0.8,1.3
		c-0.5,0-0.8,0.8-1.2,1.2c-0.5,0.5-1,1-1.5,1.5c-0.6,0.6-1.1,1.2-1.8,1.9c-0.4,0-0.9,0.1-1.5,0.1c0,0.6-0.1,1.2-0.1,1.8
		c-0.7,0-1.2,0-1.7,0c-0.5,1.9-2.2,0.4-3.1,1.2c0,0.4,0,1,0,1.5c-1.5,0.2-0.7,1.4-0.9,2.1c0.3,0.2,0.7,0.3,0.9,0.5
		c0.5,0.6,0.7,1.3,1.2,1.8c0.8,0.7,1.8,1.4,2.6,2.1c0.4,0.3,0.7,0.8,1.1,1.2c0.6,0.6,1.1,1.2,1.9,2c0,0.5,0,1.3,0,2
		c0.7,0.6,1.3,1,1.9,1.6c0.2,0.6-0.5,1.7,1,1.7c0,0.7,0,1.4,0,2.1c0.1,0.2,0.1,0.6,0.3,0.7c0.8,0.7,1.9,1.2,1.7,2.5
		c0,0.1,0.1,0.4,0.2,0.4c0.9,0.2,0.7,0.9,0.7,1.5c0,1.2,0,2.3,0,3.4c0,0.3-0.2,0.8-0.3,0.8c-0.8,0.2-0.7,0.8-0.7,1.3
		c0,1.8,0,3.7,0,5.5c-0.2,0-0.3-0.1-0.4-0.1c-0.2,0.5-0.6,0.9-0.6,1.4c-0.1,1.8-0.1,3.6,0,5.4c0,0.8-0.2,1.3-1,1.3
		c0,0.7,0,1.3,0,1.9c0.3,0.1,0.6,0.2,1.2,0.4c-1.7,0.7-1.2,2-1.2,3.1c0,4.6,0,9.3,0,13.9c0,0.7,0.1,1.3-0.9,1.3c0,3.9,0,7.7,0,11.5
		c1.8,0.6,0.5,2,0.9,2.7c-0.4,0.3-0.6,0.6-0.9,0.8c-0.2,0.3-0.5,0.6-0.9,0.9c0,2,0.1,4.1,0,6.2c-0.1,0.5-0.4,0.9-0.6,1.4
		c-0.1,0-0.3-0.1-0.4-0.1c0,0.8,0,1.6,0,2.4c0,0.8,0,1.6,0,2.1c-0.7,0.7-1.2,1.2-1.9,1.8c0,0.3,0,0.8,0,1.4
		c-0.3,0.1-0.6,0.1-0.9,0.2c0,0.6-0.1,1.2-0.1,1.7c-0.1,0-0.1-0.1-0.2-0.1c-1.7,1.6-3.3,3.3-5.1,5.1c-0.4,0.2-1.5-0.6-1.7,0.8
		c-0.1,0.1-0.4,0.1-0.6,0.1c-0.7,0-1.3,0-2,0c0.1-1.7-1.5-0.5-2-1.2c0-0.7,0-1.6,0-2.1c-0.8-0.9-1.5-1.6-2.3-2.4
		c-1.5,0.4-2.8-0.2-3.6-1.9c-0.9,0-1.9,0-2.8,0c0-0.2,0.1-0.3,0.1-0.4c-0.4-0.2-0.8-0.5-1.1-0.5c-1.1,0.1-1.3-1-2-1.4
		c-0.8-0.3-0.9-1.3-1.7-1.8c-0.6-0.3-1-1.1-1.5-1.8c-2.4,0-5,0-7.2,0c-0.5,0.4-0.8,0.6-1,0.9s-0.5,0.6-0.6,0.9c-0.1,0.4,0,0.8,0,1.2
		c-0.1,0-0.2-0.1-0.3-0.1c-0.2,0.3-0.6,0.6-0.6,0.9c0,1.3-1.1,1.7-1.9,2.4c0,0.5,0,1.1,0,1.8c1.5,0,0.6,1.3,0.9,1.7
		c0.5,0.4,0.7,0.6,1,0.8s0.6,0.5,1,0.9c0,0.6,0,1.5,0,2.4c0.7,0.1,1.4,0.1,1.7,0.1c0.9,0.9,1.5,1.5,2.4,2.4c0,0.3,0,0.8,0,1.5
		c1.1-0.2,0.9,0.5,0.9,1.1s0,1.2,0,1.7c0.5,0.3,0.7,0.5,1,0.7s0.6,0.5,1,0.9c0,0.6,0,1.5,0,2.4c1.6,0,0.6,1.2,0.9,1.6
		c0.5,0.4,0.7,0.6,1,0.8s0.6,0.5,1,0.9c0,0.7,0,1.6,0,2.1c2.7,2.7,5.2,5.2,7.9,7.9c0,2.1,0,4.4,0,6.7c0,0.7,0,1.3-1,1.3
		c0,1.4,0,2.6,0,3.7c-0.7,0.6-1.3,1.1-2.1,1.7c0,0.3,0,0.8,0,1.1c-1.1,1-1.9,1.8-2.9,2.7c0,0.3,0,0.9,0,1.2c-0.7,0.6-1.2,1-1.9,1.6
		c0,0.3,0,0.9,0,1.1c-0.5,0.6-0.9,0.8-0.9,1.1c0,1.5-1,2.1-2,2.9c0,0.5,0,1,0,1.2c-1.7,1.6-3.1,3.1-4.8,4.7c0,0.2,0,0.8,0,1.3
		c-0.8,0.8-1.7,1.3-2.3,2.5c-0.6,1.3-0.8,2.3-0.8,3.2c0.6,0.6,0.9,1,1.3,1.4c1.5,0,3.2,0,4.6,0c0.9-1,1.7-1.8,2.6-2.8
		c0.6-0.2,1.7,0.5,1.7-1c0.6,0,1.1,0,1.5,0c0.6-0.6,1-1.2,1.6-1.9c0.4,0,0.9,0,1.3,0c0.6-0.7,1-1.2,1.6-1.9c0.4,0,1,0,1.5,0
		c0-0.1-0.1-0.3-0.1-0.4c0.4-0.2,0.8-0.6,1.2-0.5c1.1,0.1,1.4-1,2.1-1.4c0.5-0.3,0.7-1,1.2-1.5c0.8-0.9,1.7-1.7,2.6-2.5
		c0.4-0.3,0.7-0.6,1-1c0.4-0.5,0.7-1.1,1.2-1.5c0.8-0.7,1.8-1.4,2.6-2.1c0.4-0.3,0.7-0.7,1-1.1c0.6-0.6,1.2-1.3,2-2.1
		c0-0.2,0-0.8,0-1.4c0.7,0,1.4,0,1.7,0c1.8-1.8,3.4-3.5,5.2-5.4c0.1-0.5-0.6-1.6,0.9-1.6c0-1.2-0.1-2.3,0-3.4
		c0.1-0.5,0.4-1.1,0.6-1.6c0.1,0,0.2,0.1,0.3,0.1c0.1-0.7-0.4-1.8,0.9-1.8c0.2-0.8-0.5-1.9,1-1.9c0-0.6,0-1.1,0-1.6
		c2-0.7,0.4-2.3,0.8-2.8c2.3-2.1,4.2-3.9,6.2-5.7c0.5-0.7-0.8-2.2,1-2.7c0-0.5,0-1,0-1.4c0.7-0.6,1.2-1.1,1.9-1.6
		c0-1.1-0.1-2.4,0-3.6c0-0.5,0.4-0.9,0.6-1.4c0.1,0,0.2,0.1,0.3,0.1c0-0.5,0-1,0-1.5c1.8-0.4,0.5-1.9,1-2.7c1.8-1.1,0.4-2.8,1.2-4
		c0.3-0.3,0.5-0.7,0.6-1.1c0-0.6-0.1-1.2,0-1.8c0.1-0.5,0.4-0.9,0.6-1.4c0.2,0,0.3,0.1,0.4,0.1c0-1.9,0-3.7,0-5.6
		c0.2,0,0.3,0.1,0.4,0.1c0.2-0.5,0.6-0.9,0.6-1.4c0.1-1.2,0-2.4,0-3.6c0.2,0,0.3,0.1,0.4,0.1c0.2-0.4,0.4-0.7,0.6-1.1
		c0.2-0.5,0.4-0.9,0.6-1.4c0.1,0,0.3,0.1,0.4,0.1c0-1.9,0-3.8,0-5.7c0.4-0.1,0.7-0.1,1.1-0.2c0-1.2,0-2.4,0-3.6c1.3,0,1-0.9,1-1.6
		s0-1.5,0-2.3c1.1,0.2,1-0.5,1-1.1c0-4.2,0-8.5,0-12.7c0-3.1,0-6.3,0-9.2c1.2-1.3,2.2-2.3,3.3-3.4c1.2,0,2.5,0,3.9,0s2.8,0,4.2,0
		c0.3-1.1,1.7-2,2.8-1.7c0.3,0.3,0.7,0.5,1.1,0.7c0.4,0.3,0.9,0.5,1.3,0.7c0,0.1-0.1,0.2-0.1,0.3c0.9,0,1.7,0,2.2,0
		c2.2,2.2,4.2,4.2,6.5,6.4c0,1.4-0.1,3.3,0,5.2c0.1,0.5,0.4,0.9,0.6,1.4c0.2,0,0.3-0.1,0.4-0.1c0,0.9,0,1.7,0,2.7
		c1.2-0.3,1,0.5,1,1.1c0,1.5,0,3,0,4.6c1.3-0.1,1,0.7,0.9,1.5c0,16.3,0,32.6,0,48.9c0,0.5,0,1,0,1.3c0.7,0.6,1.2,1,1.9,1.6
		c0,3.4,0,6.8,0,9.8c1.5,1.9,0.7,3.6,0.9,5.2c0,0.5-0.4,0.9-0.6,1.4c-0.1,0-0.3-0.1-0.4-0.1c0,3.7,0.1,7.4,0,11.1
		c0,0.6-0.4,1.1-0.6,1.7c-0.2,0-0.3-0.1-0.4-0.1c0,0.5,0,0.9,0,1.5c-1,0-1,0.6-1,1.3c0.1,7.4,0.1,14.8,0,22.2c0,1.2,0.9,1.5,1.4,2.2
		c0.3,0.5,1,0.8,1.5,1.2c0.6,0.5,1.2,1.1,1.7,1.7c0.5,0.5,1,1.2,1.5,1.8c2.9,0,5.8,0,8.5,0c1-1,1.8-1.8,2.8-2.8c0.9,0,2.1,0,2.9,0
		c1.2-1.2,2.2-2.2,3.3-3.3c0-0.2,0-0.8,0-1.1c0.4-0.4,0.7-0.7,1-0.9c0.3-0.2,0.5-0.5,0.9-0.8c0.2-0.7-0.6-1.9,0.9-2
		c0-13.9,0-27.8,0-41.7c-1.3,0-0.9-1-0.9-1.7c0-0.8,0-1.6,0-2.5c-1.2,0.2-0.9-0.6-0.9-1.2c-0.1-0.8,0.3-1.8-1-1.8
		c0-7.1,0-14.1,0-21.1c0-0.4,0.5-0.8,0.7-1.2c0.1,0,0.2,0.1,0.3,0.1c0-1.8,0-3.6,0-5.4s0-3.6,0-5.4c-0.2,0-0.3,0.1-0.5,0.1
		c-0.2-0.4-0.5-0.8-0.5-1.2c0-3.6,0-7.1,0-10.6c0-0.8-0.1-1.3-0.8-1.3c-0.5-1,0.7-2.5-1.1-3c0-1.1,0-2.3,0-3.1
		c-0.4-0.5-0.9-0.8-0.9-1.1c0-2,0-4,0-5.7c1.1-1,2-1.8,2.9-2.7c0-0.5,0.1-1,0.1-1.6c0.7,0,1.2,0,1.7,0c0.2-0.3,0.3-0.7,0.5-0.9
		c0.6-0.4,1.2-0.7,1.7-1.2s1.1-1.2,1.1-1.8c0.1-2,0-4.1,0-6.1c-0.1-0.3-0.1-0.8-0.3-0.9c-0.8-0.5-1.2-1.6-2.4-1.2
		c-0.1,0-0.4-0.3-0.5-0.4c-0.5-0.5-1.1-1-1.6-1.5c-0.5-0.4-0.9-0.9-1.3-1.3c-0.6-0.6-1.2-1.3-1.9-2c0-0.6,0-1.4,0-2
		c1.5-1.5,2.8-2.8,4.3-4.3c1,0,2.2,0,3.3,0c0.6-0.6,1.1-1.2,1.7-1.9c13,0,26.2,0,39,0c1.2-1.1,2.3-2.1,3.5-3.2
		c0.4-0.7-0.8-2.2,1-2.7c0-2.2,0-4.3,0-6.4c0.7-0.6,1.2-1.1,1.9-1.7c0-4,0-8.2,0-12.4C286.6,96.6,286.2,96.2,286,95.7z"/>
</g>
</svg>
