<?xml version="1.0" encoding="utf-8"?>
<!-- Generator: Adobe Illustrator 24.3.0, SVG Export Plug-In . SVG Version: 6.00 Build 0)  -->
<svg version="1.1" id="レイヤー_1" xmlns="http://www.w3.org/2000/svg" xmlns:xlink="http://www.w3.org/1999/xlink" x="0px"
	 y="0px" viewBox="0 0 300 300" style="enable-background:new 0 0 300 300;" xml:space="preserve">
<path d="M283.2,180.2c-0.8-0.9-1.5-1.8-2.2-2.6c-0.5-0.6-1-1.3-1.7-1.7s-1.1-1.4-2.3-1.3c-2.2,0.2-4.4,0-6.6,0.1
	c-0.5,0-0.9,0.4-1.4,0.6c0,0.2,0.1,0.3,0.1,0.4c-5.1,0-10.1,0-15.2,0c0,0.1,0.1,0.3,0.1,0.4c-0.5,0.1-0.9,0.5-1.4,0.5
	c-1.5,0-3,0-4.5,0c0,0.2,0.1,0.3,0.1,0.5c-0.4,0.2-0.8,0.4-1.2,0.5c-0.6,0-1.2-0.1-1.7,0c-1.2,0.3-2.7-0.8-3.6,0.9
	c-0.1,0-0.4,0-0.6,0c-0.6,0-1.3-0.1-1.9,0c-0.5,0.1-0.9,0.4-1.4,0.6c0,0.1,0.1,0.2,0.1,0.3c-4.1,0-8.1,0-11.9,0
	c-0.5-0.5-0.9-0.9-1.4-1.4c0-5.8,0-11.9,0-17.9c0-0.5-0.4-0.9-0.6-1.4c-0.2,0-0.3,0.1-0.4,0.1c0-0.5-0.1-1.1-0.1-1.6
	c-0.1,0-0.2,0.1-0.3,0.1c-0.3-0.4-0.5-0.8-0.8-1.1c-0.9-0.8-0.9-0.8,0.2-1.2c0-0.5,0-1,0-1.3c0.5-0.5,0.9-0.9,1.4-1.4
	c0.2,0,0.7,0,1,0c1-1,1.8-1.9,2.8-2.9c3.9,0,8,0,12.1,0c0-0.1-0.1-0.2-0.1-0.3c0.3-0.2,0.7-0.6,1.1-0.6c0.4,0,0.7,0.4,1.4,0.8
	c0.5-0.5,2.1,1,2.7-0.9c0.5,0,1.1,0,1.6,0c0-0.1-0.1-0.3-0.1-0.4c0.4-0.2,0.8-0.5,1.2-0.5c0.8,0,1.6,0,2.4,0c0.2,0,0.6-0.1,0.6-0.2
	c0.1-1.2,0.9-0.8,1.5-0.8c1,0,2.1,0.1,3.2,0c0.5-0.1,0.9-0.4,1.4-0.6c0-0.2-0.1-0.3-0.1-0.4c0.5,0,1,0,1.5,0c0-0.2-0.1-0.3-0.1-0.4
	c0.5-0.2,0.9-0.5,1.4-0.6c0.9-0.1,2.3,0.3,2.6-0.2c0.6-0.9,1.4-0.7,2.2-0.7c0.6,0,1-0.2,1-0.9c0-3.6,0-7.3,0-11
	c-0.3-0.1-0.8-0.1-0.8-0.2c-0.2-1.2-1.1-0.8-1.8-0.8c-0.9-0.1-2.3-1-2.5-1.8c-0.6-0.2-1.6-0.2-1.7-0.5c-0.2-0.8-0.7-0.6-1.2-0.6
	c-6.8,0-13.6,0-20.4,0c-0.5,0-0.9,0.4-1.4,0.6c0,0.1,0.1,0.2,0.1,0.3c-0.5,0-1,0-1.4,0c-0.6,0.7-1.1,1.3-1.5,1.8
	c-1.4,0.4-2.6,0-3.6-1.3c0-0.6,0-1.4,0-2c-0.7-0.7-1.2-1.3-1.9-2c-0.1-0.3-0.1-0.9-0.1-1.4c-0.1,0-0.3,0.1-0.4,0.1
	c-0.2-0.4-0.4-0.8-0.5-1.2c-0.1-0.6,0-1.2,0-1.6c-0.7-0.5-1.3-1-1.9-1.5c0-2,0-4.2,0-6c0.9-0.8,1.6-1.5,2.3-2.3
	c0.5-0.1,1.6,0.5,1.6-0.9c1.6,0,3,0,4.6,0c-0.1,0.9,0.8,1.4,1,0.8c0.5-1.2,1.4-0.6,1.9-0.9c1.4-0.9,1.3-2.3,1.2-3.4
	c0.7-0.6,1.2-1,1.9-1.6c0-0.4,0-1,0-1.5c0.1,0,0.3,0.1,0.4,0.1c0.2-0.4,0.5-0.8,0.5-1.2c0.1-1,0-2,0.1-3c0.1-0.5,0.4-0.9,0.6-1.4
	c0.2,0,0.3,0.1,0.4,0.1c0-0.5,0-1,0-1.5c0.2,0,0.3,0.1,0.4,0.1c0.1-0.5,0.5-0.9,0.5-1.4c0-2.1,0-4.2,0-6.3c0.2,0,0.3,0.1,0.4,0.1
	c0.2-0.5,0.6-0.9,0.6-1.4c0-1.9,0-3.8,0-5.5c0.7-0.6,1.2-1,1.9-1.6c0-2.3,0-4.8,0-7c0.7-0.6,1.3-1,1.9-1.6c0-0.4,0.1-1,0.1-1.6
	c1,0.1,1.2-0.4,1.2-1.2c0-3.4,0-6.9,0-10.4c0-0.3-0.1-0.7,0.1-0.9c1.1-1.1,2.2-2.1,3.3-3.1c0.5-0.5,0.9-1.2,1.4-1.7
	c0.5-0.6,1.2-1.1,1.9-1.8c0.4-0.7-0.9-2.2,0.9-2.7c0-0.4,0-0.9,0-1.3c0-2,0-4.1,0-6.3c-1.7,0-0.6-1.3-1.2-1.8
	c-1.6-1.7-3.2-3.4-4.9-5.2c-0.4-0.1-1.3,0-1.4-0.2c-0.3-1.1-1.1-0.8-1.8-0.8c-1.2,0-2.2-0.7-2.6-1.9c-0.9,0-1.7,0-2.7,0
	c0.2-1-0.3-1-1-1c-0.8-0.1-1.3,0.1-1.3,0.9c-0.9,0-1.6,0-2.2,0c-0.4-0.4-0.7-0.9-0.9-0.9c-0.4,0.1-0.7,0.5-1.1,0.8
	c-1.4,0-2.8,0-4.3,0c0-0.1,0.1-0.2,0.1-0.3c-0.3-0.2-0.7-0.6-1-0.5c-1.1,0.3-2.7-0.9-3.5,0.9c-2,0-4.1,0-6.1,0
	c-0.6,0.7-1,1.3-1.6,1.9c-1.4,0-2.9,0-4.4,0c-0.7,0-1.3,0-1.3,1c-0.6,0-1.1,0-1.6,0c-0.8,1.8-2.2,2.2-3.7,1.9
	c-0.9,1.1-1.8,2.1-2.6,3.1c-0.4,0-0.9,0.1-1.5,0.1c0,0.7-0.1,1.3-0.1,1.8c-1.2,0.2-1.7,1.5-3,1.2c0,0-0.2,0.5-0.2,0.6
	c-1.3,0.8-3-0.7-3.9,0.6c-1.4,0-2.9,0-4.4,0c0,0.1,0.1,0.3,0.1,0.4c-0.4,0.2-0.8,0.5-1.2,0.5c-1.6,0.1-3.2,0.1-4.8,0
	c-0.8-0.1-1.3,0.1-1.3,0.9c-0.8,0.2-1.8-0.4-1.9,1c-1.9,0-3.7-0.1-5.5,0c-0.5,0.1-0.9,0.4-1.4,0.6c0,0.1,0.1,0.3,0.1,0.4
	c-2.3,0-4.5,0-6.8,0c0.2,1.1-0.5,1-1.1,1c-4,0-8,0-12,0c-2.7,0-5.4,0-7.8,0c-0.9,0.9-1.6,1.5-2.4,2.3c0,1.5,0,3.1,0,4.5
	c2.4,2.5,4.7,4.8,7.1,7.2c4.2,0,8.6,0,12.9,0c0.5,0.6,1,1.2,1.6,1.9c0.4,0,0.9,0,1.4,0c0.3,0.9,1.7,1.4,1.1,2.5
	c0.7,0.5,1.3,1,1.9,1.5c0.1,2.7,0.5,3.5,2.1,4c0,0.4,0,0.9,0,1.4c-0.3,0-0.7,0.1-1,0.1c-0.4,0.8,0.4,2-1.1,2c0,1.3,0,2.6,0,3.8
	c0,0.3,0,0.7-0.2,0.8c-1,0.8-2,1.5-1.8,3c-0.4,0.4-0.8,0.8-0.8,1.3c0,2.1,0,4.2,0,6.2c-0.6,0.6-1.2,1.1-1.9,1.7c0,0.6,0,1.5,0,2.4
	c-1.8,0.1-0.5,1.5-1.1,2.1c-0.5,0.4-1,0.9-1.7,1.5c0,1.7,0,3.4,0,5.1c-0.7,0.6-1.3,1.1-1.9,1.6c-0.2,0.6,0.5,1.7-1,1.7
	c0,1,0,1.8,0,2.6c-1.8,0.8-2.7,2.1-2.2,3.8c-1.7,1.6-3.2,3.1-4.8,4.7c-0.2,0.5,0.4,1.6-1,1.6c0,1.2,0,2.3,0,3.4c0,0.7,0,1.3-1,1.3
	c0,0.7,0,1.3,0,1.5c-0.4,0.6-0.9,0.9-0.9,1.2c0,1.7,0,3.5,0,4.9c0.5,0.6,0.9,1,1.3,1.4c1.7,0,3.6,0,5.2,0c0.5-0.5,0.9-0.8,1.4-1.3
	c0-0.9,0-2,0-3.2c0.1,0,0.1,0.1,0.2,0.1c0.3-0.5,0.7-0.9,1.1-1.5c0.4,0,1,0,1.3,0c1.2-1.2,2.2-2.2,3.3-3.3c0.1-0.4,0.1-0.9,0.1-1.4
	c0.8-0.4,1.9,0.3,2.1-1c0.1-0.4,0.7-0.7,1.1-1.1c0.6-0.5,1.1-1.1,1.7-1.6c0.6-0.6,1.2-1.1,1.9-1.7c0-0.6,0-1.5,0-2.4
	c1.8,0,0.6-1.5,1.2-2c2.3-2.1,4.5-4.2,6.8-6.4c0-0.7,0-1.5,0-2.2c0.4-0.4,0.7-0.7,1-0.9c0.3-0.2,0.6-0.4,0.9-0.7
	c0.2-0.6-0.5-1.7,1-1.7c0-1,0-1.9,0-2.7c0.7-0.5,1.3-1,1.9-1.5c0.2-0.7-0.5-1.8,1-1.8c0-0.9,0-1.7,0-2.4c0.6-0.6,1.2-1,1.9-1.6
	c0-0.7,0-1.6,0-2.4c0.3-0.1,0.6-0.1,0.8-0.3c0.9-0.9,1.6-1.9,2.6-2.7s1.9-1.5,1.6-3c1.8-0.6,0.5-2.1,1.2-2.9c0.5-0.4,1-0.9,1.7-1.5
	c0-0.7,0-1.5,0-2.1c1.6-1.6,3.1-3.1,4.8-4.7c0.1-0.5-0.6-1.6,0.9-1.6c0-1,0-1.9,0-2.7c0.7-0.6,1.3-1.1,1.9-1.6c0-1.1,0-2.4,0-3.4
	c-0.4-0.4-0.6-0.7-0.9-0.9s-0.6-0.5-0.9-0.7c0-3.7,0-7.4,0-11.1c0.3-0.1,0.8-0.2,0.8-0.3c0-1.1,0.8-0.8,1.4-0.8c4,0,8.1,0,12.1,0
	c0.7,0,1.3,0,1.3,1c0.6,0,1.1,0,1.3,0c0.9,0.8,1.5,1.5,2.4,2.4c0,0.2,0,0.8,0,1.3c0.1,0,0.3-0.1,0.4-0.1c0.2,0.4,0.5,0.8,0.5,1.2
	c0.1,1.4,0,2.7,0.1,4c0,0.5,0.4,0.9,0.6,1.4c0.2,0,0.3-0.1,0.4-0.1c0,1.5,0,2.9,0,4.4c0.2,0,0.3-0.1,0.4-0.1
	c0.1,0.5,0.5,0.9,0.5,1.4c0,3.8,0,7.6,0,11.4c0.2,0,0.3-0.1,0.4-0.1c0.2,0.5,0.6,0.9,0.6,1.4c0.1,1.6,0.1,3.1,0,4.6
	c0,0.5-0.4,0.9-0.6,1.4c-0.1,0-0.2-0.1-0.3-0.1c-0.1,1.7-0.1,1.7,0.9,2.1c0,1.4,0,2.8,0,4c-0.7,0.6-1.4,1.1-1.9,1.7
	c-0.7,0.8-1.2,1.9-2.5,1.6c-0.4,0-0.8,0.1-1.2,0c-0.5-0.1-0.9-0.4-1.4-0.6c0-0.2,0.1-0.3,0.1-0.4c-0.8,0-1.6,0-2.1,0
	c-0.6-0.4-0.9-0.9-1.2-0.9c-2.4,0-4.8,0-7.2,0c0,0.2,0.1,0.3,0.1,0.5c-0.4,0.2-0.8,0.4-1.2,0.5c-0.6,0.1-1.2,0-1.8,0.2
	c-0.4,0.2-0.6,0.7-1,1.2c0,0.7,0,1.6,0,2.2c2.1,2.3,4,4.3,6.1,6.5c0.3,0,0.8,0,1.4,0c0.1,1.6,1.3,0.8,1.9,1.2c0.3,0.4,0.8,0.5,1,0.9
	c0.7,1.1,1.4,2,2.8,1.8c0.1,0,0.3,0.2,0.4,0.3c0.3,0.3,0.6,0.6,0.9,1c0,0.6,0,1.4,0,2.2c-7.2,0-14.3,0-21.1,0
	c-0.5,0.5-0.9,0.8-1.1,1.1c-0.1,0.2-0.3,0.5-0.3,0.8c0,3.3,0,6.6,0,10c1.6,0,0.7,1.2,1.2,1.8c0.5,0.5,1,1,1.7,1.6c0,0.6,0,1.4,0,2.2
	c0.3,0.2,0.7,0.3,0.9,0.6c0.6,0.5,0.9,1.2,1.5,1.7c0.8,0.7,1.7,1.3,1.4,2.6c0,0.3,0,0.6,0,0.6c-1.4,1.3-2.6,2.4-3.9,3.7
	c0,0.6,0,1.5,0,2.3c0-0.1-0.1-0.1-0.2-0.2c-0.7,0.8-1.3,1.5-2.1,2.4c-0.5,0-1.3,0-2.1,0c0.1-0.1,0.1-0.2,0.2-0.3
	c-0.4-0.3-0.7-0.6-1.1-0.9c-0.1,0-0.2,0.1-0.3,0.1c-0.1,0.3-0.1,0.7-0.2,1c-0.6,0-1.2,0.1-1.7,0.1c-0.3,1-1.4,1.9-2.4,1.9
	c-1.2,0-2.4-0.1-3.6,0c-0.5,0.1-0.9,0.4-1.4,0.6c0,0.1,0.1,0.3,0.1,0.4c-0.8,0-1.7,0-2.3,0c-0.6,0.7-1.1,1.3-1.7,1.9
	c-2.2,0-4.7,0.1-7.1,0c-0.5-0.1-0.9-0.4-1.4-0.6c-1.1-1-2.8,0.6-3.8-1.3c-0.5-0.1-1.1-0.1-1.6-0.1c-0.2-0.5-0.5-0.9-0.8-0.9
	c-4,0-8,0-11.7,0c-1.5,1.5-2.8,2.8-4.2,4.2c0,1.1,0,2.4,0,3.7c0.6,0,1.1,0,1.4,0c3.6,3.7,7.1,7.2,10.6,10.8c0.4,0,0.9,0,1.2,0
	c0.5,0.6,0.8,0.9,1.4,1.5c0.1,0.4-0.6,1.5,0.9,1.5c0,0.9,0,1.8,0,2.7c1-0.1,1,0.6,1,1.3c0,1,0,1.9,0,2.9c0,0.3,0.1,0.8,0.3,0.8
	c0.8,0.2,0.6,0.8,0.6,1.3c0,1.2-0.1,2.3,0,3.5c0,0.5,0.3,0.9,0.5,1.4c0.1,0,0.2-0.1,0.3-0.1c0,0.5,0,0.9,0,1.2
	c-0.7,0.6-1.3,1-1.9,1.6c0,0.4,0,0.9,0,1.4c-2,0.6-0.4,2.3-1.2,3.1c-2.6,2.6-5.3,5.1-8,7.7c-0.5,0.3-1.6-0.3-1.7,1.1
	c-0.9,0-1.7,0-2.6,0c-0.5,1.9-2.1,0.5-2.9,1.2c-0.3,0.3-0.6,0.7-0.9,0.7c-3,0-5.9,0-8.5,0c-0.5-0.5-0.9-0.9-1.4-1.4
	c0-4.5,0-9.2,0-14c-0.2,0-0.3,0.1-0.4,0.1c-0.1-0.5-0.5-0.9-0.5-1.4c0-7,0-14,0-21.2c-1.1,0.3-1-0.4-1-1.1c0-11.9,0-23.8,0-35.7
	c0-0.5,0.4-0.9,0.6-1.4c0.8-0.8-0.5-2.3,1.3-2.8c0-0.8,0-1.7,0-2.5c0.2,0,0.3,0.1,0.4,0.1c0.2-0.5,0.6-0.9,0.6-1.4
	c0-1.9,0-3.8,0-5.4c0.7-0.7,1.3-1.1,1.9-1.7c0-0.7,0-1.5,0-2.1c2.7-2.6,5.2-5.2,7.9-7.8c0-3.6,0-7.4,0-11.1c-0.7-0.5-1.4-1-2.1-1.6
	c0-0.4-0.1-0.9-0.1-1.5c-0.6,0-1.2-0.1-1.8-0.1c0-0.3-0.1-0.7-0.1-1.1c-0.9,0-1.8,0-2.3,0c-2.2-2.2-4.2-4.2-6.3-6.3
	c0-0.6,0-1.4,0-1.9c-0.5-0.6-0.9-1-1.2-1.4c-2.2,0-4.5,0-6.4,0c-1.8,1.8-3.4,3.4-5.2,5.2c0,0.2,0,0.8,0,1.4
	c-1.7-0.1-0.6,1.3-1.2,1.8c-0.3,0.3-0.6,0.7-1.1,1.2c-0.6,0-1.5,0-2,0c-1,1.2-1.8,2.1-2.7,3.1c-2.1,0-4.3,0-6.5,0
	c-0.3,0-0.5-0.3-0.8-0.5c-0.2-0.2-0.4-0.4-0.6-0.4s-0.4,0.3-0.6,0.4c-0.2,0.2-0.4,0.5-0.7,0.5c-0.6,0.1-1.2,0-1.6,0
	c-0.4-0.4-0.7-0.9-0.9-0.9c-0.3,0-0.6,0.4-1.1,0.8c-1.5,0-3.4,0-4.9,0c-0.5-0.5-0.8-0.9-1.3-1.3c0-0.6,0-1.5,0-2.1
	c1-1,1.9-1.8,2.8-2.7c0.3-0.3,0.6-0.6,0.9-0.9c0.4-0.5,0.8-1,1.3-1.5c0.5-0.4,1.3-0.7,1.5-1.2c0.4-0.9,1.3-1.1,1.8-1.7
	c0.4-0.4,0.9-0.6,1.3-0.9c0.5-0.2,0.9-0.4,1.4-0.6c0-0.2-0.1-0.3-0.1-0.4c0.9,0,1.7,0,2.5,0c0.4-1.2,1.5-1.9,2.7-1.9
	c0.4,0,0.7,0,1,0c0.9,0.1,1.5-0.1,1.4-1.2c0.7,0,1.2,0,1.7,0c0.2-1.6,1.5-0.7,2.1-1.2c0.8-0.9,1.6-1.7,2.5-2.7c0.9,0,2.1,0,3.3,0
	c0-0.3,0-0.6,0.1-0.7c0.9-0.5,1.4-1.3,2.1-2c0.3-0.3,0.6-0.6,0.9-1c0.4-0.4,1.1-0.7,1.6-1.1c0.5-0.4,0.8-0.9,1.2-1.3
	c0.4-0.5,0.7-1.3,1.2-1.4c1.1-0.2,0.9-0.9,0.9-1.6c0-1,0.1-1.9,0-2.9c0-0.3-0.2-0.7-0.4-0.9c-0.5-0.4-1.1-0.8-1.6-1.2
	c-0.4-0.3-0.7-0.7-1-1.1c-0.6-0.6-1.1-1.2-1.9-2c0-0.5,0-1.3,0-1.9c-1.5-1.5-2.8-2.8-4.3-4.3c-0.5,0-1.4,0-2.1,0
	c-0.6-0.7-1-1.2-1.6-1.9c-1.2,0-2.5-0.1-3.8,0c-0.5,0.1-0.9,0.4-1.4,0.6c0,0.1,0.1,0.3,0.1,0.4c-1.1,0-2.2-0.1-3.3,0
	c-0.5,0.1-1.1,0.4-1.6,0.6c0,0.1,0.1,0.3,0.1,0.4c-0.5,0-1,0-1.5,0c0,0.1,0.1,0.2,0.1,0.3c-0.4,0.2-0.7,0.4-1.1,0.6
	c-0.5,0.2-0.9,0.4-1.4,0.6c0,0.1,0.1,0.3,0.1,0.4c-0.5,0-1,0-1.6,0c-0.1,0.3-0.1,0.8-0.2,0.8c-0.9,0.1-1.1,1.7-2.3,1.2
	c-0.2,0-0.5,0.3-0.7,0.4c-0.3,0.2-0.6,0.4-0.9,0.6c-0.4,0.2-0.9,0.4-1.3,0.6c0,0.1,0.1,0.3,0.1,0.4c-0.5,0-1.1,0-1.6,0
	c0,0.2,0.1,0.3,0.1,0.4c-0.3,0.2-0.6,0.4-1,0.6c-0.5,0.2-0.9,0.4-1.4,0.6c0,0.1,0.1,0.2,0.1,0.3c-2.7,0-5.5,0-8,0
	c-0.5-0.5-0.9-0.9-1.4-1.4c0-3.2,0-6.7,0-9.9c-0.5-0.5-0.9-0.9-1.4-1.4c-0.6,0-1.4,0-2.1,0c-0.5-0.7-1-1.2-1.6-1.9
	c-0.5-0.2-1.6,0.5-1.6-1c-9.4,0-18.7,0-27.7,0c-0.6-0.4-0.9-0.9-1.2-0.9c-3.1,0-6.2,0-8.9,0c-0.9,0.9-1.6,1.5-2.4,2.3
	c0,0.3,0,0.9,0,1.1c-0.4,0.5-0.7,0.7-0.9,1c-0.4,0.5-0.8,1-1.2,1.5c-0.3,0.2-0.5,0.4-0.8,0.6c0.3,0.2,0.6,0.4,1,0.6
	c0,0.5,0,1.1,0,1.4c0.5,0.5,0.9,0.9,1.4,1.4c0.7,0,1.6,0,2.6,0c0.2,0,0.6,0,0.7,0.1c0.7,0.6,1.3,1.3,1.9,1.9
	c0.4,0.5,0.9,0.9,1.3,1.3c0.6,0.6,1.2,1.2,1.9,1.9c0,1.9,0,4.1,0,6c-0.7,0.6-1.3,1.1-1.9,1.6c0,0.4-0.1,0.9-0.1,1.5
	c-0.4,0.1-0.7,0.1-1.1,0.2c-0.1,0.6-0.1,1.2-0.1,1.4c-1.3,1.3-2.5,2.4-3.8,3.7c-0.2,0.5,0.5,1.6-0.9,1.6c-0.1,1,0,1.9-0.3,2.7
	c-0.2,0.6-1,1-1.7,1.6c-0.2,0.6,0.5,1.7-1,1.7c0,0.6,0,1.1,0,1.5c-0.6,0.5-1.2,1-1.9,1.6c0,1,0,2.2,0,3.1c-0.8,0.8-1.5,1.5-2.3,2.3
	c-0.3,0-0.8,0.1-1.2,0.1c-0.2,0.4-0.4,0.8-0.6,0.9c-1.1,0.6-2,1.3-1.8,2.6c-1.6,1.7-3.1,3.2-4.8,4.9c0,0.6,0,1.4,0,2.1
	c-0.7,0.5-1.2,1-1.9,1.6c-0.5,0.7,0.8,2.2-1,2.7c0,0.5,0,1,0,1.4c-0.7,0.6-1.3,1-1.9,1.6c0,2.8,0,5.7,0,8.6c1.1,0.4,1.9,1.5,1.9,2.5
	c0,1.2-0.1,2.3,0,3.4c0,0.5,0.4,0.9,0.6,1.4c0.2,0,0.3-0.1,0.4-0.1c0,0.5,0,1,0,1.3c1.8,1.9,3.5,3.7,5.2,5.5c1.1,0,2.3,0,3.6,0
	c0.1,0.3,0.1,0.8,0.2,0.8c1.1,0.1,0.8,1,0.8,1.7c0,7.8,0,15.7,0,23.6c0,0.7,0.1,1.3,1,1.3c0,6.5,0,12.9,0,19.3
	c0,0.4-0.5,0.7-0.7,1.1c-0.1,0-0.2-0.1-0.3-0.1c0,6.4,0,12.7,0,19.1c-0.2,0-0.3-0.1-0.4-0.1c-0.1,0.5-0.5,0.9-0.5,1.4
	c-0.1,1.2,0,2.5,0,3.8c-0.4,0-0.8,0.1-1.1,0.1c-0.4,0.8,0.4,2-1.1,2c0,13.7,0,27.2,0,40.6c-0.7,0.6-1.3,1.1-1.9,1.6
	c0,5.4,0,10.8,0,16.1c2.2,2.1,4.3,4,6.5,6.1c4.2,0,8.6,0,13.2,0c-0.5-1.3,0.7-0.7,1.1-1.1c0.2-0.8-0.5-1.9,1-1.9c0-0.6,0-1.1,0-1.3
	c2.3-2.4,4.5-4.6,6.7-6.9c0-3.6,0-7.4,0-11.1c-0.7-0.6-1.2-1-1.9-1.6c0-4.3,0-8.8,0-13.3c0-0.4,0.5-0.7,0.7-1.1
	c0.1,0,0.2,0.1,0.3,0.1c0-2.1,0-4.3,0-6.7c1.3,0.3,1-0.6,1-1.2c0-0.6-0.1-1.1,0-1.6s0.4-0.9,0.6-1.4c0.1,0,0.2,0.1,0.3,0.1
	c0-0.5,0-1,0-1.3c0.4-0.4,0.6-0.7,0.9-0.9c0.2-0.2,0.4-0.3,0.7-0.4c1.3-0.3,2.7,0.6,3.8-0.9c0.3-0.3,1.4-0.2,1.9-1s1.2-1.4,1.9-2.2
	c0.3,0,0.8,0,1.1,0c0.9-1,1.8-1.9,2.7-2.9c0.3,0,0.8,0,1,0c0.6-0.5,1-0.8,1.5-1.3c0-0.3,0-0.8,0-1c0.6-0.6,0.9-1,1.3-1.4
	c0.5-0.4,1.2-0.7,1.5-1.2c0.7-1.1,1.6-1.9,3.1-1.7c0.6,0.1,1.2,0,1.8,0c0.6-1.8,2.1-0.5,2.9-1.2c0.5-0.5,1-1.1,1.5-1.7
	c0.4,0,1-0.1,1.5-0.1c0.1-0.4,0.1-0.7,0.2-1.1c0.6-0.1,1.1-0.1,1.6-0.1c0-0.1-0.1-0.2-0.1-0.3c0.5-0.2,0.9-0.4,1.4-0.6
	c0.3-0.1,0.8-0.2,0.8-0.3c0-0.9,0.7-0.6,1.1-0.7c0.5-0.1,0.9-0.4,1.4-0.6c0-0.2-0.1-0.3-0.1-0.4c0.9,0,1.7,0,2.5,0
	c0.4-1.2,1.4-1.9,2.7-1.9c0.7,0,1.5,0.2,1.4-1c0.6,0,1.1,0,1.4,0c1.3-1.4,2.5-2.6,3.8-3.9c0.5-0.1,1.5,0.5,1.8-0.8
	c0.1-0.1,0.4-0.1,0.6-0.1c0.6,0,1.2,0,1.8,0c0,0.1-0.1,0.2-0.1,0.3c0.4,0.2,0.9,0.6,1.3,0.6c1.3,0.1,2.5,0,3.5,0
	c0.6-0.4,0.8-0.8,1.2-0.9c1.5-0.6,2.5,1.3,4,1c0,0,0,0.2,0.1,0.3c0.6,0.6,1.1,1.2,1.9,2c0,0.2,0,0.7,0,1.4c1-0.3,1,0.3,1,1
	c0,0.6,0,1.3,0,1.9c0,0.2-0.1,0.6-0.2,0.6c-1,0.2-0.8,0.9-0.8,1.5c0,1.2,0,2.3,0,3.4c0,0.7,0,1.3-1,1.3c0,1.3,0.1,2.4,0,3.6
	c-0.1,0.5-0.4,0.9-0.6,1.4c-0.2,0-0.3-0.1-0.4-0.1c0,1.6,0,3.1,0,4.7c-0.2,0-0.3-0.1-0.4-0.1c-0.2,0.5-0.6,0.9-0.6,1.4
	c0,1.5,0,3,0,4.2c-0.8,0.7-1.4,1.2-2.1,1.7c0,0.4-0.1,1-0.1,1.6c-1,0-1.8,0-2.5,0c-0.6,0.8-1,1.3-1.6,2c-0.4,0-1,0-1.6,0
	c0.2,1.1-0.6,0.9-1.2,0.9c-8.6,0-17.1,0-25.7,0c-0.7,0-1.3,0-1.3-1c-0.6,0-1.1,0-1.6,0c-0.7-1.8-2.1-0.5-2.9-0.9
	c-0.5,0.4-0.9,0.8-1.4,1.3c0,0.3,0,0.8,0,1c-0.4,0.5-0.9,0.8-0.9,1.1c0,1.8,0,3.7,0,5.5c0.1,0,0.2-0.1,0.3-0.1
	c0.3,0.3,0.7,0.7,1,1.1c0.7,0.1,2.2-0.1,2.3,0.2c0.4,1.2,1.3,0.6,2,0.8c0.5,0.1,0.9,0.4,1.4,0.6c0,0.1-0.1,0.2-0.1,0.3
	c0.7,0.2,1.8-0.5,1.8,1c1.2,0,2.4,0,3.5,0c0.7,1.9,2.3,0.4,3.2,1.2c0.3,0.3,0.6,0.5,1,0.7c0.5,0.2,0.9,0.4,1.4,0.6
	c0,0.1-0.1,0.2-0.1,0.3c0.6,0.2,1.8-0.4,1.8,1c0.6,0,1.1,0,1.5,0c0.5,0.6,1,1.2,1.6,1.9c1.3,0,2.8-0.1,4.3,0c0.5,0,0.9,0.3,1.4,0.5
	c0,0.1-0.1,0.3-0.1,0.4c0.6,0,1.2,0,1.7,0c0.9,1.1,1.6,2.1,2.5,3.1c0.5,0.1,1,0.1,1.3,0.1c0.3,0.4,0.6,0.6,0.8,0.9
	c0.2,0.3,0.5,0.6,0.8,1c0.3,0,0.9,0,1.1,0c0.5,0.5,0.9,0.9,1.4,1.4c0,0.3,0,0.8,0,1.2c0.7,0.6,1.2,1.1,1.9,1.6c0,1.1-0.1,2.2,0,3.4
	c0.1,0.5,0.4,0.9,0.6,1.4c0.1,0,0.2-0.1,0.3-0.1c0,2.2,0,4.4,0,6.5c0.7,0.5,1.4,1,2.1,1.5c0.2,0.7-0.4,1.7,1,1.8c0,0.6,0,1.1,0,1.6
	c0.1,0,0.2-0.1,0.3-0.1c0.2,0.4,0.5,0.9,0.6,1.3c0.1,0.6,0,1.2,0,1.8c0.2,0,0.3-0.1,0.4-0.1c0.2,0.4,0.4,0.7,0.6,1.1
	c0.2,0.5,0.4,0.9,0.6,1.4c0.2,0,0.3-0.1,0.4-0.1c0,1,0,1.9,0,2.5c0.6,0.5,0.9,0.9,1.4,1.4c1.6,0,3.5,0,5,0
	c3.8-3.8,7.5-7.5,11.3-11.3c0-0.2,0-0.7,0-1.2c1.9-0.5,0.5-2.1,1.2-2.9c0.5-0.5,1.1-0.9,1.7-1.5c0-7.2,0-14.6,0-22
	c0-0.5,0.3-0.9,0.5-1.4c0.1,0,0.3,0.1,0.4,0.1c0-2.8,0-5.6,0-8.3c0.7-0.6,1.3-1.1,2-1.7c0-1,0-2.2,0-3.5c3.3,0,6.5,0,9.7,0
	c0.3,0,0.9,0,0.9-0.1c0.1-1.3,1.3-0.6,1.9-0.9c0.5-1.7,2-0.4,2.8-1.1c0.5-0.3,0.9-0.5,1.4-0.7c0.3-0.1,0.7-0.2,1-0.4
	c0.3-0.1,0.6-0.5,0.9-0.5c0.6-0.1,1.2,0,1.8,0c0.7,0,1.3,0,1.3-1c1.3,0,2.4,0,3.6,0c0-0.1-0.1-0.3-0.1-0.4c0.5-0.2,0.9-0.6,1.4-0.6
	c1.2-0.1,2.4,0,3.3,0c0.4-0.4,0.7-0.6,0.9-0.9s0.5-0.6,0.8-1c2,0,4.1,0,6.2,0c0.8,0,1.7,0.1,1.4-1.2c1.3,0,2.5,0,3.7,0
	c0-0.1-0.1-0.3-0.1-0.4c0.4-0.1,0.8-0.3,1.2-0.5c0.5-0.2,0.9-0.5,1.3-0.7c1.1-0.3,2.4-0.2,3.6-0.3c0.5-0.1,0.9-0.4,1.4-0.6
	c0-0.2-0.1-0.3-0.1-0.4c0.5,0,1,0,1.5,0c0-0.1-0.1-0.2-0.1-0.3c0.5-0.2,0.9-0.6,1.3-0.6c0.7-0.1,1.8-0.5,1.8,0.9c1.6,0,3.2,0,4.6,0
	c1.2,1.4,2.1,2.7,0.3,4.3c0,7,0,14.2,0,21.4c0,0.4,0.5,0.7,0.7,1.1c0.1,0,0.1-0.1,0.2-0.1c0,2.4,0,4.9,0,7.3c-0.1,0-0.2-0.1-0.3-0.1
	c-0.1,0.5-0.4,0.9-0.5,1.4s0,1.1,0,1.6c0,3,0,6,0,8.6c-0.9,0.7-1.5,1.2-2.2,1.7c0,0.5,0,1,0,1.5c-0.1,0-0.3-0.1-0.4-0.1
	c-0.1,0.5-0.5,0.9-0.5,1.4c0,3.6,0,7.3,0,11c0,1.8,0,3.7,0,5.5c0.2,0,0.4,0,0.5,0.1c0.9,0.8,1.7,1.7,2.6,2.5c0.5,0.5,1,1.3,1.6,1.3
	c5.3,0.1,10.6,0.1,15.7,0.1c0.9-1,1.8-1.9,2.7-2.9c1,0,2.1,0,3,0c0.9-0.8,1.6-1.5,2.4-2.3c0-0.3,0-0.8,0-1.5c1.3,0.3,1-0.5,1-1.2
	c0-2.6,0.1-5.2,0-7.8c0-0.5-0.4-0.9-0.6-1.4c-0.1,0-0.2,0.1-0.3,0.1c-0.1-1.5-0.1-1.5-1-1.9c0-0.5,0-1,0-1.6
	c-1.7,0.1-0.6-1.3-1.2-1.8c-0.4-0.3-0.7-0.7-0.7-1.1c-0.1-1,0-2-0.1-3c-0.1-0.5-0.4-0.9-0.6-1.4c-0.1,0-0.2,0.1-0.3,0.1
	c0-6.7,0-13.4,0-20.1c0-0.3,0.5-0.7,0.9-1.3c0.1-1.4,0.1-1.4-0.9-1.8c0-4.3,0-8.6,0-13c0.1,0,0.2,0.1,0.3,0.1
	c0.2-0.5,0.6-0.9,0.6-1.4c0-2.3,0-4.5,0-6.4c0.5-0.5,0.9-0.9,1.4-1.4c0.6,0,1.4,0,2.4,0c-0.2-1.2,0.6-0.9,1.2-0.9
	c11,0,21.9,0,32.9,0c0.7,0,1.3-0.1,1.3-1c3.1,0,6.2,0,9.1,0c0.4-0.4,0.6-0.6,0.9-0.9c0.2,0.3,0.4,0.6,0.6,0.9c3.2,0.2,4.4-0.2,5-1.9
	c0.8,0,1.6,0,2.2,0c0.5-0.6,0.9-0.9,1.4-1.4c0-3.3,0-6.9,0-10.4C283.8,180.5,283.4,180.4,283.2,180.2z M74.8,168.3
	c0,1.9,0,3.8,0,5.4c-0.5,0.5-0.9,0.9-1.4,1.4c-1.4-0.1-3-0.1-3.8,1.9c-1.5,0-3,0-4.5,0c0,0.1,0.1,0.3,0.1,0.4
	c-0.5,0.2-0.9,0.5-1.4,0.6c-0.6,0.1-1.2,0-1.8,0c-0.3,0-0.5-0.2-0.7-0.3c-0.2-0.2-0.5-0.5-0.7-0.7c-0.2,0.3-0.5,0.6-0.8,1
	c-0.8,0-1.8-0.1-2.8,0c-1.4,0.2-1.9-0.8-2.6-1.6c-0.1-0.2-0.5-0.3-0.9-0.6c0-0.4,0-1,0-1.6c0-0.2-0.1-0.3,0-0.4
	c0.3-0.5,0.8-0.9,0.9-1.3c0-0.3-0.5-0.7-0.9-1c-1.8-1.4-0.8-3.3-0.9-4.9c-0.1-3.9,0-7.9,0-11.6c0.8-0.8,1.5-1.4,2.4-2.3
	c0.3,0,0.8,0,1.3,0c0-0.1-0.1-0.3-0.1-0.4c0.5-0.2,0.9-0.6,1.4-0.6c1.8-0.1,3.7-0.1,5.6,0c1.3,0,1.5-1.2,2.2-1.9c0.5,0,0.9,0,1.3,0
	c0.5,0.6,1,1.1,1.5,2c0.6,0.5,2.2-0.9,2.7,1c0.6,0,1.2,0,1.5,0c0.9,0.8,1.6,1.5,2.4,2.3c0,3.9,0,8,0,12.1c0.4,0.1,0.7,0.2,1.3,0.5
	C75.5,168,75.2,168.1,74.8,168.3z M77.4,132.7c-1.4,0-0.8,1.1-0.9,1.6c-0.5,0.5-0.9,0.8-1.5,1.4c-0.4,0-1.2,0-2,0
	c-0.6,0.1-1.4-0.3-1.6,0.8c0,0.1-0.4,0.2-0.7,0.2c-0.6,0-1.3-0.1-2,0c-0.5,0.1-0.9,0.4-1.3,0.6c0,0.2,0.1,0.3,0.1,0.4
	c-0.5,0-1,0-1.5,0c0,0.1,0.1,0.3,0.1,0.4c-0.5,0.2-0.9,0.6-1.4,0.6c-2.8,0-5.6,0-8.2,0c-0.5-0.7-1-1.6-1.6-1.8
	c-0.7-0.3-0.6-0.7-0.6-1.2c0-1.5,0-3,0-4.4c-0.6-0.6-1.2-1.1-1.9-1.7c0-4.3,0-8.8,0-13.4c0-0.8,0.5-1.8-0.8-2
	c-0.1,0-0.2-0.5-0.2-0.6c-1-0.7-2.5,0.7-3-1.1c-0.5,0-1.1,0-1.6,0c0-0.1,0.1-0.2,0.1-0.3c-0.4-0.4-1.1-0.6-1.2-1
	c-0.5-1.4-1.6-0.7-2.5-0.9c-0.2-0.1-0.4-0.2-0.6-0.4c-0.2-0.2-0.5-0.5-0.9-0.9c0-0.5,0-1.3,0-1.9c0.4-0.4,0.7-0.7,1-1
	c0.2-0.2,0.5-0.3,0.8-0.3c7.4,0,14.8,0,22.2,0c-0.2,0.2-0.4,0.5-0.6,0.8c0.4,0.4,0.7,0.7,0.6,1.1c0.3-0.3,0.6-0.5,0.9-0.8
	c0,0.9-0.1,1.8,0,2.7c0.1,0.7-0.7,1.8,0.9,2c0.1,0.5,0.1,1,0.1,1.5c3.3,3.2,6.5,6.3,9.8,9.6C77.4,125.8,77.4,129.2,77.4,132.7z
	 M82.7,79.9c-1.8,1.1-0.4,2.9-1,4c-2.1,2.1-4,4-6.2,6.2c-0.2,0-0.7,0-1.2,0c0,0.2,0.1,0.3,0.1,0.4c-0.5,0.2-0.9,0.4-1.4,0.6
	c-0.4,0.2-0.7,0.4-1.1,0.6c-0.2,0.1-0.4,0.3-0.6,0.3c-1.9,0-3.8,0-5.5,0c-0.4-0.4-0.6-0.7-0.9-1c-0.3,0.2-0.5,0.5-0.8,0.7
	c-0.2,0.1-0.5,0.2-0.8,0.2c-1.4,0-2.7-0.1-4.1,0c-0.4,0-0.7,0.4-1.1,0.6c-0.2,0.1-0.4,0.3-0.7,0.3c-1.2,0-2.4,0.1-3.6,0
	c-1.3-0.1-1.7,0.9-2.4,1.5c-0.1,0.1-0.2,0.3-0.3,0.4c-0.1-0.1-0.3-0.2-0.4-0.3c-0.3-0.3-0.6-0.6-1-1.1c0-0.6,0-1.4,0-2.1
	c-0.6-0.5-1.2-1-1.9-1.6c0-0.3,0-0.8,0-1.4c-0.4-0.2-0.7-0.3-0.8-0.3c0.3-0.8,0.4-1.5,0.8-2.1c0.5-0.7,1.2-1.2,1.9-2
	c0-0.6,0-1.4,0-2c5.8-5.7,11.4-11.3,17.1-17c4.7,0,9.7,0,14.4,0c0.5,0.5,0.8,0.8,1.5,1.4C82.7,70.7,82.7,75.3,82.7,79.9z
	 M93.1,105.6c-0.8,0-1.9,0.2-2.8-0.1c-0.8-0.2-1.4-1-2-1.8c-0.5,0-1,0-1.5,0c-0.5-1.9-2.1-0.5-3-1.2c0-0.4,0-0.9,0-1.5
	c0.5,0,0.9,0,1.4,0c9,0,18,0.1,27,0c1.3,0,1.8,0.7,2.5,1.4c0.6,0.5,1.3,1.1,2.1,1.8c0,0.6,0,1.4,0,2.5c-0.3,0.1-0.6,0-0.8,0.2
	c-0.5,0.4-1.1,0.8-1.3,1.3c-0.3,0.7-0.1,1.6-0.1,2.2c0.8,0.6,1.4,1.1,2.1,1.6c0,4.3,0,8.6,0,12.8c-0.9,0.8-1.6,1.5-2.4,2.2
	c-0.5,0.5-1.7-0.3-1.7,1.2c-0.6,0-1.1,0-1.6,0c0,0.2,0.1,0.3,0.1,0.4c-0.5,0.2-0.9,0.6-1.4,0.6c-2.4,0-4.9,0-7.4,0
	c-0.5,0-1,0.2-1.2-0.6c-0.1-0.3-1.1-0.3-1.8-0.5c0-0.3,0-0.8,0-1.2c0-4.4,0-8.8,0-13.2c0-0.5,0.2-1-0.6-1.2
	c-0.3-0.1-0.3-1.2-0.4-1.7C96.6,109.1,95,107.5,93.1,105.6z M116.9,157.9c-2.2,2.1-4.3,4-6.3,6c0,0.1,0.1,0.1,0.1,0.2
	c-0.6,0-1.1,0-1.4-0.2c-0.9,1-1.7,1.9-2.7,2.9c-0.3,0-0.9,0-1.5,0c-0.3,0-0.5-0.2-0.7-0.3c-0.3-0.1-0.5-0.4-0.8-0.6
	c-0.2,0.3-0.3,0.6-0.6,1c-1.5,0-3.2,0.1-4.8,0c-0.3,0-0.6-0.4-0.8-0.9c-0.5-0.1-1-0.1-1.4-0.1c-0.4-0.4-0.8-0.8-1.1-1.2
	c0,0-0.1,0.1-0.2,0.1c0-1.9,0-3.8,0-5.7c0-0.1,0-0.5,0.1-0.5c1.3-0.2,0.8-1.2,0.8-1.9c0-2.6,0-5.3,0-7.9c0-0.5-0.2-1,0.6-1.2
	c0.2-0.1,0.3-1,0.4-1.5c0.7-0.7,1.4-1.3,2.3-2.2c4.9,0,10,0,15.2,0c0.2,0,0.5,0,0.5,0.1c0.3,1.3,1.5,0.8,2.3,1
	C116.9,149.4,116.9,153.8,116.9,157.9z M204.7,182.6c0,0.7,0,1.2,0,1.4c-0.9,0.9-1.5,1.6-2.2,2.3c-0.4,0.9-1.9-0.5-2,1.3
	c-0.9,0-1.7,0-2.6,0c-0.4,1.1-1.5,1.9-2.6,2.1c-1.2,0-2.5,0-3.7,0c-0.6,0-1.4,0.4-1.4-0.7c-0.8,0-1.1-0.7-1.5-1.2
	c-0.5-0.6-1.3-0.9-1.6-1.8c-0.2-0.6-1.1-1-1.8-1.6c0-6.2,0-12.4,0-18.7c0.1,0,0.2,0.1,0.3,0.1c0.2-0.5,0.5-0.9,0.6-1.4
	c0.1-1,0-1.9,0.1-2.8c0-0.4,0.3-0.8,0.5-1.2c0.1,0,0.3,0.1,0.4,0.1c0-0.5,0-1.1,0-1.5c1.5-1.4,3-2.8,4.6-4.4c0.9,0,2,0,3.1,0
	c0.9-1.8,2.5-0.5,3.6-1c0.5,1.9,2,0.6,3,1.2c0.1,0.4,0.3,1.1,1.3,0.7c0,1.1,0,2,0,2.8c0.6,0.5,1.2,1,1.9,1.6c0,0.4,0,0.9,0,1.5
	c0.9,0,1,0.5,1,1.3c0,6.3,0,12.5,0,18.8C205.7,182.1,205.9,182.9,204.7,182.6z"/>
</svg>
