<?xml version="1.0" encoding="utf-8"?>
<!-- Generator: Adobe Illustrator 24.3.0, SVG Export Plug-In . SVG Version: 6.00 Build 0)  -->
<svg version="1.1" id="レイヤー_1" xmlns="http://www.w3.org/2000/svg" xmlns:xlink="http://www.w3.org/1999/xlink" x="0px"
	 y="0px" viewBox="0 0 300 300" style="enable-background:new 0 0 300 300;" xml:space="preserve">
<g>
	<path d="M276.3,48.5c-0.1-0.5-0.1-1-0.1-1.4c-0.8-0.2-1.3-0.3-1.9-0.5c-0.4-0.1-0.8-0.5-1.2-0.6c-0.6-0.1-1.2,0-1.5,0
		c-2.3-2.3-4.4-4.4-6.7-6.7c-0.2-0.1-0.8-0.1-1.2-0.1c-0.7-1.6-2.1-0.4-2.9-1.1c-0.5-0.4-1-0.8-1.4-1.2c-0.6-0.5-1.2-1.1-1.7-1.7
		c-0.5-0.6-0.9-1.2-1.5-1.9c-2.6,0-5.2,0-7.9,0c-0.3,0-0.6,0.1-0.7,0.3c-0.4,0.5-0.7,1.1-1.2,1.5c-0.8,0.8-2,1.3-2.5,2.2
		s-1.3,1.4-2,2c-0.6,0.5-1,1.2-1.5,1.9c-2.7,0-5.5,0-8.3,0c-0.4,0-1,0.1-1,0.2c0,1.1-0.9,0.7-1.4,0.7c-0.6,0-1.3,0-2,0
		c-0.2,0-0.6,0.1-0.6,0.2c-0.1,1.2-0.9,0.8-1.5,0.8c-1,0-2.1-0.1-3.2,0c-0.5,0.1-0.9,0.4-1.4,0.6c0,0.2,0.1,0.3,0.1,0.4
		c-1.8,0-3.7,0-5.6,0c-0.4,0-1,0-1,0.2c-0.2,0.9-0.9,0.7-1.5,0.7c-1.2,0-2.3-0.1-3.4,0c-0.5,0-0.9,0.4-1.4,0.6
		c0,0.2,0.1,0.3,0.1,0.4c-7,0-14,0-20.9,0c-0.3,0.3-0.5,0.7-0.7,0.9c-0.1,0-0.5-0.1-0.5-0.2c0-1.2-0.9-0.8-1.4-0.8
		c-5.1,0-10.1,0-15,0c-0.3-0.4-0.5-0.7-0.7-1s-0.5-0.6-0.8-0.9c-3,0-6.2,0-9,0c-1.3,1.2-2.4,2.1-3.6,3.2c0,1,0,2.3,0,3.2
		c1.9,1.8,3.7,3.5,5.4,5.2c0,0.1-0.1,0.2-0.2,0.3c0.6,0,1.1,0.1,1.7,0.1c0,1.6,1.2,0.6,1.7,1.1c1.9,1.9,3.9,3.9,6,6
		c0.4,0.7-0.9,2.2,0.9,2.6c0,0.2,0,0.4,0,0.6c0,26.6,0,53.3,0,79.9c0,0.5-0.4,0.9-0.6,1.4c-0.2,0-0.3-0.1-0.4-0.1
		c0,0.7,0.1,1.4,0,2.1c-0.3,1.3,0.7,2.8-0.9,3.8c-0.2,0.1-0.1,0.5-0.1,0.7c0,0.6-0.1,1.2,0,1.8c0.1,0.8-0.1,1.3-0.8,1.3
		c-0.6,1,0.7,2.5-1.1,3c0,0.5,0,1.1,0,1.7c-1.7-0.1-0.7,1.2-1.1,1.9c-1.4,0-0.6,1.2-0.8,1.7c-0.8,0.7-1.3,1.1-2,1.7
		c0,0.7,0,1.6,0,2.5c-1.7,0.1-0.6,1.4-1.1,2c-0.6,0.5-1.2,0.9-1.8,1.5c0,0.8,0,1.6,0,2.2c-0.7,0.6-1.2,1-1.9,1.6c0,0.4,0,0.9,0,1.4
		c-0.2,0-0.3-0.1-0.4-0.1c-0.2,0.5-0.6,0.9-0.6,1.4c-0.1,1.2,0,2.4,0,3.1c-1.5,1.6-2.7,2.8-4.1,4.2c0,0.4,0,0.9,0,1.3
		c-1.6,0.6-0.4,2.1-0.8,2.7c-0.8,0.7-1.4,1.2-2,1.7c-0.1,0.4-0.1,1-0.1,1.5c-1.6,0-0.6,1.3-1.1,1.8c-0.6,0.5-1.1,0.9-1.8,1.5
		c0,0.7,0,1.5,0,2.4c-1.6,0.1-0.5,1.5-1.1,2c-1.1,1.1-2.3,2.2-3.6,3.5c0,0.3-0.1,0.9-0.1,1.4c-0.4,0.1-0.8,0.1-1.1,0.2
		c-0.1,0.6-0.1,1.2-0.1,1.5c-0.7,0.6-1.2,1-1.9,1.6c0,0.4,0,0.9,0,1.2c-1.1,1.2-2.2,2.2-3.3,3.3c-1.3-0.6-1.5,1.1-2.4,1.6
		c-0.7,0.5-1.2,1.3-1.9,2.1c-0.1,0.3-0.1,0.8-0.1,1.4c-0.7,0-1.2,0.1-1.7,0.1c-0.1,0.4-0.2,0.7-0.4,0.9c-0.5,0.5-1.1,0.8-1.6,1.2
		c-0.5,0.5-0.9,1.2-1.4,1.7c-0.3,0.4-0.8,0.7-1.2,1.1c-0.5,0.5-1,0.9-1.5,1.3c-0.5,0.5-1.1,1-1.6,1.6c-0.5,0.4-0.9,0.9-1.3,1.3
		c-0.6,0.6-1.2,1.2-1.7,1.8s-1,1.2-1.5,1.9c-0.4,0-0.9,0-1.2,0c-4,3.8-7.8,7.6-11.8,11.5c-0.2,0-0.7,0-1,0c-0.4,0.6-0.8,1.1-1.3,1.7
		c0,0.7,0,1.7,0,2.7c0,0.3,0,0.7,0.1,0.7c1.4,0.2,0.7,1.3,1,1.8c0.9,1.6,2.4,1.3,3.7,1.2c1-1.9,2.7-0.4,4-1.2
		c-0.1-1,0.7-0.7,1.4-0.7c1.2,0,2.3-0.7,2.7-1.9c2,0.3,3.6-0.7,5-2.2c0.5,0,1,0,1.5,0c0.7-1.2,1.5-2.2,2.7-2
		c0.8-0.7,1.4-1.3,1.9-1.9c0.6-0.7,1.3-1.2,2.2-1.1c0.7-0.6,1.5-1.2,2.3-1.7c0.4-0.3,0.9-0.4,1.4-0.6c0-0.2-0.1-0.3-0.1-0.4
		c0.5,0,1,0,1.3,0c0.9-1,1.7-1.9,2.7-2.9c0.3,0,0.8,0,1.1,0c1.9-2,3.7-3.9,5.6-6c0.4,0,1,0,1.3,0c1.1-1.1,2-2,2.9-2.9
		s1.8-1.8,2.8-2.9c0.3,0,0.8,0,1.1,0c0.6-0.7,1.1-1.3,1.6-1.9c0.4,0,0.9,0,1.4,0c0.3-0.9,0.3-0.9,1.8-1.1c0.6-0.6,1-1.2,1.6-1.8
		c0.6-0.2,1.6,0.4,2-0.9c0.2-0.6,1.1-1,1.7-1.6c0.1-0.4,0.1-0.9,0.1-1.5c0.6-0.1,1.2-0.1,1.4-0.1c2.5-2.5,4.8-4.8,7.2-7.2
		c0.1-0.4-0.6-1.5,0.9-1.5c0-1,0-1.8,0-2.8c1.2,0.4,0.9-0.5,1.2-0.9c0.9-0.8,1.8-1.6,2.9-2.5c0-0.4,0-1,0-1.5c0.1,0,0.3,0.1,0.4,0.1
		c0.2-0.4,0.4-0.8,0.5-1.2c0-0.6-0.1-1.2,0-1.8c0.1-0.5,0.4-0.9,0.6-1.4c0.1,0,0.2,0.1,0.3,0.1c0-0.5,0-1,0-1.4
		c0.6-0.6,1.2-1,1.9-1.6c0-1.8,0-3.7,0-5.4c0.7-0.6,1.3-1.1,1.9-1.6c0-0.5,0-1,0-1.6c1.3,0.3,1-0.5,1-1.2c0-0.8-0.1-1.7,0-2.5
		c0.1-0.5,0.4-0.9,0.6-1.4c0.1,0,0.2,0.1,0.3,0.1c0-0.5,0-1.1,0-1.3c0.5-0.5,0.9-0.9,1.4-1.4c0.3,0,0.9,0,1.1,0c1.1-1.1,2-2,3-3.1
		c10.4,0,21,0,31.3,0c1-1,1.8-1.9,2.7-2.8c4.8,0,9.8,0,14.5,0c1.2,1.2,2.2,2.2,3.2,3.2c0.1,0.5,0.1,1.5,0.4,1.6
		c0.8,0.3,0.7,0.8,0.7,1.4c0,5.8,0,11.6,0,17.4c0,0.5,0,0.9,0,1.4c-0.1,0-0.3-0.1-0.4-0.1c-0.2,0.4-0.5,0.8-0.5,1.2c0,1.4,0,2.7,0,4
		c0,0.3-0.2,0.8-0.3,0.8c-0.8,0.2-0.7,0.8-0.7,1.3c0,1.5,0,3.1,0,4.5c-1.9,0.9-0.4,2.7-1.2,3.8c-0.3,0.5-0.6,0.9-0.7,1.4
		c-0.1,0.5-0.1,1.1,0,1.6c0.1,0.8-0.1,1.3-1,1.3c0,0.7,0,1.3,0,1.6c-0.6,0.5-0.9,0.9-1.4,1.4c-0.3,0-0.8,0-1.5,0
		c0.3,1-0.4,0.9-1,0.9c-0.8,0-1.6,0-2.4,0c-6.3,0-12.5,0-18.8,0c-0.1-0.3,0-0.7-0.2-0.8c-0.9-0.5-1.6-1.1-2-2.1
		c0-0.1-0.3-0.2-0.4-0.2c-0.2,0-0.3,0-0.4,0c-5.9,0-11.7,0-17.2,0c-1,1-1.7,1.8-1.5,2.8c0,1.5,0,3,0,4.5c1,0.6,2.5-0.6,3,1.1
		c0.5,0,1.1,0.1,1.6,0.1c0,0.1-0.1,0.2-0.1,0.3c0.4,0.2,0.7,0.4,1.1,0.6c0.5,0.2,0.9,0.4,1.4,0.6c0,0.1-0.1,0.2-0.1,0.3
		c0.7,0.2,1.8-0.4,1.8,1c1.4,0,2.6,0,3.7,0c0.5,0.6,1,1.2,1.6,1.9c0.4,0,0.9,0,1.4,0c0.5,1.8,2,0.5,2.9,1.1c0.1,0.2,0.2,0.6,0.4,0.8
		c0.5,0.5,1.1,0.8,1.6,1.2c0.4,0.3,0.8,0.7,1,1.1c0.6,1.2,1.3,2,2.8,1.8c1.1-0.1,1.4,1,2.2,1.4c0.6,0.3,1.1,1,1.6,1.5
		c0.6,0.5,1.1,1.2,1.7,1.9c0.7,0,1.6,0,2.4,0c0.2,0.8,0.2,0.8,1.6,1c0.5,0.4,0.7,0.6,1,0.9c0.4,0.4,0.9,0.8,1.3,1.3
		c0.7,0.9,1.2,1.9,2.6,1.6c0.4-0.1,0.9,0,1.4,0c0.1,0.7,0.1,1.3,0.1,1.6c0.7,0.6,1.2,1.1,1.9,1.7c0,0.4,0,1,0,1.4
		c0.7,0.6,1.2,1.1,1.9,1.7c0,0.4,0,0.9,0,1.2c1,0.9,1.9,1.8,2.9,2.7c0.1,0.4-0.6,1.6,0.9,1.6c0,0.6,0,1.1,0,1.6
		c1.9,0.5,0.5,2.1,1.2,2.9c0.3,0.3,0.5,0.6,0.7,1c0.2,0.5,0.4,0.9,0.6,1.4c0.3,0.5,0.2,1.4,0.6,1.7c0.9,0.8,1.9,1.5,1.6,3
		c7,0,13.8,0,20.4,0c0.6-0.5,0.9-0.9,1.4-1.3c0.2-0.6-0.5-1.7,1-1.7c0-1.3,0-2.5,0-3.5c0.6-0.5,0.9-0.9,1.4-1.4
		c0.3-0.1,0.8-0.1,1.3-0.1c0.7-1-0.7-2.6,1.1-3.1c0-0.2,0-0.3,0-0.4c0-10.2,0-20.5,0-30.8c0-0.4-0.4-0.9-0.6-1.3
		c-0.1,0-0.2,0.1-0.3,0.1c0-0.4,0-0.9,0-1.3c0-7.6,0-15.1,0-22.6c0-0.6-0.4-1.1-0.6-1.7c-0.2,0-0.3,0.1-0.4,0.1c0-0.4,0-0.9,0-1.3
		c0-8.2,0-16.3,0-24.4c0-0.5-0.2-1-0.4-1.4c-0.1-0.4-0.5-0.7-0.5-1c0-2.6,0.1-5.1,0-7.6c0-0.5-0.3-0.9-0.5-1.4
		c-0.2,0-0.3,0.1-0.4,0.1c0-0.2,0-0.5,0-0.8c0-25.9,0-51.8,0-77.7c0-0.5,0.4-1,0.6-1.5c0.1,0,0.2,0.1,0.3,0.1c0-0.8,0-1.6,0-2.5
		c1.2,0,0.9-0.9,0.9-1.6c0-0.8-0.3-1.7,0.9-1.6c0.2-0.8-0.5-1.9,1-1.9c0-0.6,0-1.1,0-1.7c1.7-0.2,0.7-1.5,0.9-1.9
		c0.8-0.7,1.4-1.2,2-1.7c0-0.4,0-0.9,0-1.3c0.6-0.5,1.2-1,1.9-1.6c0-0.7,0-1.6,0-2c1.8-1.7,3.4-3.2,5-4.8c0-2.7,0-5.6,0-8.4
		C277.5,49.5,276.9,49,276.3,48.5z M194.4,66.2c0-0.4,0-0.8,0-1.2c1.8-0.5,0.6-2,0.9-2.6c1.2-1.2,2.2-2.2,3.4-3.4c1.9,0,4.1,0,6.3,0
		c0.5-1.8,2-0.6,2.8-1.2c0.4-0.3,0.8-0.7,1.2-0.7c9.3,0,18.7,0,27.9,0c0.6,0.7,1,1.3,1.4,1.8c0.5,0.6,1,1.4,1.7,1.7
		c1.6,0.7,0.9,1.9,0.9,2.8c0,10,0,20.1,0,30.1c0,0.6,0.2,1.3-0.7,1.4c-0.1,0-0.2,0.2-0.2,0.2c0.3,1.2-1.1,1.7-1.2,2.8
		c-3.5,0-6.9,0-10.4,0c-0.7,0-1.4-0.1-1.3,1c-1.6,0-3,0-4.5,0c0,0.2,0.1,0.3,0.1,0.4c-0.5,0.2-0.9,0.6-1.4,0.6c-1.4,0-2.9,0-4.4,0
		c0,0.1,0.1,0.2,0.1,0.3c-0.5,0.2-0.9,0.6-1.4,0.6c-2.2,0-4.4,0-6.6,0c-0.7,0-1.3,0.1-1.3,1c-3.5,0-6.9,0-10.3,0
		c-0.5-0.6,0.5-2-1.1-2c0-0.6,0-1.1,0-1.6c-0.9-0.4-1.9-1.7-1.9-2.7C194.4,85.7,194.4,76,194.4,66.2z M243.1,140.4
		c-1.2,0.1-1.2,0.8-1.2,1.8c0,1.8,0,3.5,0,4.9c-0.8,0.9-1.5,1.6-2.3,2.4c-0.3,0-0.8,0-1.3,0c0,0.1,0.1,0.2,0.1,0.3
		c-0.5,0.2-0.9,0.5-1.4,0.6c-0.6,0.1-1.2-0.1-1.8,0c-0.4,0.1-0.8,0.4-1.1,0.7c-0.8,0.7-2.4-0.6-2.9,1.2c-0.5,0-1,0-1.5,0
		c0,0.2,0.1,0.3,0.1,0.4c-0.5,0.2-0.9,0.5-1.4,0.6c-0.7,0.2-1.7-0.5-2.2,0.8c-0.1,0.4-1.6,0.1-2.5,0.2c-0.5,0-0.9,0.3-1.4,0.5
		c0,0.1,0.1,0.3,0.1,0.4c-1.2,0-2.3,0-3.5,0c0,0.2,0.1,0.3,0.1,0.4c-0.5,0.2-0.9,0.6-1.4,0.6c-7,0-14.1,0-21.1,0
		c-0.6,0-1.3,0.1-1.1-1c-1.3,0-2.5,0-3.5,0c-0.8-0.9-1.5-1.6-2.3-2.4c0-4.1,0-8.5,0-12.9c0-3.2,0-6.3,0-9.5c0-0.5-0.2-1.1,0.6-1.3
		c0.2,0,0.3-0.5,0.3-0.8c0-1-0.1-2,0-3c0.1-0.5,0.4-0.9,0.6-1.4c0.2,0,0.3,0.1,0.4,0.1c0-1.4,0-2.9,0-4.1c1.5-1.5,2.8-2.8,4.3-4.3
		c1.2,0,2.6,0,4.1,0c0,0.1-0.1,0.2-0.1,0.3c0.5,0.2,0.9,0.6,1.4,0.6c1.8,0.1,3.7,0,5.5-0.2c0.4-0.2,0.8-0.7,1.2-0.7
		c10.3,0,20.5,0,30.7,0c0.4,0.4,0.8,0.8,1.1,1.2c0.6,0.5-0.5,1.9,1.2,1.8c0,1.3,0,2.4,0,3.6c0.2,0,0.3-0.1,0.4-0.1
		c0.2,0.5,0.6,0.9,0.6,1.4c0.1,1.1,0,2.3,0,3.5c0.4,0,0.8,0.1,1.2,0.2C243.1,131.6,243.1,136,243.1,140.4z"/>
	<path d="M103.5,177.8c0.6,0.7,1,1.2,1.6,1.9c0.7,0,1.6,0,2.1,0c1.2,1.2,2.2,2.2,3.3,3.3c0,0.3,0,0.8,0,1.3c0.1,0,0.2-0.1,0.3-0.1
		c0.2,0.4,0.5,0.8,0.7,1.2c0.2,0.5,0.4,0.9,0.6,1.4c0.3,0.6,0.5,1.2,0.7,1.8c0.2,0.3,0.5,0.6,0.6,1c0.1,0.6,0,1.3,0,1.9
		c0,1.5,0.7,2.6,2.1,3.1c0,0.5,0,1,0,1.3c0.5,0.5,0.9,0.9,1.4,1.4c0.3,0,0.9,0.1,1.3,0.1c0.7,1-0.7,2.5,1.1,3c0,0.5,0.1,1.1,0.1,1.7
		c0.9,0,1.8,0,2.8,0c-0.3,1.8,1.2,0.9,1.9,1.3c0,0.6,0.1,1.2,0.1,1.8c2.3-0.3,2.9,1.9,4.8,2.9c0.7,0,2,0.1,3.2,0
		c0.5-0.1,0.9-0.4,1.4-0.6c0-0.1-0.1-0.2-0.1-0.3c0.5-0.1,1.1-0.1,1.3-0.1c0.6-0.5,0.9-0.8,1.4-1.3c0-0.3,0-0.8,0-1
		c0.4-0.5,0.9-0.8,0.9-1.1c0-2.8,0-5.6,0-8.1c-0.7-0.6-1.3-1.1-1.9-1.7c0-0.3,0-0.8,0-1.2c0-16.2,0-32.5,0-48.7
		c0-0.6-0.4-1.1-0.6-1.7c-0.1,0-0.2,0.1-0.3,0.1c-0.1-0.7,0.4-1.6-0.8-2.1c-0.3-0.1-1.2-0.7-1.2-1.8c0.1-14.5,0.1-28.9,0.1-43.4
		c0-0.5,0.4-0.9,0.6-1.4c0.1,0.1,0.3,0.1,0.4,0.1c-0.5-1,0.7-2.4-1-3.1c0-0.1,0-0.3,0-0.5c0-4.8,0-9.6,0-14.2
		c1.6-1.6,3.2-3.1,4.8-4.7c0-0.6,0-1.6,0-2.2c1.6-1.7,3.1-3.2,4.7-4.7c0-0.4,0.1-0.9,0.1-1.5c0.6,0,1.2-0.1,1.7-0.1
		c0.2-0.5,0.6-0.7,0.9-1c0.1-0.1,0.4-0.4,0.4-0.6c0-2.1,0-4.1,0-6.2c-0.2,0.1-0.3,0.1-0.4,0.2c-0.3-0.4-0.6-1-1-1.2
		c-0.9-0.4-1.1-1.3-1.7-1.9c-0.4-0.5-0.9-0.9-1.3-1.3c-0.6-0.6-1.2-1.1-2-1.9c-0.6,0-1.4,0-2.1,0c-0.5-0.7-1-1.3-1.5-1.9
		c-0.7-0.2-1.8,0.4-1.8-1c-0.3,0-0.5-0.1-0.7,0c-1.3,0.5-2.6-0.4-3-1.1c-0.6-1.2-1.4-0.8-2.1-0.8c-4-0.1-8.1,0-12.1-0.1
		c-1.6,0-2.4,0.8-3.1,2c-0.8,0-1.6,0-2.2,0c-1,1.1-1.8,1.9-2.7,2.9c-1.6,0-3.4,0-5,0c-0.6,0.7-1.1,1.2-1.6,1.9
		c-1,0.3-2.5-0.6-3.3,1.3c-0.2-0.6-0.3-0.9-0.4-1.2c-0.6,0-1.2,0-1.8,0c0,0.1,0.1,0.2,0.1,0.3c-0.5,0.2-0.9,0.6-1.4,0.6
		c-1.2,0.1-2.4,0-3.6,0.1c-0.5,0-0.9,0.4-1.4,0.6c0,0.1,0.1,0.2,0.1,0.3c-0.8,0.1-2-0.5-1.8,1.2c-3.3,0-6.5,0-9.7,0
		c0,0.1,0.1,0.3,0.1,0.4c-0.4,0.2-0.8,0.5-1.2,0.5c-2.4,0-4.7,0-7,0c-0.3,0-0.9,0.2-0.9,0.3c0,0.9-0.6,0.7-1.1,0.7
		c-1.2,0-2.4-0.1-3.6,0c-0.5,0.1-0.9,0.4-1.4,0.6c0,0.1,0.1,0.2,0.1,0.3c-3.1,0-6.2,0-9.1,0c-0.5-0.7-1-1.3-1.6-1.9
		c-0.6-0.1-1.7,0.5-1.7-1c-4.5,0-9,0-13.2,0c-0.6-0.8-1.1-1.4-1.6-2.1c-0.5-0.1-1-0.1-1.5-0.1c0-0.1,0.1-0.2,0.1-0.3
		c-0.4-0.2-0.9-0.6-1.3-0.6c-2.3-0.1-4.6-0.2-6.9,0c-1,0-2,0.7-2.9,1.1c-0.1,0-0.2,0.3-0.2,0.5c0,2.8,0,5.6,0,8
		c1.7,1.6,3.3,3.1,4.8,4.6c0.1-0.1,0.1-0.1,0.2-0.2c0,0.6,0.1,1.1,0.1,1.7c0.6,0.1,1.2,0.1,1.5,0.1c0.9,1,1.8,1.9,2.7,2.9
		c0.6,0,1.5,0,2.3,0c-0.1,0.2-0.1,0.3,0.1-0.1c2,2,4,4,6.1,6.1c0,1.5-0.1,3.3,0,5.1c0,0.5,0.3,0.9,0.5,1.4c0.1,0,0.2-0.1,0.3-0.1
		c0,0.5,0.1,1.1,0.1,1.6c1.1,0.3,2.1,1.5,2.1,2.6c0,22.4,0,44.8,0,67.2c0,0.4,0,0.8,0,1.2c-0.4,0.2-0.8,0.2-0.9,0.4
		c-0.5,0.9-1.8,1.3-1.4,2.7c0,0-0.6,0.2-0.9,0.4c0,3.8,0,7.5,0,11.2c0,0.3,0,1-0.2,1c-0.9,0.2-0.7,0.8-0.7,1.4c0,1.8,0,3.7,0,5.5
		c-0.1,0-0.3-0.1-0.4-0.1c-0.2,0.4-0.5,0.8-0.5,1.2c-0.1,1,0,1.9-0.1,2.8c-0.1,0.5-0.4,0.9-0.6,1.4c-0.1,0-0.2-0.1-0.3-0.1
		c0,7.6,0,15.2,0,22.8c0,0.4,0.5,0.7,0.7,1.1c0,0,0.1-0.1,0.2-0.1c0,1.8,0,3.6,0,5.3c0.6,0.6,1.4,0.9,1.8,1.5
		c0.8,1.2,1.6,1.9,3.1,1.7c0.4,0,0.9,0.4,1.4,0.6c0,0.2-0.1,0.3-0.1,0.4c0.5,0,1.1,0,1.5,0c0.5,0.7,1,1.4,1.5,2
		c0,0.1,0.3,0.1,0.4,0.1c2.7,0,5.4,0,7.8,0c0.7-0.9,1.2-1.5,1.7-2.2c0.6,0,1.1,0,1.7,0c0.5-1.8,2.1-0.4,2.8-1.1s1.4-1.4,2.2-2.2
		c0-0.2,0-0.7,0-1.4c1.2,0.3,1-0.5,1-1.1c0-1.2,0-2.3,0-3.3c0.7-0.6,1.3-1.1,1.9-1.6c0-2.6,0-5.2,0-7.6c-0.7-0.6-1.3-1.1-1.9-1.6
		c0-2.6,0-5.4,0-7.9c1.2-1.2,2.2-2.2,3.4-3.4c0.9-0.5,2.6,1,3.6-0.9c0.9,0,1.8,0,2.8,0c0-1.5,1.2-0.6,1.8-1.1
		c0.9-1.5,2.6-0.3,3.8-0.9c0.5-1.7,2-0.4,2.8-1.1c0.4-0.3,0.8-0.6,1.3-0.7c0.6-0.1,1.3,0,2,0c0.3,0,0.8-0.1,0.8-0.3
		c0.2-0.7,0.7-0.6,1.2-0.6c0.6,0,1.1,0,1.5,0c0.6-0.7,1-1.3,1.6-1.9c2.9,0,6-0.1,9.1,0c0.5,0,0.9,0.4,1.4,0.6c0,0.2-0.1,0.3-0.1,0.4
		C102.6,177.8,103.1,177.8,103.5,177.8z M95,165.8c-0.3,0-0.7,0.3-1.1,0.5c0.1,0.2,0.1,0.3,0.1,0.5c-0.8,0-1.5,0-2.3,0
		c-0.7,0-1.6-0.3-1.6,0.8c-1.3,0.7-3-0.7-4.1,1.1c-0.6,0-1.4,0-2.2,0c-0.6,0.1-1.4-0.3-1.6,0.8c0,0.1-0.4,0.2-0.7,0.2
		c-1,0-1.9-0.1-2.9,0c-0.5,0.1-0.9,0.4-1.4,0.6c0,0.2,0.1,0.3,0.1,0.4c-1.1,0-2.3,0-3.5,0c-0.1,0.4-0.1,0.7-0.2,1.1
		c-1.4,0-3,0-4.3,0c-0.5-0.6-0.9-1-1.3-1.5c-0.4-0.4-0.8-0.9-1.3-1.5c-0.4,0-1-0.1-1.6-0.1c0-0.6-0.1-1.1-0.1-1.8
		c-0.6,0-1.1-0.1-1.8-0.1c0-0.6-0.1-1.2-0.1-1.7c-0.1,0-0.2,0.1-0.3,0.1c-0.2-0.5-0.5-0.9-0.6-1.4c-0.2-0.7,0.4-1.8-0.9-2
		c-0.1,0-0.1-0.5-0.1-0.8c0-1.8,0-3.7,0-5.6c0-0.6-0.2-1.4,0.9-1.1c0-2.2,0-4.3,0-6.3c0.7-0.5,1.2-1,1.8-1.5
		c0.5-0.5-0.6-1.9,1.1-1.8c0-3.3,0-6.6,0-9.8c0-1.2,0.1-2.5,0-3.8c-0.2-1.5,0.5-2.4,1.7-3.2c0.5-0.3,1-0.7,1.1-1.2
		c0.1-0.9,0.7-0.6,1.2-0.6c6.4,0,12.8,0,19.2,0c0.3,0,0.7,0,0.9,0c0.7-0.9,1.1-2,2.4-1.9c0.2,0,0.6,0,0.6-0.1
		c0.4-1.5,1.6-0.8,2.4-0.8c2.8-0.1,5.6,0,8.1,0c1.2-1.2,2.1-2.2,3.3-3.3c0-1,0-2.2,0-3.4c-0.6-0.4-1.2-0.9-1.9-1.5
		c0-0.4-0.1-1,0-1.6c0.3-1.5-0.4-2.4-1.6-3.2c-1-0.7-1.7-1.7-2.8-2.8c-5.2,0-10.7,0-16.1,0c-1.6,1.6-3,3.1-4.7,4.9c-2.7,0-5.8,0-9,0
		c-0.1-0.4-0.1-0.8-0.1-1.2c0-0.4,0.1-0.8-0.6-1c-0.5-0.1-0.9-0.8-1.3-1.2c-0.9-0.9-1.1-2-0.9-3.2c-0.6-0.6-1.2-1.1-1.9-1.6
		c0-3.6,0-7.3,0-10.9c0.6-0.5,1.2-1,1.9-1.6c0-4.6,0-9.4,0-14.2c1.5,0,0.8-1.1,1-1.7c0.6-0.5,1.2-1,1.9-1.6c0-0.4,0-0.9,0-1.2
		c0.8-0.8,1.5-1.4,2.2-2.1c0.6-0.4,2,0.4,1.9-1.4c2.8,0,5.6,0,8.2,0c0.8-0.9,1.2-2,2.5-2c0.3,0,0.6-0.4,0.9-0.6
		c0-0.1-0.1-0.2-0.1-0.3c1.6,0,3.1,0,4.7,0c0.4-1.2,1.4-1.9,2.7-1.9c0.6,0,1.5,0.2,1.4-1c0.6,0,1.1,0,1.5,0c0.5-0.6,1-1.2,1.6-1.9
		c1.1,0,2.3-0.1,3.6,0c0.4,0.1,0.7,0.4,1.1,0.6c0,0.1-0.1,0.2-0.1,0.3c0.5,0.1,1.1,0.1,1.5,0.1c0.6,0.7,1,1.2,1.6,1.9
		c0.7,0,1.5,0,2.1,0c1.1,1.2,2.1,2.2,3.3,3.4c0,6.1,0,12.6,0,19c0.3,0.2,0.7,0.4,1.3,0.7c-0.7,0.2-1,0.3-1.3,0.4c0,1.2,0,2.5,0,3.8
		c1,0,1,0.6,1,1.3c0,1.8,0,3.5,0,5.3c0,0.7,0,1.3-1,1.3c0,7.8,0,15.5,0.2,22.9c1.8,1,0.6,2.7,1.1,4c-1,0-1.1,0.5-1.1,1.3
		c0,3.2-0.1,6.3,0,9.5c0,0.4,0.3,0.9,0.7,1.3c0.2,0.6,0.5,1.4-0.5,1.7c-0.2,0.1-0.2,0.8-0.2,1.2c0,6.9,0,13.9,0,20.6
		c-0.4,0.6-0.6,1-1,1.3c-0.2,0.2-0.6,0.2-0.9,0.2c-1.5,0-3,0-4.5,0c-0.5,0.6-1,1.2-1.6,1.9C100.2,165.8,97.6,165.8,95,165.8z"/>
</g>
</svg>
