<?xml version="1.0" encoding="iso-8859-1"?>
<!-- Generator: Adobe Illustrator 24.3.0, SVG Export Plug-In . SVG Version: 6.00 Build 0)  -->
<svg version="1.1" id="&#x30EC;&#x30A4;&#x30E4;&#x30FC;_1"
	 xmlns="http://www.w3.org/2000/svg" xmlns:xlink="http://www.w3.org/1999/xlink" x="0px" y="0px" viewBox="0 0 300 300"
	 style="enable-background:new 0 0 300 300;" xml:space="preserve">
<g id="seki">
	<path d="M133.976,189.849c-13.494,3.8-24.458,5.9-49.759,11.386v-91.506h37.53c2.108,0,5.06-0.422,5.06-2.952
		c0-2.108-1.687-3.8-2.952-5.06L109.94,90.753c-2.53-2.108-4.639-3.8-5.9-3.8c-1.687,0-2.952,1.265-5.06,3.8l-8.855,11.386h-5.9
		v-54.82c7.169-5.06,8.434-7.168,8.434-9.7s-1.687-3.795-5.9-5.06l-30.373-9.276c6.747,17.289,6.747,19.4,6.747,78.856
		c-9.278,0-29.519-0.422-48.494-2.109l5.9,12.229c13.916-2.53,28.253-2.53,35.844-2.53h7.168c0,44.7,0,49.759,0.422,95.3
		c-8.012,1.687-34.157,6.325-39.639,6.325c-5.06,0-8.433-0.843-14.337-2.108l11.807,30.361c0.844,2.531,2.53,4.217,4.639,4.217
		c2.53,0,4.217-2.53,5.9-7.59c13.494-5.06,65.784-23.193,102.892-43.855L133.976,189.849z M285.361,75.572l-13.072-11.385
		c-3.795-3.374-4.638-3.374-5.482-3.374c-1.687,0-2.53,1.265-4.638,3.374l-9.277,10.12h-58.615c3.374-10.12,4.217-13.072,9.7-32.47
		c8.434-2.53,12.651-3.8,12.651-8.012c0-2.952-4.217-5.06-5.061-5.482l-28.254-13.494c1.687,21.506-15.6,102.47-63.253,171.205
		l2.109,1.687c20.241-17.289,33.735-34.578,47.65-58.614c9.7,10.12,15.6,22.349,18.976,35.421
		c2.109,8.856,4.217,16.868,13.494,16.868c8.856,0,13.494-7.591,13.494-14.759c0-18.555-20.241-32.049-43.012-41.747
		c7.454-14.017,13.936-28.529,19.4-43.434h63.253C226.747,203.765,169.4,252.259,117.108,283.042l0.844,2.109
		c110.06-30.784,145.482-144.639,159.4-194.4C286.626,87.38,290,85.693,290,82.741C290,80.211,289.578,78.946,285.361,75.572z"/>
</g>
</svg>
