<?xml version="1.0" encoding="utf-8"?>
<!-- Generator: Adobe Illustrator 24.3.0, SVG Export Plug-In . SVG Version: 6.00 Build 0)  -->
<svg version="1.1" id="レイヤー_1" xmlns="http://www.w3.org/2000/svg" xmlns:xlink="http://www.w3.org/1999/xlink" x="0px"
	 y="0px" viewBox="0 0 200 300" style="enable-background:new 0 0 200 300;" xml:space="preserve">
<path d="M191.4,200.4c0-0.7-0.1-1.4-0.2-2.1c-0.7,0-1.4-0.1-1.7-0.1c-0.7-0.6-1.1-1.1-1.6-1.6c0-0.5,0-1.1-0.1-1.8
	c-1.9,0-3.7,0-5.5,0c-0.1-0.4-0.3-0.7-0.4-1.1c-0.6,0-1.3-0.1-1.9-0.1c-0.2-0.4-0.3-0.7-0.5-1.1c-1.4,0-2.8,0-4.1,0
	c-0.1-0.5-0.3-0.8-0.4-1.1c-2.2,0-4.4,0-6.5,0c-0.2,0.4-0.4,0.8-0.6,1.2c-1,0-2,0-3,0c0,0.8-0.1,1.5-0.2,2.2
	c-0.8,0.1-1.4,0.1-2.1,0.2c-0.1,0.8-0.2,1.5-0.3,2.2c-0.8,0-1.3,0.1-2,0.1c-0.2,0.4-0.3,0.7-0.5,1.1c-0.7,0-1.3,0.1-1.9,0.1
	c-0.2,0.3-0.3,0.6-0.5,1c-0.9,0-1.8,0-2.8,0c-0.2-0.3-0.3-0.6-0.5-1c-0.7,0-1.3-0.1-1.6-0.1c-0.7-0.7-1.2-1.1-1.7-1.6
	c0-0.5-0.1-1.1-0.1-1.7c-0.3-0.1-0.6-0.3-1-0.4c-0.1-0.6-0.1-1.3-0.2-2.1c-1.2,0.6-0.7-0.8-1.3-1.1c-0.7-0.1-1.3-0.1-1.9-0.2
	c-0.5-1.3,0.5-2.9-1.4-3.7c1.4-0.5,1.4-1.4,1.3-2.4c0-0.4,0.1-0.9,0.1-1.4c0.8-0.1,1.4-0.2,2.2-0.3c0-1.4,0-2.8,0-4
	c0.9-0.8,1.6-1.4,2.3-2.1c0-0.5,0.1-1.1,0.1-1.7c0.4-0.1,0.7-0.3,1.1-0.4c0-0.7,0-1.4,0.1-2.2c1.3,0.6,0.7-0.9,1.7-1.2
	c0.6,0,1.6,0,2.5,0c0.3-0.4,0.5-0.8,0.8-1.2c1,1.6,1.3,1.6,2.1,0.2c0.6,0,1.2,0,1.7,0c0.5,1,1.2,1.3,1.4,0.7c0.3-1,0.9-0.8,1.6-0.8
	c2.1,0,4.2,0,6.3,0c0.2-0.5,0.3-0.8,0.5-1.2c1.8,0,3.6,0,5.4,0c0.1-1.1,0.7-1.2,1.6-1.2c1.4,0,2.8,0,3.9,0c1.2-1.2,2.2-2.3,3.4-3.5
	c0.7,0,1.7,0,2.8,0c0.1-0.7,0.1-1.2,0.2-1.9c0.8-0.1,1-0.6,1-1.4c-0.1-1.8-0.1-3.7,0-5.5c0-0.9-0.2-1.6-1.1-1.8
	c0-0.7-0.1-1.3-0.1-1.9c0,0-0.1,0.1-0.2,0.1c-0.5-0.4-0.9-0.9-1.4-1.4c-0.4,0-1-0.1-1.6-0.1c-0.1-0.3-0.3-0.7-0.4-1
	c-0.7,0-1.3-0.1-1.9-0.1c-0.2-0.4-0.3-0.7-0.5-1.1c-0.6,0-1.2-0.1-1.8-0.1c-0.2-0.4-0.4-0.7-0.5-1c-0.7-0.1-1.3-0.1-1.9-0.2
	c-0.2-0.4-0.3-0.7-0.4-1c-1.5,0-2.8,0-4.2,0c-0.2,0.4-0.3,0.8-0.5,1.1c-0.7,0.1-1.3,0.1-1.5,0.1c-0.7,0.6-1.2,1-1.8,1.6
	c0,0.8,0,1.8,0,2.4c-1,1.1-1.8,1.9-2.8,2.9c-0.8,0-1.8,0-2.7,0c-0.1,0.5-0.3,0.8-0.4,1.1c-0.7,0-1.4,0.1-2,0.1
	c-0.1,0.8-0.1,1.4-0.2,2.1c-1.9,0-3.7,0-5.5,0c-0.1-0.7-0.2-1.4-0.2-1.8c-0.5-0.5-0.9-1-1.5-1.6c-0.4,0-1.1-0.1-1.7-0.1
	c0-0.1,0.1-0.2,0.1-0.3c-0.4-0.4-0.9-0.8-1.4-1.2c0-0.6-0.1-1.1-0.1-1.7c-0.4-0.2-0.7-0.3-1.1-0.5c0-1.1,0-2.2,0-3.3
	c-0.1-0.3-0.3-1-0.3-1c-1,0.1-0.7-1-1.2-1.2c-0.7-0.1-1.2-0.1-2-0.2c0-1.4,0-2.8,0-4.2c0-0.4-0.1-1.1-0.3-1.2
	c-0.9-0.3-0.7-1-0.7-1.6c0-1.4,0-2.8,0-4.1c-0.5-0.2-0.8-0.4-1.1-0.5c0-0.6,0-1.2,0-1.5c0.4-0.4,1.1-0.8,1-1c-0.1-0.5-0.6-0.9-1-1.3
	c0-1.2,0-2.5,0-3.8c0.7-0.2,1.2-0.5,1.1-1.3c0-0.6,0-1.1,0.8-1.4c0.2,0,0.3-0.6,0.4-0.8c1.8,0,3.5,0,5.2,0c0.1,0.4,0.2,0.7,0.4,1.1
	c1.1,0,2.1,0,3.1,0c0.1,0.4,0.3,0.8,0.4,1.1c0.7,0,1.3,0.1,1.7,0.1c0.7,0.8,1.3,1.4,2,2.2c0.8,0,1.8,0,2.9,0c-0.1,1.2,1.5,1,1.6,2.1
	c0,0.2,0.9,0.4,1.1-0.3c0-0.2,0.1-0.4,0.2-0.6c0.7-0.1,1.3-0.2,1.9-0.2c0.2-0.4,0.3-0.7,0.5-1.1c1,0,1.9,0,2.8,0
	c0.1-0.4,0.3-0.7,0.5-1.2c1,0,2,0,3,0c0.4-2.1,0.4-2.1,1.4-2.7c0-4.3,0-8.7,0-13.1c0.4-0.2,0.8-0.4,1.2-0.6c0-1.1,0-2.2,0-3.3
	c0-0.4,0.1-1,0.3-1c1.1-0.3,0.8-1.1,0.8-1.7c0-2.2,0-4.3,0-6.4c0.5-0.2,0.8-0.3,1.2-0.5c0-1.4,0-2.8,0-4.3c1,0,1.1-0.6,1.1-1.3
	c0-1,0.1-1.9,0-2.9c-0.1-0.9,0.1-1.6,1.2-1.8c0-1.1,0-2.1,0-3c0.5-0.2,0.8-0.3,1.2-0.5c0-0.6,0-1.2,0-1.8c0-2.8,0-5.5,0-8.3
	c0-0.5-0.2-1,0.5-1.4c0.9-0.4,0.8-0.8-0.1-1.4c-0.2-0.1-0.3-0.3-0.6-0.5c0.5-0.4,0.8-0.6,1.3-0.9c0-2.4,0-4.9,0-7.3
	c0.4-0.2,0.8-0.3,1.2-0.5c0-2.6,0-5.2,0-7.8c0.8-0.1,1.5-0.2,2.3-0.3c0-1.1,0-2.1,0-3.1c0.4-0.2,0.7-0.4,1.1-0.5
	c0-0.7,0.1-1.3,0.1-1.9c0.3-0.2,0.6-0.3,1-0.5c0-2.1,0-4.3,0-6.5c-0.3-0.2-0.7-0.3-1.1-0.5c0-1,0-2,0-2.7c-0.7-0.6-1.1-1-1.8-1.7
	c-0.7,0-1.7,0-2.8,0c0-0.8-0.1-1.5-0.2-2.2c-0.7,0-1.3-0.1-1.8-0.1c-0.8-0.8-1.4-1.5-2.1-2.3c-0.9,0-1.8,0-2.5,0
	c-0.5-0.5-0.9-1.1-1.1-1c-0.4,0.1-0.8,0.5-1.3,1c-0.1,0-0.3,0-0.6,0c-0.3-0.1-0.6-0.1-0.8-0.1c-0.6-1.2-0.6-1.2-2.4-1
	c-0.2,0.3-0.3,0.6-0.5,1c-1,0-2,0-3,0c-0.2,0.5-0.3,0.8-0.5,1.2c-1.5,0-3,0-4.5,0c-0.3,0-0.9,0.1-0.9,0.3c-0.2,0.9-0.8,0.8-1.4,0.8
	c-0.7,0-1.4,0-1.8,0c-0.8,0.9-1.4,1.6-2.1,2.4c-1.5-0.8-1.8,1.1-2.9,1.5c0,0.9-0.8,0.7-1.2,1c-0.1,0.7-0.1,1.3-0.2,2
	c-0.8,0.1-1.5,0.1-2.1,0.2c-0.3,0.9,0.3,2.1-1,2.5c-0.1,0.1-0.1,0.5-0.1,0.8c-0.1,0.3-0.1,0.7-0.2,1.1c-1.8-0.2-2.9,0.9-3.7,2.2
	c-0.6,0-1.2,0.1-1.8,0.1c-0.1,0.3-0.3,0.7-0.4,1c-0.7,0-1.3,0.1-1.9,0.1c-0.2,0.3-0.3,0.6-0.5,1c-1.1,0-2.1,0.1-3.2,0.1
	c-0.1,0.8-0.1,1.4-0.2,2.2c-1.9,0-3.7,0-5.5,0c-0.2,0.5-0.3,0.8-0.5,1.2c-1,0-1.9,0.1-2.8,0c-0.9,0-1.7,0-1.9,1.2
	c-1.8,0-3.5,0-5.2,0c-0.4,0-0.9,0-1.1,0.2c-0.6,0.6-1.1,1.4-1.7,2.1c-1.3,0-2.7,0-4,0c-0.1-0.4-0.2-0.8-0.4-1.2c-1.5,0-2.9,0-4.2,0
	c-0.7-2-2.4-0.6-3.6-1.3c0-0.2-0.2-0.5-0.3-0.9c-0.7,0-1.3-0.1-1.9-0.1c-0.1-0.4-0.3-0.8-0.4-1.1c-0.6,0-1.2-0.1-1.7-0.1
	c-0.6-0.7-1.2-1.4-1.9-2.2c-2.1,0-4.2,0-6.4,0c-0.2,0.4-0.4,0.8-0.5,1.1c-2.6,0-5.1,0-7.5,0c-0.2-0.4-0.3-0.8-0.5-1.2
	c-1.1,0-2.1,0-3.2,0c0-1.2,0-2.2,0-3.2c-0.5-0.2-0.9-0.4-1.2-0.5c0-3.3,0-6.5,0-9.7c0.5-0.2,0.8-0.3,1.1-0.4c0.2-0.9-0.3-2,1-2.3
	c0.1,0,0.2-0.6,0.2-0.9c0-1.1,0-2.2,0-3.1c0.8-0.7,1.5-1.3,2.3-2c0-0.6,0-1.3,0-2c-0.4-0.2-0.8-0.3-1.1-0.4c0-0.7-0.1-1.3-0.1-2
	c-0.7,0-1.4-0.1-1.8-0.1c-0.6-0.6-1.1-1.1-1.6-1.6c0-0.4-0.1-0.9-0.1-1.5c-0.8,0-1.4-0.1-2-0.1c-0.2-0.4-0.4-0.8-0.5-1.1
	c-1.1,0-2,0-3,0c-0.2,0.4-0.4,0.8-0.6,1.2c-1.8,0-3.6,0-5.4,0c0,0.7-0.1,1.2-0.1,1.5c-1.1,1-1.9,1.9-2.8,2.8c-0.4,0-1,0.1-1.3,0.1
	c-0.6,0.6-1.1,1-1.7,1.6c0,0.5,0,1.2,0,2c0,0.3,0,0.8-0.1,0.8c-1,0.3-1.1,1.6-2.1,1.7c-0.1,1.8-0.1,1.8-1.2,2.4c0,1.3-0.1,2.7,0,4
	c0,0.9-0.2,1.6-1.2,1.7c0,1.1,0,2.1,0,2.8c-1.2,1.1-2.3,2.1-3.5,3.3c0,1.5,0,3.2,0,4.9c-0.4,0.2-0.9,0.3-0.9,0.5
	c-0.2,1-0.3,2-0.4,2.9c-0.4,0.5-0.9,1-1.4,1.5c-0.5,0-1.1,0.1-1.7,0.2c0,0.7-0.1,1.3-0.1,1.8c-0.8,0.7-1.5,1.3-2.3,2
	c0,2,0,4.2,0,6.4c-0.4,0.2-0.7,0.3-1,0.4c-0.1,0.6-0.1,1.3-0.2,1.9c-0.3,0.1-0.7,0.3-1,0.4c0,0.6-0.1,1.2-0.1,1.8
	c-0.4,0.2-0.8,0.4-1.2,0.6c0,0.9,0,1.8,0,2.7c-0.4,0.2-0.7,0.4-1,0.5c-0.1,0.7-0.1,1.3-0.2,1.9c-0.4,0.2-0.7,0.3-1,0.4
	c0,0.7-0.1,1.2-0.1,1.6c-0.8,0.8-1.5,1.4-2.3,2.1c0,0.9,0,1.9,0,2.4c-0.7,0.8-1.1,1.3-1.6,1.8c-0.4,0.1-1,0.1-1.4,0.1
	c-0.6,0.6-1,1-1.6,1.6c0,0.7,0.2,1.9-1.1,2.1c0,0.8-0.1,1.4-0.1,2c-0.8,0-1.4,0.1-2,0.1c-0.2,0.3-0.3,0.9-0.5,0.9
	c-1.1,0-0.9,1.5-1.9,1.4c0,1-1.4,1-1.5,2c0,0.2-0.4,0.3-0.7,0.3c-0.4,0-0.8,0.1-1.3,0.1c-0.1,0.7-0.2,1.2-0.2,1.8
	c-0.4,0.2-0.7,0.3-0.9,0.4c-0.6,1.3,0.7,3-1.4,3.6c0,1.4,0,2.7,0,3.9c-0.8,0.7-1.5,1.3-2.3,2c0,0.9,0,1.8,0,2.8
	c-0.4,0.2-0.8,0.3-1.1,0.5c0,0.8,0,1.4,0,2.1c0.4,0.1,0.7,0.3,1.1,0.4c0,1,0,2,0,2.9c-0.4,0.2-0.8,0.3-1.1,0.5
	c0,0.6-0.1,1.2-0.1,1.7c-0.8,0.7-1.5,1.3-2.2,1.9c-0.1,0.6-0.1,1.2-0.2,1.8c-0.7,0.1-1.4,0.1-1.7,0.1c-1,1-1.8,1.8-2.9,2.9
	c0,0.7,0,1.7,0,2.8c-0.8,0.1-1.5,0.1-2.2,0.2c0,3.1,0,6.2,0,9.3c0.7,0.1,1.4,0.2,1.8,0.2c0.5,0.6,1,1,1.6,1.7c0,1.1,0,2.4,0,3.4
	c1.1,1.1,1.9,1.9,2.9,2.9c0.4,0,1,0.1,1.6,0.1c0.2,0.4,0.4,0.7,0.5,1c0.6,0,1.2,0.1,1.8,0.1c0.2,0.4,0.3,1,0.5,1
	c1,0.1,0.9,0.8,0.9,1.4c0,1.4,0,2.8,0,4.2c0.4,0.2,0.8,0.4,1.2,0.6c0,2.2,0,4.4,0,6.6c0.3,0.1,0.5,0.1,0.7,0.2
	c0.1,0.1,0.3,0.2,0.4,0.3c0,2.2,0,4.2,0,6.3c-0.2,0.1-0.4,0.1-0.6,0.2c-0.1,0.1-0.3,0.2-0.5,0.3c0,2.1,0,4.1,0,6.2
	c-0.4,0.1-0.7,0.3-1,0.4c-0.2,1.9-0.2,1.9-1.2,2.5c0,1.5,0,3,0,4.4c0.5,0.2,0.9,0.6,1,1c0.1,0.6,0.1,1.1-0.7,1.4
	c-0.5,0.1-0.5,0.8,0,1.2c0.2,0.1,0.5,0.1,0.7,0.2c0.1,1.6,0.1,1.6-1.1,2.3c0,0.9,0,1.9,0,2.9c-0.4,0.2-0.8,0.3-1.2,0.5
	c0,1.4,0,2.7,0,4c-0.4,0.1-0.7,0.3-1,0.4c-0.2,2-0.2,2,0.9,2.7c0,4.4,0,8.8,0,13.3c-1,0-1.1,0.6-1.1,1.3s-0.1,1.4,0,2.1
	c0.1,0.9-0.1,1.5-1.2,1.6c0,2.2,0,4.3,0,6.4c-0.5,0.2-0.8,0.4-1.1,0.5c0,0.7,0,1.4,0,2c0.4,0.2,0.7,0.4,1.1,0.6c0,1.8,0,3.5,0,5.2
	c0.5,0.2,0.9,0.5,1.4,0.8c-0.6,0.4-1,0.6-1.4,0.8c0,1.4,0,2.7,0,4.1c-0.4,0.1-0.7,0.3-1.1,0.4c-0.1,0.7-0.1,1.3-0.2,1.9
	c-1,0.5-1,0.5-1,1.4c0,1,0,2.1,0,3.1c-0.5,0.2-0.8,0.4-1.3,0.6c0,1.1,0,2.1,0,3.2c-1.2,0-2.2,0-3.1,0c-0.2,0.5-0.3,0.9-0.6,1.1
	C9,246,9,246,10.2,246.8c0.1,0.1,0,0.3,0.1,0.5c-0.3,0.2-0.7,0.3-1,0.5c0,0.7-0.1,1.3-0.1,1.8c-0.3,0.4-1.1,0.1-1.1,1
	c0,0.8,0.7,0.5,1,0.8c0.1,0.1,0.1,0.2,0.2,0.5c-0.4,0.2-0.8,0.3-1.2,0.5c0,4.6,0,9.1,0.7,13.7c1.1,1,1.9,1.9,2.8,2.8
	c0.5,0,1.1,0.1,1.4,0.1c0.7,0.9,1.3,1.5,2,2.3c4.9,0,9.9,0,14.9,0c0.9,0,1-0.6,1.3-1.2c1,0,2,0,3,0c0.2-0.6,0.4-1.3,1.2-1.3
	c0.1-0.8,0.8-1,1.4-1.3c-0.3-1.9,1.2-2.7,2.3-3.6c0-0.7,0.1-1.3,0.1-1.9c0.8-0.1,1.5-0.1,2.1-0.2c0,0-0.1-0.1-0.1-0.2
	c0.4-0.4,0.9-0.8,1.4-1.3c0.1-0.4,0.1-1,0.2-1.6c1.5,0,2.8,0,4.2,0c0.1,0.6,0.2,1.2,0.3,2c1-0.4,1,0.6,1.2,1.2
	c0.7,0,1.2,0.1,1.9,0.1c0.1,0.3,0.2,0.6,0.4,1c0.6,0,1.2,0,1.9,0.1c0,0.8,0.7,1,1,1.4c0.3,0.5,0.7,0.9,1.3,1.1
	c0.1,0.7,0.1,1.3,0.1,1.6c2.1,2.2,4.1,4.2,6.3,6.4c0.4,0,1,0,1.8,0.1c0,0.6,0,1.2,0,1.7s0,1.1,0,1.6c0.8,0.1,1.5,0.2,2.2,0.3
	c0.1,0.8,0.1,1.5,0.2,2c0.8,0.5,1.8-0.3,2.3,0.8c0.3,0.6,0.9,1.1,1.6,1.8c3.7,0,7.8,0,11.9,0c0.1,1.4,1.1,1.1,1.9,1.1
	c0.9,0,2,0.4,2.1-0.9c1.3-0.6,3.1,0.7,3.6-1.4c0.5,0,1,0,1.5,0c0.6,0,1.3-0.1,1.9,0c1,0.2,0.8-1,1.5-1.2c0.3-0.1,0.6-0.7,0.6-1
	c-0.1-0.9,0.2-1.4,1.1-1.6c0-1.1,0-2.2,0-3.1c-0.4-0.3-0.7-0.6-1-0.8c0.3-0.3,0.7-0.5,1-0.8c0-1.9,0-3.7,0-5.6
	c-0.8,0-1.2-0.4-1.1-1.2c0.1-0.8-0.3-1.3-1.1-1.4c0-3.7,0-7.3,0-10.8c1.4-0.9,1.4-1-0.1-2.3c0.4-0.3,0.8-0.5,1.2-0.8
	c0-2.3-0.1-4.5,0-6.8c0-0.9-0.6-1.1-1.1-1.4c0-2.9,0-5.7,0-8.5c1-0.5,1-0.5,1.1-2.1c0.3-0.4,0.8-0.7,1-1.1c0.2-0.5,0.1-1.1,0.1-1.6
	c0.7,0,1.2-0.1,1.7-0.1c0.6-0.8,1.2-1.5,1.9-2.3c0.6,0,1.4,0,2.1,0c0.3,0,0.9-0.1,0.9-0.2c0.2-1.2,1.1-0.7,1.8-0.8
	c0.6,0,1.2,0,1.7,0c0.1-0.4,0.1-0.6,0.2-0.7c0.1-0.2,0.2-0.4,0.3-0.6c1.4,0,2.7,0,4.2,0c0-1,0.6-1.2,1.5-1.1c0.7,0,1.3,0,1.9,0
	c0.2-0.5,0.4-0.8,0.5-1.1c0.6,0,1.1,0,1.7,0c0.1,0.4,0.2,0.7,0.4,1.1c1,0,2.2,0.5,2.5-1.1c4.4,0,8.7,0,12.8,0
	c1.8,1.8,3.5,3.4,5.3,5.2c0,1.1,0,2.5,0,3.8c0.5,0.3,0.8,0.5,1.3,0.8c-0.5,0.3-0.8,0.5-1.2,0.7c0,1.4,0,2.7,0,4.1
	c1.4,0.7,1.5,1.6,0.4,2.5c-0.2,0.2-0.4,0.6-0.4,0.9c0,1.6,0,3.1,0,4.8c0.9,0.2,1.2,0.7,1.2,1.6c-0.1,2.5-0.1,5.1,0,7.6
	c0,0.9-0.3,1.4-1.1,1.6c0,0.7-0.1,1.3-0.1,1.9c-0.4,0.2-0.8,0.3-1.2,0.5c0,1.2,0,2.4,0,3.6c-0.1,0.7,0.3,1.6-0.9,1.9
	c-0.1,0-0.2,0.4-0.2,0.7c-0.1,0.4-0.1,0.8-0.1,1.2c-0.4,0.2-0.7,0.3-1.1,0.5c0,1.4,0,2.8,0,4.2c-0.6,0.2-1.1,0.2-1.1,1
	c0,2.1,0,4.1,0,5.8c1.1,1.1,1.9,1.9,2.9,2.9c1.2,0,2.6,0.1,3.9,0c0.9,0,1.5,0.2,1.6,1.3c0.8-0.2,1.9-0.1,2.1-0.5
	c0.4-0.8,1-0.7,1.7-0.7c1.6,0,3.3,0,4.9,0c0.3-0.4,0.4-0.8,0.6-1.1c0.7,0,1.3-0.1,1.8-0.1c0.2-0.4,0.4-0.7,0.5-1
	c0.7,0,1.3-0.1,1.9-0.1c0.1-0.4,0.3-0.7,0.4-1c0.7-0.1,1.3-0.1,2-0.2c0-0.8,0.1-1.4,0.1-1.8c1.2-1.2,2.3-2.2,3.4-3.3
	c0-4,0-8.1,0-12.2c-0.4-0.2-0.8-0.3-1.1-0.4c0-0.7-0.1-1.3-0.1-2c-0.9,0-1.2-0.6-1.1-1.4c0-0.7,0-1.4,0-2c-0.5-0.2-0.8-0.3-1.2-0.5
	c0-1.5,0-2.8,0-4.4c-1.2,0.2-1.1-0.6-1.1-1.3c0-1.1,0-2.3,0-3.4c0-0.4-0.1-1-0.3-1c-1-0.3-0.8-1-0.8-1.7c0-1.1,0-2.3,0-3.4
	c0-0.1-0.1-0.3-0.1-0.5c-0.3-0.1-0.7-0.2-1.1-0.4c0-1,0-2,0-3c-0.5-0.2-0.8-0.4-1.1-0.5c0-0.4,0-0.6,0-0.9s0-0.5,0-0.8
	c0.4-0.1,0.8-0.2,0.9-0.4c0.2-0.3,0.1-1,0-1c-1.3-0.3-0.9-1.3-0.9-2.1c0.4-0.2,0.7-0.3,1.1-0.5c0-1.4,0-2.8,0-4.3
	c0.7-0.1,1.3-0.1,1.9-0.2c0.6-0.7,1.2-1.4,1.9-2.2c0.5,0,1-0.1,1.7-0.1c0.1-0.3,0.2-0.6,0.4-1c0.6-0.1,1.3-0.1,1.9-0.2
	c0.2-0.4,0.3-0.7,0.5-1.1c2.6,0,5.1,0,7.7,0c0.1-1.2,0.8-1.2,1.7-1.2s1.8,0,2.8,0c0-0.5,0.1-0.8,0.1-1.1c0-0.4,0.1-0.8,0.1-1.1
	c2-0.4,2-0.4,2.6-1.3c0.6,0,1.2-0.1,1.7-0.1c0.2-0.4,0.3-0.7,0.5-1.1c1.4,0,2.8,0,4.2,0c0-0.1-0.1-0.2-0.1-0.3
	c0.4-0.4,0.9-0.9,1.4-1.3c0-0.5,0-1,0.1-1.7c1.4,0,2.8,0,3.9,0c1.4-1.4,2.7-2.7,4-4c0-1.3,0-2.8,0-4.2
	C192,200.6,191.7,200.5,191.4,200.4z M40.8,133.7c0.7-0.6,1.3-1.2,2.2-2c0-0.8,0-1.8,0-2.8c0.5-0.1,0.8-0.3,1.2-0.4
	c0-0.6,0.1-1.2,0.1-1.6c0.9-0.9,1.7-1.8,2.8-2.8c0,0,0.3,0,0.6,0s0.6,0,0.7,0c0.3,0.4,0.6,0.8,0.9,1.1c0.3-0.3,0.6-0.7,1-1.1
	c0.3,0,0.9,0,1.4,0c0.5,0.7,1.1,1.4,1.8,2.2c0.5,0,1.2,0,2,0.1c0,1.2,0,2.3,0,3.4c0,0.7,0.2,1.3,1.1,1.3c-0.1,0.8,0.6,1.8-0.8,2.1
	c-0.2,0-0.3,0.5-0.3,0.7c-0.1,0.4-0.1,0.8-0.1,1.3c-0.4,0.1-0.7,0.2-1.1,0.4c0,1,0,2,0,3.1c-0.4,0.1-0.7,0.2-1.1,0.5
	c0,0.9,0,1.8,0,2.8c0,0.6,0.2,1.4-0.8,1.6c-0.3,0-0.4,0.6-0.6,0.9c-0.5,0-1.1,0.1-1.5,0.1c-0.7,0.8-1.3,1.5-2,2.3
	c-0.7-0.2-0.5-1.4-1.6-1.2c-0.7,0.1-1.4,0-2.1,0c-0.6-1-0.6-1-2.7-1.3c0-0.6,0-1.3,0-2c0.1-0.8-0.1-1.5-1.1-1.4
	C40.8,138.5,40.8,136.1,40.8,133.7z M38.5,175.8c0-0.4,0.4-0.8,0.7-1.2c0.1,0,0.2,0.1,0.3,0.1c0-1.3,0-2.7,0-4.2
	c0.9-0.1,1.1-1,1.5-1.2c0.7-0.3,0.9-0.8,1.2-1.3c0.7,0,1.3-0.1,1.7-0.1c0.7-0.9,1.3-1.6,1.9-2.3c2.3,0,4.7,0,7.1,0
	c0.2,0.4,0.3,0.7,0.5,1.1c0.6,0,1.2,0.1,2,0.1c0.1,1.1,0.1,2.1,0.1,3.2c0,1.1,0,2.2,0,3.3c-0.4,0.1-0.8,0.2-1.2,0.4c0,0.9,0,1.9,0,3
	c-0.4,0.2-0.7,0.3-1.1,0.5c-0.1,0.5-0.1,1.1-0.2,1.8c-0.3,0.2-0.6,0.4-1,0.6c0,0.6-0.1,1.2-0.1,1.9c-1,0.1-2,0.1-3.1,0.2
	c-0.1,0.7-0.1,1.4-0.2,2.1c-0.7,0.1-1,0.7-1.4,1.2c-0.4,0.4-1.1,0.5-1.1,1.2c-2.8,0.3-2.8,0.3-3.4-1c-0.7,0-1.3-0.1-1.8,0
	c-0.1-0.8-0.2-1.4-0.2-1.9c-0.7-0.6-1.3-1.2-2.2-2C38.5,179.7,38.4,177.7,38.5,175.8z M79.6,220.7c-0.3,0.1-0.7,0.2-1.1,0.4
	c0,3.4,0,6.7,0,10.1c-0.4,0.1-0.7,0.3-1.2,0.5c0,1.4,0,2.9,0,4.3c0,0.6,0.1,1.2-0.7,1.4c-0.5,0.2-0.6,0.8,0.1,1s0.7,0.6,0.7,1.1
	c0,1.1,0,2.3,0,3.4c0.4,0.2,0.8,0.4,1.4,0.7c-0.6,0.4-1,0.6-1.4,0.9c0,0.3-0.1,0.8-0.1,1.2c-0.1,0.2-0.1,0.6-0.2,0.6
	c-1.4,0.2-0.7,1.5-1.1,2.4c-0.6,0.1-1.2,0.1-1.7,0.2c-0.6,0.7-1,1.5-1.7,2c-0.5,0.3-1.3,0.2-1.9,0.2c-1.9,0-3.7,0-5.4,0
	c-0.8-0.9-1.4-1.5-2.1-2.3c-0.3,0-0.9-0.1-1.6-0.1c-0.1-0.4-0.3-0.7-0.5-1.1c-0.7,0-1.2-0.1-1.6-0.1c-1.5-1.6-2.9-3-4.5-4.6
	c-0.3,0-0.9-0.1-1.4-0.1c-0.6-0.7-1.2-1.4-1.9-2.2c-0.8,0-1.8,0-2.8,0c-0.1-0.4-0.3-0.8-0.5-1.2c-0.5,0-1.1-0.1-1.4-0.1
	c-1.3-1.3-2.6-2.5-4-3.8c0-0.2,0.1-0.5,0-0.9c-0.1-0.7,0.4-1.5-0.4-2.1c-0.5-0.4-1-0.8-1.5-1.2s-0.7-1.2-1.5-1.5
	c-0.5-0.2-0.7-0.8-1.2-1.3c0-5.7,0-11.6,0-17.5c0.3-0.1,0.6-0.3,1-0.5c0-0.5,0.1-1,0.1-1.5c1.1-0.7,1.1-0.7,1.2-2.2
	c1.6-1.5,3-2.9,4.6-4.5c0-0.4,0.1-0.9,0.1-1.3c1.5-1.6,2.8-3,4.4-4.6c0-0.3,0-0.9,0.1-1.7c1.1,0,2.1,0,3.1,0
	c0.2-0.5,0.4-0.9,0.6-1.3c0.9,0,1.9,0,2.9,0c0.2-0.4,0.4-0.8,0.6-1.2c2.5,0,4.9,0,7.4,0c1.3,0,2.7,0,4,0c0.9,0,1.9-0.4,2.2,1
	c0.7,0.1,1.1,0.5,1.1,1.3c0.7,0,1.4,0.1,2.1,0.1c0,0.8,0.1,1.4,0.2,2.2c0.7,0.1,1.3,0.1,2,0.2c0,1,0,2,0,2.9c0.8,0.7,1.5,1.3,2.3,2
	c0,0.5,0.1,1,0.1,1.7c0.4,0.1,0.7,0.3,1.1,0.5C79.6,209.6,79.6,215.1,79.6,220.7z M80.7,170.9c-0.7,0.6-2.3-0.6-2.3,1.2
	c-0.8,0.1-1.4,0.1-2.1,0.2c-0.1,0.7-0.1,1.3-0.2,2.1c-1,0.1-2,0.1-2.9,0.2c-0.7,0.7,0.2,1.9-1.1,2.4c-0.1-0.8-0.2-1.5-0.3-2.4
	c-1.4,0-2.9,0-4.1,0c-0.9-0.9,0.3-2.4-1.5-2.5c0-1.3,0-2.6,0-4c0.3-0.2,0.6-0.4,1-0.6c0-1,0-1.9,0-2.9c0.3-0.2,0.7-0.4,1.1-0.6
	c0.1-0.6,0.1-1.1,0.2-1.8c0.7,0,1.3-0.1,2.1-0.2c0.1-0.6,0.2-1.2,0.2-1.7c0.5-0.5,1-1,1.6-1.6c1.4,0,3,0,4.5,0
	c0.5,0.6,0.9,1,1.3,1.4c0.1,0,0.2-0.1,0.3-0.1c0,1,0,1.9,0,2.9c0.4,0.2,0.8,0.3,1.2,0.5c0,1.7,0,3.5,0,5.2
	C80.9,169.3,80.9,169.3,80.7,170.9z M80.8,131.7c-0.4,0.1-0.7,0.3-1,0.6c0,1,0,2,0,3c-0.5,0.2-0.8,0.3-1.2,0.5c0,1,0,1.9,0,3
	c-0.4,0.1-0.7,0.2-1.1,0.4c0,0.2-0.1,0.4-0.1,0.6c-0.1,1.4-1.2,2.5-2.6,2.5c-0.9,0-1.9,0-2.8,0c-0.1,0.4-0.3,0.7-0.4,1.1
	c-0.9,0-1.9,0-2.6,0c-1.3-1.3-2.6-2.4-4-3.8c0-3.4,0-7,0-10.8c-1-0.2-1.3-0.8-1.2-1.8c0.1-0.9,0-1.8,0-2.7c0.4-0.2,0.7-0.3,1.1-0.5
	c0-0.7,0.1-1.2,0.1-1.9c0.4-0.1,0.7-0.2,1.1-0.4c0-0.6,0.1-1.2,0.1-1.9c0.3-0.2,0.6-0.4,1-0.6c0-0.6,0.1-1.2,0.1-2c1,0,2.1,0,3.1,0
	c0.2-0.5,0.3-0.8,0.5-1.2c0.8,0.1,1.8-0.5,2.1,0.9c0.1,0.1,0.6,0.2,0.9,0.2c0.7,0,1.4,0,2.2,0c0,1.2,0,2.2,0,3.1
	c1.2,0.7,1.2,0.7,1.3,2.3c0.7,0.7,1.4,1.3,2.3,2.1c0,0.4,0,1.1,0,1.8c0,0.6-0.1,1.3,0.8,1.4c0.1,0,0.3,0.4,0.3,0.6
	C80.8,129.4,80.8,130.5,80.8,131.7z M91.4,143c0.5-0.4,1-0.7,1.2-1.1c0.1-0.3-0.5-0.8-1-1c0-0.6,0-1.2,0-1.8
	c0.4-0.2,0.7-0.3,1.1-0.4c0-1,0-2.1,0-3.1c-0.4-0.1-0.7-0.3-1.1-0.4c0-1.3,0-2.6,0-4c0.3-0.1,0.7-0.3,1.1-0.5c0-1,0-1.9,0-2.8
	c0.8-0.7,1.5-1.3,2.3-2c0-1.2,0-2.5,0-4c1.1-0.1,1.2-0.8,1.2-1.8c-0.1-1.7,0-3.5,0-5.2c0-0.5-0.1-1,0.6-1.3c0.3,0,0.4-0.6,0.4-0.9
	c0-1,0-2.1,0-3.3c0.8-0.2,1.1-0.7,1.1-1.6c-0.1-1.9,0-3.9,0-5.8c0-0.7,0.2-1.6-0.9-1.3c-0.4-0.9,0.2-2-1-2.5
	c-0.3-0.1-0.2-1.1-0.3-1.7c-0.7-0.8-2.4,0.5-2.4-1.4c-1.9,0-3.7,0-5.4,0c-0.5,0.5-1,1-1.6,1.6c0,0.3,0,0.9-0.1,1.8
	c-0.6,0-1.1,0-1.7,0c-0.9-0.1-1.7,0-1.9,1.5c-0.5-0.6-0.7-1-1-1.4c-0.6,0-1.3,0-2,0c-0.2,0.8-0.7,1.3-1.6,1.1c-0.2,0-0.4,0-0.6,0
	c-0.8,0.1-1.8-0.2-1.6,1.2c-0.7,0-1.2,0-1.7,0c-0.4-0.4-0.7-0.7-1-1.1c-0.3,0.4-0.5,0.7-0.9,1.2c-2.1,0-4.2,0-6.2,0
	c-1.1,1.2-2.1,2.3-3.2,3.5c-0.4,0-0.9,0.1-1.5,0.1c-0.6,0.7-1.2,1.4-2,2.2c-1.1,0-2.5,0-3.9,0c-0.3,1-0.9,1.3-1.9,1.2
	c-0.8-0.1-1.8,0.2-1.9-1.2c-0.7,0-1.4,0-2,0c-0.7,0-1.3,0-1.8,0c-0.9-1-1.8-1.9-2.9-3c-0.2-0.4,0.6-1.7-1-1.8c0-0.6,0-1.2,0-1.8
	c0.8-0.2,1.2-0.7,1.1-1.6c-0.1-1,0-2,0-3c0.4-0.2,0.8-0.4,1.2-0.6c0-1,0-1.9,0-2.7c0.8-0.8,1.7-1.3,2-2c0.3-0.8,0.1-1.8,0.2-2.8
	c2-0.6,0.6-2.4,1.3-3.7c0.6,0,1.2-0.1,2-0.2c0-0.6,0.1-1.3,0.2-2c0.3-0.2,0.6-0.3,1-0.4c0-1,0-2,0-2.7c1-1,1.7-1.7,2.4-2.4
	c0.8-0.8,1.5-1.4,2.3-2.2c0.1-0.5,0.1-1.1,0.2-1.8c0.6,0,1.2,0,1.9-0.1c0.5-0.2,0.1-1.7,1.3-1.1c0-0.8,0.1-1.4,0.1-2.1
	c0.5-0.3,1.1-0.5,1.4-1.2c0.1-0.3,1.1-0.5,1-1.4c1.1,0,2.2,0.2,3-0.1c0.7-0.3,1.2-1.2,2-2c2,0,4.2,0,6.4,0c0.3,0,0.6,0.2,0.8,0.4
	c1.5,1.6,1.5,1.7,3.5,1.7c0.3,0,0.5,0,0.8,0c0.1,0,0.1,0.1,0.3,0.2c0,0.5,0,1.1,0.1,1.8c0.3,0.1,0.7,0.3,1.1,0.5c0,2.5,0,4.9,0,7.5
	c-0.3,0.2-0.7,0.3-1.1,0.5c0,1.4,0,2.7,0,4.1c-0.4,0.1-0.7,0.3-1.1,0.5c0,0.9,0,1.9,0,2.9c-0.3,0.1-0.4,0.2-0.6,0.3
	c-0.8,0.3-0.8,0.8-0.2,1.3c0.7,0.7,1.5,1.4,2.1,2.4c0.7,0,1.4,0,2.1,0c0.7,0,1.4,0,2,0c0.6-0.6,1-1.1,1.7-1.7
	c0.1-0.3,0.1-0.9,0.2-1.4c0.5-0.5,1-1,1.6-1.6c0.4,0,1,0,1.7-0.1c0.1-0.3,0.2-0.6,0.2-0.9c0.1-0.6-0.1-1.3,0.9-1.4
	c0.2,0,0.3-0.6,0.5-1c0.6,0,1.3-0.1,2-0.1c0-0.4,0.1-0.7,0.1-1.1c0-0.5,0.1-0.9,0.7-1.2c0.8-0.5,1.3-1.4,2-2.2
	c0.3,0,0.9-0.1,1.4-0.1c0.5-1.1,0.5-1.1,2.4-1.2c0.1-0.3,0.3-0.6,0.5-1c1.4,0,2.8,0,4,0c0.4-0.5,0.6-1,0.9-1.2
	c1.8-1.2,1.8-1.2,2.6-1.2c0.9,0,1.7,0,2.5,0c0.2-0.4,0.3-0.7,0.5-1.1c1.3,0,2.6,0,4,0c0.1,0.3,0.3,0.7,0.5,1
	c0.8,0.4,2.1-0.4,2.2,1.2c0.7,0,1.3,0.1,1.7,0.1c0.5,0.6,1,1.1,1.7,1.8c0,0.7,0,1.7,0,2.8c0.8,0.1,1.4,0.1,2,0.2
	c0.3,1.2,0.4,12.4,0.1,14.8c-0.7,0-1.3,0.1-2.1,0.2c-0.1,0.5-0.2,1,0.6,1c0.4,0,0.8,0,1.1,0.1c0.2,0.1,0.3,0.4,0.7,0.8
	c-1,0.1-1.7,0.1-2.5,0.2c0,1.5,0,2.9,0,4.1c-0.9,0.8-1.5,1.4-2.4,2.1c0,0.8,0,1.8,0,2.7c-1.8,1-1.4,0.9,0,2.3
	c-0.4,0.2-0.7,0.4-1.1,0.6c-0.1,0.3-0.1,0.6-0.1,0.9s0,0.6,0,0.9c-0.4,0.2-0.8,0.4-1.2,0.6c0,1,0,2.1,0,3.2c0,0.7-0.1,1.3-1.1,1.2
	c0,0.7-0.1,1.3-0.1,2c-0.4,0.1-0.7,0.3-1.1,0.4c0,0.6-0.1,1.2-0.1,1.9c-1,0.1-1.2,0.8-1.1,1.7c0,0.9,0,1.9,0,2.8
	c-0.4,0.2-0.7,0.3-1.1,0.5c0,1.3,0,2.7,0,4.1c-0.4,0.2-0.8,0.3-1.1,0.5c-0.5,0.7,0.3,1.8-0.8,2.1c-0.9,0.2-0.5,1.8-1.7,1.2
	c-0.1,0.9-0.1,1.5-0.2,2.2c-0.7,0.1-1.3,0.1-2.1,0.2c0,0.6-0.1,1.2-0.1,1.8c-0.8,0.6-1.4,1.2-2.3,2c0,0.5,0,1.2,0,1.9s0,1.4,0,2.1
	c-0.5,0.2-0.8,0.3-1.2,0.5c0,0.9,0,1.9,0,2.5c-2.1,2.2-4,4.2-6.1,6.4c-0.3,0-0.8,0-1.2,0c-0.5-0.6-0.9-1.1-1.6-1.8
	c-0.2-0.5,0.6-1.8-1-1.9c0-0.6-0.1-1.2-0.1-1.8C92.2,143.5,91.8,143.3,91.4,143z M109.6,207.3c-1.2,0-2.3,0-3.4,0
	c-0.7,0-1.2,0.1-1.2,1.1c-1.1,0-2.1,0-3.2,0c-0.1,0.7-0.2,1.4-0.3,2.2c-0.6,0-1.2,0-1.9,0c0-0.7-0.1-1.4-0.2-2.2
	c-0.7,0-1.3-0.1-1.7-0.1c-1.7-1.7-3.2-3.3-5-5.1c0-2.5,0-5.3,0-8.2c1-0.7,1-0.7,1.2-2.5c0.4-0.4,1.2-0.3,1.2-1.1
	c0-0.5,0.9-0.3,1.2-1c0.4-1,1.2-2,2.7-1.7c0.7,0.1,1.5,0,2.2,0c0.8,0.9,1.4,1.7,2.2,2.4c0.4,0.3,0.7,0.7,1.1,1.1
	c0.4,0.4,0.6,0.8,1,1.1c0.6,0.5,0.6,0.4,0.9,1.2c0.6,0.1,1.2,0.1,2,0.2c0,1.1,0,2.1,0,3.1c0.5,0.3,0.9,0.4,1.2,0.6
	C109.6,201.3,109.6,204.2,109.6,207.3z M120,168.8c-0.7,0-1.4,0-2.1,0c-0.8-0.1-1.3,0.3-1.3,1.1c-2.5,0-5,0-7.4,0
	c-0.3-0.3-0.6-0.8-1-1s-0.9-0.1-1.6-0.1c-0.1-0.7-0.1-1.3-0.1-1.9c-0.1-0.8,0.2-1.7-1.2-1.6c0-0.6,0-1.1,0-1.5c0-1.2,0-2.4,0-3.6
	c0.4-0.2,0.7-0.3,1.1-0.5c0.1-0.6,0.1-1.2,0.2-2c0.7-0.1,1.4-0.2,2.2-0.2c0-0.8,0.1-1.6,0-2.4c-0.1-0.8,0.3-1,1-1.1
	c0-0.7,0.1-1.2,0.1-1.8c0.7-0.6,1.4-1.3,2.2-2c0.1-0.5,0.1-1.1,0.2-1.8c0.7-0.1,1.4-0.1,2.2-0.2c0-0.7,0.1-1.3,0.1-1.9
	c1-0.6,1-0.6,1.2-2.5c0.7-0.1,1.1-0.6,1.3-1.3c0.9,0.1,0.9-0.8,1.2-1.2c1.8-0.2,1.8-0.2,2.4-1.2c1.9,0,3.9,0,6,0
	c0.2,0.3,0.3,0.6,0.5,1c0.5,0,1.1,0,1.8,0.1c0.4,0.3,0.1,1.4,1.1,1.2c0.4,1,1.8,1.5,1.5,3c-0.2,1.1,0,2.3,0,3.4
	c0,0.1,0.1,0.2,0.1,0.4c0.3,0.2,0.6,0.3,1,0.5c0,2.8,0,5.7,0,8.6c-0.3,0.1-0.7,0.3-1.1,0.5c0,1.3,0,2.6,0,3.8
	c-0.3,0.7-0.8,0.6-1.2,1.1c-0.5,0.8-1.2,1.8-2.5,1.6c-1.8-0.4-2.5,1.1-3.6,2.3c-1.1,0-2.5,0-3.8,0
	C120.3,168.1,120.2,168.4,120,168.8z M135.1,194c-0.9,0.4-0.9,0.4-1.3,2.5c-0.3,0-0.6,0.1-0.9,0.1c-0.3,0-0.5,0-0.9,0
	c-0.2,0.3-0.4,0.7-0.6,1.1c-1.3,0-2.6,0-4.1,0c0-1.1,0-2.2,0-3.2c-0.5-0.1-0.8-0.3-1.2-0.4c0-0.6-0.1-1.2-0.1-1.9
	c-0.3-0.1-0.6-0.2-1-0.4c-0.1-0.6-0.1-1.2-0.2-1.9c-0.3-0.1-0.7-0.3-1-0.4c0-0.9,0-1.8,0-2.7c0.9-0.6,2.4,0.5,2.4-1.4
	c1.2,0,2.2,0,3.2,0c0.2-0.4,0.3-0.7,0.4-1.1c0.6,0,1.2-0.1,1.9-0.1c0.1-0.4,0.3-0.7,0.4-1.1c0.6,0,1.1,0,1.9,0c0,1.4,0,2.8,0,4.1
	c0.5,0.2,0.8,0.4,1.1,0.5C135.1,189.9,135.1,191.9,135.1,194z M143.4,112.2c-0.7,0-1.2,0-1.9,0c-0.1-0.7-0.1-1.3-0.2-2.1
	c-0.8,0-1.5,0-2.4,0c-0.1,0.6-0.1,1.3-0.2,1.9c-0.1,0-0.2,0-0.3,0c-0.5,0.4-0.9,0.9-1.1,1.4c-0.2-0.3-0.5-0.7-0.7-1.1
	c-0.6-0.1-1.2-0.1-1.9-0.2c-0.1-0.7-0.1-1.3-0.2-2.1c-0.6,0-1.3-0.1-2.1-0.2c-0.1-0.6-0.1-1.2-0.2-2c-0.2-0.2-0.6-0.4-0.9-0.5
	c-0.4-0.8,0.5-2.2-1.3-2.2c0-1.4,0-2.7,0-4c0-0.6-0.3-1.4,0.8-1.6c0.2,0,0.3-0.6,0.3-1c0-1.1,0-2.2,0-3.3c0.4-0.1,0.7-0.3,1.1-0.5
	c0-0.9,0-1.9,0-2.9c0.4-0.2,0.7-0.4,1.2-0.6c0-0.9,0-1.8,0-2.9c1.3,0.2,1-1.5,2.2-1.5c0.4,0,0.2-0.8-0.2-1.1c-0.2-0.1-0.4,0-0.5-0.1
	s-0.2-0.3-0.4-0.5c0.5-0.2,0.8-0.4,1.3-0.7c0-1.4,0-2.8,0-4.2c0.4-0.2,0.8-0.3,1.1-0.5c0-0.6,0.1-1.2,0.1-1.9c0.3-0.1,0.6-0.2,1-0.4
	c0-0.6,0.1-1.3,0.1-2c0.7-0.1,1.3-0.1,2.1-0.2c0.1-0.7,0.1-1.4,0.2-2.1c0.7-0.1,1.3-0.2,1.8-0.2c0.7-0.7,1.3-1.4,2-2.2
	c0.3-0.1,0.9-0.1,1.6-0.2c0-0.7,0.1-1.3,0.2-2.1c0.3-0.1,0.6-0.2,0.9-0.2c0.6-0.1,1.3,0.1,1.4-0.9c0-0.1,0.1-0.1,0.2-0.2
	c1-0.8,1-0.9-0.3-1.5c0-0.5,0-1,0-1.6c2-0.6,0.7-2.3,1.3-3.6c0.2-0.1,0.6-0.2,1-0.4c0-1,0-2,0-3c0.5-0.4,1.7-0.1,1.2-1.3
	c0.8-0.1,1.4-0.2,2-0.2c0.8-1.3,1.2-1.4,3.6-0.9c0,0.6,0.1,1.2,0.1,1.9c0.4,0.1,0.7,0.3,1.1,0.4c0,0.7,0.1,1.3,0.1,1.8
	c0.7,0.6,1.4,1.2,2.2,2c0,0.4,0.1,1,0.1,1.7c0.3,0.1,0.6,0.3,1,0.4c0,0.9,0.1,1.9,0.1,2.9c0.4,0.1,0.7,0.2,1.1,0.4
	c0,2.9,0,5.8,0,8.8c0.4,0.2,0.8,0.3,1.2,0.5c0,3.7,0,7.3,0,11c-0.4,0.2-0.7,0.3-1.1,0.5c0,0.6-0.1,1.2-0.1,1.7
	c-0.4,0.4-0.8,0.7-1.1,1c0.3,0.3,0.6,0.7,1,1.1c0,0.3,0,0.9,0,1.6c-0.7,0.2-1.2,0.7-1.1,1.6c0.1,1,0,2.1,0,3.1
	c0,0.8,0.1,1.5-1.1,1.3c0,1.1,0,2.1,0,3.1c-0.4,0.2-0.8,0.4-1.2,0.6c0,1,0,2,0,2.7c-1.7,1.8-3.3,3.4-5.2,5.3c-1.4,0-3.2,0-5.1,0
	c-0.1,0.8-0.1,1.4-0.2,2.2c-1.3,0-2.7,0-4.1,0c0-0.7-0.1-1.3-0.2-2.1c-0.3-0.1-0.7-0.1-1.1-0.1C143.6,110.8,143.5,111.4,143.4,112.2
	z"/>
</svg>
