<?xml version="1.0" encoding="utf-8"?>
<!-- Generator: Adobe Illustrator 24.3.0, SVG Export Plug-In . SVG Version: 6.00 Build 0)  -->
<svg version="1.1" id="レイヤー_1" xmlns="http://www.w3.org/2000/svg" xmlns:xlink="http://www.w3.org/1999/xlink" x="0px"
	 y="0px" viewBox="0 0 200 300" style="enable-background:new 0 0 200 300;" xml:space="preserve">
<path d="M188.4,32.2c-0.1-0.7-0.1-1.4-0.2-2.1c-0.5-0.2-1.3-0.2-1.2-1.1c-0.7-0.2-1.1-0.7-1.3-1.4c-1.9,0.3-2.6-1.2-3.6-2.4
	c-2.2,0-4.4,0-6.7,0c-0.9,0-1.9,0.4-2.3-0.9c0-0.1-0.4-0.2-0.7-0.2c-2,0-4,0-5.9,0c-0.2,0.5-0.4,0.8-0.6,1.2c-1.4,0-2.8,0-4.1,0
	c-0.1,0.4-0.3,0.8-0.4,1.1c-0.7,0-1.3,0.1-1.9,0.1c-0.1,0.3-0.3,0.7-0.4,1c-0.7,0-1.3,0.1-1.9,0.1c-0.2,0.4-0.3,0.8-0.5,1.1
	c-0.7,0-1.3,0.1-1.7,0.1c-1,1.1-1.9,2.2-3,3.4c-0.3,0.1-0.9,0.1-1.3,0.1c-0.6,0.6-1.1,1-1.8,1.7c0,0.8,0,1.7,0,2.7
	c-0.8,0-1.4,0.1-2,0.1c-0.2,0.3-0.3,0.8-0.5,0.9c-1,0.4-1.4,1.4-2.1,2.1c-0.2,0.1-0.5,0.3-0.7,0.3c-0.4,0-0.9,0-1.2,0
	c-0.7,0.8-1.3,1.5-2,2.4c-0.8,0-1.7,0-2.7,0c-0.8-0.1-1.6-0.1-1.7,1c-4,0.3-12.1,0.2-13.5-0.3c0.4-0.2,0.7-0.4,0.9-0.6
	c0.1-0.2,0.3-0.5,0.3-0.8c0-0.2-0.3-0.5-0.5-0.5c-0.4-0.1-0.9-0.1-1.2-0.1c-1.4-1.4-2.7-2.7-4-4c-0.1-1.5-0.1-1.5-1.2-2.2
	c0-0.7-0.5-1.6,0.8-1.9c0.4-0.1,0.4-0.7-0.1-1c-0.2-0.2-0.5-0.2-0.8-0.3c0-0.8,0-1.5,0-2.3c0-1.7,0-1.7-1.2-2.7
	c0.5-0.6,1.5-0.7,1.2-1.8c-0.1-0.7-0.1-1.5-0.1-2.3c-0.8,0-1.4-0.1-2-0.1c-0.2-0.4-0.4-0.7-0.5-1c-1.1-0.1-2.2,0.1-3-0.3
	c-0.7-0.4-1.1-1.3-1.7-2.1c-1.7,0-3.5,0-5.3,0c-0.1,0.3-0.2,0.7-0.4,1.1c-1,0-2,0-2.7,0c-1.8,1.8-3.4,3.4-5.2,5.2
	c0,0.3-0.1,0.9-0.1,1.3c-0.6,0.6-1.1,1.1-1.7,1.7c-0.7,0-1.7,0-2.7,0c-0.1,0.4-0.2,0.7-0.4,1.1c-1.7,0-3.5,0-5.2,0
	c-0.1-0.3-0.2-0.7-0.4-1.1c-1,0-2.1,0-3.1,0c-0.1-0.4-0.3-0.8-0.4-1.1c-1.5,0-2.8,0-4.2,0c-0.1,0.4-0.3,0.7-0.5,1.2
	c-1.4,0-2.9,0-4.1,0c-0.8,1.3,0.7,3.1-1.4,3.7c0,0.9,0,1.8,0,2.5c-1.2,1.2-2.3,2.2-3.4,3.3c0,0.5-0.1,1.1-0.1,1.7
	c-0.7,0.2-1,0.6-1.4,1.1c-0.3,0.5-0.9,0.9-1.2,1.5c-1,0-1.9,0-2.9,0c-0.1,0.4-0.3,0.7-0.4,1c-1.4,0-2.7,0-4.1,0
	c-0.1-0.7-0.3-1.2-1.1-1.1c-0.3,0-0.5,0-0.8,0c-1,0.1-1.8-0.1-2-1.2C53.5,41,53.1,41,52.8,41c-1-1-1.9-1.9-2.8-2.8
	c0-0.4-0.1-1-0.1-1.4c-0.7-0.7-1.4-1.3-2.2-2c0-0.5-0.1-1-0.1-1.4c-0.8-0.7-1.5-1.3-2.3-2c0-0.2,0-0.7,0-1.2s0-1.1,0-1.3
	c-1-1-1.8-1.8-2.8-2.8c-0.4,0-1.1-0.1-1.4-0.1c-0.5-0.5-0.7-1-1.1-1.1c-1-0.4-0.5,1-1.4,1.1c-0.2-0.3-0.4-0.7-0.6-1.1
	c-3.4,0-6.7,0-9.7,0c-1.1,1-1.9,1.9-2.9,2.9c0,0.7,0,1.7,0,2.8c-1.8,0-0.9,1.4-1.3,2.2c-1.9,0.6-0.6,2.2-1,3.4
	c0.4,0.2,0.8,0.3,1.1,0.5c0,0.6,0.1,1.3,0.1,1.9c0.4,0.2,0.8,0.4,1.1,0.5c0.1,0.7,0.1,1.3,0.2,2c0.7,0.1,1.4,0.2,1.8,0.2
	c0.9,1,1.8,1.9,2.7,2.8c0,0.5,0.1,1.2,0.1,1.8c0.8,0,1.3,0.1,1.8,0.1c0.3,0.5,0.5,1,1.5,1.6c0.6,0.2,0.7,0.6,0.6,1.1
	c-0.2,1,0.5,1.3,1.1,1.5c0.1,0.7,0.2,1.2,0.2,1.8c0.4,0.2,0.7,0.4,1,0.5c0.1,0.7,0.1,1.4,0.2,2c0.8,0.1,1.4,0.1,2.1,0.2
	c0.1,0.4,0.1,0.6,0.1,0.8c0.1,0.6-0.1,1.3,0.8,1.5c0.1,0.1,0.3,0.7,0.3,1c0,1,0,1.9,0,2.9c0,2,0,4,0,6.2c1.1-0.1,1.2,0.5,1.2,1.2
	s0,1.4,0,2.1c0.4,0.2,0.8,0.3,1.2,0.5c0,1.4,0,2.7,0,3.9c0.8,0.7,1.4,1.3,2.2,2c0,2,0,4.1,0,6.2c-0.4,0.1-0.8,0.3-1.1,0.4
	c0,3,0,5.9,0,8.9c0.4,0.1,0.7,0.3,1.1,0.4c0,2.5,0,5.1,0,7.6c0,0.9,0.2,1.5,1.2,1.7c0,1.4-0.1,2.7,0,4c0.1,0.9-0.2,1.5-1.1,1.6
	c0,0.6,0,1.2,0,1.9c0.9,0.2,1.1,0.7,1.1,1.6c-0.1,2.5-0.1,5.1,0,7.6c0,0.8-0.2,1.4-1.1,1.5c0,0.7-0.1,1.3-0.1,1.9
	c-0.4,0.1-0.7,0.3-1.1,0.4c0,1.5,0,3,0,4.4c0.5,0.3,0.8,0.5,1.5,0.9c-0.7,0.3-1,0.4-1.4,0.6c0,1.1,0,2.1,0,3.1
	c0.4,0.1,0.8,0.3,1.1,0.4c0,1.4,0,2.7,0,4.1c-0.4,0.1-0.7,0.2-1.1,0.4c0,0.6,0,1.2,0,1.8c0,3.9,0,7.8,0,11.7c0,0.6,0.3,1.2-0.7,1.5
	c-0.6,0.1-0.5,0.7-0.1,1.1c0.2,0.2,0.6,0.3,0.8,0.4c0,2.1,0,4.1,0,5.8c-0.5,0.6-1,1-1,1.3c0.1,0.3,0.7,0.7,1,1c0,1.3,0,2.6,0,4
	c-1.3-0.2-1.1,0.6-1.1,1.3c0,3,0,6,0,8.8c-0.5,0.5-1.2,0.9-1.1,1.1c0.2,0.4,0.7,0.8,1.1,1.2c0,1.4,0,3,0,4.6
	c-0.4,0.2-0.8,0.4-1.2,0.6c0,1,0,2,0,2.9c-1.1,0.5-1.1,0.5-1.2,1.5c-0.1,0.6-0.1,1-0.8,1.2c-0.6,0.1-0.5,0.8,0,1.2
	c0.2,0.2,0.5,0.2,0.7,0.3c0,1.7,0,3.4,0,5.1c-0.3,0.2-0.7,0.4-1,0.5c-0.1,0.7-0.1,1.3-0.2,2c-0.7,0.1-1.3,0.1-2,0.2
	c-0.2,0.4-0.3,0.8-0.5,1.1c-0.7,0-1.3,0.1-1.7,0.1c-0.7,0.8-1.2,1.4-1.9,2.2c-0.4,0-1,0.1-1.6,0.1c-0.1,0.4-0.3,0.7-0.4,1.1
	c-1.1,0-2,0-2.9,0c-0.3,0.4-0.6,0.8-0.9,1.1c-0.3,0.4-0.6,0.8-1.1,1.3c-0.8,0-1.9-0.2-2.7,0.1c-0.7,0.3-1.2,1.2-2,2
	c-0.7,0-1.7,0-2.7,0c-0.2,0.4-0.3,0.8-0.5,1.1c-0.7,0-1.3,0.1-1.7,0.1c-0.7,0.8-1.3,1.5-2,2.2c-0.5,0.1-1.1,0.1-1.8,0.2
	c-0.1,0.7-0.1,1.3-0.2,2c-0.3,0.1-0.7,0.3-1.1,0.5c0,1,0,2,0,3c-1,0.1-1.2,0.6-1.2,1.4c0,1.9,0,3.9,0,5.8c0,0.3-0.1,0.7,0.1,0.9
	c0.6,0.7,1.4,1.3,2.1,1.9c0.1,0.5,0.1,1.1,0.2,1.7c0.8,0,1.4,0.1,1.8,0.1c0.7,0.8,1.3,1.5,2.1,2.4c1.2,0,2.6,0,4,0
	c0.1,0.9,0.2,1.5,0.3,2.3c2,0,4,0,5.9,0c0.3,0,0.6-0.1,1-0.1c0-0.4,0.1-0.7,0.1-1c0-0.4,0.1-0.8,0.1-1.1c1.9-0.2,1.9-0.2,2.4-1.3
	c0.9,0,1.9,0,2.6,0c0.7-0.7,1.2-1.1,1.7-1.7c0-0.4,0.1-0.9,0.1-1.5c1.1-0.2,2.3,0.2,2.5-1.3c0.7,0,1.3-0.1,1.7-0.1
	c0.7-0.8,1.3-1.5,1.9-2.2c0.5,0,1.2,0,1.9-0.1c-0.2-1,0.7-1,1.2-1.3c0-0.7,0.1-1.3,0.1-1.6c2.2-2.2,4.2-4.2,6.5-6.5
	c0.6,0,1.6,0,2.7,0c0.1-0.8,0.1-1.4,0.2-2.2c1.4,0,2.7,0,3.8,0c1.2-1.2,2.3-2.3,3.4-3.5c0.4-0.1,1-0.1,1.3-0.1c1-1,1.8-1.8,2.8-2.8
	c0-0.4,0.1-1,0.1-1.7c0.6,0,1,0,1.5-0.1c0.3,0,0.7-0.1,0.7-0.3c0.2-0.7,0.8-0.6,1.3-0.6c0.9,0,1.8,0,2.7,0c0.1,0,0.3-0.1,0.4-0.1
	c0.2-0.4,0.5-0.8,0.8-1.3c0.3,0.6,0.5,0.9,0.8,1.4c0.8,0,1.7-0.2,2.4,0c0.7,0.2,1.2,0.8,1.8,1.2c0,0.6,0.1,1.2,0.1,1.8
	c0.3,0.1,0.7,0.2,1.1,0.4c0,1.4,0,2.8,0,4.1c0.4,0.2,0.7,0.4,1,0.5c0,1,0,1.9,0,2.8c-0.4,0.2-0.7,0.4-1.1,0.6c0,1.4,0,2.8,0,4.1
	c-0.5,0.1-0.8,0.3-1.1,0.4c-0.1,0.7-0.1,1.3-0.1,1.6c-0.6,0.7-1.1,1.2-1.6,1.7c-0.5,0-1.1,0.1-1.3,0.1c-0.7,0.6-1.1,1-1.7,1.5
	c0,2.9,0,6.1,0,9.2c0,0.3,0.2,0.6,0.4,0.8c0.4,0.4,0.8,0.7,1.3,1.1c0.5,0,1.1,0.1,1.6,0.1c0.2,0.4,0.3,0.8,0.5,1.1
	c0.7,0,1.3,0.1,1.9,0.1c0.2,0.4,0.3,0.8,0.5,1.1c1.5,0,2.8,0,4,0c0.3-0.4,0.6-0.8,0.9-1.1c0.2,0.3,0.5,0.7,0.7,1
	c1.2,0.5,2.9-0.7,3.5,1.2c0.6,0,1.2,0.1,1.4,0.1c1.1,1.1,1.9,1.9,2.8,2.8c0,2,0,4.1,0,6c-0.8,0.7-1.4,1.3-2.2,2
	c0,0.5-0.1,1.1-0.1,1.7c-0.5,0.1-0.8,0.3-1.1,0.4c0,0.6-0.1,1.2-0.1,1.5c-1.4,1.4-2.7,2.6-4,3.9c-1.8-0.3-2.3,1.3-3.3,2.3
	c-0.6,0.1-1.2,0.1-1.8,0.2c0,0.7-0.1,1.4-0.1,1.7c-1.4,1.4-2.7,2.7-4,4c-0.4,0-1,0.1-1.4,0.1c-0.5,0.7-1.2,1.2-1.4,1.8
	c-0.3,0.8-0.1,1.7-0.1,2.4c-0.5,0.5-1.5,0.3-1.2,1.1c0.1,0.4,0.6,0.6,1.1,1.1c0,0.3,0,0.8,0,1.3s0,1,0,1.1c0.5,0.7,0.8,1.3,1.3,1.6
	s1.2,0.3,1.8,0.4c0.1,0,0.1,0.1,0.2,0.2c1,0.9,1.5,0.9,2.5,0c0.2-0.2,0.5-0.3,0.8-0.3c0.7,0,1.4-0.1,2.1,0c0.9,0.1,1.7-0.1,1.8-1.2
	c0.7-0.1,1.3-0.1,1.6-0.1c0.7-0.6,1.1-1.1,1.7-1.6c0-0.4,0.1-1,0.1-1.8c1,0.4,1-0.6,1.3-1.1c0.7,0,1.3-0.1,1.7-0.1
	c0.6-0.6,1.2-1.1,1.5-1.7c0.6-1,1.5-0.2,2.2-0.7c0.1-0.2,0.3-0.6,0.5-0.9c0.7,0,1.3-0.1,1.5-0.1c0.7-0.7,1.1-1.1,1.6-1.6
	c0-0.5,0.1-1.1,0.1-1.4c0.7-0.7,1.2-1.2,1.8-1.6c1-0.6,0-1.7,0.8-2.3c0.6-0.1,1.2-0.1,2-0.2c0-0.9-0.1-1.8,0.1-2.6
	c0.2-0.7,0.9-1.3,1.4-1.9c0.5-0.5,1.1-1,1.8-1.6c0.1-0.4,0.1-0.9,0.1-1.3c0.8-0.8,1.5-1.4,2.3-2.1c0-0.8,0-1.8,0-2.9
	c0.8-0.1,1.4-0.1,2-0.2c0.4-0.9,0.4-0.9,2.5-1.3c0-0.3,0.1-0.6,0.1-0.9c0-0.4,0.1-0.8,0.1-1.1c2-0.3,2-0.3,2.5-1.3
	c0.9,0,1.9,0,2.9,0c0.2-0.4,0.4-0.8,0.6-1.2c0.7,0,1.2,0.1,1.8,0.1c0,0.8,0.1,1.3,0.1,2c0.4,0.2,0.7,0.4,1.2,0.6c0,1.8,0,3.5,0,5.3
	c0.3,0.1,0.6,0.1,0.8,0.3c0.6,0.6,1,1.3,1.6,1.9c0.2,0.2,0.7,0.3,1,0.3c0.8,0,1.5,0,2.3,0c0.1,0.8,0.1,1.4,0.2,2
	c0.7,0.1,1.4,0.2,1.9,0.2c0.6,0.8,1.1,1.4,1.6,2.2c0.5,0,1.1,0.1,1.7,0.1c0.2,0.4,0.3,0.7,0.5,1.1c1.1,0,2.1,0,2.9,0
	c0.7,0.8,1.1,1.8,1.8,2.1c0.9,0.4,2,0.2,2.7,0.3c1.8,1.8,3.4,3.4,5.2,5.2c0.2,0.7-0.4,1.9,1.1,2c0,0.7,0.1,1.3,0.1,1.9
	c0.3,0.1,0.7,0.3,1.1,0.4c0,1.4,0,2.8,0,4.3c1,0.2,1.3,0.8,1.1,1.5c-0.1,0.5,0,1.1,0,1.7c0.2,0,0.3-0.1,0.4-0.1
	c0.4,0.5,0.7,1.2,1.1,1.3c0.8,0.2,0.9,0.8,1.1,1.3c0.7,0,1.3,0.1,1.9,0.1c0.1,0.4,0.3,0.7,0.4,1.1c0.5,0,1,0.1,1.6,0.1
	c0.2,0.3,0.4,0.7,0.6,1.1c1,0,2,0,2.9,0c0.2,0.4,0.3,0.8,0.5,1.2c1.3,0,2.7,0,4,0c1.4,0,2.7,0,4,0c0.1-0.9,0.1-1.5,0.2-2.2
	c0.7-0.1,1.4-0.2,2.1-0.3c0-0.7,0.1-1.4,0.2-2.1c0.7,0,1.4-0.1,1.8-0.1c1.4-1.5,2.8-2.8,4.3-4.3c0.4-0.1,1-0.1,1.7-0.2
	c0.1-0.7,0.1-1.4,0.2-2.2c1.1,0.2,1.1-0.6,1.1-1.3c0-0.6,0-1.3,0-1.9c0.5-0.3,0.8-0.4,1.1-0.6c0-2.3,0-4.5,0-6.7
	c-0.4-0.1-0.7-0.3-1-0.4c-0.1-1.9-0.1-1.9-1.3-2.5c0-1.3,0-2.6,0-4c-0.8-0.1-1.4-0.1-2.1-0.2c0-0.7,0-1.3,0-1.9
	c0.8-0.1,1.4-0.1,2.1-0.2c0-0.4,0-0.7,0-1.1c-0.8,0-1.4-0.1-2.2-0.2c0-0.9,0-1.7,0-2.4c-0.1-0.3-0.1-0.8-0.3-0.8
	c-0.9-0.3-0.7-1-0.7-1.6c0-3,0-6.1,0-9.2c0-0.8-0.3-1.8,0.8-2.2c0.2,0,0.2-0.4,0.2-0.7c0-0.5,0-1.1,0-1.6s0-0.9-0.6-1.2
	c-0.7-0.4-0.4-1.2-0.4-1.8c-0.1-0.4-0.2-1,0.5-1.3c0.6-0.3,0.5-0.8,0-1.3c-0.9-0.8-0.9-1.4,0-2.2c0.4-0.4,0.5-1,0-1.2
	c-0.8-0.3-0.7-0.8-0.7-1.4c0-2.5-0.1-5.1,0-7.6c0-0.9-0.1-1.6-1.2-1.8c0-1.1-0.1-2,0-3c0.1-0.9-0.2-1.5-1.1-1.6c0-1.1-0.1-2-0.1-3
	c-0.8-0.1-1.5-0.2-2.3-0.3c0-0.6,0-1.2,0-1.8c0-6.4,0-12.7,0-19.1c0-0.4,0.1-0.9,0-1.3c0-0.3-0.2-0.7-0.3-0.7
	c-0.9-0.2-0.8-0.9-0.8-1.5c0-2.5,0-5.1,0-7.6c0-1.5,0-3,0-4.5c0.4-0.2,0.7-0.3,1.1-0.5c0-1.3,0-2.6,0-3.8c0-0.2-0.1-0.7-0.2-0.7
	c-1.3-0.2-0.9-1.2-0.9-1.9c0-2.4,0-4.8,0-7.1c-0.5-0.2-0.8-0.4-1.2-0.6c0.1-0.6,0.1-1.1,0.1-1.6c0.5-0.1,0.8-0.3,1.1-0.4
	c0-5.8,0-11.4,0-17.1c-0.4-0.1-0.8-0.3-1.1-0.4c0-1.8,0-3.5,0-5.2c1.5-0.4,1.2-0.9,1-2.6c-0.4-0.1-0.7-0.3-1-0.4c0-1,0-2,0-2.9
	c0.4-0.1,0.7-0.2,1.1-0.4c0-4.6,0-9.1,0-13.6c-0.4-0.2-0.7-0.3-1.1-0.5c0-2.9,0-5.7,0-8.6c0-0.4,0-0.7,0-1.1
	c0.4-0.2,0.8-0.4,1.2-0.6c0-1.4,0-2.7,0-4c0.3-0.2,0.3-0.3,0-2.3c0.3-0.2,0.7-0.4,1-0.6c0-0.7,0.1-1.2,0.1-1.9
	c0.6-0.1,1.3-0.1,1.9-0.2c0.3-0.4,0.5-0.8,0.8-1.1c0.9-0.7,0.9-0.9,0-1.4c-0.2-0.1-0.3-0.3-0.5-0.4c0.1-0.2,0.2-0.4,0.3-0.5
	c1.1-0.6,1.1-0.6,0.1-1.3c-0.5-0.4-0.5-0.8,0.1-1.1c0.2-0.2,0.4-0.2,0.7-0.3c0-1.4,0-2.8,0-3.8c0.5-0.5,1-0.7,1.1-1.1
	c0.2-0.8-0.8-0.4-1.1-0.9c0-1.3,0-2.6,0-4.1c0.9,0,1.2-0.6,1.1-1.4c-0.1-1.1,0.5-2.4-1.1-2.7c0-0.6,0-1.1,0-1.7
	c0.3-0.1,0.7-0.2,1.1-0.4c0-0.8-0.2-1.7,0-2.4s0.8-1.3,1.2-1.9c0.7,0,1.2-0.1,1.5-0.1c0.6-0.7,1.1-1.1,1.6-1.6
	c0.1-0.4,0.1-0.9,0.2-1.5c1.7-0.1,0.8-1.5,1.3-2.4c0.9,0.4,0.8-0.6,1.2-1.1c0.7,0,1.3-0.1,1.6-0.1c0.6-0.6,1-1,1.6-1.6
	c0-0.4,0.1-1,0.1-1.6c0.4-0.2,0.8-0.4,1.1-0.5c0-0.7,0.1-1.2,0.1-1.8c0.4-0.2,0.8-0.3,1.2-0.5c0-1,0-2,0-3c0.4-0.2,0.7-0.3,1-0.4
	c0-0.7,0.1-1.3,0.1-1.6c0.7-0.7,1.1-1.2,1.6-1.7c0.5-0.1,1.1-0.1,1.9-0.2c0-1.4,0-2.7,0-4s0-2.7,0-4
	C189.7,32.3,189.1,32.2,188.4,32.2z M81.1,168.5c-0.2,0.1-0.4,0.7-0.4,1.1c0,1.3,0,2.7,0,4c0,0.5-0.1,1-0.1,1.6
	c-0.7,0.1-1.4,0.2-2.1,0.3c0,1.1,0,2.1,0,3.1c-0.4,0.2-0.6,0.3-1,0.5c-0.1,0.5-0.1,1.1-0.2,1.7c-0.4,0.2-1.1,0.4-1.3,1.2
	c-0.1,0.4-0.8,0.7-1.2,1.3c-0.6,0.1-1.2,0.1-1.7,0.1c-0.6,0.8-1.2,1.5-1.8,2.2c-0.1,0.2-0.6,0.1-0.9,0.1c-0.9-0.1-1.2,0.3-1.3,1.1
	c-0.7,0-1.3,0-2,0.1c-0.1,0.4-0.3,0.7-0.4,1.1c-0.9,0-1.8,0-2.8,0c-0.1-0.4-0.2-0.7-0.4-1.1c-0.6,0-1.2,0-2-0.1c0-0.6-0.1-1.3-0.1-2
	c-0.3-0.1-0.6-0.2-1.1-0.4c-0.1-0.5-0.1-1.2-0.2-1.9c-0.8-0.2-1.2-0.7-1.1-1.6c0.1-1.3,0-2.7,0-4.1c-0.4-0.1-0.7-0.2-1.1-0.4
	c0-2.9,0-5.8,0-8.7c0.4-0.4,1.3-0.1,1.1-0.9c-0.1-0.4-0.6-0.7-1.1-1.2c0-1,0-2.3-0.3-3.6c0.2-0.5,1.4-0.1,1.1-1
	c-0.1-0.3-0.6-0.6-1.1-1c0-0.3,0-0.9,0-1.5c0.3-0.1,0.7-0.2,1.1-0.4c0-1,0-2,0-3c0.4-0.2,0.7-0.4,1.1-0.6c0-1.4,0-2.7,0-4.1
	c-0.3-0.2-0.6-0.3-1-0.5c0-0.9,0-1.8,0-2.8c0.2-0.1,0.5-0.2,0.7-0.3c0.5-0.3,0.5-1,0-1.2c-0.8-0.3-0.7-0.8-0.7-1.4
	c0-2.2,0.1-4.3,0-6.5c-0.1-0.9,0.1-1.5,1.1-1.6c0-1.5,0-2.8,0-4c0.8-0.8,1.9-1.3,2.2-2.1c0.3-0.8,1.1-0.5,1.3-1.2
	c0.2-0.9,1-0.5,1.5-0.5c0.9,0,0.8-0.8,1.1-1.2c3.7,0,7.3,0,10.9,0c0.9,1.3,1.8,2.4,3.7,2.2c0,1.3,0,2.6,0,3.9c0,1.3,0,2.6,0,3.9
	c0,0.7-0.1,1.3,0.8,1.6c0.2,0,0.4,0.6,0.4,0.9c0,1.9,0,3.9,0,5.8c0,0.5-0.1,0.9-0.7,1.1c-0.6,0.2-0.6,0.9-0.2,1.1
	c1.2,0.4,0.9,1.3,0.8,2.1c-0.3,0.2-0.7,0.3-1,0.5c0,1.4,0,2.7,0,4.2c1.1,0,1.1,0.9,1.1,1.7c0,3.6,0,7.2,0,10.8
	C81.8,167.5,82,168.2,81.1,168.5z M86.6,85.9c-1,0.1-1.2,0.7-1.2,1.6c0,4,0,8.1,0,12.2c-0.4,0.2-0.7,0.4-1.1,0.6
	c0,0.6-0.1,1.2-0.1,1.8c-0.4,0.2-0.7,0.3-1.1,0.5c0,0.6-0.1,1.2-0.1,1.9c-0.3,0.1-0.6,0.3-1,0.4c0,0.6-0.1,1.2-0.1,1.8
	c-1,0.6-1.6,1.8-3,1.3c-0.2,0.4-0.3,0.7-0.5,1.1c-0.6,0.1-1.2,0.1-1.9,0.2c-0.1,0.3-0.2,0.6-0.4,1c-0.9,0-2,0-3,0
	c-0.2,0.4-0.3,0.8-0.5,1.2c-1.7,0-3.3,0-5.1,0c-0.1-0.3-0.2-0.7-0.4-1.1c-0.7,0-1.3-0.1-2-0.1c-0.1-0.7-0.2-1.4-0.3-2.2
	c-0.9,0-1.8,0.2-2.5,0s-1.3-0.7-2-1.2c0-0.5-0.1-1.1-0.1-1.7c-1.1-0.6-1.1-0.6-1.2-2.4c-0.3-0.2-0.7-0.4-1.4-0.8
	c0.7-0.3,1-0.4,1.3-0.8c0-1.1,0-2.2,0-3.3c0-0.7,0.2-1.3,1.1-1.2c0-1.9,0-3.8,0-5.7c-0.8-0.1-1.3-0.6-1-1.5c0.2-0.4,0.5-0.7,0.8-1.1
	c0.1,0,0.2,0.1,0.3,0.1c0-1.6,0-3.1,0-4.7c0-1.9,0-3.8,0-5.7c0-0.3-0.2-1-0.3-1C58.7,76.9,59,76,59,75.3c0-0.9,0-1.8,0-2.7
	c-0.5-0.3-0.9-0.5-1.4-0.8c0.3-0.3,0.4-0.4,0.6-0.5c0.2,0,0.4-0.1,0.8-0.2c0-1.2,0-2.3,0-3.4c0-0.7,0.2-1.3,1.1-1.2
	c0-0.7,0.1-1.3,0.1-2c0.4-0.1,0.7-0.3,1.1-0.4c0-0.7,0.1-1.2,0.1-1.7c0.9-0.9,1.8-1.7,2.6-2.5c0-0.1-0.1-0.1-0.1-0.2
	c0.6,0,1.2,0,1.9-0.1c0.1-0.3,0.3-0.7,0.5-1.1c0.5,0,1.1-0.1,1.7-0.1c0.9-1.2,1.8-2.2,3.6-2.1c1.9,0.1,3.9,0,5.8,0
	c0.5,0,1-0.1,1.3,0.6c0.1,0.3,0.7,0.4,1,0.4c0.7,0,1.4,0,2.2,0c0.1,0.8,0.1,1.4,0.2,2c0.7,0.6,1.4,1.2,2.2,1.9
	c0,0.5,0.1,1.1,0.1,1.7c0.3,0.2,0.6,0.3,1,0.5c0,3.6,0,7.3,0,10.8c-0.4,0.4-1,0.8-1,1c0.1,0.4,0.5,0.8,0.9,1.1
	c0.4,0.7-0.4,2.1,1.3,2.1C86.6,80.9,86.6,83.3,86.6,85.9z M116.3,80.4c-0.3,0.1-0.7,0.2-1.1,0.4c0,2.5,0,5,0,7.5
	c-1.6,0.3-1.1,1.4-1.1,2.5c0.7,0.2,1.2,0.6,1.1,1.5c-0.1,1,0,2.1,0,3.2c0,0.4-0.1,1-0.3,1c-0.9,0.2-0.8,0.9-0.8,1.5
	c0,1.5,0,2.9,0,4.4c0,0.6-0.1,1.3,0.8,1.5c0.1,0,0.3,0.5,0.3,0.8c0,4.2,0,8.3,0,12.5c-0.4,0.2-0.8,0.3-1.1,0.5c0,1.1,0,2.1,0,3.2
	c1.3,0.1,1.1,1,1,2.1c-0.7,0.2-1.1,0.5-1.1,1.5c0,3.9,0,7.9,0,11.8c0,0.3,0.1,0.5,0.1,0.7c0.4,0.2,0.7,0.4,1.3,0.7
	c-0.5,0.4-0.9,0.6-1.3,0.9c0,0.9,0,1.9,0,2.9c-0.4,0.2-0.7,0.4-1.2,0.6c0,3.3,0,6.7,0,10.1c-0.7,0.1-1.3,0.1-2.1,0.2
	c0,2.3,0,4.5,0,6.9c0.7,0.1,1.3,0.1,2.1,0.2c0,0.6,0,1.2,0,1.9c-0.6,0.1-1.3,0.2-2.1,0.3c0,1.8,0,3.6,0,5.4
	c-0.5,0.2-0.8,0.3-1.2,0.5c0,2.3,0,4.5,0,6.7c0.4,0.2,0.8,0.4,1.4,0.8c-0.6,0.3-1,0.6-1.4,0.8c0,0.3,0,0.8-0.1,1.2
	c-0.1,0.3-0.3,0.6-0.6,0.8c-0.6,0.5-0.7,0.7-0.1,1.1c0.8,0.6,0.8,0.6,0,1.3c-0.2,0.2-0.4,0.6-0.4,0.9c0,1.4,0,2.8,0,4.3
	c-1.2,0.3-1.2,1.2-1.2,2.2c0,2,0,4,0,6.2c0.3,0.1,0.7,0.2,1.1,0.4c0,1.3,0,2.6,0,4.1c-0.3,0.2-0.6,0.3-1,0.5c0,0.7-0.1,1.2-0.1,1.9
	c-0.3,0.1-0.6,0.3-1,0.4c0,0.6,0,1.2-0.1,1.9c-0.3,0.2-0.7,0.4-1.1,0.6c0,0.9,0,1.7,0,2.6c0,0.6,0.3,1.4-0.7,1.7
	c-0.1,0-0.2,0.6-0.2,1c0,1.5,0,2.9,0,4.4c-0.4,0.1-0.8,0.2-1.2,0.4c0,1,0,2,0,2.8c-0.7,0.7-1.1,1.1-1.7,1.7c-0.7,0-1.7,0-2.4,0
	c-0.5-0.5-1-1-1.6-1.6c0-0.8,0-1.8,0-2.8c-0.4-0.2-0.8-0.3-1.5-0.6c0.6-0.4,1-0.6,1.5-0.9c0-1.8,0-3.7,0-5.5c0-1.1,0-1.1-1.1-1.7
	c0-2.7,0-5.5,0-8.4c0.4-0.2,0.7-0.3,1.1-0.5c0-3.3,0-6.7,0-10.2c-0.3-0.2-0.7-0.4-1.4-0.7c0.6-0.4,1-0.6,1.5-0.9c0-1.7,0-3.4,0-5
	c0.5-0.5,0.8-0.8,1.1-1.1c-0.3-0.3-0.7-0.6-1.1-1c0-1.2,0-2.6,0-4c-0.4-0.2-0.8-0.4-1.2-0.6c-0.1-0.2-0.1-0.4-0.1-0.6c0-2,0-4,0-6
	c0-0.6,0.2-1.3-0.7-1.4c-0.1,0-0.3-0.4-0.3-0.6c0-0.6,0-1.3,0-1.9c0-0.1,0-0.4,0.1-0.4c1.5-0.5,0.9-1.8,0.9-2.7c0-2.1,0-4.2,0-6.4
	c1.1-0.1,1.2-0.8,1.2-1.8c0-1.4,0-2.8,0-4.2c-0.4-0.2-0.7-0.3-1.2-0.5c0-1.4,0-2.9,0-4.3c0-0.6,0.2-1.2-0.7-1.4
	c-0.1-0.1-0.3-0.5-0.3-0.8c0-3.6,0-7.1,0-10.7c0-0.2,0.1-0.7,0.2-0.7c1.3-0.3,0.9-1.3,0.9-2.1c0-9.9,0-19.9,0-29.8c0-1.3,0-2.6,0-4
	c0.5-0.2,0.8-0.3,0.7-0.6c0-2.9,0-5.9,0-8.8c-0.4-0.3-0.7-0.6-1.1-0.9c0.3-0.3,0.6-0.6,1.1-1c0-0.4,0-1,0-1.7
	c-0.4-0.1-0.7-0.3-1.1-0.4c0-0.6,0-1.1,0-1.7c0.3-0.2,0.7-0.4,1.1-0.6c0-2.5,0-5,0-7.3c0.3-0.7,1.4-0.4,1.1-1.3
	c-0.1-0.4-0.6-0.7-1.1-1.1c0.4-0.2,0.8-0.4,1.2-0.7c0-0.5,0.1-1.1,0.1-1.6c0.8-0.7,1.5-1.3,2.3-2c0.1-0.5,0.1-1.1,0.2-1.9
	c1,0,1.9,0,2.9,0c0.2-0.4,0.4-0.8,0.5-1.1c1.4,0,2.7,0,4.1,0c0.1,0.8,0.2,1.5,0.3,2.2c0.7,0.1,1.3,0.1,2.1,0.2
	c0.1,0.7,0.1,1.3,0.2,2.1c0.7,0,1.3,0.1,2.1,0.2c0.1,0.7,0.1,1.3,0.2,2c0.3,0.2,0.6,0.3,1.1,0.5c0,1.1,0,2.2,0,3.3
	c0,0.4,0.1,1,0.3,1c1,0.3,0.8,1,0.8,1.7c0,1.7,0,3.4,0,5.2c0.4,0.1,0.7,0.3,1.1,0.4C116.3,79.2,116.3,79.8,116.3,80.4z M123.1,160.7
	c-0.2-0.2-0.4-0.5-0.4-0.8c0-0.7,0-1.4,0-2c0.4-0.4,0.8-0.8,1.1-1.1c-0.3-0.3-0.7-0.6-1.1-1c0-0.8,0-1.7,0-2.7
	c1.1-0.2,1.1-1,1.1-1.9c0-4,0-7.9,0-11.9c1.2-0.6,1.4-1,1.2-2.1c0-0.3-0.1-0.6-0.3-0.7c-0.3-0.2-0.9-0.2-0.7-0.8
	c0.1-0.3,0.6-0.4,1.1-0.6c0-1.3,0-2.8,0-4.2c0-0.6-0.2-1.3,0.6-1.5c0.2,0,0.3-0.5,0.3-0.8c-0.2-1,0.5-2.2-0.8-2.9
	c-0.3-0.1-0.2-1.5,0.1-1.7c0.8-0.5,0.7-1.1,0.7-1.7s0-1.2,0-1.9c0.8-0.1,1.4-0.1,2-0.2c0.6-1.1,2.1-1.6,1.5-3.3
	c0.7-0.1,1.4-0.1,2.1-0.2c0.2-0.3,0.3-0.7,0.5-1.1c0.7,0,1.3-0.1,1.9-0.1c0.2-0.5,0.2-1.1,1-1.2c0.1,0,0.3-0.5,0.3-0.7
	c0.1-0.4,0.1-0.8,0.1-1.2c0.6-0.9,1.7,0.1,2.3-0.9c0.3-0.6,0.9-1.1,1.6-1.8c0.8,0,1.8,0,2.8,0c0.2-0.4,0.4-0.8,0.5-1.1
	c2.1,0,4.2,0,6.1,0c0.7,0.7,1.3,1.4,2.1,2.2c0.3,0,1,0,1.8,0.1c0,1,0,2,0,3c0,0.6-0.2,1.3,0.7,1.7c0.3,0.1,0.3,1.1,0.4,1.9
	c0.3,0.1,0.6,0.3,0.7,0.9c0,0.2,0.1,0.3,0.1,0.5c0,0.9,0,1.7,0,2.6c0,0.8-0.1,1.6,1.1,1.5c0,2.3,0,4.4,0,6.5
	c-0.4,0.2-0.7,0.3-1.1,0.5c0,2.5,0,4.9,0,7.4c-0.4,0.3-0.8,0.5-1.2,0.7c0,0.7,0,1.4,0,2.1c0,0.4,0.1,0.9-0.6,1.1
	c-0.1,0.1-0.3,0.5-0.3,0.8c0,1,0,2.1,0,3.2c0.1,0.2,0.1,0.5,0.2,0.6c1.7,1.1,0.5,2.8,0.8,4.1c-1.7,1.4-0.5,3.4-1.1,5.1
	c-0.6,0-1.3,0.1-2,0.2c-0.1,0.6-0.2,1.2-0.2,1.6c-0.7,0.6-1.1,1.3-1.7,1.6c-0.8,0.3-0.7,1.5-1.7,1.4c0.3,1.1-1,0.8-1.3,1.5
	c-0.2,0.6-0.9,1.1-1.5,1.7c-0.5,0-1.1,0.1-1.7,0.1c-0.1,0.4-0.3,0.7-0.4,1c-0.7,0.4-2.1-0.5-2.3,1.2c-1,0-2,0-2.8,0
	c-0.8,0.9-1.2,1.8-2,2.2s-1.9,0.2-2.9,0.2c-0.1,0.3-0.2,0.6-0.4,1c-0.5,0-1.1,0-1.7,0c-0.1-0.3-0.3-0.7-0.5-1.1c-1,0-2,0-2.7,0
	c-0.9-1-1.7-1.8-2.6-2.8c-0.2-1.5-0.2-1.5-1.2-2.2c0.1-0.1,0.1-0.3,0.2-0.4C124.1,161.6,124.1,161.6,123.1,160.7z M125.9,167.8
	c0,0.2-0.2,0.4-0.4,0.5c-0.1,0.1-0.3-0.1-0.6-0.3c0.3-0.2,0.5-0.4,0.6-0.5S125.9,167.7,125.9,167.8z M157,216.7
	c-0.3,0.1-0.7,0.2-1.1,0.4c0,1.3,0,2.7,0,4.2c-1.5,0.2-1.1,1.3-1.2,2.2c-0.2,1,0.2,1.7,1.4,2.1c-0.6,0.4-0.9,0.7-1.3,0.9
	c-0.2,2.8-0.2,2.8,1,3.5c0,1.2,0,2.5,0,3.8c-1.1,0.6-1.1,0.6-1.2,2.4c-0.3,0.2-0.6,0.3-0.9,0.5c-0.5,0.7,0.4,2-1,2.3
	c-0.1,1.4-1.3,0.9-2.2,1.1c-0.1,0.3-0.3,0.6-0.5,1c-0.7,0.1-1.3,0.1-2,0.2c-0.1,0.7-0.1,1.4-0.2,2c-1.2,0.4-3.8,0.4-5.5,0.1
	c0-0.6,0-1.2-0.1-2c-1.1,0-2.1,0-3.1,0c-0.7-1.7-1-1.7-2.2,0c-0.2-0.5-0.4-0.8-0.7-1.3c-1.3,0-2.7-0.1-4.1,0c-0.9,0-1.5-0.2-1.6-1.1
	c-0.6,0-1.2-0.1-1.9-0.1c-0.2-0.4-0.3-0.7-0.5-1.2c-1.3,0-2.7,0-4.2,0c0-3.8,0-7.4,0-11.2c-0.8-0.2-1.3-0.5-1.2-1.4
	c0.1-0.7,0-1.4,0-2.1c-0.4-0.2-0.7-0.3-1.1-0.5c0-3.3,0-6.5,0-9.9c-0.4-0.2-0.8-0.4-1.2-0.6c0-0.9,0-1.8,0-2.8
	c0.4-0.1,0.7-0.3,1.1-0.5c0-1.4,0-2.7,0-4c0-0.1-0.1-0.2-0.1-0.2c-0.3-0.1-0.6-0.3-1-0.4c0-0.9,0-1.8,0-2.8c1.9-0.5,0.7-2.2,1.1-3.3
	c0.9-0.9,1.8-1.8,2.8-2.8c1.4,0,3.2,0,4.6,0c0.6-0.6,1.1-1.1,1.7-1.7c0-0.7,0-1.7,0-2.5c0.5-0.5,1-1,1.7-1.6c0.3,0,0.8-0.1,1.5-0.1
	c0.5-0.4,0.2-1.6,1.4-1.2c0-0.8,0.1-1.4,0.1-1.8c0.8-0.7,1.5-1.3,2.3-2c0-0.5,0.1-1.1,0.1-1.4c1.8-1.7,3.4-3.3,5.1-5.1
	c0.4,0,1.3,0.2,1.4-0.3c0.9-1.4,2.2-0.7,3.3-0.8c1.2-0.1,2.4,0.8,3,2c0.6,0,1.3,0,2,0.1c0,0.5,0.1,0.9,0.1,1.3c0,0.3,0,0.8,0.1,0.8
	c1.2,0.4,0.7,1.5,0.9,2.4c0.3,0.2,0.7,0.3,1.1,0.5c0,0.9,0,1.8,0,2.7c0,0.8-0.1,1.6-1.2,1.7c0,2,0.1,4,0,5.9c0,0.9,0.6,1,1.2,1.3
	c0,2.5,0.1,5,0,7.5c0,0.9,0.2,1.5,1.1,1.6c0,0.7,0.1,1.3,0.1,1.9c0.4,0.1,0.7,0.2,1.1,0.4C157,210.1,157,213.4,157,216.7z
	 M156.9,66.2c-0.4,0.4-1,0.7-1.1,1.1c-0.2,0.8,0.7,0.6,1.1,1c0,2.4,0,4.9,0,7.4c-0.3,0.1-0.7,0.3-1.1,0.5c0,1.7,0,3.5,0,5.2
	c-1.6,0.9-1.6,1,0,2c-0.9,0.6-1.5,1.4-1.2,2.6c-0.8,0.2-1.4,0.6-1.2,1.6c0,0.2-0.2,0.6-0.4,0.9c-0.3,0.4-0.6,0.7-1,1.2
	c-0.4,0-1.1,0.1-1.8,0.1c-0.1,0.6-0.1,1.3-0.2,2c-0.3,0.2-0.7,0.3-1.1,0.5c0,1,0,2,0,3c-1.6,0.5-1.9,2.3-3.4,2.8
	c-0.5,1.4-2.2,1.8-2.7,3.3c-1,0-2,0-3,0c-0.2,0.5-0.3,0.8-0.4,1.1c-0.2,0-0.3,0.1-0.4,0.1c-2.7,0-5.5,0-8.1,0
	c-0.7-0.8-1.3-1.5-2.1-2.4c-0.8,0-1.8,0-2.9,0c0-0.7-0.1-1.2-0.1-1.7c0-0.7,0.3-1.5-0.7-1.9c-0.2-0.1-0.2-0.8-0.2-1.2
	c0-2.2,0-4.3,0-6.5c-0.4-0.2-0.8-0.4-1.4-0.7c0.5-0.4,0.9-0.6,1.3-0.9c0.2-1,0.3-2.1-1.5-2.5c0.7-0.4,1.1-0.7,1.5-0.9
	c0-0.1,0.1-0.2,0.1-0.4c0-1.2,0-2.4,0-3.6c0-0.6-0.2-1.3,0.7-1.6c0.5-0.2,0.4-0.8-0.1-1.2c-0.7-0.5-0.9-1.7-0.3-2
	c0.8-0.5,0.7-1.1,0.7-1.8c0-2.2,0-4.3,0-6.5c0-0.3,0.1-0.7,0.1-1.1c0.7-0.1,1.3-0.1,2.1-0.2c0-1.1,0-2.1,0-2.8
	c1.4-1.4,2.6-2.7,4.1-4.1c0.3,0,0.9-0.1,1.6-0.1c0.1-0.3,0.3-0.7,0.4-1c0.8-0.3,1.9,0.2,2.5-1c0.2-0.3,1.1-0.1,1.8-0.2
	c0.1-0.7,0.2-1.4,0.3-2.1c0.6,0,1.2-0.1,1.8-0.1c0.6-0.7,1.3-1.4,2.1-2.3c0.2,0,0.8-0.1,1.3,0c1,0.1,1.8,0,2.1-1.6
	c0.4,0.8,0.7,1.2,0.9,1.6c0.5,0,1.1,0.1,1.8,0.1c0.1,0.4,0.3,0.8,0.5,1.2c1.1,0,2.1,0,3.1,0c0.3,0,0.9,0,0.9,0.1
	c0.3,1.4,1.6,0.7,2.5,1.1c0,1.3,0,2.6,0,4c0.4,0.2,0.7,0.3,1.2,0.5C157,61.4,157,63.8,156.9,66.2z"/>
</svg>
