<?xml version="1.0" encoding="iso-8859-1"?>
<!-- Generator: Adobe Illustrator 24.3.0, SVG Export Plug-In . SVG Version: 6.00 Build 0)  -->
<svg version="1.1" id="&#x30EC;&#x30A4;&#x30E4;&#x30FC;_1"
	 xmlns="http://www.w3.org/2000/svg" xmlns:xlink="http://www.w3.org/1999/xlink" x="0px" y="0px" viewBox="0 0 300 300"
	 style="enable-background:new 0 0 300 300;" xml:space="preserve">
<g id="tan">
	<path d="M124.19,221.369c-6.648,1.955-38.715,10.167-45.754,11.732v-77.04h41.452c1.956,0,4.693-0.391,4.693-3.128
		c0-1.564-1.564-3.129-2.737-4.3l-10.95-9.385c-2.346-1.564-3.52-2.738-5.475-2.738c-1.564,0-2.346,0.783-4.3,3.52l-7.43,9.385
		H78.436v-36.37h32.458c2.346,0,4.3-0.391,4.3-3.129c0-0.782-0.392-1.955-2.738-4.3l-10.165-8.996
		c-1.956-1.955-3.52-2.737-5.084-2.737s-2.347,0.782-4.693,3.519l-7.821,9H52.626c-3.129,0-10.559-0.391-14.861-0.391
		c12.123-14.47,27.766-35.2,39.5-59.442C83.911,51.648,88.6,56.732,93.687,67.29c5.475,10.559,7.43,15.252,15.252,15.252
		c6.648,0,11.34-4.3,11.34-11.341c0-16.424-24.637-24.246-40.67-28.547c6.648-2.738,9.385-3.911,9.385-7.431
		c0-2.737-1.564-3.519-3.519-4.692L63.184,19.19C62.4,27.4,61.62,33.268,54.581,49.3c-17.6,39.106-35.978,68.435-43.408,79.385
		l1.955,1.564c7.361-6.162,14.287-12.826,20.727-19.944l1.564,3.911c4.653-0.778,9.363-1.17,14.081-1.171h11.338v36.368H54.19
		c-8.6,0-25.81-0.391-43.408-1.955l5.475,11.342c10.981-1.867,22.102-2.784,33.24-2.738h10.95v81.732
		c-22.682,5.084-23.464,5.084-50.447,5.084L26.425,268.3c1.173,1.955,2.346,3.911,4.692,3.911c3.52,0,4.3-2.738,5.475-8.213
		c8.6-3.91,14.861-6.648,37.542-16.424c10.168-4.3,34.022-14.469,50.056-23.464V221.369z M89.39,223.324
		c3.911-4.693,21.509-28.547,25.811-34.022c5.865-1.956,7.43-2.347,7.43-5.475c0-2.347-1.956-3.911-3.911-4.693L95.251,167.4
		c0.326,2.988,0.456,5.995,0.391,9c0,3.91-0.391,21.117-8.6,45.363L89.39,223.324z M39.33,224.888
		c7.039,0,10.949-6.257,10.949-11.732c0-9.385-12.514-27.374-28.547-36.759l-1.564,1.564c4.692,8.994,5.083,11.341,7.821,30.5
		C29.553,220.2,30.335,224.888,39.33,224.888z M287.263,141.988l-14.079-12.514c-1.955-1.564-3.519-3.128-5.083-3.128
		c-1.956,0-4.3,3.519-4.693,4.3l-8.6,12.123h-5.478c-0.391-19.162-0.391-61-0.391-91.9c8.6-5.475,9.385-5.866,9.385-8.995
		c0-2.737-2.346-5.083-6.648-8.6l-5.866-5.084c-2.346-1.955-4.693-3.519-7.43-3.519c-1.564,0-3.911,0.782-7.039,5.084l-3.129,4.3
		h-60.223l-20.335-12.128c0.782,9,2.346,23.855,2.346,77.431c0,24.245-0.391,35.195-0.391,43.407
		c-4.693-0.391-10.95-0.391-28.156-1.955l5.474,11.341c10.559-1.955,14.861-2.738,21.9-2.738
		c-1.955,41.844-6.257,80.559-59.833,129.051l1.565,1.955c70-35.587,76.648-89.944,77.821-131.006h61.788v91.509
		c0,6.648-0.391,10.95-8.213,10.95c-3.519,0-4.3,0-31.676-3.52l-0.391,2.346c12.514,6.257,22.682,15.643,26.2,30.112
		c30.894-5.475,34.414-16.816,34.414-34.8c0-13.688-1.173-81.341-1.173-96.593h35.977c1.565,0,4.693-0.391,4.693-3.128
		c0.001-0.789-0.39-1.959-2.736-4.306V141.988z M230.168,142.77H168.38c0.391-19.553,0.391-27.765,0.391-102.067h61.4
		L230.168,142.77z M208.659,124.782c5.475,0,11.341-3.911,11.341-13.3c0-8.212-1.955-21.508-42.626-49.273l-1.564,1.564
		c7.905,11.562,14.096,24.207,18.38,37.542c6.648,21.115,7.821,23.462,14.469,23.462V124.782z"/>
</g>
</svg>
