<?xml version="1.0" encoding="iso-8859-1"?>
<!-- Generator: Adobe Illustrator 24.3.0, SVG Export Plug-In . SVG Version: 6.00 Build 0)  -->
<svg version="1.1" id="&#x30EC;&#x30A4;&#x30E4;&#x30FC;_1"
	 xmlns="http://www.w3.org/2000/svg" xmlns:xlink="http://www.w3.org/1999/xlink" x="0px" y="0px" viewBox="0 0 300 300"
	 style="enable-background:new 0 0 300 300;" xml:space="preserve">
<g id="tokanmuri">
	<path d="M70.049,161.25c-4.8,65.1-28.2,99-51.6,122.1c-0.411,0.375-0.944,0.588-1.5,0.6c-1.8,0-4.5-1.8-4.5-3.9
		c-0.045-0.423,0.061-0.848,0.3-1.2c21-28.2,39.3-67.2,39.6-138c0-24.9-0.6-55.2-4.2-81.9c6.9,1.8,17.1,6.6,24.3,10.8h161.7
		c0.3-0.6,8.4-10.5,10.8-10.5c1.8,0,19.2,8.7,19.2,15.6c0,3-3.3,6-9.3,7.2v15c0,1.5,1.2,25.2,1.5,27.3v0.6c0,4.8-6,7.2-11.7,7.2
		c-5.1,0-8.1-1.8-8.1-6l0.3-6.9h-165.9v19.5c0,4.5,0,9-0.3,13.5L70.049,161.25z M112.949,43.95c-13.2,0-71.7,0.6-86.1,2.1
		c-3-2.7-5.4-9-5.4-13.5c14.1,1.5,75.6,2.7,99,2.7h122.4c2.1-3.3,14.1-19.2,17.7-19.2c0.33-0.041,0.661,0.069,0.9,0.3
		c8.1,4.2,26.1,17.7,26.1,22.5c0,2.4-1.8,5.1-6,5.1L112.949,43.95z M237.449,78.15h-167.4c0.3,8.7,0.3,21,0.6,32.4h166.5
		c0.3-4.5,0.3-10.5,0.3-12.3V78.15z"/>
</g>
</svg>
