<?xml version="1.0" encoding="iso-8859-1"?>
<!-- Generator: Adobe Illustrator 24.3.0, SVG Export Plug-In . SVG Version: 6.00 Build 0)  -->
<svg version="1.1" id="&#x30EC;&#x30A4;&#x30E4;&#x30FC;_1"
	 xmlns="http://www.w3.org/2000/svg" xmlns:xlink="http://www.w3.org/1999/xlink" x="0px" y="0px" viewBox="0 0 150 300"
	 style="enable-background:new 0 0 150 300;" xml:space="preserve">
<g id="xbunnoa">
	<path d="M122.917,21.907l-18.09,62.9l-2.041,8.443c-0.168,0.668-0.262,1.352-0.279,2.041c-0.015,0.95,0.314,1.874,0.928,2.6
		c0.462,0.543,1.143,0.849,1.856,0.835c1.178-0.163,2.278-0.68,3.154-1.484c2.412-1.793,5.628-5.504,9.648-11.133l3.155,2.227
		c-4.267,6.433-8.658,11.333-13.174,14.7c-4.516,3.367-8.691,5.052-12.525,5.056c-2.66,0-4.655-0.665-5.984-1.994
		c-1.423-1.583-2.143-3.676-1.994-5.8c0.166-4.06,0.852-8.082,2.041-11.967l1.948-6.958C83.457,91.95,76.004,99.342,69.2,103.547
		c-4.27,2.839-9.254,4.415-14.38,4.546c-4.544-0.012-8.84-2.074-11.69-5.613c-3.279-3.741-4.918-8.889-4.917-15.446
		c0-9.834,2.953-20.209,8.86-31.126c5.406-10.335,13.102-19.299,22.5-26.208c7.111-5.196,13.821-7.794,20.132-7.793
		c3.387-0.123,6.713,0.925,9.417,2.968c2.503,1.981,4.403,5.259,5.7,9.834l3.34-10.576L122.917,21.907z M89.89,26.731
		c-3.959,0-8.164,1.855-12.617,5.566c-6.309,5.258-11.922,13.051-16.839,23.379s-7.376,19.667-7.375,28.018
		c0,4.207,1.051,7.531,3.154,9.973c1.73,2.259,4.393,3.607,7.237,3.665c6.74,0,14.069-4.979,21.987-14.937
		C96.012,69.161,101.3,55.585,101.3,41.667c0-5.255-1.02-9.059-3.061-11.411C96.133,27.877,93.063,26.581,89.89,26.731z
		 M66.7,191.907c2.768,2.846,5.083,6.1,6.865,9.648c1.113,2.227,2.937,8.072,5.474,17.534l8.164-12.246
		c2.301-3.117,4.946-5.964,7.885-8.488c2.423-2.247,5.177-4.109,8.165-5.521c1.561-0.632,3.233-0.948,4.917-0.927
		c2.312-0.119,4.583,0.643,6.355,2.134c1.519,1.296,2.385,3.199,2.365,5.195c0,2.351-0.464,3.959-1.391,4.824
		c-1.613,1.5-3.736,2.329-5.938,2.319c-1.43-0.026-2.845-0.308-4.175-0.835c-1.876-0.745-3.84-1.244-5.844-1.484
		c-1.485,0-3.248,0.867-5.289,2.6c-3.835,3.217-8.411,9.433-13.73,18.647l7.607,31.914c1.174,4.887,2.164,7.809,2.969,8.767
		c0.549,0.815,1.434,1.343,2.412,1.438c1.299,0,2.814-0.711,4.546-2.133c3.607-3.105,6.571-6.887,8.721-11.133l3.247,1.67
		c-3.66,7.008-8.711,13.195-14.844,18.183c-3.4,2.721-6.276,4.082-8.628,4.082c-3.467,0-6.219-1.948-8.257-5.844
		c-1.298-2.413-3.988-12.804-8.071-31.172c-9.648,16.761-17.379,27.554-23.193,32.378c-3.774,3.091-7.423,4.637-10.947,4.638
		c-2.515-0.016-4.932-0.976-6.773-2.69c-1.506-1.412-2.32-3.412-2.226-5.474c-0.052-1.909,0.687-3.754,2.041-5.1
		c1.317-1.342,3.129-2.081,5.009-2.041c1.979,0,4.082,0.989,6.309,2.968c1.607,1.424,2.844,2.135,3.711,2.134
		c1.095-0.167,2.105-0.689,2.876-1.484c2.906-2.35,6.864-7.422,11.875-15.215s8.289-13.422,9.834-16.885
		c-3.836-15.029-5.908-22.976-6.216-23.843c-1.424-4.019-3.279-6.864-5.566-8.535s-5.658-2.504-10.113-2.5
		c-1.424,0-3.063,0.062-4.917,0.186v-3.34L66.7,191.907z M30,146v8h90v-8H30z"/>
</g>
</svg>
